<?xml version="1.0" encoding="UTF-8"?>
<svg id="UTILITY" xmlns="http://www.w3.org/2000/svg" viewBox="0 0 35 35">
  <defs>
    <style>
      .cls-1 {
        fill: #f2f2f2;
        fill-rule: evenodd;
      }
    </style>
  </defs>
  <path class="cls-1" d="m12.35,6.35h10.29c3.31,0,6.03,2.72,6.03,6.03v10.24c0,3.31-2.72,6.03-6.03,6.03h-10.29c-3.31,0-6.03-2.72-6.03-6.03v-10.24c0-3.31,2.72-6.03,6.03-6.03h0Zm11.15,3.89h0c.69,0,1.28.59,1.28,1.28h0c0,.69-.59,1.28-1.28,1.28h0c-.75,0-1.28-.59-1.28-1.28h0c0-.69.53-1.28,1.28-1.28h0Zm-6.03,1.17h.05c3.31,0,6.08,2.77,6.08,6.08h0c0,3.36-2.77,6.08-6.08,6.08h-.05c-3.31,0-6.03-2.72-6.03-6.08h0c0-3.31,2.72-6.08,6.03-6.08h0Zm0,2.08h.05c2.19,0,4,1.81,4,4h0c0,2.24-1.81,4.05-4,4.05h-.05c-2.19,0-4-1.81-4-4.05h0c0-2.19,1.81-4,4-4h0Zm-5.07-5.23h10.19c2.29,0,4.16,1.87,4.16,4.16v10.13c0,2.29-1.87,4.16-4.16,4.16h-10.19c-2.29,0-4.16-1.87-4.16-4.16v-10.13c0-2.29,1.87-4.16,4.16-4.16h0Z"/>
</svg>