<?xml version="1.0" encoding="UTF-8"?>
<svg id="HOMEPAGE" xmlns="http://www.w3.org/2000/svg" viewBox="0 0 217.05 19.92">
  <defs>
    <style>
      .cls-1 {
        fill: #2b4c99;
      }
    </style>
  </defs>
  <path class="cls-1" d="m0,1.36C0,.72.53.19,1.17.19h5.56c5.92,0,9.94,4.31,9.94,9.72s-4.03,9.72-9.97,9.72H1.17c-.64,0-1.17-.53-1.17-1.19V1.36Zm6.72,16.08c4.56,0,7.53-3.33,7.53-7.53s-2.97-7.53-7.53-7.53H2.36v15.06h4.36Z"/>
  <path class="cls-1" d="m19.81,1.36c0-.64.53-1.17,1.17-1.17h7.89c.61,0,1.08.47,1.08,1.08s-.47,1.11-1.08,1.11h-6.69v6.42h6.69c.61,0,1.08.5,1.08,1.11s-.47,1.08-1.08,1.08h-6.69v6.44h6.69c.61,0,1.08.47,1.08,1.08s-.47,1.11-1.08,1.11h-7.89c-.64,0-1.17-.53-1.17-1.19V1.36Z"/>
  <path class="cls-1" d="m33.08,1.22c0-.69.53-1.25,1.22-1.25.39,0,.75.19.94.44l10.11,12.06V1.17c0-.67.53-1.19,1.19-1.19s1.17.53,1.17,1.19v17.5c0,.64-.53,1.19-1.17,1.19s-1.19-.56-1.19-1.19v-2.53l-9.92-11.83v14.36c0,.64-.53,1.19-1.19,1.19s-1.17-.56-1.17-1.19V1.22Z"/>
  <path class="cls-1" d="m55.67,2.39h-4.33c-.61,0-1.11-.5-1.11-1.11s.5-1.08,1.11-1.08h11.03c.61,0,1.08.47,1.08,1.08s-.47,1.11-1.08,1.11h-4.33v16.28c0,.64-.53,1.19-1.19,1.19s-1.17-.56-1.17-1.19V2.39Z"/>
  <path class="cls-1" d="m65.75,1.17c0-.67.53-1.19,1.17-1.19s1.19.53,1.19,1.19v17.5c0,.64-.53,1.19-1.19,1.19s-1.17-.56-1.17-1.19V1.17Z"/>
  <path class="cls-1" d="m71.08,15.31c0-.64.5-1.14,1.14-1.14s1,.42,1.11.89c.22,1.11,1.42,2.64,3.64,2.64s3.58-1.61,3.58-3.31c0-2.28-1.89-3.08-3.36-3.5l-1.39-.39c-1.75-.53-4.53-1.69-4.53-5.33,0-3.03,2.42-5.25,5.72-5.25s5.64,2.31,5.64,4.47c0,.64-.5,1.14-1.14,1.14s-1.03-.44-1.11-.94c-.22-1.08-1.28-2.47-3.39-2.47s-3.36,1.53-3.36,3.19c0,2.22,2.11,2.94,3.31,3.28l1.25.36c1.81.53,4.72,1.61,4.72,5.58,0,2.94-2.56,5.39-5.94,5.39s-5.89-2.47-5.89-4.61Z"/>
  <path class="cls-1" d="m88.97,2.39h-4.33c-.61,0-1.11-.5-1.11-1.11s.5-1.08,1.11-1.08h11.03c.61,0,1.08.47,1.08,1.08s-.47,1.11-1.08,1.11h-4.33v16.28c0,.64-.53,1.19-1.19,1.19s-1.17-.56-1.17-1.19V2.39Z"/>
  <path class="cls-1" d="m99.05,1.17c0-.67.53-1.19,1.17-1.19s1.19.53,1.19,1.19v17.5c0,.64-.53,1.19-1.19,1.19s-1.17-.56-1.17-1.19V1.17Z"/>
  <path class="cls-1" d="m112.11,1.36c0-.64.53-1.17,1.17-1.17h5.56c5.92,0,9.94,4.31,9.94,9.72s-4.03,9.72-9.97,9.72h-5.53c-.64,0-1.17-.53-1.17-1.19V1.36Zm6.72,16.08c4.56,0,7.53-3.33,7.53-7.53s-2.97-7.53-7.53-7.53h-4.36v15.06h4.36Z"/>
  <path class="cls-1" d="m143.14.44c.31-.33.64-.47.97-.47.64,0,1.17.53,1.17,1.19v17.5c0,.64-.53,1.19-1.17,1.19s-1.19-.56-1.19-1.19v-3.86h-5c-.61,0-1.08-.47-1.08-1.08s.47-1.11,1.08-1.11h5V4.14l-12.81,15.31c-.19.22-.56.42-.86.42-.61,0-1.11-.5-1.11-1.11,0-.25.06-.47.28-.72L143.14.44Z"/>
  <path class="cls-1" d="m149.05,1.17c0-.67.53-1.19,1.17-1.19s1.19.53,1.19,1.19v16.28h6.69c.61,0,1.08.47,1.08,1.08s-.47,1.11-1.08,1.11h-7.89c-.64,0-1.17-.53-1.17-1.19V1.17Z"/>
  <path class="cls-1" d="m170.75,2.31h-2.78c-.58,0-1.06-.47-1.06-1.06s.47-1.06,1.06-1.06h3.94c.64,0,1.14.5,1.14,1.14v17.36c0,.64-.5,1.17-1.14,1.17s-1.17-.53-1.17-1.17V2.31Z"/>
  <path class="cls-1" d="m182.41,11.42c-.47,0-.81-.06-1.06-.08-2.81-.44-4.97-2.83-4.97-5.67,0-3.14,2.67-5.75,5.97-5.75s5.97,2.61,5.97,5.83c0,1.5-.56,2.69-1.44,3.78l-8.33,9.92c-.22.25-.53.42-.86.42-.58,0-1.11-.47-1.11-1.11,0-.25.08-.5.28-.72l5.56-6.61Zm3.56-5.67c0-2-1.61-3.64-3.61-3.64s-3.61,1.64-3.61,3.64,1.61,3.61,3.61,3.61,3.61-1.58,3.61-3.61Z"/>
  <path class="cls-1" d="m196.77,11.42c-.47,0-.81-.06-1.06-.08-2.81-.44-4.97-2.83-4.97-5.67,0-3.14,2.67-5.75,5.97-5.75s5.97,2.61,5.97,5.83c0,1.5-.56,2.69-1.44,3.78l-8.33,9.92c-.22.25-.53.42-.86.42-.58,0-1.11-.47-1.11-1.11,0-.25.08-.5.28-.72l5.56-6.61Zm3.56-5.67c0-2-1.61-3.64-3.61-3.64s-3.61,1.64-3.61,3.64,1.61,3.61,3.61,3.61,3.61-1.58,3.61-3.61Z"/>
  <path class="cls-1" d="m211.13,11.42c-.47,0-.81-.06-1.06-.08-2.81-.44-4.97-2.83-4.97-5.67,0-3.14,2.67-5.75,5.97-5.75s5.97,2.61,5.97,5.83c0,1.5-.56,2.69-1.44,3.78l-8.33,9.92c-.22.25-.53.42-.86.42-.58,0-1.11-.47-1.11-1.11,0-.25.08-.5.28-.72l5.56-6.61Zm3.56-5.67c0-2-1.61-3.64-3.61-3.64s-3.61,1.64-3.61,3.64,1.61,3.61,3.61,3.61,3.61-1.58,3.61-3.61Z"/>
</svg>