<svg xmlns:xlink="http://www.w3.org/1999/xlink" xmlns="http://www.w3.org/2000/svg" viewBox="0 0 180 151" height="151" width="180" version="1.1">
<path d="M 0.00 0.00 L 180.00 0.00 L 180.00 151.00 L 91.31 151.00 C 96.85 149.80 102.36 149.46 107.75 147.83 C 117.77 144.87 127.14 141.18 134.73 133.75 C 142.52 126.32 148.03 115.95 152.13 106.11 C 154.84 99.69 159.11 94.26 161.90 87.91 C 165.58 79.68 167.42 71.21 169.54 62.52 C 171.06 56.07 173.49 49.98 175.54 43.70 C 176.67 40.67 177.53 37.61 177.87 34.38 C 179.22 26.07 180.41 17.78 177.38 9.65 C 175.93 5.87 173.18 3.38 169.55 1.70 C 166.34 1.83 163.14 2.34 159.98 2.90 C 157.77 3.35 155.73 3.84 154.14 5.54 C 148.80 10.45 147.35 16.88 146.65 23.82 C 145.83 27.81 144.92 31.77 144.40 35.81 C 139.31 50.39 133.46 64.70 128.45 79.31 C 127.48 82.20 126.91 85.17 126.46 88.17 L 126.32 88.88 C 124.67 93.96 123.37 99.24 121.24 104.14 C 118.81 109.54 114.97 113.75 110.58 117.62 C 106.91 120.85 102.19 122.81 97.69 124.62 C 93.92 124.70 90.02 125.10 86.27 124.69 C 76.13 123.23 66.93 117.16 61.57 108.42 C 57.66 102.24 56.60 95.85 53.99 89.14 C 52.55 80.16 48.98 72.56 46.02 63.96 C 43.11 55.47 39.63 47.20 36.54 38.78 C 35.72 33.73 34.23 28.84 33.29 23.82 C 32.41 15.64 30.79 7.73 22.79 3.66 C 19.29 2.89 15.75 2.31 12.22 1.73 C 7.65 1.55 4.55 4.99 2.79 8.84 C 1.21 12.71 0.69 17.09 0.00 21.20 L 0.00 0.00 Z" fill="#ffffff"/>
<path d="M 12.22 1.73 C 8.94 4.20 5.72 6.07 4.15 10.09 C 0.77 18.25 2.43 26.84 3.58 35.28 C 4.42 41.63 6.87 47.35 9.58 53.09 C 10.16 50.52 10.68 47.94 11.26 45.37 C 8.98 43.58 5.87 41.79 5.31 38.73 C 4.41 34.01 4.94 28.92 6.22 24.32 C 7.06 21.66 8.34 18.97 11.30 18.25 C 15.32 17.26 19.82 16.87 23.96 17.03 C 25.92 17.05 27.33 18.00 28.37 19.61 C 31.75 26.01 31.10 32.69 32.39 39.10 C 36.30 46.42 40.35 52.96 38.99 61.66 C 41.31 63.89 43.73 65.92 45.03 68.92 C 46.57 72.58 47.79 76.63 48.59 80.52 C 49.20 83.48 48.31 86.15 47.63 89.01 C 49.57 90.99 52.42 93.29 53.06 96.08 C 53.65 99.14 53.04 102.52 52.68 105.60 C 54.63 107.04 57.06 108.48 58.39 110.55 C 59.50 112.62 60.06 115.03 60.74 117.26 C 65.14 118.73 66.85 120.05 69.38 123.92 C 73.78 124.13 75.50 124.64 78.57 127.83 C 80.61 127.39 82.74 126.85 84.82 126.87 C 87.16 128.05 89.18 130.12 91.16 131.83 C 91.07 135.19 89.25 141.16 92.34 143.61 C 95.69 144.32 99.54 143.55 102.87 142.93 C 102.08 139.46 101.37 135.91 100.27 132.52 C 99.77 131.07 99.22 129.73 97.83 128.90 C 96.51 128.20 95.17 127.57 93.82 126.93 C 96.68 126.98 99.84 127.74 102.41 126.31 C 105.11 124.94 107.49 124.17 110.49 123.79 C 111.66 122.29 112.78 120.56 114.26 119.37 C 115.80 118.43 117.61 117.87 119.30 117.25 C 120.31 113.49 120.86 110.16 124.31 107.83 C 123.53 109.14 122.83 110.55 122.37 112.02 C 121.79 114.27 121.05 116.28 122.52 118.39 C 124.48 121.13 128.40 124.16 131.54 125.38 C 137.65 127.68 143.99 118.81 140.44 113.57 C 138.38 109.56 131.79 108.58 128.03 106.59 L 127.43 105.92 C 126.58 102.99 125.58 99.41 126.34 96.40 C 127.42 93.50 130.14 91.06 132.24 88.82 C 131.47 85.60 130.58 82.70 131.40 79.36 C 132.25 75.84 133.46 72.21 134.94 68.90 C 136.31 65.84 138.67 63.92 141.06 61.69 C 139.52 53.95 142.84 47.13 146.76 40.69 C 148.47 38.22 147.95 35.13 148.34 32.18 C 148.84 27.97 149.62 23.39 151.65 19.63 C 153.80 15.89 158.65 17.16 162.19 17.26 C 165.61 17.80 171.08 17.60 172.71 21.35 C 175.10 26.34 175.57 32.47 174.87 37.90 C 174.39 41.75 171.34 43.27 168.58 45.43 C 169.23 47.91 169.82 50.41 170.47 52.89 C 171.86 49.81 172.71 45.67 175.54 43.70 C 173.49 49.98 171.06 56.07 169.54 62.52 C 167.42 71.21 165.58 79.68 161.90 87.91 C 159.11 94.26 154.84 99.69 152.13 106.11 C 148.03 115.95 142.52 126.32 134.73 133.75 C 127.14 141.18 117.77 144.87 107.75 147.83 C 102.36 149.46 96.85 149.80 91.31 151.00 L 89.27 151.00 C 83.84 149.80 78.33 149.62 73.03 148.04 C 64.62 145.50 56.64 142.84 49.56 137.44 C 39.33 129.82 32.74 117.69 27.86 106.15 C 24.86 98.97 19.95 93.08 17.22 85.79 C 15.63 81.55 14.01 77.28 12.87 72.90 C 12.86 71.55 12.87 70.20 12.92 68.85 C 15.71 74.60 16.55 80.90 19.36 86.63 C 22.02 92.11 25.10 97.43 28.78 102.29 C 28.72 100.13 29.04 97.67 28.37 95.59 C 26.41 93.19 23.95 91.43 22.31 88.72 C 20.38 85.52 18.41 82.12 17.42 78.50 C 16.65 75.89 18.84 72.77 19.99 70.49 C 17.41 68.71 15.15 66.64 12.97 64.39 C 12.60 65.74 12.24 67.10 11.92 68.46 C 10.22 60.75 8.01 53.31 5.16 45.94 C 2.26 38.34 1.33 30.49 0.00 22.52 L 0.00 21.20 C 0.69 17.09 1.21 12.71 2.79 8.84 C 4.55 4.99 7.65 1.55 12.22 1.73 Z" fill="#adadad"/>
<path d="M 169.55 1.70 C 172.32 5.41 175.74 7.54 176.86 12.28 C 179.31 19.92 176.75 26.68 177.87 34.38 C 177.53 37.61 176.67 40.67 175.54 43.70 C 172.71 45.67 171.86 49.81 170.47 52.89 C 169.82 50.41 169.23 47.91 168.58 45.43 C 171.34 43.27 174.39 41.75 174.87 37.90 C 175.57 32.47 175.10 26.34 172.71 21.35 C 171.08 17.60 165.61 17.80 162.19 17.26 C 158.65 17.16 153.80 15.89 151.65 19.63 C 149.62 23.39 148.84 27.97 148.34 32.18 C 147.95 35.13 148.47 38.22 146.76 40.69 C 142.84 47.13 139.52 53.95 141.06 61.69 C 138.67 63.92 136.31 65.84 134.94 68.90 C 133.46 72.21 132.25 75.84 131.40 79.36 C 130.58 82.70 131.47 85.60 132.24 88.82 C 130.14 91.06 127.42 93.50 126.34 96.40 C 125.58 99.41 126.58 102.99 127.43 105.92 C 126.38 106.52 125.29 107.12 124.31 107.83 C 120.86 110.16 120.31 113.49 119.30 117.25 C 117.61 117.87 115.80 118.43 114.26 119.37 C 112.78 120.56 111.66 122.29 110.49 123.79 C 107.49 124.17 105.11 124.94 102.41 126.31 C 99.84 127.74 96.68 126.98 93.82 126.93 C 95.17 127.57 96.51 128.20 97.83 128.90 C 95.28 129.22 93.24 130.43 91.16 131.83 C 89.18 130.12 87.16 128.05 84.82 126.87 C 82.74 126.85 80.61 127.39 78.57 127.83 C 75.50 124.64 73.78 124.13 69.38 123.92 C 66.85 120.05 65.14 118.73 60.74 117.26 C 60.06 115.03 59.50 112.62 58.39 110.55 C 57.06 108.48 54.63 107.04 52.68 105.60 C 53.04 102.52 53.65 99.14 53.06 96.08 C 52.42 93.29 49.57 90.99 47.63 89.01 C 48.31 86.15 49.20 83.48 48.59 80.52 C 47.79 76.63 46.57 72.58 45.03 68.92 C 43.73 65.92 41.31 63.89 38.99 61.66 C 40.35 52.96 36.30 46.42 32.39 39.10 C 31.10 32.69 31.75 26.01 28.37 19.61 C 27.33 18.00 25.92 17.05 23.96 17.03 C 19.82 16.87 15.32 17.26 11.30 18.25 C 8.34 18.97 7.06 21.66 6.22 24.32 C 4.94 28.92 4.41 34.01 5.31 38.73 C 5.87 41.79 8.98 43.58 11.26 45.37 C 10.68 47.94 10.16 50.52 9.58 53.09 C 6.87 47.35 4.42 41.63 3.58 35.28 C 2.43 26.84 0.77 18.25 4.15 10.09 C 5.72 6.07 8.94 4.20 12.22 1.73 C 15.75 2.31 19.29 2.89 22.79 3.66 C 25.31 6.54 28.01 9.04 29.35 12.73 C 31.11 17.62 31.75 23.00 32.78 28.09 C 32.97 26.67 33.15 25.25 33.29 23.82 C 34.23 28.84 35.72 33.73 36.54 38.78 C 36.92 45.25 39.84 50.36 41.73 56.43 C 43.65 62.34 46.26 67.95 48.46 73.74 C 50.50 78.92 51.13 84.26 53.99 89.14 C 56.60 95.85 57.66 102.24 61.57 108.42 C 66.93 117.16 76.13 123.23 86.27 124.69 C 90.02 125.10 93.92 124.70 97.69 124.62 C 102.86 125.07 106.38 122.10 110.53 119.48 C 120.15 112.40 125.56 100.64 126.32 88.88 L 126.46 88.17 C 128.99 81.99 130.77 75.55 133.27 69.36 C 136.44 61.46 139.27 53.43 142.29 45.46 C 143.48 42.35 144.06 39.12 144.40 35.81 C 144.92 31.77 145.83 27.81 146.65 23.82 C 146.82 25.24 147.04 26.65 147.26 28.06 C 148.44 20.14 150.14 12.58 154.14 5.54 C 155.73 3.84 157.77 3.35 159.98 2.90 C 163.14 2.34 166.34 1.83 169.55 1.70 Z" fill="#cdcdcd"/>
<path d="M 169.55 1.70 C 173.18 3.38 175.93 5.87 177.38 9.65 C 180.41 17.78 179.22 26.07 177.87 34.38 C 176.75 26.68 179.31 19.92 176.86 12.28 C 175.74 7.54 172.32 5.41 169.55 1.70 Z" fill="#8f8f8f"/>
<path d="M 22.79 3.66 C 30.79 7.73 32.41 15.64 33.29 23.82 C 33.15 25.25 32.97 26.67 32.78 28.09 C 31.75 23.00 31.11 17.62 29.35 12.73 C 28.01 9.04 25.31 6.54 22.79 3.66 Z" fill="#8f8f8f"/>
<path d="M 154.14 5.54 C 150.14 12.58 148.44 20.14 147.26 28.06 C 147.04 26.65 146.82 25.24 146.65 23.82 C 147.35 16.88 148.80 10.45 154.14 5.54 Z" fill="#8f8f8f"/>
<path d="M 22.90 19.26 C 25.28 19.10 26.88 22.10 28.33 23.63 C 24.49 21.69 21.87 20.51 17.49 21.85 C 19.83 22.51 22.83 22.67 24.83 24.11 C 26.93 25.89 25.03 28.28 24.52 30.38 C 25.87 30.12 27.22 29.86 28.57 29.60 C 29.06 30.60 29.58 31.58 30.13 32.55 C 29.29 32.17 28.46 31.79 27.62 31.42 C 26.62 34.26 25.09 36.59 23.24 38.94 C 26.13 38.10 28.33 36.43 30.62 34.54 C 29.33 36.40 28.46 38.22 26.18 39.03 C 22.49 40.52 18.60 41.86 14.69 42.63 C 11.15 43.33 7.39 41.15 6.74 37.51 C 6.51 34.41 7.07 31.22 7.35 28.14 C 7.71 25.20 8.51 21.92 11.50 20.62 C 15.08 19.53 19.17 19.14 22.90 19.26 Z" fill="#ffffff"/>
<path d="M 154.56 19.58 C 156.94 18.87 159.78 19.34 162.23 19.55 C 164.44 19.88 167.06 19.99 169.04 21.10 C 172.39 24.42 172.64 28.59 171.48 32.93 C 172.21 33.80 173.80 34.65 173.53 35.94 C 173.01 38.85 170.80 42.03 167.72 42.62 C 164.68 43.31 161.06 41.86 158.17 40.91 C 155.31 39.83 151.63 38.77 149.50 36.48 C 148.96 34.18 150.15 31.53 150.86 29.35 C 152.12 29.64 153.39 29.88 154.67 30.04 C 154.04 28.65 153.41 27.25 152.80 25.85 C 154.20 24.78 155.91 22.45 157.83 22.62 C 161.18 22.82 164.61 24.15 167.80 25.16 C 167.91 27.92 168.24 30.66 168.49 33.42 C 169.26 30.76 171.04 25.69 168.25 23.72 C 165.10 22.22 161.34 21.75 157.91 21.33 C 155.39 20.85 152.85 23.27 150.77 24.46 C 151.92 22.81 153.05 20.92 154.56 19.58 Z" fill="#ffffff"/>
<path d="M 0.00 22.52 C 1.33 30.49 2.26 38.34 5.16 45.94 C 8.01 53.31 10.22 60.75 11.92 68.46 C 12.21 69.94 12.51 71.43 12.87 72.90 C 14.01 77.28 15.63 81.55 17.22 85.79 C 19.95 93.08 24.86 98.97 27.86 106.15 C 32.74 117.69 39.33 129.82 49.56 137.44 C 56.64 142.84 64.62 145.50 73.03 148.04 C 78.33 149.62 83.84 149.80 89.27 151.00 L 0.00 151.00 L 0.00 22.52 Z" fill="#ffffff"/>
<path d="M 15.98 22.30 C 14.55 23.44 13.00 24.47 11.70 25.76 C 10.70 27.96 10.74 30.74 10.36 33.11 C 10.10 30.46 9.20 26.96 10.45 24.51 C 11.58 23.02 14.30 22.86 15.98 22.30 Z" fill="#8f8f8f"/>
<path d="M 18.47 27.00 C 19.83 27.58 21.09 28.44 22.38 29.17 C 20.40 32.23 20.50 34.41 20.99 37.95 C 19.93 36.50 18.87 34.90 17.50 33.72 C 15.95 33.36 14.27 33.38 12.68 33.33 C 15.40 31.67 16.84 29.63 18.47 27.00 Z" fill="#adadad"/>
<path d="M 165.91 32.74 C 163.22 33.23 161.08 33.89 158.87 35.51 C 158.95 34.29 159.06 33.05 159.08 31.83 C 158.34 30.93 157.59 30.04 156.84 29.16 C 160.86 28.47 162.85 30.70 165.91 32.74 Z" fill="#8f8f8f"/>
<path d="M 151.33 30.93 C 152.49 33.53 153.62 36.16 154.74 38.77 C 152.67 37.53 150.93 36.25 149.57 34.21 C 150.13 33.11 150.72 32.01 151.33 30.93 Z" fill="#adadad"/>
<path d="M 10.30 34.96 C 11.77 36.20 13.15 37.71 14.81 38.71 C 16.57 39.24 18.51 39.26 20.33 39.51 C 18.31 40.27 15.49 41.95 13.38 40.85 C 10.97 39.82 11.04 37.13 10.30 34.96 Z" fill="#adadad"/>
<path d="M 168.80 35.15 C 168.34 36.97 168.23 39.43 166.39 40.42 C 164.32 41.94 161.05 40.18 158.83 39.61 C 160.77 39.38 162.79 39.29 164.69 38.81 C 166.21 37.81 167.47 36.38 168.80 35.15 Z" fill="#8f8f8f"/>
<path d="M 144.40 35.81 C 144.06 39.12 143.48 42.35 142.29 45.46 C 139.27 53.43 136.44 61.46 133.27 69.36 C 130.77 75.55 128.99 81.99 126.46 88.17 C 126.91 85.17 127.48 82.20 128.45 79.31 C 133.46 64.70 139.31 50.39 144.40 35.81 Z" fill="#8f8f8f"/>
<path d="M 36.54 38.78 C 39.63 47.20 43.11 55.47 46.02 63.96 C 48.98 72.56 52.55 80.16 53.99 89.14 C 51.13 84.26 50.50 78.92 48.46 73.74 C 46.26 67.95 43.65 62.34 41.73 56.43 C 39.84 50.36 36.92 45.25 36.54 38.78 Z" fill="#8f8f8f"/>
<path d="M 30.48 40.52 C 33.63 42.64 34.87 47.71 35.82 51.18 C 35.21 51.81 34.60 52.45 33.99 53.09 C 31.96 48.46 30.95 44.22 26.03 41.82 C 27.42 41.12 28.87 39.50 30.48 40.52 Z" fill="#cdcdcd"/>
<path d="M 150.00 39.70 C 151.02 40.34 152.03 41.01 153.01 41.71 C 148.05 44.40 148.44 50.16 143.54 52.72 C 144.22 47.61 145.69 42.90 150.00 39.70 Z" fill="#cdcdcd"/>
<path d="M 26.03 41.82 C 30.95 44.22 31.96 48.46 33.99 53.09 C 34.60 52.45 35.21 51.81 35.82 51.18 C 35.60 53.94 35.33 56.85 34.38 59.47 C 33.07 61.01 30.90 61.93 29.17 62.94 C 28.56 59.17 28.27 55.95 29.79 52.36 C 28.46 52.51 27.14 52.71 25.82 52.96 C 24.91 50.49 23.61 47.76 23.54 45.10 C 24.03 43.84 25.06 42.74 26.03 41.82 Z" fill="#ffffff"/>
<path d="M 153.01 41.71 C 154.09 42.69 155.76 44.16 155.60 45.77 C 155.38 48.39 154.16 51.03 153.19 53.47 C 152.03 53.20 150.86 52.95 149.69 52.70 C 150.32 54.43 151.01 56.03 151.00 57.91 C 150.19 59.51 149.24 61.02 148.29 62.55 C 147.02 61.35 145.30 60.20 144.49 58.63 C 143.83 56.76 143.62 54.69 143.54 52.72 C 148.44 50.16 148.05 44.40 153.01 41.71 Z" fill="#ffffff"/>
<path d="M 20.52 43.12 L 21.64 43.23 C 22.04 45.77 22.86 48.73 22.31 51.29 C 21.35 52.21 20.22 52.99 19.15 53.79 C 20.99 54.19 23.25 54.27 24.87 55.26 C 26.76 57.56 27.03 61.32 27.71 64.14 C 24.82 64.43 22.09 65.74 19.80 63.21 C 17.50 60.10 16.99 55.42 16.29 51.68 C 15.39 48.28 18.57 45.54 20.52 43.12 Z" fill="#ffffff"/>
<path d="M 157.61 42.92 L 158.92 43.15 C 160.41 45.12 161.83 47.14 163.36 49.09 C 162.56 53.06 161.90 57.07 161.06 61.04 C 159.15 65.22 156.00 64.71 152.09 64.53 C 152.11 63.24 152.12 61.95 152.17 60.66 C 152.81 58.90 153.39 57.02 154.31 55.39 C 155.94 54.47 158.02 54.22 159.82 53.80 C 158.87 53.05 157.86 52.32 157.01 51.44 C 156.60 48.68 157.28 45.67 157.61 42.92 Z" fill="#ffffff"/>
<path d="M 158.92 43.15 C 160.68 43.45 162.42 43.81 164.12 44.36 C 165.10 48.84 164.58 52.52 163.38 56.89 C 162.64 58.29 161.86 59.67 161.06 61.04 C 161.90 57.07 162.56 53.06 163.36 49.09 C 161.83 47.14 160.41 45.12 158.92 43.15 Z" fill="#adadad"/>
<path d="M 15.22 44.56 C 14.01 50.17 15.30 55.32 16.24 60.85 C 16.58 64.44 21.21 66.18 23.80 68.08 C 21.24 67.44 17.54 67.56 16.19 64.87 C 14.01 60.93 12.85 56.25 12.17 51.82 C 11.61 48.65 13.60 46.93 15.22 44.56 Z" fill="#ffffff"/>
<path d="M 164.12 44.36 C 165.75 46.46 168.56 48.85 167.71 51.79 C 166.60 56.40 165.40 61.70 162.60 65.60 C 160.18 68.36 157.22 67.38 154.04 67.18 C 156.51 66.35 160.11 65.87 161.88 63.81 C 163.17 61.97 162.99 59.05 163.38 56.89 C 164.58 52.52 165.10 48.84 164.12 44.36 Z" fill="#ffffff"/>
<path d="M 151.00 57.91 C 151.06 59.33 151.11 60.74 151.15 62.16 L 152.17 60.66 C 152.12 61.95 152.11 63.24 152.09 64.53 C 150.47 64.43 148.84 64.30 147.22 64.21 C 147.58 63.65 147.93 63.10 148.29 62.55 C 149.24 61.02 150.19 59.51 151.00 57.91 Z" fill="#cdcdcd"/>
<path d="M 39.92 64.00 C 37.23 64.92 34.52 65.78 31.74 66.42 C 34.74 64.20 36.20 63.63 39.92 64.00 Z" fill="#ffffff"/>
<path d="M 147.39 66.41 C 144.92 65.74 142.52 64.88 140.13 63.98 C 143.57 63.78 144.73 64.10 147.39 66.41 Z" fill="#ffffff"/>
<path d="M 12.97 64.39 C 15.15 66.64 17.41 68.71 19.99 70.49 C 18.84 72.77 16.65 75.89 17.42 78.50 C 18.41 82.12 20.38 85.52 22.31 88.72 C 23.95 91.43 26.41 93.19 28.37 95.59 C 29.04 97.67 28.72 100.13 28.78 102.29 C 25.10 97.43 22.02 92.11 19.36 86.63 C 16.55 80.90 15.71 74.60 12.92 68.85 C 12.87 70.20 12.86 71.55 12.87 72.90 C 12.51 71.43 12.21 69.94 11.92 68.46 C 12.24 67.10 12.60 65.74 12.97 64.39 Z" fill="#cdcdcd"/>
<path d="M 167.43 64.22 C 166.01 71.63 163.93 78.98 160.94 85.91 C 158.21 91.85 154.55 97.41 151.19 103.01 C 151.17 100.49 151.29 97.97 151.31 95.44 C 157.02 91.44 159.90 85.57 162.35 79.24 C 163.74 75.71 161.62 73.39 159.99 70.48 C 162.82 68.70 165.16 66.67 167.43 64.22 Z" fill="#cdcdcd"/>
<path d="M 38.56 66.61 C 40.79 67.63 41.44 69.54 41.82 71.77 C 42.33 75.17 43.48 78.43 43.97 81.83 C 42.18 85.13 37.96 87.37 34.45 88.38 C 30.54 89.59 28.08 85.28 25.53 83.11 C 26.10 84.90 26.34 87.84 28.10 88.86 C 30.22 89.95 32.81 90.26 35.11 90.81 C 33.18 91.50 31.18 92.34 29.14 92.64 C 25.03 90.94 22.74 85.09 20.60 81.44 C 19.01 78.82 19.38 76.37 19.87 73.53 C 20.55 73.85 21.22 74.18 21.89 74.51 C 23.60 70.57 24.92 68.77 28.86 66.89 C 26.93 69.99 24.13 72.77 22.72 76.14 C 22.05 78.58 24.02 80.68 25.19 82.64 C 25.12 79.25 24.04 76.27 26.28 73.34 C 28.93 68.80 33.74 67.50 38.56 66.61 Z" fill="#ffffff"/>
<path d="M 152.39 72.62 C 154.77 75.52 154.32 78.66 154.53 82.16 C 155.92 79.14 157.29 76.14 159.03 73.30 C 159.49 74.84 160.92 76.87 160.17 78.46 C 158.96 81.63 157.08 84.58 155.44 87.55 C 154.14 89.71 152.70 92.31 149.89 92.55 C 147.86 92.24 145.88 91.39 143.94 90.71 C 146.26 90.21 148.83 89.93 150.99 88.91 C 152.87 87.89 153.43 84.90 154.17 83.05 C 151.53 85.01 148.44 89.68 144.73 88.32 C 141.35 87.33 137.62 85.34 135.49 82.47 C 134.97 80.25 136.40 77.37 136.79 75.11 C 137.65 72.29 137.70 68.27 140.52 66.66 C 145.02 66.94 149.82 68.69 152.39 72.62 Z" fill="#ffffff"/>
<path d="M 150.21 66.89 C 154.04 68.61 155.84 69.85 157.07 74.04 C 153.99 72.14 151.90 70.12 150.21 66.89 Z" fill="#ffffff"/>
<path d="M 33.79 72.74 C 35.94 73.24 38.03 73.90 40.14 74.53 C 38.78 75.33 37.87 76.59 36.48 77.33 C 37.08 79.12 37.55 80.96 38.14 82.76 C 36.43 81.24 34.72 80.06 32.52 79.36 C 33.50 77.16 33.73 75.12 33.79 72.74 Z" fill="#8f8f8f"/>
<path d="M 145.45 72.61 C 145.27 76.36 146.36 78.11 148.58 80.94 C 147.20 80.45 145.83 79.96 144.45 79.46 C 143.45 80.70 142.40 81.89 141.35 83.08 C 141.79 81.15 142.05 79.19 142.55 77.28 C 141.39 76.37 140.23 75.48 139.07 74.56 C 141.20 73.93 143.33 73.28 145.45 72.61 Z" fill="#8f8f8f"/>
<path d="M 132.93 79.11 C 133.35 80.34 133.81 81.56 134.29 82.76 C 135.15 85.65 138.65 87.35 140.85 89.24 C 138.20 88.35 134.40 87.68 133.05 84.92 C 132.45 83.14 132.86 80.96 132.93 79.11 Z" fill="#ffffff"/>
<path d="M 46.81 80.00 C 46.73 81.95 46.66 83.90 46.61 85.85 C 44.12 87.16 41.61 88.27 38.97 89.23 C 42.31 86.54 44.92 83.91 46.81 80.00 Z" fill="#ffffff"/>
<path d="M 126.32 88.88 C 125.56 100.64 120.15 112.40 110.53 119.48 C 106.38 122.10 102.86 125.07 97.69 124.62 C 102.19 122.81 106.91 120.85 110.58 117.62 C 114.97 113.75 118.81 109.54 121.24 104.14 C 123.37 99.24 124.67 93.96 126.32 88.88 Z" fill="#8f8f8f"/>
<path d="M 47.11 91.09 C 43.32 91.55 38.09 91.42 35.13 94.13 C 32.07 96.88 32.48 101.94 35.36 104.64 C 36.98 105.66 39.19 105.86 41.03 106.32 C 39.41 105.15 37.61 104.07 36.21 102.64 C 34.56 99.94 35.29 95.76 38.31 94.31 C 41.49 92.62 46.38 92.04 48.67 95.45 C 50.05 98.02 48.54 100.10 47.74 102.55 C 45.57 100.11 44.41 97.37 43.46 94.28 C 42.61 94.19 41.76 94.10 40.91 94.01 C 42.08 97.50 43.32 100.96 44.56 104.43 C 46.09 104.47 47.62 104.54 49.15 104.63 C 45.69 106.37 41.21 109.28 37.23 108.73 C 32.23 107.68 29.67 101.14 30.67 96.56 C 31.82 93.87 35.64 92.29 38.22 91.31 C 41.19 90.11 44.06 90.54 47.11 91.09 Z" fill="#ffffff"/>
<path d="M 136.72 90.17 L 137.25 91.56 L 137.18 92.35 C 134.93 93.43 131.59 94.04 130.57 96.57 C 130.12 97.39 129.69 98.21 129.27 99.04 C 129.55 94.51 131.22 89.66 136.72 90.17 Z" fill="#cdcdcd"/>
<path d="M 136.72 90.17 C 139.80 90.81 142.87 91.86 145.62 93.42 C 146.84 94.18 148.14 94.97 148.49 96.48 C 149.78 101.17 146.92 107.77 141.87 108.78 C 136.36 108.71 131.16 105.85 127.62 101.69 C 129.89 102.89 132.15 104.10 134.49 105.18 C 135.82 101.59 137.50 97.76 138.03 93.96 L 136.38 94.34 C 134.76 96.72 133.79 99.58 132.62 102.20 C 131.46 101.19 130.34 100.15 129.27 99.04 C 129.69 98.21 130.12 97.39 130.57 96.57 C 131.59 94.04 134.93 93.43 137.18 92.35 C 139.27 93.51 142.21 94.44 143.66 96.39 C 144.10 98.74 144.32 102.66 142.14 104.24 C 140.08 104.74 137.90 104.82 135.81 105.05 C 137.67 105.31 139.67 105.70 141.55 105.52 C 146.25 104.47 147.84 96.93 143.86 94.12 C 141.88 92.90 139.44 92.32 137.25 91.56 L 136.72 90.17 Z" fill="#ffffff"/>
<path d="M 137.25 91.56 C 139.44 92.32 141.88 92.90 143.86 94.12 C 147.84 96.93 146.25 104.47 141.55 105.52 C 139.67 105.70 137.67 105.31 135.81 105.05 C 137.90 104.82 140.08 104.74 142.14 104.24 C 144.32 102.66 144.10 98.74 143.66 96.39 C 142.21 94.44 139.27 93.51 137.18 92.35 L 137.25 91.56 Z" fill="#8f8f8f"/>
<path d="M 29.82 106.32 C 32.43 108.29 35.01 110.32 37.71 112.15 C 37.15 114.49 36.65 116.84 36.06 119.16 C 33.73 115.00 31.59 110.75 29.82 106.32 Z" fill="#cdcdcd"/>
<path d="M 127.43 105.92 L 128.03 106.59 C 129.10 107.83 130.27 109.04 131.18 110.41 C 130.86 113.60 128.58 116.84 127.25 119.71 C 126.93 119.08 126.63 118.44 126.35 117.80 C 127.09 114.91 128.78 112.21 129.90 109.44 C 128.60 109.96 127.25 110.42 126.03 111.09 C 124.82 112.72 124.52 115.12 123.92 117.03 C 123.38 115.37 122.82 113.70 122.37 112.02 C 122.83 110.55 123.53 109.14 124.31 107.83 C 125.29 107.12 126.38 106.52 127.43 105.92 Z" fill="#8f8f8f"/>
<path d="M 49.94 107.40 C 52.20 110.48 54.42 113.47 55.93 117.01 C 56.15 114.92 56.41 112.83 56.69 110.75 C 57.22 113.26 58.78 116.55 56.74 118.74 C 53.87 121.86 49.98 125.04 45.85 126.23 C 40.93 125.39 36.85 119.60 38.70 114.66 C 39.81 109.66 45.89 108.91 49.94 107.40 Z" fill="#ffffff"/>
<path d="M 128.03 106.59 C 131.79 108.58 138.38 109.56 140.44 113.57 C 143.99 118.81 137.65 127.68 131.54 125.38 C 128.40 124.16 124.48 121.13 122.52 118.39 C 121.05 116.28 121.79 114.27 122.37 112.02 C 122.82 113.70 123.38 115.37 123.92 117.03 C 124.52 115.12 124.82 112.72 126.03 111.09 C 127.25 110.42 128.60 109.96 129.90 109.44 C 128.78 112.21 127.09 114.91 126.35 117.80 C 126.63 118.44 126.93 119.08 127.25 119.71 C 128.58 116.84 130.86 113.60 131.18 110.41 C 130.27 109.04 129.10 107.83 128.03 106.59 Z" fill="#ffffff"/>
<path d="M 149.23 108.15 C 147.91 111.75 146.14 115.10 144.06 118.32 C 143.50 116.26 142.30 113.79 142.64 111.63 C 144.64 110.20 146.98 109.15 149.23 108.15 Z" fill="#cdcdcd"/>
<path d="M 43.58 110.21 C 43.09 112.12 42.39 114.05 42.16 116.01 C 42.50 118.26 43.72 120.41 44.55 122.51 C 42.25 120.62 39.96 119.35 39.91 115.99 C 39.69 113.08 41.75 111.99 43.58 110.21 Z" fill="#8f8f8f"/>
<path d="M 52.54 119.80 C 50.77 116.96 49.24 114.03 48.30 110.80 C 51.55 111.88 53.71 116.61 52.54 119.80 Z" fill="#8f8f8f"/>
<path d="M 135.36 110.22 C 137.55 111.86 139.85 112.75 139.47 116.00 C 139.43 119.12 137.20 120.38 135.16 122.26 C 135.79 120.55 136.51 118.87 137.09 117.14 C 138.16 115.00 135.97 112.28 135.36 110.22 Z" fill="#8f8f8f"/>
<path d="M 119.10 120.01 C 123.73 121.80 127.75 125.76 131.38 129.07 C 129.67 131.44 128.22 134.28 125.25 135.22 C 122.72 136.01 120.02 136.00 118.16 133.85 C 115.92 131.37 113.78 128.23 113.16 124.90 C 112.71 121.84 116.09 118.74 119.10 120.01 Z" fill="#ffffff"/>
<path d="M 59.98 119.84 C 61.18 121.91 63.36 124.34 62.93 126.86 C 62.70 129.27 60.07 131.95 57.58 130.54 C 55.85 129.22 54.51 127.32 53.05 125.71 C 53.40 127.41 53.11 130.12 54.77 131.13 C 56.82 132.57 59.31 133.45 61.58 134.50 C 59.34 135.11 56.92 136.13 54.62 135.38 C 51.63 134.57 48.62 131.66 49.18 128.33 C 51.82 124.73 56.30 122.27 59.98 119.84 Z" fill="#ffffff"/>
<path d="M 117.79 120.31 C 117.24 123.25 116.37 125.74 114.99 128.39 C 114.79 126.78 114.09 124.61 114.79 123.06 C 115.67 121.99 116.72 121.19 117.79 120.31 Z" fill="#adadad"/>
<path d="M 70.48 126.40 C 72.94 125.28 75.87 126.92 76.48 129.49 C 77.46 133.78 75.74 137.93 74.01 141.77 C 70.61 140.63 66.18 139.87 63.47 137.43 C 62.32 135.82 63.50 134.70 64.15 133.18 C 65.62 130.65 67.66 127.52 70.48 126.40 Z" fill="#ffffff"/>
<path d="M 110.09 126.91 C 113.56 129.51 116.01 133.52 116.72 137.82 C 115.13 137.41 113.37 136.66 111.71 136.75 C 109.03 137.20 106.40 138.59 103.98 139.78 C 103.34 136.45 102.36 132.57 103.10 129.21 C 104.00 126.07 107.49 125.22 110.09 126.91 Z" fill="#ffffff"/>
<path d="M 126.41 126.37 C 125.53 129.01 125.48 131.47 122.48 132.54 C 119.73 133.99 118.61 132.06 116.43 130.75 C 118.15 130.70 119.94 130.75 121.63 130.48 C 123.44 129.49 124.89 127.75 126.41 126.37 Z" fill="#8f8f8f"/>
<path d="M 42.89 127.98 C 44.10 128.12 45.31 128.29 46.51 128.49 C 47.51 130.65 48.32 132.89 49.09 135.14 C 46.62 133.08 44.42 130.84 42.89 127.98 Z" fill="#cdcdcd"/>
<path d="M 88.70 134.21 C 89.06 136.79 89.72 141.60 87.55 143.50 C 84.12 144.44 80.37 143.71 76.97 142.98 C 77.78 138.64 78.12 133.25 80.58 129.50 C 83.75 126.51 88.25 130.94 88.70 134.21 Z" fill="#ffffff"/>
<path d="M 137.07 127.69 C 135.41 131.00 133.35 133.20 130.37 135.36 C 131.22 133.37 132.03 131.15 133.34 129.41 C 134.26 128.47 135.88 128.21 137.07 127.69 Z" fill="#cdcdcd"/>
<path d="M 97.83 128.90 C 99.22 129.73 99.77 131.07 100.27 132.52 C 101.37 135.91 102.08 139.46 102.87 142.93 C 99.54 143.55 95.69 144.32 92.34 143.61 C 89.25 141.16 91.07 135.19 91.16 131.83 C 93.24 130.43 95.28 129.22 97.83 128.90 Z" fill="#ffffff"/>
<path d="M 116.72 137.82 C 113.90 139.18 110.79 140.81 107.69 141.36 C 106.08 141.72 105.23 140.58 103.98 139.78 C 106.40 138.59 109.03 137.20 111.71 136.75 C 113.37 136.66 115.13 137.41 116.72 137.82 Z" fill="#cdcdcd"/>
<path d="M 52.78 137.37 C 56.16 137.61 59.47 138.13 62.59 139.51 C 68.05 141.91 73.69 143.74 79.35 145.67 C 83.21 147.09 86.32 145.62 90.18 145.45 C 93.91 145.53 97.06 147.07 100.79 145.72 C 106.37 143.81 111.94 141.79 117.38 139.47 C 120.57 138.11 123.88 137.74 127.30 137.40 C 121.20 141.59 114.36 144.26 107.26 146.25 C 99.67 148.18 92.40 149.71 84.53 148.59 C 73.55 147.09 61.94 143.77 52.78 137.37 Z" fill="#cdcdcd"/>
<path d="M 65.52 136.96 C 68.83 137.31 71.59 138.07 74.37 139.93 C 70.29 140.02 68.64 139.57 65.52 136.96 Z" fill="#adadad"/>
<path d="M 91.52 141.49 C 94.56 141.38 97.46 141.82 100.38 142.65 C 96.93 143.17 94.36 144.10 91.52 141.49 Z" fill="#adadad"/>
<path d="M 86.39 142.17 C 86.41 144.21 81.63 143.08 80.48 142.60 C 82.09 141.91 84.85 141.06 86.39 142.17 Z" fill="#8f8f8f"/></svg>