<svg xmlns:xlink="http://www.w3.org/1999/xlink" xmlns="http://www.w3.org/2000/svg" viewBox="0 0 180 151" height="151" width="180" version="1.1">
<path d="M 0.00 0.00 L 180.00 0.00 L 180.00 151.00 L 90.43 151.00 C 95.11 148.99 100.00 150.18 104.80 148.61 C 113.19 146.17 121.35 143.69 128.59 138.65 C 133.00 135.75 136.45 131.99 139.93 128.07 C 139.02 128.05 138.10 128.03 137.19 128.01 C 135.33 130.38 133.48 132.69 131.07 134.53 C 131.82 133.28 132.59 132.05 133.39 130.83 C 133.42 130.16 133.45 129.48 133.49 128.80 C 136.11 128.19 138.61 127.32 141.11 126.33 C 143.79 122.50 146.12 118.46 148.31 114.34 C 150.92 109.40 152.42 104.18 155.40 99.40 C 158.79 94.01 162.17 88.21 164.11 82.12 C 165.19 78.74 166.41 75.41 167.35 71.99 C 167.59 70.97 167.77 69.93 167.94 68.90 C 169.70 61.88 171.10 54.48 174.23 47.92 C 174.87 46.56 175.34 45.16 175.68 43.69 C 178.59 33.44 181.15 21.28 178.02 10.83 C 176.68 6.32 173.78 3.58 169.79 1.29 C 165.86 2.01 162.20 3.28 158.13 3.17 L 157.65 3.40 C 150.60 6.09 148.19 13.11 146.90 19.92 C 146.59 25.26 144.91 30.28 144.29 35.54 C 138.98 51.53 132.21 67.07 127.16 83.15 C 124.73 92.75 123.54 102.19 117.42 110.41 C 113.85 114.78 109.67 119.16 104.49 121.55 C 98.57 124.54 91.84 126.60 85.21 124.85 C 84.37 124.66 83.53 124.47 82.69 124.28 C 78.48 122.85 74.12 121.11 70.53 118.45 C 66.72 115.06 63.15 111.83 60.72 107.30 C 57.81 102.54 56.34 97.32 55.06 91.95 C 54.85 91.08 54.63 90.21 54.41 89.34 C 53.78 85.89 52.98 82.50 51.78 79.19 C 47.50 67.21 43.10 55.31 38.57 43.43 C 35.59 35.92 33.66 28.06 33.04 20.01 C 32.01 13.79 30.08 7.79 24.45 4.27 C 23.69 3.78 22.90 3.33 22.11 2.88 C 18.39 3.65 15.33 2.18 11.74 1.68 L 10.05 1.53 C 6.38 3.51 3.44 6.09 2.19 10.21 C -0.82 19.48 0.81 30.59 3.30 39.84 C 3.45 40.58 3.62 41.31 3.79 42.05 C 4.70 45.96 6.45 49.38 7.76 53.12 C 9.59 58.27 10.32 63.68 12.20 68.82 C 13.03 74.32 15.21 79.78 16.98 85.12 C 19.70 92.79 24.94 98.64 27.98 106.11 C 32.42 117.10 38.75 128.39 47.94 136.09 C 56.22 142.93 65.94 146.02 76.13 148.85 C 80.68 150.28 85.01 148.81 89.29 151.00 L 0.00 151.00 L 0.00 0.00 Z" fill="#ffffff"/>
<path d="M 169.79 1.29 L 169.00 2.70 C 171.57 4.55 174.42 6.16 175.61 9.27 C 177.31 13.89 178.41 19.09 177.78 24.02 C 177.13 28.97 176.88 33.90 175.66 38.76 C 175.18 40.51 175.31 41.94 175.68 43.69 C 175.34 45.16 174.87 46.56 174.23 47.92 L 173.75 46.00 C 172.01 49.37 170.90 52.98 169.03 56.29 C 169.29 54.20 169.72 52.11 169.85 50.01 C 169.66 48.33 168.78 46.70 168.14 45.16 C 169.77 44.21 171.70 43.38 173.03 42.04 C 175.35 38.63 175.18 34.94 174.96 31.01 C 174.70 27.39 174.02 23.15 171.82 20.16 C 169.84 17.73 165.81 17.79 162.97 17.45 C 160.19 17.33 156.94 16.52 154.26 17.26 C 149.36 20.33 149.45 25.46 149.38 30.59 L 149.30 30.71 C 146.46 33.39 147.63 35.80 148.74 38.94 C 144.86 41.71 143.98 45.27 142.73 49.60 C 141.98 51.55 140.96 53.59 140.61 55.65 C 140.38 57.69 140.96 59.90 141.27 61.92 C 139.44 63.37 137.11 64.83 135.85 66.83 C 134.40 69.34 133.70 72.49 132.86 75.26 C 130.87 80.04 129.97 84.17 132.68 88.92 C 129.93 91.43 127.12 93.29 126.23 97.16 C 125.43 100.36 126.69 102.81 127.81 105.69 C 125.14 107.14 122.65 108.30 121.10 111.07 C 119.76 113.17 120.03 115.42 119.82 117.82 C 118.01 118.15 115.67 118.08 114.15 119.17 C 112.33 120.36 111.54 122.51 110.53 124.34 C 108.61 124.22 106.42 123.72 104.68 124.64 C 103.17 125.46 102.10 127.16 100.98 128.42 C 99.75 127.62 98.53 126.81 97.30 126.01 C 104.27 123.35 110.81 120.61 115.70 114.70 C 118.63 111.05 121.82 106.98 123.24 102.48 C 124.69 98.12 125.97 93.68 127.01 89.20 C 129.01 80.27 132.36 71.45 135.88 63.01 C 138.46 55.93 141.02 48.84 143.64 41.77 C 144.52 39.67 144.53 37.77 144.29 35.54 C 144.91 30.28 146.59 25.26 146.90 19.92 C 146.71 22.45 146.80 24.97 147.07 27.48 C 149.27 22.41 149.03 16.59 151.40 11.48 C 152.74 7.98 155.80 6.56 157.65 3.40 L 158.13 3.17 C 162.20 3.28 165.86 2.01 169.79 1.29 Z" fill="#e2acac"/>
<path d="M 10.05 1.53 L 11.74 1.68 C 9.36 3.74 6.22 5.81 4.73 8.65 C 2.24 14.25 1.49 20.42 2.48 26.47 C 2.77 30.80 4.33 35.58 3.30 39.84 C 0.81 30.59 -0.82 19.48 2.19 10.21 C 3.44 6.09 6.38 3.51 10.05 1.53 Z" fill="#c7757b"/>
<path d="M 11.74 1.68 C 15.33 2.18 18.39 3.65 22.11 2.88 C 22.90 3.33 23.69 3.78 24.45 4.27 C 24.69 7.01 27.35 8.93 28.46 11.50 C 31.10 17.41 31.49 24.71 33.29 30.99 C 34.52 35.40 35.24 39.74 36.96 44.00 C 39.98 51.75 42.26 59.57 45.65 67.22 C 48.16 73.34 50.26 79.64 51.82 86.06 C 52.30 88.13 52.58 88.29 54.41 89.34 C 54.63 90.21 54.85 91.08 55.06 91.95 C 54.40 91.23 53.73 90.54 53.03 89.87 C 53.87 94.39 55.32 98.81 56.84 103.15 C 58.23 107.18 60.71 110.33 63.30 113.65 C 67.07 118.66 72.64 122.34 78.47 124.52 C 79.98 125.15 81.19 124.57 82.69 124.28 C 83.53 124.47 84.37 124.66 85.21 124.85 C 83.14 126.05 81.03 127.17 78.89 128.24 C 77.60 126.91 76.30 125.24 74.66 124.36 C 72.94 123.85 70.94 124.17 69.15 124.14 C 68.00 122.11 67.26 120.07 65.20 118.77 C 63.91 117.81 61.86 118.17 60.31 118.05 C 60.02 115.33 60.11 112.90 58.48 110.56 C 56.97 108.05 54.63 106.99 52.13 105.69 C 53.42 102.16 54.17 98.84 52.83 95.17 C 51.94 92.16 49.36 90.88 47.03 89.10 C 48.29 86.46 49.60 84.26 48.82 81.20 C 47.79 76.91 46.43 72.32 44.75 68.23 C 43.50 65.17 41.07 63.64 38.39 61.96 C 39.01 59.19 40.08 56.85 39.00 54.01 C 37.74 50.59 36.37 47.22 35.23 43.74 C 34.53 41.52 32.88 40.42 31.30 38.85 C 32.22 35.55 32.35 33.13 31.22 29.85 C 29.68 25.53 30.73 21.06 26.79 18.17 C 24.61 16.10 21.22 17.22 18.49 17.30 C 14.52 17.87 9.47 17.24 7.35 21.47 C 4.94 26.33 4.36 33.29 5.39 38.56 C 6.17 42.22 8.46 43.53 11.51 45.18 C 11.30 45.75 11.11 46.33 10.92 46.91 C 10.17 48.87 9.89 50.91 9.66 52.98 C 7.56 48.63 6.19 43.99 4.08 39.65 L 3.79 42.05 C 3.62 41.31 3.45 40.58 3.30 39.84 C 4.33 35.58 2.77 30.80 2.48 26.47 C 1.49 20.42 2.24 14.25 4.73 8.65 C 6.22 5.81 9.36 3.74 11.74 1.68 Z" fill="#e3adad"/>
<path d="M 169.79 1.29 C 173.78 3.58 176.68 6.32 178.02 10.83 C 181.15 21.28 178.59 33.44 175.68 43.69 C 175.31 41.94 175.18 40.51 175.66 38.76 C 176.88 33.90 177.13 28.97 177.78 24.02 C 178.41 19.09 177.31 13.89 175.61 9.27 C 174.42 6.16 171.57 4.55 169.00 2.70 L 169.79 1.29 Z" fill="#cc7a81"/>
<path d="M 157.65 3.40 C 155.80 6.56 152.74 7.98 151.40 11.48 C 149.03 16.59 149.27 22.41 147.07 27.48 C 146.80 24.97 146.71 22.45 146.90 19.92 C 148.19 13.11 150.60 6.09 157.65 3.40 Z" fill="#cb8387"/>
<path d="M 24.45 4.27 C 30.08 7.79 32.01 13.79 33.04 20.01 C 33.66 28.06 35.59 35.92 38.57 43.43 C 43.10 55.31 47.50 67.21 51.78 79.19 C 52.98 82.50 53.78 85.89 54.41 89.34 C 52.58 88.29 52.30 88.13 51.82 86.06 C 50.26 79.64 48.16 73.34 45.65 67.22 C 42.26 59.57 39.98 51.75 36.96 44.00 C 35.24 39.74 34.52 35.40 33.29 30.99 C 31.49 24.71 31.10 17.41 28.46 11.50 C 27.35 8.93 24.69 7.01 24.45 4.27 Z" fill="#d08a90"/>
<path d="M 26.79 18.17 C 30.73 21.06 29.68 25.53 31.22 29.85 C 32.35 33.13 32.22 35.55 31.30 38.85 C 32.88 40.42 34.53 41.52 35.23 43.74 C 36.37 47.22 37.74 50.59 39.00 54.01 C 40.08 56.85 39.01 59.19 38.39 61.96 C 41.07 63.64 43.50 65.17 44.75 68.23 C 46.43 72.32 47.79 76.91 48.82 81.20 C 49.60 84.26 48.29 86.46 47.03 89.10 C 49.36 90.88 51.94 92.16 52.83 95.17 C 54.17 98.84 53.42 102.16 52.13 105.69 C 54.63 106.99 56.97 108.05 58.48 110.56 C 60.11 112.90 60.02 115.33 60.31 118.05 C 61.86 118.17 63.91 117.81 65.20 118.77 C 67.26 120.07 68.00 122.11 69.15 124.14 C 70.94 124.17 72.94 123.85 74.66 124.36 C 76.30 125.24 77.60 126.91 78.89 128.24 C 81.03 127.17 83.14 126.05 85.21 124.85 C 91.84 126.60 98.57 124.54 104.49 121.55 C 109.67 119.16 113.85 114.78 117.42 110.41 C 123.54 102.19 124.73 92.75 127.16 83.15 C 132.21 67.07 138.98 51.53 144.29 35.54 C 144.53 37.77 144.52 39.67 143.64 41.77 C 141.02 48.84 138.46 55.93 135.88 63.01 C 132.36 71.45 129.01 80.27 127.01 89.20 C 125.97 93.68 124.69 98.12 123.24 102.48 C 121.82 106.98 118.63 111.05 115.70 114.70 C 110.81 120.61 104.27 123.35 97.30 126.01 C 98.53 126.81 99.75 127.62 100.98 128.42 C 102.10 127.16 103.17 125.46 104.68 124.64 C 106.42 123.72 108.61 124.22 110.53 124.34 C 111.54 122.51 112.33 120.36 114.15 119.17 C 115.67 118.08 118.01 118.15 119.82 117.82 C 120.03 115.42 119.76 113.17 121.10 111.07 C 122.65 108.30 125.14 107.14 127.81 105.69 C 126.69 102.81 125.43 100.36 126.23 97.16 C 127.12 93.29 129.93 91.43 132.68 88.92 C 129.97 84.17 130.87 80.04 132.86 75.26 C 133.52 78.62 130.98 82.40 132.68 85.30 C 134.56 88.07 139.09 89.03 142.12 89.71 C 140.04 87.27 136.89 86.44 134.69 84.26 C 134.29 82.21 134.46 80.03 134.33 77.95 C 133.85 77.04 133.36 76.15 132.86 75.26 C 133.70 72.49 134.40 69.34 135.85 66.83 C 137.11 64.83 139.44 63.37 141.27 61.92 C 140.96 59.90 140.38 57.69 140.61 55.65 C 140.96 53.59 141.98 51.55 142.73 49.60 C 142.42 52.66 140.65 56.67 142.84 59.25 C 145.63 64.20 150.14 64.46 154.65 67.35 C 156.54 68.62 158.89 67.68 160.92 67.25 C 164.79 64.47 164.80 59.33 166.61 55.23 C 167.20 53.25 168.79 51.18 167.75 49.15 C 166.69 47.24 164.76 45.72 163.24 44.18 C 163.06 43.68 162.89 43.17 162.73 42.67 C 165.20 42.99 167.51 43.13 169.72 41.78 C 171.74 40.26 172.96 37.49 174.13 35.33 C 173.41 34.70 172.68 34.08 171.94 33.47 C 172.28 33.04 172.63 32.62 172.97 32.20 C 172.63 28.75 172.50 25.55 170.45 22.60 C 168.89 20.15 166.73 19.78 164.00 19.64 C 161.05 19.48 158.01 18.83 155.06 19.09 C 152.38 20.20 151.66 22.62 150.72 25.11 C 152.22 23.93 153.66 22.32 155.42 21.55 C 158.49 21.01 161.68 22.81 164.84 22.90 C 166.95 22.89 167.89 24.12 169.35 25.41 C 169.46 28.04 169.31 30.19 168.43 32.71 C 168.35 31.91 168.29 31.10 168.24 30.29 C 168.16 28.33 168.61 26.37 167.18 24.81 C 165.43 23.92 162.72 22.93 160.89 24.01 C 160.64 23.63 160.39 23.25 160.14 22.87 C 156.69 21.37 154.37 23.14 152.42 25.92 C 152.57 27.47 153.78 28.87 154.53 30.20 C 153.40 29.83 152.26 29.48 151.11 29.16 L 149.38 30.59 C 149.45 25.46 149.36 20.33 154.26 17.26 C 156.94 16.52 160.19 17.33 162.97 17.45 C 165.81 17.79 169.84 17.73 171.82 20.16 C 174.02 23.15 174.70 27.39 174.96 31.01 C 175.18 34.94 175.35 38.63 173.03 42.04 C 171.70 43.38 169.77 44.21 168.14 45.16 C 168.78 46.70 169.66 48.33 169.85 50.01 C 169.72 52.11 169.29 54.20 169.03 56.29 C 170.90 52.98 172.01 49.37 173.75 46.00 L 174.23 47.92 C 171.10 54.48 169.70 61.88 167.94 68.90 C 167.04 66.06 167.58 63.40 167.92 60.52 C 166.90 62.65 166.07 64.89 164.91 66.94 C 163.82 68.79 161.36 69.44 159.49 70.29 C 162.40 73.12 162.74 75.72 163.06 79.62 C 164.84 76.16 165.48 72.46 166.66 68.79 C 166.91 69.85 167.14 70.92 167.35 71.99 C 166.41 75.41 165.19 78.74 164.11 82.12 C 162.17 88.21 158.79 94.01 155.40 99.40 C 152.42 104.18 150.92 109.40 148.31 114.34 C 146.12 118.46 143.79 122.50 141.11 126.33 C 138.61 127.32 136.11 128.19 133.49 128.80 C 133.45 129.48 133.42 130.16 133.39 130.83 C 132.59 132.05 131.82 133.28 131.07 134.53 C 133.48 132.69 135.33 130.38 137.19 128.01 C 138.10 128.03 139.02 128.05 139.93 128.07 C 136.45 131.99 133.00 135.75 128.59 138.65 C 121.35 143.69 113.19 146.17 104.80 148.61 C 100.00 150.18 95.11 148.99 90.43 151.00 L 89.29 151.00 C 85.01 148.81 80.68 150.28 76.13 148.85 C 65.94 146.02 56.22 142.93 47.94 136.09 C 38.75 128.39 32.42 117.10 27.98 106.11 C 24.94 98.64 19.70 92.79 16.98 85.12 C 15.21 79.78 13.03 74.32 12.20 68.82 L 12.83 67.40 C 15.08 73.88 16.30 80.63 19.29 86.70 C 22.02 92.36 25.38 97.74 28.77 103.02 C 28.77 100.26 28.75 97.50 28.70 94.74 C 26.44 93.77 24.62 92.85 23.44 90.56 C 21.61 87.03 19.47 83.62 17.77 80.03 C 16.28 76.19 18.02 72.96 20.52 70.08 C 16.21 68.84 15.15 67.73 13.39 63.68 C 12.64 59.76 10.37 56.00 11.62 52.20 C 13.33 56.48 13.79 61.83 16.49 65.56 C 18.83 68.46 22.44 67.99 25.54 66.73 C 22.33 66.26 19.60 66.35 17.47 63.54 C 15.18 60.80 16.24 58.32 16.16 55.11 C 15.48 52.64 13.97 50.81 14.48 48.17 C 15.22 45.75 17.38 44.47 19.87 44.34 C 18.55 45.56 17.08 46.69 15.92 48.05 C 15.05 50.39 16.60 53.39 16.97 55.79 C 17.78 58.58 17.56 62.04 20.22 63.78 C 22.41 65.62 26.03 65.63 27.62 63.21 C 27.30 60.28 26.52 56.86 24.59 54.53 L 22.42 54.15 C 23.24 53.20 24.05 52.26 24.88 51.33 L 26.02 53.67 C 27.44 53.17 28.86 52.63 30.27 52.10 C 29.47 53.36 28.64 54.61 27.83 55.87 C 28.62 58.43 28.82 60.41 28.50 63.12 C 30.95 62.18 33.00 60.99 35.11 59.47 C 36.00 59.00 36.90 58.55 37.80 58.11 C 38.02 55.10 36.92 52.86 35.46 50.34 C 34.25 46.44 33.61 42.38 29.85 40.04 L 28.03 40.32 C 25.82 41.85 23.93 42.12 21.32 42.45 L 19.20 43.47 C 18.57 43.04 17.95 42.59 17.34 42.13 C 20.50 40.98 23.82 40.19 26.92 38.88 C 31.25 37.70 30.67 31.05 27.64 28.86 C 28.13 26.88 28.50 24.97 28.25 22.92 L 27.64 22.34 C 26.63 21.10 25.39 19.82 23.93 19.11 C 20.65 18.86 17.26 19.58 13.98 19.77 C 10.82 19.86 8.78 22.03 7.81 24.86 C 7.02 27.07 6.01 30.71 7.81 32.62 C 8.31 32.88 8.82 33.12 9.33 33.34 C 8.17 33.44 7.00 33.54 5.84 33.65 C 5.90 36.81 6.84 39.65 9.28 41.75 C 11.73 43.28 14.52 42.78 17.24 42.60 C 17.08 43.08 16.92 43.56 16.76 44.04 C 14.43 45.26 13.16 46.59 11.74 48.79 L 10.92 46.91 C 11.11 46.33 11.30 45.75 11.51 45.18 C 8.46 43.53 6.17 42.22 5.39 38.56 C 4.36 33.29 4.94 26.33 7.35 21.47 C 9.47 17.24 14.52 17.87 18.49 17.30 C 21.22 17.22 24.61 16.10 26.79 18.17 Z" fill="#b27273"/>
<path d="M 23.93 19.11 C 25.39 19.82 26.63 21.10 27.64 22.34 L 28.06 24.55 C 26.40 23.82 25.22 22.29 23.57 21.64 C 20.85 21.07 18.66 22.28 16.00 22.68 C 13.72 23.24 11.52 22.76 10.30 25.16 C 9.82 27.68 10.43 30.52 10.70 33.04 L 7.81 32.62 C 6.01 30.71 7.02 27.07 7.81 24.86 C 8.78 22.03 10.82 19.86 13.98 19.77 C 17.26 19.58 20.65 18.86 23.93 19.11 Z" fill="#f6f6f6"/>
<path d="M 155.06 19.09 C 158.01 18.83 161.05 19.48 164.00 19.64 C 166.73 19.78 168.89 20.15 170.45 22.60 C 172.18 25.84 172.54 28.91 172.40 32.55 C 171.08 32.61 169.75 32.66 168.43 32.71 C 169.31 30.19 169.46 28.04 169.35 25.41 C 167.89 24.12 166.95 22.89 164.84 22.90 C 161.68 22.81 158.49 21.01 155.42 21.55 C 153.66 22.32 152.22 23.93 150.72 25.11 C 151.66 22.62 152.38 20.20 155.06 19.09 Z" fill="#f0f0ef"/>
<path d="M 23.57 21.64 C 25.22 22.29 26.40 23.82 28.06 24.55 L 27.64 22.34 L 28.25 22.92 C 28.50 24.97 28.13 26.88 27.64 28.86 C 26.39 29.38 25.14 29.89 23.88 30.38 C 24.75 29.56 25.63 28.76 26.53 27.96 C 26.86 25.03 24.93 23.43 22.52 22.31 C 21.03 22.10 19.42 22.56 17.94 22.75 C 18.53 24.96 19.08 27.18 19.57 29.41 C 20.79 29.47 22.02 29.53 23.25 29.57 C 21.97 30.30 20.71 31.03 19.41 31.70 C 20.15 33.79 20.76 35.91 21.38 38.02 C 18.91 40.24 16.09 41.94 12.80 40.23 C 10.29 38.31 10.70 36.11 10.73 33.26 L 9.33 33.34 C 8.82 33.12 8.31 32.88 7.81 32.62 L 10.70 33.04 C 10.43 30.52 9.82 27.68 10.30 25.16 C 11.52 22.76 13.72 23.24 16.00 22.68 C 18.66 22.28 20.85 21.07 23.57 21.64 Z" fill="#656565"/>
<path d="M 22.52 22.31 C 24.93 23.43 26.86 25.03 26.53 27.96 C 25.63 28.76 24.75 29.56 23.88 30.38 C 25.14 29.89 26.39 29.38 27.64 28.86 C 30.67 31.05 31.25 37.70 26.92 38.88 C 23.82 40.19 20.50 40.98 17.34 42.13 C 17.95 42.59 18.57 43.04 19.20 43.47 L 21.32 42.45 C 21.70 45.54 22.22 48.61 22.84 51.66 C 21.00 52.24 19.45 52.36 18.37 54.16 C 19.72 54.15 21.07 54.15 22.42 54.15 L 24.59 54.53 C 26.52 56.86 27.30 60.28 27.62 63.21 C 26.03 65.63 22.41 65.62 20.22 63.78 C 17.56 62.04 17.78 58.58 16.97 55.79 C 16.60 53.39 15.05 50.39 15.92 48.05 C 17.08 46.69 18.55 45.56 19.87 44.34 C 17.38 44.47 15.22 45.75 14.48 48.17 C 13.97 50.81 15.48 52.64 16.16 55.11 C 16.24 58.32 15.18 60.80 17.47 63.54 C 19.60 66.35 22.33 66.26 25.54 66.73 C 22.44 67.99 18.83 68.46 16.49 65.56 C 13.79 61.83 13.33 56.48 11.62 52.20 C 11.68 51.07 11.72 49.93 11.74 48.79 C 13.16 46.59 14.43 45.26 16.76 44.04 C 16.92 43.56 17.08 43.08 17.24 42.60 C 14.52 42.78 11.73 43.28 9.28 41.75 C 6.84 39.65 5.90 36.81 5.84 33.65 C 7.00 33.54 8.17 33.44 9.33 33.34 L 10.73 33.26 C 10.70 36.11 10.29 38.31 12.80 40.23 C 16.09 41.94 18.91 40.24 21.38 38.02 C 20.76 35.91 20.15 33.79 19.41 31.70 C 20.71 31.03 21.97 30.30 23.25 29.57 C 22.02 29.53 20.79 29.47 19.57 29.41 C 19.08 27.18 18.53 24.96 17.94 22.75 C 19.42 22.56 21.03 22.10 22.52 22.31 Z" fill="#f7f7f7"/>
<path d="M 160.14 22.87 C 160.39 23.25 160.64 23.63 160.89 24.01 C 162.72 22.93 165.43 23.92 167.18 24.81 C 168.61 26.37 168.16 28.33 168.24 30.29 C 166.94 32.59 165.46 32.44 163.08 32.62 C 161.75 30.49 160.60 28.35 159.94 25.93 C 159.85 27.13 159.76 28.33 159.66 29.54 C 158.39 29.57 157.11 29.59 155.84 29.61 C 157.16 30.31 158.51 30.96 159.83 31.66 C 158.66 33.95 158.18 36.03 158.73 38.59 C 160.00 40.72 163.38 41.08 165.54 40.48 C 168.33 39.19 167.83 36.20 169.19 33.96 C 170.05 33.64 170.97 33.47 171.94 33.47 C 172.68 34.08 173.41 34.70 174.13 35.33 C 172.96 37.49 171.74 40.26 169.72 41.78 C 167.51 43.13 165.20 42.99 162.73 42.67 C 158.91 40.90 154.50 40.22 150.92 38.07 C 148.16 36.42 149.47 33.39 149.30 30.71 L 149.38 30.59 L 151.11 29.16 C 152.26 29.48 153.40 29.83 154.53 30.20 C 153.78 28.87 152.57 27.47 152.42 25.92 C 154.37 23.14 156.69 21.37 160.14 22.87 Z" fill="#f7f7f6"/>
<path d="M 170.45 22.60 C 172.50 25.55 172.63 28.75 172.97 32.20 C 172.63 32.62 172.28 33.04 171.94 33.47 C 170.97 33.47 170.05 33.64 169.19 33.96 C 167.83 36.20 168.33 39.19 165.54 40.48 C 163.38 41.08 160.00 40.72 158.73 38.59 C 158.18 36.03 158.66 33.95 159.83 31.66 C 158.51 30.96 157.16 30.31 155.84 29.61 C 157.11 29.59 158.39 29.57 159.66 29.54 C 159.76 28.33 159.85 27.13 159.94 25.93 C 160.60 28.35 161.75 30.49 163.08 32.62 C 165.46 32.44 166.94 32.59 168.24 30.29 C 168.29 31.10 168.35 31.91 168.43 32.71 C 169.75 32.66 171.08 32.61 172.40 32.55 C 172.54 28.91 172.18 25.84 170.45 22.60 Z" fill="#454545"/>
<path d="M 17.79 22.90 C 18.37 25.55 19.31 27.68 17.39 30.05 C 16.01 32.47 13.87 32.43 11.43 33.12 C 10.95 30.17 10.37 27.53 11.47 24.62 C 13.56 23.99 15.68 23.46 17.79 22.90 Z" fill="#f6f6f6"/>
<path d="M 27.31 30.31 C 28.02 31.41 29.69 32.60 29.43 34.00 C 28.85 36.60 26.15 39.14 23.34 38.76 C 22.94 36.84 26.48 36.52 26.80 34.90 C 27.03 33.38 27.20 31.85 27.31 30.31 Z" fill="#a49e9e"/>
<path d="M 149.30 30.71 C 149.47 33.39 148.16 36.42 150.92 38.07 C 154.50 40.22 158.91 40.90 162.73 42.67 C 162.89 43.17 163.06 43.68 163.24 44.18 C 163.82 46.67 165.30 48.92 164.25 51.45 C 162.88 54.60 163.55 57.69 163.01 60.93 C 161.93 64.62 158.71 65.52 155.85 67.57 C 157.55 67.53 159.24 67.42 160.92 67.25 C 158.89 67.68 156.54 68.62 154.65 67.35 C 150.14 64.46 145.63 64.20 142.84 59.25 C 140.65 56.67 142.42 52.66 142.73 49.60 C 143.98 45.27 144.86 41.71 148.74 38.94 C 147.63 35.80 146.46 33.39 149.30 30.71 Z" fill="#948788"/>
<path d="M 151.73 30.39 C 151.98 32.01 151.72 34.04 152.44 35.53 C 153.60 36.52 154.90 37.37 156.13 38.27 C 153.09 39.61 150.44 36.72 149.85 34.00 C 149.62 32.70 151.14 31.47 151.73 30.39 Z" fill="#9d9998"/>
<path d="M 18.54 33.45 C 19.53 34.81 20.08 36.38 20.29 38.04 C 18.58 39.06 16.88 39.64 14.87 39.61 C 12.07 38.32 12.00 35.90 10.88 33.34 C 13.29 33.49 16.23 32.79 18.54 33.45 Z" fill="#f9f8f8"/>
<path d="M 160.76 32.48 C 162.60 32.83 164.43 33.19 166.24 33.66 C 167.79 34.08 167.19 36.73 167.41 37.95 C 163.76 40.15 162.64 40.00 158.77 38.50 C 159.20 36.38 159.55 34.33 160.76 32.48 Z" fill="#faf7f8"/>
<path d="M 4.08 39.65 C 6.19 43.99 7.56 48.63 9.66 52.98 C 9.89 50.91 10.17 48.87 10.92 46.91 L 11.74 48.79 C 11.72 49.93 11.68 51.07 11.62 52.20 C 10.37 56.00 12.64 59.76 13.39 63.68 C 13.25 64.92 13.04 66.16 12.83 67.40 L 12.20 68.82 C 10.32 63.68 9.59 58.27 7.76 53.12 C 6.45 49.38 4.70 45.96 3.79 42.05 L 4.08 39.65 Z" fill="#d2898e"/>
<path d="M 28.03 40.32 C 32.07 42.94 32.39 47.11 35.46 50.34 C 36.92 52.86 38.02 55.10 37.80 58.11 C 36.90 58.55 36.00 59.00 35.11 59.47 C 34.96 57.41 34.83 55.35 34.70 53.29 C 31.24 49.97 32.22 44.54 27.94 42.84 C 26.00 41.65 24.92 43.39 23.31 44.26 C 23.85 46.61 24.29 48.99 24.88 51.33 C 24.05 52.26 23.24 53.20 22.42 54.15 C 21.07 54.15 19.72 54.15 18.37 54.16 C 19.45 52.36 21.00 52.24 22.84 51.66 C 22.22 48.61 21.70 45.54 21.32 42.45 C 23.93 42.12 25.82 41.85 28.03 40.32 Z" fill="#b1b1ae"/>
<path d="M 28.03 40.32 L 29.85 40.04 C 33.61 42.38 34.25 46.44 35.46 50.34 C 32.39 47.11 32.07 42.94 28.03 40.32 Z" fill="#d9cec8"/>
<path d="M 152.14 39.85 C 150.55 41.33 148.73 42.71 147.38 44.41 C 146.25 46.26 145.81 48.60 145.17 50.66 L 143.60 50.45 C 145.06 45.92 146.09 39.74 152.14 39.85 Z" fill="#dfd4d2"/>
<path d="M 159.63 42.99 C 159.53 43.73 159.44 44.47 159.34 45.21 C 160.63 46.11 163.28 47.10 163.34 48.92 C 163.04 52.65 161.90 56.32 161.18 60.00 C 160.54 64.34 155.31 66.57 151.74 63.88 C 151.27 61.35 152.28 57.90 153.69 55.71 C 154.93 53.49 157.77 54.49 159.89 54.26 C 159.70 53.72 159.50 53.18 159.31 52.64 C 158.20 52.50 157.09 52.36 155.98 52.22 C 156.51 49.37 157.06 46.54 157.44 43.67 L 156.07 44.57 C 154.88 47.58 154.56 50.86 153.08 53.83 C 151.35 53.04 149.62 52.27 147.88 51.51 C 149.03 52.94 150.20 54.36 151.37 55.77 C 150.48 58.27 150.26 60.38 150.37 63.04 C 148.37 62.04 146.01 61.21 144.31 59.73 C 143.77 57.45 143.58 55.07 143.27 52.75 C 148.74 50.78 145.74 44.23 151.84 42.27 C 154.45 42.40 157.04 42.65 159.63 42.99 Z" fill="#f9f9f9"/>
<path d="M 27.94 42.84 C 32.22 44.54 31.24 49.97 34.70 53.29 C 34.83 55.35 34.96 57.41 35.11 59.47 C 33.00 60.99 30.95 62.18 28.50 63.12 C 28.82 60.41 28.62 58.43 27.83 55.87 C 28.64 54.61 29.47 53.36 30.27 52.10 C 28.86 52.63 27.44 53.17 26.02 53.67 L 24.88 51.33 C 24.29 48.99 23.85 46.61 23.31 44.26 C 24.92 43.39 26.00 41.65 27.94 42.84 Z" fill="#f9f9f9"/>
<path d="M 163.24 44.18 C 164.76 45.72 166.69 47.24 167.75 49.15 C 168.79 51.18 167.20 53.25 166.61 55.23 C 164.80 59.33 164.79 64.47 160.92 67.25 C 159.24 67.42 157.55 67.53 155.85 67.57 C 158.71 65.52 161.93 64.62 163.01 60.93 C 163.55 57.69 162.88 54.60 164.25 51.45 C 165.30 48.92 163.82 46.67 163.24 44.18 Z" fill="#fcfdfc"/>
<path d="M 167.92 60.52 C 167.58 63.40 167.04 66.06 167.94 68.90 C 167.77 69.93 167.59 70.97 167.35 71.99 C 167.14 70.92 166.91 69.85 166.66 68.79 C 165.48 72.46 164.84 76.16 163.06 79.62 C 162.74 75.72 162.40 73.12 159.49 70.29 C 161.36 69.44 163.82 68.79 164.91 66.94 C 166.07 64.89 166.90 62.65 167.92 60.52 Z" fill="#e2b5b2"/>
<path d="M 32.77 63.04 C 33.12 64.36 30.19 65.36 29.22 64.82 C 28.92 63.62 31.87 62.38 32.77 63.04 Z" fill="#ecb8c0"/>
<path d="M 37.33 63.43 C 38.30 63.83 39.26 64.24 40.22 64.67 C 38.86 64.83 37.50 65.00 36.14 65.17 C 34.75 65.80 33.35 66.40 31.94 66.97 C 32.76 64.70 35.27 64.11 37.33 63.43 Z" fill="#ecc6c3"/>
<path d="M 147.80 66.33 C 146.37 66.30 144.99 65.93 143.64 65.21 C 142.38 64.97 141.13 64.74 139.88 64.51 C 143.44 62.81 145.01 63.76 147.80 66.33 Z" fill="#ecc6bf"/>
<path d="M 13.39 63.68 C 15.15 67.73 16.21 68.84 20.52 70.08 C 18.02 72.96 16.28 76.19 17.77 80.03 C 19.47 83.62 21.61 87.03 23.44 90.56 C 24.62 92.85 26.44 93.77 28.70 94.74 C 28.75 97.50 28.77 100.26 28.77 103.02 C 25.38 97.74 22.02 92.36 19.29 86.70 C 16.30 80.63 15.08 73.88 12.83 67.40 C 13.04 66.16 13.25 64.92 13.39 63.68 Z" fill="#e4afae"/>
<path d="M 38.69 66.30 C 44.47 70.59 47.18 78.66 46.67 85.65 C 44.20 87.18 42.04 88.72 39.06 89.09 C 38.62 88.64 38.26 88.08 37.97 87.41 C 34.72 88.52 32.66 89.00 29.29 87.82 C 27.18 84.60 23.73 79.97 24.45 75.93 C 25.55 73.07 28.39 70.66 30.44 68.41 C 31.36 67.22 33.13 68.16 34.36 68.36 C 35.75 66.94 36.41 65.50 38.69 66.30 Z" fill="#f4f4f4"/>
<path d="M 143.33 66.37 C 143.69 67.15 144.05 67.93 144.40 68.72 C 145.33 68.23 146.26 67.74 147.19 67.24 C 149.83 69.51 152.24 72.15 154.27 74.97 C 155.47 78.57 153.05 83.11 151.01 86.02 C 149.39 88.73 145.79 89.17 143.06 88.02 C 140.43 86.88 137.65 85.41 135.59 83.39 C 133.73 80.41 136.18 76.77 137.36 73.98 L 134.51 73.74 C 135.31 71.80 136.10 69.84 136.98 67.94 C 139.12 66.67 140.79 66.03 143.33 66.37 Z" fill="#f7f7f7"/>
<path d="M 29.05 66.67 C 27.90 70.62 24.87 72.49 22.15 75.29 C 22.38 70.33 24.85 68.44 29.05 66.67 Z" fill="#efebe8"/>
<path d="M 149.97 66.66 C 154.06 68.20 157.14 70.26 156.77 75.20 C 154.08 72.39 151.07 70.62 149.97 66.66 Z" fill="#e9e8e7"/>
<path d="M 143.49 69.96 C 143.61 70.93 143.74 71.90 143.88 72.87 C 145.70 72.59 147.35 71.97 149.02 71.22 C 146.53 72.44 145.45 73.46 143.95 75.86 C 145.97 78.49 148.06 80.51 150.75 82.45 C 148.46 80.93 146.10 79.52 143.71 78.15 C 143.01 79.84 142.32 81.52 141.54 83.17 C 142.00 80.76 142.52 78.37 142.76 75.92 C 141.37 75.57 139.98 75.21 138.60 74.84 C 140.22 74.90 141.73 74.69 143.13 74.22 C 143.46 72.85 143.58 71.43 143.49 69.96 Z" fill="#0f0f0f"/>
<path d="M 30.16 71.07 C 31.47 71.51 32.77 71.97 34.08 72.43 C 34.82 72.00 35.57 71.57 36.31 71.15 C 36.30 72.10 36.29 73.05 36.27 74.00 C 37.75 74.10 39.23 74.20 40.71 74.32 C 39.38 75.45 37.94 76.34 36.39 77.14 C 37.41 79.61 38.24 82.10 38.72 84.74 C 37.00 82.98 35.83 81.26 34.78 79.03 C 32.63 80.29 30.44 81.50 28.25 82.70 C 30.05 80.56 33.98 78.04 34.05 75.11 C 32.97 73.63 31.49 72.35 30.16 71.07 Z" fill="#9b9c9c"/>
<path d="M 20.34 72.96 C 21.08 73.88 21.78 74.82 22.44 75.79 C 22.58 78.75 23.73 80.54 25.41 82.86 C 25.83 84.68 25.90 86.32 27.23 87.76 C 29.21 90.41 32.74 89.54 35.64 90.05 C 33.55 91.36 31.34 92.22 28.99 92.95 C 24.11 90.28 23.50 85.71 20.54 81.49 C 18.77 79.08 18.70 75.46 20.34 72.96 Z" fill="#fbfcfb"/>
<path d="M 159.17 72.66 C 159.56 75.00 160.22 77.70 159.46 80.02 C 158.31 82.25 156.80 84.25 155.75 86.54 C 154.64 88.59 154.14 90.75 151.87 91.82 C 148.94 93.74 145.83 91.35 143.23 89.99 C 145.90 89.64 149.19 90.30 151.24 88.25 C 153.02 86.79 153.19 84.93 153.59 82.82 C 155.58 80.47 156.16 78.85 156.53 75.81 C 157.35 74.71 158.26 73.68 159.17 72.66 Z" fill="#fbfcfa"/>
<path d="M 132.86 75.26 C 133.36 76.15 133.85 77.04 134.33 77.95 C 134.46 80.03 134.29 82.21 134.69 84.26 C 136.89 86.44 140.04 87.27 142.12 89.71 C 139.09 89.03 134.56 88.07 132.68 85.30 C 130.98 82.40 133.52 78.62 132.86 75.26 Z" fill="#e4dbdb"/>
<path d="M 161.84 82.96 C 159.86 89.64 155.80 96.03 151.73 101.64 C 151.50 99.36 151.31 97.08 151.20 94.78 C 156.16 93.31 157.30 89.45 159.20 85.20 C 159.99 84.37 160.87 83.62 161.84 82.96 Z" fill="#ecbcb8"/>
<path d="M 47.83 91.64 C 43.53 91.38 39.51 91.47 35.65 93.66 C 32.23 96.24 32.47 101.73 35.48 104.48 C 38.67 106.91 42.14 104.86 45.72 104.43 C 48.32 104.16 49.56 102.35 51.47 100.85 C 50.50 103.35 49.14 104.65 46.93 106.07 C 44.47 106.99 42.06 108.02 39.60 108.96 C 32.59 109.33 28.53 101.04 31.10 95.17 C 32.72 93.16 35.85 92.20 38.16 91.19 C 41.44 89.84 44.73 89.83 47.83 91.64 Z" fill="#fcfaf9"/>
<path d="M 53.03 89.87 C 53.73 90.54 54.40 91.23 55.06 91.95 C 56.34 97.32 57.81 102.54 60.72 107.30 C 63.15 111.83 66.72 115.06 70.53 118.45 C 74.12 121.11 78.48 122.85 82.69 124.28 C 81.19 124.57 79.98 125.15 78.47 124.52 C 72.64 122.34 67.07 118.66 63.30 113.65 C 60.71 110.33 58.23 107.18 56.84 103.15 C 55.32 98.81 53.87 94.39 53.03 89.87 Z" fill="#d0848c"/>
<path d="M 146.90 94.13 C 149.28 95.58 148.65 98.70 148.53 101.05 C 147.68 105.44 143.38 110.43 138.43 108.53 C 134.01 106.81 128.47 105.36 127.38 100.02 C 128.19 99.54 129.01 99.05 129.83 98.57 C 129.58 97.66 129.33 96.76 129.08 95.86 C 131.05 94.55 133.48 91.96 136.00 92.53 C 138.60 92.99 142.57 94.15 143.63 96.86 C 143.81 98.64 143.81 100.47 143.86 102.26 C 141.45 105.58 138.66 104.46 135.11 104.63 C 135.39 100.61 135.96 97.78 138.55 94.62 C 137.59 94.40 136.63 94.17 135.68 93.95 C 134.86 96.60 134.38 100.45 131.98 102.17 C 131.10 101.42 130.34 100.53 129.70 99.51 C 129.18 100.09 128.65 100.68 128.12 101.26 C 129.75 102.72 130.94 104.19 133.23 104.46 C 136.68 104.92 140.43 106.81 143.51 104.42 C 146.70 101.58 146.76 96.35 143.35 93.64 C 139.58 91.39 135.63 91.33 131.39 91.69 C 136.39 88.32 142.39 91.44 146.90 94.13 Z" fill="#faf9f9"/>
<path d="M 42.98 92.54 C 45.77 92.04 47.57 94.33 49.58 95.84 C 49.38 97.83 49.65 102.72 46.35 101.69 C 44.74 99.51 44.12 96.46 43.45 93.88 C 42.48 94.16 41.51 94.42 40.54 94.69 C 42.95 98.02 43.86 100.47 43.65 104.62 C 41.33 104.61 39.01 104.59 36.68 104.57 C 35.54 102.04 34.76 99.67 35.38 96.86 C 36.69 94.01 40.15 93.05 42.98 92.54 Z" fill="#faf8f9"/>
<path d="M 29.62 105.74 C 32.15 108.40 34.59 110.52 38.05 111.93 C 37.31 114.14 36.59 116.36 35.86 118.58 C 33.28 114.59 31.05 110.28 29.62 105.74 Z" fill="#e0aeaf"/>
<path d="M 46.93 106.07 L 48.75 107.32 C 45.73 108.33 42.79 109.50 40.06 111.16 L 39.60 108.96 C 42.06 108.02 44.47 106.99 46.93 106.07 Z" fill="#847e7d"/>
<path d="M 150.39 105.73 C 148.80 110.27 146.69 114.64 144.09 118.70 C 143.37 116.32 142.67 113.94 141.97 111.56 C 145.77 110.82 147.75 108.23 150.39 105.73 Z" fill="#ebb0b2"/>
<path d="M 48.75 107.32 C 49.47 107.26 50.19 107.20 50.91 107.15 C 55.42 108.75 58.70 111.91 57.74 117.06 C 55.52 120.33 52.19 123.01 48.82 125.01 C 45.36 126.64 42.91 124.96 40.11 123.09 C 37.22 118.84 37.53 115.47 40.06 111.16 C 42.79 109.50 45.73 108.33 48.75 107.32 Z" fill="#f5f5f4"/>
<path d="M 126.78 106.92 C 127.78 107.04 128.78 107.17 129.78 107.31 C 132.83 108.22 136.27 109.24 138.78 111.26 C 140.50 112.97 141.55 115.61 141.68 118.01 C 140.68 121.15 138.36 124.45 135.15 125.62 C 132.53 126.10 130.33 125.30 128.24 123.78 C 125.88 122.02 123.10 120.07 121.61 117.48 C 120.33 114.51 121.97 110.88 124.35 108.94 C 123.72 111.90 122.09 114.19 123.49 117.21 C 124.34 115.31 124.37 113.14 125.21 111.28 C 126.36 110.15 128.28 109.79 129.73 109.16 C 128.74 108.42 127.75 107.67 126.78 106.92 Z" fill="#f5f6f5"/>
<path d="M 49.42 108.35 C 50.94 108.32 52.42 108.49 53.85 108.86 C 55.55 111.02 57.80 114.65 54.99 116.88 C 54.41 114.36 55.16 112.04 52.56 110.59 C 51.51 109.85 50.46 109.11 49.42 108.35 Z" fill="#978e8d"/>
<path d="M 46.32 109.72 C 44.64 111.55 41.36 113.11 41.88 116.00 C 41.78 118.94 45.10 120.93 46.96 122.86 C 44.99 122.25 43.09 121.97 41.63 120.37 C 39.89 118.59 39.69 116.32 39.82 113.94 C 41.02 111.24 43.41 109.87 46.32 109.72 Z" fill="#9c9091"/>
<path d="M 132.67 109.77 C 135.11 109.82 136.31 110.25 137.99 112.00 C 139.90 113.51 139.26 115.85 138.90 117.93 C 137.70 121.05 135.23 122.27 132.10 122.77 C 134.58 120.33 137.22 118.90 137.46 115.03 C 136.90 112.81 134.24 111.33 132.67 109.77 Z" fill="#a09896"/>
<path d="M 48.38 110.05 C 51.15 111.16 52.02 115.63 53.54 118.05 C 53.03 118.61 52.33 118.98 51.44 119.18 C 51.11 115.77 48.50 113.38 48.38 110.05 Z" fill="#897c7e"/>
<path d="M 130.23 109.69 L 130.80 112.01 C 129.12 114.54 127.98 116.34 127.76 119.51 C 126.97 119.14 126.18 118.76 125.41 118.37 C 126.20 116.35 127.26 114.43 128.31 112.53 C 128.93 111.57 129.57 110.63 130.23 109.69 Z" fill="#998f92"/>
<path d="M 57.74 117.06 C 57.60 117.99 57.47 118.93 57.35 119.86 L 58.27 120.19 C 55.50 122.56 52.72 124.79 49.63 126.75 C 45.72 126.62 42.80 126.25 40.11 123.09 C 42.91 124.96 45.36 126.64 48.82 125.01 C 52.19 123.01 55.52 120.33 57.74 117.06 Z" fill="#a79a98"/>
<path d="M 117.04 119.16 C 120.65 119.84 123.19 122.00 126.09 124.06 C 124.92 126.29 124.14 129.82 121.54 130.62 C 119.81 131.54 118.41 130.22 116.68 129.79 L 116.46 131.73 C 114.62 129.54 112.96 126.83 112.43 123.99 C 113.13 121.35 114.72 120.28 117.04 119.16 Z" fill="#f9f9f8"/>
<path d="M 49.48 120.26 C 52.20 119.28 51.18 123.25 49.06 123.00 C 47.54 122.63 48.66 120.77 49.48 120.26 Z" fill="#c9cacc"/>
<path d="M 58.27 120.19 C 59.04 120.20 59.81 120.22 60.57 120.25 C 61.13 121.09 61.68 121.94 62.20 122.80 C 63.92 126.15 62.84 130.15 58.95 131.04 C 55.73 130.36 54.96 128.15 53.68 125.48 C 51.52 129.84 56.05 133.18 60.08 132.80 L 61.60 132.85 C 60.36 136.60 55.15 136.07 52.46 134.50 C 50.17 132.42 47.10 130.00 49.63 126.75 C 52.72 124.79 55.50 122.56 58.27 120.19 Z" fill="#f9f7f8"/>
<path d="M 61.04 118.77 C 62.27 119.28 63.50 119.82 64.72 120.36 C 65.63 121.72 66.75 123.32 66.93 124.97 C 65.98 127.53 64.41 129.88 62.80 132.07 L 61.25 132.51 C 62.51 130.06 64.23 127.64 65.01 124.98 C 64.67 122.71 63.10 121.73 61.51 120.31 L 61.04 118.77 Z" fill="#d8d3d1"/>
<path d="M 128.13 120.33 C 129.12 119.65 131.20 121.71 130.54 122.70 C 129.29 123.40 127.33 121.61 128.13 120.33 Z" fill="#c6c3c8"/>
<path d="M 61.51 120.31 C 63.10 121.73 64.67 122.71 65.01 124.98 C 64.23 127.64 62.51 130.06 61.25 132.51 C 60.86 132.62 60.47 132.71 60.08 132.80 C 56.05 133.18 51.52 129.84 53.68 125.48 C 54.96 128.15 55.73 130.36 58.95 131.04 C 62.84 130.15 63.92 126.15 62.20 122.80 L 61.51 120.31 Z" fill="#9b9395"/>
<path d="M 118.36 120.25 C 116.68 122.99 115.91 125.19 115.54 128.41 C 112.13 125.53 114.50 120.92 118.36 120.25 Z" fill="#999996"/>
<path d="M 106.98 125.10 C 112.85 127.18 114.05 132.01 117.62 136.52 C 114.43 138.98 110.77 140.06 106.88 140.90 C 105.72 141.24 104.60 140.66 103.53 139.17 C 103.19 140.39 102.84 141.60 102.52 142.82 C 99.16 143.85 95.84 144.55 92.35 143.68 C 91.32 143.11 90.10 142.31 90.09 141.00 C 89.81 138.34 89.74 135.33 90.72 132.80 C 91.42 130.94 93.35 129.51 94.74 128.15 C 95.97 128.22 97.20 128.29 98.43 128.35 C 100.33 131.45 100.97 134.82 101.58 138.34 C 102.35 138.30 103.12 138.27 103.89 138.23 C 102.78 135.05 101.28 131.33 103.07 128.10 C 103.91 126.41 105.41 125.91 106.98 125.10 Z" fill="#fbfbfb"/>
<path d="M 73.90 126.01 C 77.00 127.90 77.18 131.19 76.48 134.42 C 75.89 136.62 75.51 139.91 73.61 141.38 C 69.28 140.26 65.06 139.36 61.90 136.03 C 63.96 133.12 65.74 129.74 68.32 127.27 C 69.92 126.11 72.02 124.42 73.90 126.01 Z" fill="#fbfbfb"/>
<path d="M 127.47 125.20 C 128.62 126.43 131.50 127.78 130.89 129.84 C 129.05 132.46 126.54 135.65 123.02 135.67 C 120.76 135.78 118.05 135.53 117.58 132.83 C 121.60 133.03 122.72 132.38 125.53 129.73 C 125.66 128.83 125.81 127.93 125.96 127.04 C 126.46 126.42 126.96 125.81 127.47 125.20 Z" fill="#f3f4f2"/>
<path d="M 85.74 126.78 C 88.38 126.81 91.02 126.86 93.66 126.94 C 92.41 128.38 91.16 129.81 89.90 131.24 C 88.52 129.75 87.13 128.27 85.74 126.78 Z" fill="#e7b4b0"/>
<path d="M 42.32 127.75 C 43.67 127.97 45.01 128.21 46.34 128.49 C 47.48 130.69 48.43 132.96 49.35 135.26 C 46.54 133.08 44.34 130.66 42.32 127.75 Z" fill="#efc1c0"/>
<path d="M 80.61 128.42 C 81.82 128.30 83.03 128.20 84.23 128.10 C 86.47 130.16 88.63 131.72 88.90 135.00 C 89.02 137.56 89.89 142.56 86.83 143.74 C 83.25 144.95 79.51 144.00 76.26 142.26 C 77.76 137.74 78.23 132.53 80.61 128.42 Z" fill="#fafafa"/>
<path d="M 114.59 136.00 C 112.88 139.09 108.35 139.49 105.26 140.29 L 105.59 138.72 C 108.55 137.72 111.61 136.97 114.59 136.00 Z" fill="#a19a9c"/>
<path d="M 52.58 137.38 C 55.31 137.80 58.03 138.10 60.80 138.18 C 66.21 142.68 72.64 142.20 78.49 145.54 C 82.47 147.32 86.75 146.21 90.73 145.12 C 95.09 147.56 99.21 146.34 103.74 145.24 C 104.25 145.82 104.75 146.39 105.25 146.97 C 100.56 147.70 95.76 149.03 91.00 149.04 C 80.92 148.78 70.87 146.45 61.65 142.38 C 58.43 140.99 55.29 139.66 52.58 137.38 Z" fill="#dfb6b3"/>
<path d="M 64.78 136.17 C 66.09 136.54 67.39 136.91 68.69 137.29 C 70.36 138.08 74.02 137.83 73.72 140.32 C 71.63 139.82 69.55 139.30 67.49 138.68 C 66.26 138.18 65.36 137.34 64.78 136.17 Z" fill="#989090"/>
<path d="M 119.16 138.23 C 121.60 137.98 124.02 137.98 126.47 138.00 C 122.45 141.02 117.95 142.45 113.38 144.39 C 111.35 145.19 109.18 146.06 106.99 146.18 C 105.69 146.09 104.52 144.86 103.49 144.15 C 109.07 142.68 114.41 141.75 119.16 138.23 Z" fill="#eab5b2"/>
<path d="M 87.49 141.27 C 86.75 144.28 80.53 143.70 78.94 141.73 C 81.83 141.77 84.63 141.66 87.49 141.27 Z" fill="#959192"/>
<path d="M 91.65 141.20 C 94.64 141.69 97.32 141.74 100.34 141.46 C 99.01 142.66 97.88 143.37 96.01 143.35 C 94.09 143.15 92.02 143.64 91.65 141.20 Z" fill="#9e9997"/></svg>