<svg xmlns:xlink="http://www.w3.org/1999/xlink" xmlns="http://www.w3.org/2000/svg" viewBox="0 0 179 147" height="147" width="179" version="1.1">
<path d="M 0.00 0.00 L 179.00 0.00 L 179.00 147.00 L 0.00 147.00 L 0.00 127.18 C 1.34 132.07 2.26 138.39 5.75 142.24 C 7.37 144.22 9.57 145.10 11.99 145.66 C 17.57 144.26 23.43 143.32 28.78 141.19 C 33.50 136.61 36.67 130.22 40.30 124.77 C 41.70 122.58 43.04 120.40 44.13 118.03 C 45.70 114.45 46.41 110.33 47.45 106.52 C 49.54 98.63 51.63 90.71 54.19 82.95 C 56.43 76.49 57.38 70.41 62.06 65.09 C 63.93 63.71 66.71 63.42 68.93 62.89 C 72.58 62.25 77.11 60.97 80.69 62.27 C 83.87 63.38 86.12 66.82 88.27 69.27 C 88.34 75.54 88.77 81.77 88.28 88.04 C 89.85 88.40 91.42 88.76 93.00 89.12 C 93.28 82.25 92.70 75.46 92.62 68.57 C 97.07 65.50 102.31 64.67 107.59 65.43 C 111.25 66.34 113.88 69.49 116.40 72.09 C 115.96 70.58 115.52 69.07 115.10 67.55 C 119.04 68.48 122.94 69.14 126.08 71.92 C 128.81 74.42 131.00 77.63 133.19 80.60 C 135.33 83.89 138.13 86.46 140.99 89.09 C 140.24 95.08 140.03 100.71 142.94 106.23 C 145.03 108.18 147.43 109.60 149.90 111.00 C 147.89 114.18 146.00 117.05 146.23 121.00 C 146.07 127.15 150.59 131.65 153.91 136.34 C 156.16 139.50 158.71 142.36 161.80 144.73 C 166.68 145.81 171.02 143.83 173.71 139.72 C 177.42 133.78 177.78 126.43 176.93 119.65 C 176.87 118.86 176.80 118.07 176.72 117.28 C 175.72 104.22 170.71 91.02 166.19 78.81 C 164.23 72.01 163.61 65.72 159.16 59.81 C 156.62 56.72 154.92 53.64 153.43 49.93 C 152.97 51.95 152.51 53.97 152.04 55.99 C 151.19 56.49 150.34 56.99 149.48 57.49 C 150.31 54.99 151.85 52.03 151.59 49.36 C 150.47 46.77 148.04 44.62 146.22 42.49 C 148.78 43.99 151.21 45.68 153.64 47.39 C 151.68 44.66 149.44 42.17 147.17 39.70 C 146.31 40.46 145.44 41.20 144.56 41.93 C 145.16 37.68 143.87 33.95 142.94 29.89 C 142.00 28.92 141.07 27.95 140.15 26.97 L 140.06 26.18 C 139.57 22.46 139.41 17.13 136.33 14.60 C 133.49 12.14 130.30 12.51 126.84 12.97 L 126.32 12.24 C 122.82 5.50 116.13 5.22 109.46 4.29 C 105.50 3.21 102.01 1.67 97.83 1.44 C 93.90 1.23 89.90 1.49 86.06 2.35 C 84.38 2.80 82.72 3.32 81.05 3.80 C 77.89 3.87 74.73 3.84 71.57 4.03 L 70.55 4.13 C 73.15 3.43 75.75 2.72 78.32 1.91 C 74.90 1.96 71.55 2.25 68.27 3.22 C 63.81 4.49 58.54 5.21 54.56 7.56 C 51.97 9.08 50.46 11.42 48.21 13.21 C 45.40 14.68 41.52 14.95 39.40 17.37 C 37.24 19.51 36.52 22.14 35.76 24.98 C 38.82 22.04 41.16 17.98 44.64 15.58 C 46.21 14.47 48.10 15.58 49.54 16.39 C 52.43 18.41 54.89 21.27 56.65 24.32 C 59.09 28.41 58.08 34.36 54.04 37.06 C 52.58 38.25 50.36 36.94 48.78 36.49 C 50.59 35.30 52.41 34.15 54.24 32.99 C 52.34 33.05 50.05 33.45 48.24 32.77 C 44.82 31.40 41.58 28.72 38.47 26.85 C 37.84 26.35 36.77 27.04 36.22 27.39 C 34.15 28.88 32.56 31.14 31.23 33.28 C 29.45 35.82 30.16 39.62 32.29 41.72 C 34.19 43.51 37.08 44.03 39.54 44.66 C 40.36 40.62 41.62 37.47 44.01 34.11 C 44.93 35.73 47.04 37.95 46.81 39.90 C 45.86 42.62 44.07 45.06 42.85 47.67 C 46.85 45.40 47.86 42.04 49.13 37.91 L 49.18 38.84 C 49.23 42.48 47.95 45.52 46.34 48.69 C 45.23 48.99 44.12 49.30 43.00 49.61 C 39.94 47.18 36.91 45.28 32.91 44.87 C 31.54 43.13 30.22 41.35 28.84 39.63 C 24.68 46.82 21.33 54.53 17.90 62.09 C 15.76 66.48 14.22 71.06 12.72 75.69 C 9.11 85.70 5.70 95.75 2.99 106.04 C 1.85 110.58 1.15 115.21 0.00 119.75 L 0.00 0.00 Z" fill="#ffffff"/>
<path d="M 97.83 1.44 C 102.01 1.67 105.50 3.21 109.46 4.29 C 109.44 5.04 109.42 5.79 109.38 6.54 C 109.27 7.68 109.12 8.82 108.92 9.96 C 108.76 10.88 108.59 11.80 108.43 12.72 C 107.72 16.22 106.56 20.24 107.09 23.81 C 107.79 26.83 110.91 28.34 113.85 27.86 C 116.11 27.75 117.11 25.96 118.24 24.29 C 120.75 20.02 122.99 15.57 124.50 10.86 C 125.11 11.30 125.72 11.76 126.32 12.24 L 126.84 12.97 L 125.75 14.50 C 123.00 18.57 120.28 22.93 118.67 27.58 C 116.79 31.63 122.59 37.47 126.47 34.52 C 129.89 32.77 133.03 30.22 136.37 28.22 C 137.58 27.51 138.82 26.84 140.06 26.18 L 140.15 26.97 C 138.73 28.34 137.30 29.69 135.76 30.94 C 134.01 31.93 132.24 32.92 130.47 33.88 C 129.04 34.68 127.46 35.52 126.25 36.64 C 125.47 37.77 124.78 38.96 124.12 40.17 C 121.82 37.45 119.46 34.63 116.74 32.30 C 114.33 30.12 110.37 29.92 107.51 28.40 C 106.40 27.30 105.59 25.82 104.76 24.50 L 104.57 24.58 C 102.51 25.49 100.27 26.69 98.01 26.92 C 96.13 26.81 94.24 26.20 92.44 25.72 L 91.64 25.48 C 91.00 26.07 90.35 26.65 89.71 27.24 C 89.46 24.47 89.16 21.72 88.66 18.99 C 86.21 21.43 83.38 25.26 79.84 26.01 C 77.08 26.26 74.06 24.93 71.44 24.11 C 67.91 27.65 65.53 28.88 60.57 29.85 C 59.31 32.52 58.45 35.10 56.20 37.14 C 53.90 39.24 51.65 41.35 49.68 43.78 C 49.51 42.13 49.32 40.49 49.18 38.84 L 49.13 37.91 C 47.86 42.04 46.85 45.40 42.85 47.67 C 44.07 45.06 45.86 42.62 46.81 39.90 C 47.04 37.95 44.93 35.73 44.01 34.11 C 41.62 37.47 40.36 40.62 39.54 44.66 C 37.08 44.03 34.19 43.51 32.29 41.72 C 30.16 39.62 29.45 35.82 31.23 33.28 C 32.56 31.14 34.15 28.88 36.22 27.39 C 36.77 27.04 37.84 26.35 38.47 26.85 C 41.58 28.72 44.82 31.40 48.24 32.77 C 50.05 33.45 52.34 33.05 54.24 32.99 C 52.41 34.15 50.59 35.30 48.78 36.49 C 50.36 36.94 52.58 38.25 54.04 37.06 C 58.08 34.36 59.09 28.41 56.65 24.32 C 54.89 21.27 52.43 18.41 49.54 16.39 C 48.10 15.58 46.21 14.47 44.64 15.58 C 41.16 17.98 38.82 22.04 35.76 24.98 C 36.52 22.14 37.24 19.51 39.40 17.37 C 41.52 14.95 45.40 14.68 48.21 13.21 C 50.46 11.42 51.97 9.08 54.56 7.56 C 58.54 5.21 63.81 4.49 68.27 3.22 C 71.55 2.25 74.90 1.96 78.32 1.91 C 75.75 2.72 73.15 3.43 70.55 4.13 C 69.66 4.35 68.77 4.58 67.88 4.81 C 68.98 10.24 70.04 16.34 72.83 21.19 C 75.39 25.36 81.43 24.96 84.04 21.03 C 87.41 15.72 87.90 8.27 86.06 2.35 C 89.90 1.49 93.90 1.23 97.83 1.44 Z" fill="#929292"/>
<path d="M 104.96 4.08 C 106.16 4.55 107.77 5.37 107.56 6.90 C 107.19 11.14 105.97 16.55 104.43 20.53 C 102.81 24.76 97.00 26.76 93.42 23.59 C 91.03 21.40 90.51 17.10 89.55 14.12 C 92.43 17.26 94.73 19.10 99.00 20.02 C 95.87 17.69 93.04 15.47 91.08 11.99 C 90.37 12.21 89.65 12.43 88.94 12.64 C 88.99 9.39 89.12 6.15 89.31 2.90 C 94.53 2.25 99.93 2.47 104.96 4.08 Z" fill="#ffffff"/>
<path d="M 86.06 2.35 C 87.90 8.27 87.41 15.72 84.04 21.03 C 81.43 24.96 75.39 25.36 72.83 21.19 C 70.04 16.34 68.98 10.24 67.88 4.81 C 68.77 4.58 69.66 4.35 70.55 4.13 L 71.57 4.03 C 70.78 5.95 70.08 7.90 69.34 9.84 C 72.56 6.04 76.50 5.17 81.05 3.80 C 82.72 3.32 84.38 2.80 86.06 2.35 Z" fill="#ffffff"/>
<path d="M 81.05 3.80 C 76.50 5.17 72.56 6.04 69.34 9.84 C 70.08 7.90 70.78 5.95 71.57 4.03 C 74.73 3.84 77.89 3.87 81.05 3.80 Z" fill="#929292"/>
<path d="M 92.45 4.46 C 96.16 3.49 100.55 4.42 104.20 5.39 C 100.81 5.61 97.43 5.60 94.03 5.66 C 92.68 7.11 91.33 8.56 89.94 9.98 C 90.63 8.37 90.94 5.40 92.45 4.46 Z" fill="#929292"/>
<path d="M 126.32 12.24 C 125.72 11.76 125.11 11.30 124.50 10.86 C 122.77 9.66 120.98 8.57 119.15 7.56 C 119.74 8.84 120.36 10.11 120.99 11.37 C 118.14 10.05 115.24 9.20 112.15 8.62 C 111.38 11.46 110.00 14.81 110.39 17.78 C 111.04 20.16 112.48 22.39 113.56 24.61 C 112.29 23.44 110.28 22.21 109.85 20.47 C 109.14 17.95 108.78 15.31 108.43 12.72 C 108.59 11.80 108.76 10.88 108.92 9.96 L 108.62 11.73 C 110.81 8.89 112.83 7.47 116.09 5.94 C 113.86 6.18 111.62 6.36 109.38 6.54 C 109.42 5.79 109.44 5.04 109.46 4.29 C 116.13 5.22 122.82 5.50 126.32 12.24 Z" fill="#929292"/>
<path d="M 65.18 4.63 C 67.25 9.86 69.05 15.43 69.62 21.04 C 70.00 24.99 65.01 27.84 61.57 26.49 C 59.61 25.22 58.05 23.18 56.51 21.45 C 59.31 21.86 62.11 22.24 64.95 22.26 C 60.29 20.09 55.46 19.14 54.72 13.14 C 57.56 10.52 61.77 9.15 65.16 7.20 C 60.07 7.81 56.40 9.10 52.77 12.84 C 53.93 15.27 55.08 17.70 56.09 20.20 C 54.36 18.19 49.53 14.90 51.88 11.94 C 54.50 7.92 60.90 6.25 65.18 4.63 Z" fill="#ffffff"/>
<path d="M 116.09 5.94 C 112.83 7.47 110.81 8.89 108.62 11.73 L 108.92 9.96 C 109.12 8.82 109.27 7.68 109.38 6.54 C 111.62 6.36 113.86 6.18 116.09 5.94 Z" fill="#ffffff"/>
<path d="M 119.15 7.56 C 120.98 8.57 122.77 9.66 124.50 10.86 C 122.99 15.57 120.75 20.02 118.24 24.29 C 117.11 25.96 116.11 27.75 113.85 27.86 C 110.91 28.34 107.79 26.83 107.09 23.81 C 106.56 20.24 107.72 16.22 108.43 12.72 C 108.78 15.31 109.14 17.95 109.85 20.47 C 110.28 22.21 112.29 23.44 113.56 24.61 C 112.48 22.39 111.04 20.16 110.39 17.78 C 110.00 14.81 111.38 11.46 112.15 8.62 C 115.24 9.20 118.14 10.05 120.99 11.37 C 120.36 10.11 119.74 8.84 119.15 7.56 Z" fill="#ffffff"/>
<path d="M 136.33 14.60 C 139.41 17.13 139.57 22.46 140.06 26.18 C 138.82 26.84 137.58 27.51 136.37 28.22 C 136.85 25.14 137.90 21.56 137.28 18.47 C 136.06 16.45 133.98 14.81 131.80 13.91 C 129.81 13.76 127.73 14.25 125.75 14.50 L 126.84 12.97 C 130.30 12.51 133.49 12.14 136.33 14.60 Z" fill="#929292"/>
<path d="M 131.80 13.91 C 133.98 14.81 136.06 16.45 137.28 18.47 C 137.90 21.56 136.85 25.14 136.37 28.22 C 133.03 30.22 129.89 32.77 126.47 34.52 C 122.59 37.47 116.79 31.63 118.67 27.58 C 120.28 22.93 123.00 18.57 125.75 14.50 C 127.73 14.25 129.81 13.76 131.80 13.91 Z" fill="#ffffff"/>
<path d="M 128.38 16.47 C 131.18 15.64 133.73 19.33 134.34 21.64 C 135.48 25.96 131.51 29.68 127.57 30.50 C 125.91 30.67 123.30 31.40 122.33 29.61 C 121.01 28.36 122.29 26.26 122.65 24.81 C 123.80 21.98 125.12 17.46 128.38 16.47 Z" fill="#929292"/>
<path d="M 47.73 17.25 C 51.17 17.95 53.46 22.14 55.24 24.85 C 52.87 22.84 50.60 20.31 47.87 18.81 C 46.36 18.87 45.18 19.10 44.43 20.55 C 43.37 23.33 43.55 26.64 43.14 29.57 C 42.42 26.66 41.32 23.44 42.48 20.51 C 43.32 18.29 45.22 16.58 47.73 17.25 Z" fill="#929292"/>
<path d="M 128.24 18.13 C 131.95 18.62 134.06 22.68 131.93 25.89 C 129.62 29.49 126.71 30.12 122.68 29.44 C 123.85 25.64 124.85 20.62 128.24 18.13 Z" fill="#ffffff"/>
<path d="M 88.66 18.99 C 89.16 21.72 89.46 24.47 89.71 27.24 C 90.51 34.90 90.86 42.18 90.48 49.88 C 90.97 58.39 90.14 66.91 91.54 75.30 C 91.95 73.07 92.30 70.82 92.62 68.57 C 92.70 75.46 93.28 82.25 93.00 89.12 C 91.42 88.76 89.85 88.40 88.28 88.04 C 88.77 81.77 88.34 75.54 88.27 69.27 C 88.36 65.45 88.52 61.64 88.51 57.82 C 87.90 59.75 87.32 61.70 86.74 63.64 C 83.51 61.13 80.30 58.01 75.90 58.24 C 70.70 58.51 65.53 59.42 60.36 60.00 C 60.60 60.76 60.84 61.53 61.07 62.30 C 57.52 63.06 54.24 63.88 51.57 66.53 C 48.61 69.35 45.92 71.22 41.95 72.35 C 40.94 70.71 39.96 69.06 39.00 67.39 C 41.11 65.51 43.99 63.52 45.17 60.90 C 45.64 56.46 44.18 52.85 46.34 48.69 C 47.95 45.52 49.23 42.48 49.18 38.84 C 49.32 40.49 49.51 42.13 49.68 43.78 C 51.65 41.35 53.90 39.24 56.20 37.14 C 58.45 35.10 59.31 32.52 60.57 29.85 C 65.53 28.88 67.91 27.65 71.44 24.11 C 74.06 24.93 77.08 26.26 79.84 26.01 C 83.38 25.26 86.21 21.43 88.66 18.99 Z" fill="#c5c5c5"/>
<path d="M 104.57 24.58 L 104.76 24.50 C 105.59 25.82 106.40 27.30 107.51 28.40 C 110.37 29.92 114.33 30.12 116.74 32.30 C 119.46 34.63 121.82 37.45 124.12 40.17 C 123.76 40.93 123.42 41.70 123.09 42.47 C 123.02 44.68 123.32 46.82 123.58 49.02 C 119.91 45.75 116.99 41.06 112.10 39.95 C 109.55 39.15 107.02 38.34 104.53 37.39 C 110.09 36.24 114.37 38.56 119.42 40.39 C 116.82 38.17 114.38 34.52 110.48 35.54 C 104.75 36.62 99.29 39.46 93.81 41.48 C 93.28 35.80 91.72 31.21 92.44 25.72 C 94.24 26.20 96.13 26.81 98.01 26.92 C 100.27 26.69 102.51 25.49 104.57 24.58 Z" fill="#c5c5c5"/>
<path d="M 91.64 25.48 L 92.44 25.72 C 91.72 31.21 93.28 35.80 93.81 41.48 C 99.29 39.46 104.75 36.62 110.48 35.54 C 114.38 34.52 116.82 38.17 119.42 40.39 C 114.37 38.56 110.09 36.24 104.53 37.39 C 107.02 38.34 109.55 39.15 112.10 39.95 C 116.99 41.06 119.91 45.75 123.58 49.02 C 123.32 46.82 123.02 44.68 123.09 42.47 C 124.40 44.39 125.59 47.18 127.63 48.41 C 129.58 49.12 132.24 48.17 134.24 47.89 C 134.89 47.77 135.54 47.64 136.19 47.51 C 134.40 49.26 132.35 51.11 131.13 53.32 C 130.32 56.18 132.87 59.10 134.66 61.06 C 136.24 61.55 138.50 62.91 140.07 61.92 C 142.41 60.84 144.57 59.35 146.77 58.01 C 145.61 57.92 144.47 57.83 143.31 57.81 C 141.97 58.58 140.67 59.50 139.27 60.15 L 137.89 59.69 C 138.78 58.72 139.68 57.75 140.57 56.77 C 139.35 52.62 139.07 50.26 140.66 46.15 C 139.83 46.14 139.00 46.13 138.16 46.12 L 137.21 44.95 C 139.67 44.03 142.24 43.15 144.56 41.93 C 145.44 41.20 146.31 40.46 147.17 39.70 C 149.44 42.17 151.68 44.66 153.64 47.39 C 151.21 45.68 148.78 43.99 146.22 42.49 C 148.04 44.62 150.47 46.77 151.59 49.36 C 151.85 52.03 150.31 54.99 149.48 57.49 C 150.34 56.99 151.19 56.49 152.04 55.99 C 152.51 53.97 152.97 51.95 153.43 49.93 C 154.92 53.64 156.62 56.72 159.16 59.81 C 163.61 65.72 164.23 72.01 166.19 78.81 C 170.71 91.02 175.72 104.22 176.72 117.28 C 174.25 110.18 173.48 102.77 170.58 95.81 C 169.57 99.22 168.62 102.64 167.62 106.05 C 171.67 111.45 174.74 117.03 174.21 124.04 C 174.03 128.34 171.58 131.81 167.92 133.93 C 163.48 136.54 158.87 136.48 153.91 136.34 C 150.59 131.65 146.07 127.15 146.23 121.00 C 146.00 117.05 147.89 114.18 149.90 111.00 C 147.43 109.60 145.03 108.18 142.94 106.23 C 143.04 105.47 143.13 104.71 143.22 103.94 C 145.48 105.86 147.76 108.45 150.98 108.45 C 155.26 108.32 159.63 107.05 163.66 105.63 C 166.29 104.71 166.94 102.17 167.51 99.73 C 168.26 95.37 168.50 90.71 167.55 86.36 C 166.86 83.31 164.34 80.83 161.04 81.21 C 156.43 81.65 151.88 83.79 147.76 85.82 C 145.07 87.09 143.67 89.36 142.36 91.92 C 142.22 85.82 137.14 82.37 135.77 76.20 C 134.28 71.90 135.43 68.22 137.11 64.23 C 135.12 62.85 133.14 61.45 131.16 60.06 C 131.72 61.55 132.28 63.04 132.85 64.53 C 131.95 64.92 131.07 65.31 130.14 65.62 C 126.85 63.01 124.51 59.45 120.92 57.10 C 117.69 54.95 113.90 52.36 109.98 51.88 C 104.22 51.54 98.29 54.14 94.39 58.36 C 92.78 59.86 93.16 62.90 92.90 64.93 C 96.14 63.78 99.53 62.18 102.94 61.71 C 106.52 61.26 110.53 62.77 113.93 63.78 C 119.59 65.57 126.06 67.28 130.40 71.59 C 132.69 73.81 132.67 77.64 133.19 80.60 C 131.00 77.63 128.81 74.42 126.08 71.92 C 122.94 69.14 119.04 68.48 115.10 67.55 C 115.52 69.07 115.96 70.58 116.40 72.09 C 113.88 69.49 111.25 66.34 107.59 65.43 C 102.31 64.67 97.07 65.50 92.62 68.57 C 92.30 70.82 91.95 73.07 91.54 75.30 C 90.14 66.91 90.97 58.39 90.48 49.88 C 90.86 42.18 90.51 34.90 89.71 27.24 C 90.35 26.65 91.00 26.07 91.64 25.48 Z" fill="#929292"/>
<path d="M 140.15 26.97 C 141.07 27.95 142.00 28.92 142.94 29.89 C 143.87 33.95 145.16 37.68 144.56 41.93 C 142.24 43.15 139.67 44.03 137.21 44.95 L 138.16 46.12 C 136.52 48.63 134.52 51.21 133.53 54.06 C 133.50 56.82 135.95 58.22 137.89 59.69 L 139.27 60.15 C 137.76 60.52 136.20 60.77 134.66 61.06 C 132.87 59.10 130.32 56.18 131.13 53.32 C 132.35 51.11 134.40 49.26 136.19 47.51 C 135.54 47.64 134.89 47.77 134.24 47.89 C 131.87 47.42 129.14 47.12 127.03 45.89 C 124.15 43.56 125.57 39.66 126.25 36.64 C 127.46 35.52 129.04 34.68 130.47 33.88 C 131.03 34.42 131.59 34.96 132.14 35.51 C 133.03 34.78 133.92 34.05 134.81 33.33 C 135.02 35.59 135.25 37.85 135.39 40.12 C 134.93 41.00 134.72 41.88 134.77 42.75 C 134.99 44.31 136.78 43.16 137.54 42.73 C 140.29 41.50 143.02 41.62 143.47 37.95 C 143.84 33.39 139.37 31.84 135.76 30.94 C 137.30 29.69 138.73 28.34 140.15 26.97 Z" fill="#929292"/>
<path d="M 39.53 30.34 C 40.90 31.17 42.14 32.30 43.34 33.35 C 42.05 32.88 40.77 32.40 39.48 31.91 C 40.26 35.68 40.55 39.67 36.78 41.95 C 34.41 42.81 32.80 41.20 32.69 38.93 C 33.19 36.19 34.68 33.56 35.96 31.10 C 37.08 30.74 38.36 30.18 39.53 30.34 Z" fill="#ffffff"/>
<path d="M 135.76 30.94 C 139.37 31.84 143.84 33.39 143.47 37.95 C 143.02 41.62 140.29 41.50 137.54 42.73 C 137.11 41.68 136.39 40.81 135.39 40.12 C 135.25 37.85 135.02 35.59 134.81 33.33 C 133.92 34.05 133.03 34.78 132.14 35.51 C 131.59 34.96 131.03 34.42 130.47 33.88 C 132.24 32.92 134.01 31.93 135.76 30.94 Z" fill="#ffffff"/>
<path d="M 129.68 35.85 C 131.18 37.11 133.10 38.45 134.00 40.23 C 134.43 41.88 134.55 43.63 134.77 45.32 C 133.28 45.56 131.70 46.06 130.19 45.93 C 128.43 45.30 127.03 43.80 126.91 41.89 C 126.57 39.69 128.48 37.53 129.68 35.85 Z" fill="#ffffff"/>
<path d="M 70.71 37.32 C 76.65 37.06 81.12 41.03 85.41 44.59 C 87.29 46.08 87.70 48.09 88.38 50.27 C 84.15 48.12 81.18 44.13 76.93 42.19 C 72.41 40.60 66.11 40.78 61.66 42.60 C 56.01 44.74 52.30 50.04 48.00 54.17 C 47.77 53.42 47.53 52.68 47.30 51.94 C 50.23 48.61 52.37 44.14 55.88 41.44 C 60.15 38.92 65.81 37.44 70.71 37.32 Z" fill="#929292"/>
<path d="M 126.25 36.64 C 125.57 39.66 124.15 43.56 127.03 45.89 C 129.14 47.12 131.87 47.42 134.24 47.89 C 132.24 48.17 129.58 49.12 127.63 48.41 C 125.59 47.18 124.40 44.39 123.09 42.47 C 123.42 41.70 123.76 40.93 124.12 40.17 C 124.78 38.96 125.47 37.77 126.25 36.64 Z" fill="#ffffff"/>
<path d="M 28.84 39.63 C 30.22 41.35 31.54 43.13 32.91 44.87 L 33.46 45.57 C 31.15 47.09 28.47 48.54 26.64 50.64 C 25.30 52.61 24.63 55.10 23.75 57.29 C 22.89 60.41 20.58 60.91 17.90 62.09 C 21.33 54.53 24.68 46.82 28.84 39.63 Z" fill="#929292"/>
<path d="M 135.39 40.12 C 136.39 40.81 137.11 41.68 137.54 42.73 C 136.78 43.16 134.99 44.31 134.77 42.75 C 134.72 41.88 134.93 41.00 135.39 40.12 Z" fill="#767676"/>
<path d="M 110.70 42.39 C 116.85 46.00 123.71 50.67 126.86 57.27 C 119.10 54.26 115.37 48.41 106.94 47.97 C 100.96 47.28 96.45 53.66 92.58 57.34 C 92.67 53.84 92.34 49.83 93.53 46.51 C 97.43 41.65 105.01 39.63 110.70 42.39 Z" fill="#c5c5c5"/>
<path d="M 32.91 44.87 C 36.91 45.28 39.94 47.18 43.00 49.61 C 44.12 49.30 45.23 48.99 46.34 48.69 C 44.18 52.85 45.64 56.46 45.17 60.90 C 43.99 63.52 41.11 65.51 39.00 67.39 C 35.24 65.57 31.51 64.23 27.37 63.51 C 27.84 65.79 28.32 68.06 28.77 70.34 C 30.82 70.34 32.88 70.31 34.94 70.26 C 32.91 71.30 30.87 72.34 28.84 73.39 C 29.28 75.37 29.59 77.62 30.56 79.42 C 31.76 80.69 33.42 81.60 34.89 82.54 C 33.10 82.92 31.32 83.32 29.54 83.73 C 31.16 84.67 33.30 87.18 35.09 85.20 C 38.09 79.93 38.82 74.42 39.02 68.47 C 39.63 70.78 40.76 73.51 40.16 75.89 C 39.45 78.94 38.23 82.13 36.78 84.90 C 36.23 85.84 35.18 87.54 33.89 87.20 C 30.79 86.68 27.84 85.52 24.74 84.96 C 26.83 86.68 29.37 88.88 32.07 89.46 C 34.66 89.47 37.07 87.50 38.23 85.29 C 40.37 81.28 41.56 76.88 41.95 72.35 C 45.92 71.22 48.61 69.35 51.57 66.53 C 54.24 63.88 57.52 63.06 61.07 62.30 C 60.84 61.53 60.60 60.76 60.36 60.00 C 65.53 59.42 70.70 58.51 75.90 58.24 C 80.30 58.01 83.51 61.13 86.74 63.64 C 87.32 61.70 87.90 59.75 88.51 57.82 C 88.52 61.64 88.36 65.45 88.27 69.27 C 86.12 66.82 83.87 63.38 80.69 62.27 C 77.11 60.97 72.58 62.25 68.93 62.89 C 66.71 63.42 63.93 63.71 62.06 65.09 C 60.45 66.44 58.92 67.90 57.36 69.31 C 54.34 71.12 50.28 72.30 48.89 75.85 C 47.03 80.18 45.95 84.83 44.22 89.23 C 43.16 92.11 41.60 94.94 40.87 97.91 C 40.06 101.62 40.56 105.72 39.70 109.45 C 39.10 111.99 37.83 114.40 37.23 116.94 C 37.92 118.12 38.86 119.17 39.71 120.25 C 37.98 121.91 36.46 123.78 35.24 125.85 C 34.16 127.80 33.22 130.04 31.76 131.73 C 30.54 132.77 29.61 132.10 28.50 131.34 C 30.21 127.24 31.61 123.22 31.87 118.74 C 31.20 119.05 30.53 119.37 29.86 119.68 C 28.97 123.75 28.22 128.02 24.87 130.88 C 17.73 136.97 4.73 134.10 2.75 124.24 L 3.12 122.70 C 3.89 124.21 4.67 125.70 5.50 127.17 C 6.77 129.63 9.03 131.42 11.82 131.78 C 16.07 131.99 20.66 132.07 23.99 128.98 C 27.31 125.74 27.77 121.29 26.81 116.92 C 26.46 116.22 26.10 115.52 25.72 114.83 C 25.38 115.55 25.05 116.27 24.71 116.99 C 23.55 115.67 22.43 113.98 20.90 113.07 C 19.43 112.48 17.81 112.21 16.26 111.86 C 16.14 117.04 17.24 120.65 19.62 125.17 C 17.93 123.70 16.25 122.21 14.54 120.76 C 14.15 122.83 13.77 124.90 13.40 126.98 C 12.82 122.89 12.25 120.24 9.01 117.39 C 10.86 117.60 12.70 117.78 14.56 117.94 C 14.91 115.59 15.27 113.24 15.60 110.89 C 14.07 110.45 12.53 109.96 10.97 109.64 C 9.91 109.59 8.86 109.60 7.80 109.64 C 5.97 111.53 4.59 113.70 3.19 115.91 C 3.18 114.70 3.17 113.49 3.20 112.28 C 4.54 110.83 6.17 109.37 7.08 107.60 C 7.64 105.23 7.45 102.63 7.56 100.20 C 7.98 97.46 8.59 94.74 9.16 92.03 C 10.72 89.40 12.60 86.94 14.03 84.24 C 14.50 83.45 14.63 82.63 14.42 81.76 C 13.96 79.71 13.36 77.70 12.72 75.69 C 14.22 71.06 15.76 66.48 17.90 62.09 C 20.58 60.91 22.89 60.41 23.75 57.29 C 26.10 59.14 28.32 60.30 31.17 61.22 C 29.16 59.47 27.02 57.89 24.90 56.29 C 26.89 56.47 28.87 56.65 30.86 56.81 C 33.18 53.54 33.79 51.65 33.82 47.60 C 34.92 48.45 36.02 49.29 37.12 50.13 C 35.46 53.32 33.76 56.43 31.37 59.14 C 33.26 59.92 35.68 62.15 37.65 60.88 C 40.07 59.88 41.00 56.12 42.31 54.02 C 42.01 55.76 41.82 57.61 41.20 59.26 C 40.16 61.16 38.47 62.74 37.10 64.40 C 38.67 63.69 40.80 63.19 41.97 61.89 C 44.02 59.04 43.88 55.02 41.81 52.20 C 39.73 49.06 36.51 47.62 33.46 45.57 L 32.91 44.87 Z" fill="#929292"/>
<path d="M 143.06 44.85 C 146.80 44.43 152.13 48.53 149.90 52.66 C 148.80 56.19 145.86 57.31 142.79 55.19 C 140.18 52.70 142.19 47.76 143.06 44.85 Z" fill="#ffffff"/>
<path d="M 33.46 45.57 C 36.51 47.62 39.73 49.06 41.81 52.20 C 43.88 55.02 44.02 59.04 41.97 61.89 C 40.80 63.19 38.67 63.69 37.10 64.40 C 38.47 62.74 40.16 61.16 41.20 59.26 C 41.82 57.61 42.01 55.76 42.31 54.02 C 41.00 56.12 40.07 59.88 37.65 60.88 C 35.68 62.15 33.26 59.92 31.37 59.14 C 33.76 56.43 35.46 53.32 37.12 50.13 C 36.02 49.29 34.92 48.45 33.82 47.60 C 33.79 51.65 33.18 53.54 30.86 56.81 C 28.87 56.65 26.89 56.47 24.90 56.29 C 27.02 57.89 29.16 59.47 31.17 61.22 C 28.32 60.30 26.10 59.14 23.75 57.29 C 24.63 55.10 25.30 52.61 26.64 50.64 C 28.47 48.54 31.15 47.09 33.46 45.57 Z" fill="#ffffff"/>
<path d="M 138.16 46.12 C 139.00 46.13 139.83 46.14 140.66 46.15 C 139.07 50.26 139.35 52.62 140.57 56.77 C 139.68 57.75 138.78 58.72 137.89 59.69 C 135.95 58.22 133.50 56.82 133.53 54.06 C 134.52 51.21 136.52 48.63 138.16 46.12 Z" fill="#ffffff"/>
<path d="M 88.36 56.16 C 83.15 53.90 79.21 50.56 73.18 51.24 C 66.36 51.95 58.81 53.28 52.88 56.92 C 48.25 59.85 47.77 65.26 46.96 70.18 C 45.49 70.09 44.03 69.99 42.57 69.89 C 44.16 65.69 46.17 61.69 48.30 57.74 C 47.41 57.07 46.53 56.40 45.65 55.73 C 47.66 55.40 50.06 55.30 51.85 54.27 C 54.54 52.84 56.69 51.08 59.77 50.49 C 63.45 49.77 67.17 49.48 70.80 48.45 C 77.51 46.39 85.36 49.72 88.36 56.16 Z" fill="#929292"/>
<path d="M 125.15 50.18 C 126.51 50.70 127.86 51.25 129.22 51.78 C 129.46 52.77 129.70 53.76 129.95 54.75 C 128.35 53.22 126.73 51.71 125.15 50.18 Z" fill="#ffffff"/>
<path d="M 109.98 51.88 C 113.90 52.36 117.69 54.95 120.92 57.10 C 124.51 59.45 126.85 63.01 130.14 65.62 C 131.07 65.31 131.95 64.92 132.85 64.53 C 132.28 63.04 131.72 61.55 131.16 60.06 C 133.14 61.45 135.12 62.85 137.11 64.23 C 135.43 68.22 134.28 71.90 135.77 76.20 C 137.14 82.37 142.22 85.82 142.36 91.92 C 142.47 95.94 143.19 99.92 143.22 103.94 C 143.13 104.71 143.04 105.47 142.94 106.23 C 140.03 100.71 140.24 95.08 140.99 89.09 C 138.13 86.46 135.33 83.89 133.19 80.60 C 132.67 77.64 132.69 73.81 130.40 71.59 C 126.06 67.28 119.59 65.57 113.93 63.78 C 110.53 62.77 106.52 61.26 102.94 61.71 C 99.53 62.18 96.14 63.78 92.90 64.93 C 93.16 62.90 92.78 59.86 94.39 58.36 C 98.29 54.14 104.22 51.54 109.98 51.88 Z" fill="#c5c5c5"/>
<path d="M 143.31 57.81 C 144.47 57.83 145.61 57.92 146.77 58.01 C 144.57 59.35 142.41 60.84 140.07 61.92 C 138.50 62.91 136.24 61.55 134.66 61.06 C 136.20 60.77 137.76 60.52 139.27 60.15 C 140.67 59.50 141.97 58.58 143.31 57.81 Z" fill="#ffffff"/>
<path d="M 151.12 58.70 C 149.57 59.98 147.97 61.20 146.36 62.40 C 146.90 64.72 147.76 67.28 147.56 69.67 C 146.75 71.87 145.17 73.84 143.92 75.83 C 145.63 74.53 147.31 73.21 148.99 71.89 C 149.70 72.28 150.41 72.67 151.12 73.07 C 149.75 73.97 148.39 74.87 147.04 75.79 C 149.24 76.13 151.52 76.67 153.76 76.62 C 155.58 75.76 157.07 73.93 158.43 72.48 C 156.64 73.13 154.87 73.82 153.10 74.52 C 152.53 73.13 151.96 71.74 151.38 70.35 C 152.99 69.00 154.59 67.64 156.16 66.25 C 153.86 67.07 151.58 67.95 149.29 68.82 C 148.93 66.63 148.57 64.44 148.23 62.25 C 150.15 61.47 152.07 60.70 153.99 59.93 C 156.09 63.22 158.67 67.12 159.13 71.06 C 159.52 74.74 156.32 77.71 153.52 79.55 C 151.30 81.03 148.13 81.97 145.78 80.26 C 143.64 78.24 142.48 75.04 141.58 72.31 C 140.26 69.18 142.67 66.23 143.64 63.32 C 142.13 64.87 139.32 66.79 139.48 69.21 C 139.67 72.39 141.30 75.58 142.65 78.43 C 143.97 81.15 146.41 82.36 148.78 84.03 C 147.00 84.55 145.16 85.24 143.32 85.43 C 140.81 84.22 139.81 80.48 138.76 78.09 C 137.68 74.96 135.65 70.75 137.58 67.63 C 140.29 62.77 146.01 60.20 151.12 58.70 Z" fill="#ffffff"/>
<path d="M 25.10 60.86 C 20.38 65.80 18.98 73.84 18.13 80.40 C 20.16 81.88 22.20 83.36 24.13 84.97 C 21.22 83.92 17.45 82.92 15.29 80.59 C 14.97 76.81 16.09 72.71 17.01 69.06 C 17.51 67.39 17.97 65.43 19.05 64.02 C 20.87 62.70 23.07 61.83 25.10 60.86 Z" fill="#ffffff"/>
<path d="M 157.90 60.51 C 160.97 64.42 163.63 69.87 163.27 74.94 C 162.49 79.78 157.95 79.91 154.19 81.35 C 157.01 78.82 160.81 76.16 160.73 71.94 C 160.11 68.06 158.47 64.42 157.90 60.51 Z" fill="#ffffff"/>
<path d="M 26.04 63.33 C 26.43 66.73 26.95 70.10 27.48 73.48 C 25.69 71.89 21.90 69.91 22.72 67.07 C 22.80 65.32 24.84 64.37 26.04 63.33 Z" fill="#ffffff"/>
<path d="M 27.37 63.51 C 31.51 64.23 35.24 65.57 39.00 67.39 C 39.96 69.06 40.94 70.71 41.95 72.35 C 41.56 76.88 40.37 81.28 38.23 85.29 C 37.07 87.50 34.66 89.47 32.07 89.46 C 29.37 88.88 26.83 86.68 24.74 84.96 C 27.84 85.52 30.79 86.68 33.89 87.20 C 35.18 87.54 36.23 85.84 36.78 84.90 C 38.23 82.13 39.45 78.94 40.16 75.89 C 40.76 73.51 39.63 70.78 39.02 68.47 C 38.82 74.42 38.09 79.93 35.09 85.20 C 33.30 87.18 31.16 84.67 29.54 83.73 C 31.32 83.32 33.10 82.92 34.89 82.54 C 33.42 81.60 31.76 80.69 30.56 79.42 C 29.59 77.62 29.28 75.37 28.84 73.39 C 30.87 72.34 32.91 71.30 34.94 70.26 C 32.88 70.31 30.82 70.34 28.77 70.34 C 28.32 68.06 27.84 65.79 27.37 63.51 Z" fill="#ffffff"/>
<path d="M 62.06 65.09 C 57.38 70.41 56.43 76.49 54.19 82.95 C 53.35 80.66 52.50 78.38 51.65 76.10 C 53.57 73.85 55.42 71.55 57.36 69.31 C 58.92 67.90 60.45 66.44 62.06 65.09 Z" fill="#c5c5c5"/>
<path d="M 57.36 69.31 C 55.42 71.55 53.57 73.85 51.65 76.10 C 52.50 78.38 53.35 80.66 54.19 82.95 C 51.63 90.71 49.54 98.63 47.45 106.52 C 46.41 110.33 45.70 114.45 44.13 118.03 C 42.64 118.73 41.15 119.45 39.71 120.25 C 38.86 119.17 37.92 118.12 37.23 116.94 C 37.83 114.40 39.10 111.99 39.70 109.45 C 40.56 105.72 40.06 101.62 40.87 97.91 C 41.60 94.94 43.16 92.11 44.22 89.23 C 45.95 84.83 47.03 80.18 48.89 75.85 C 50.28 72.30 54.34 71.12 57.36 69.31 Z" fill="#aaaaaa"/>
<path d="M 22.67 70.69 C 23.77 72.15 24.83 73.65 25.90 75.14 C 25.35 76.81 24.79 78.48 24.26 80.16 C 25.51 79.25 26.76 78.32 28.00 77.39 C 28.37 79.41 28.73 81.44 29.07 83.48 C 25.34 83.71 21.54 81.49 19.52 78.46 C 19.09 75.86 21.45 72.86 22.67 70.69 Z" fill="#ffffff"/>
<path d="M 12.72 75.69 C 13.36 77.70 13.96 79.71 14.42 81.76 C 13.66 81.18 12.89 80.61 12.10 80.06 C 10.55 83.92 9.77 87.94 9.16 92.03 C 8.59 94.74 7.98 97.46 7.56 100.20 L 6.07 99.18 C 4.55 103.44 3.37 107.73 3.20 112.28 C 3.17 113.49 3.18 114.70 3.19 115.91 C 3.21 118.17 3.21 120.44 3.12 122.70 L 2.75 124.24 C 1.17 128.86 2.22 133.47 4.25 137.75 C 5.90 141.09 9.19 143.32 11.99 145.66 C 9.57 145.10 7.37 144.22 5.75 142.24 C 2.26 138.39 1.34 132.07 0.00 127.18 L 0.00 119.75 C 1.15 115.21 1.85 110.58 2.99 106.04 C 5.70 95.75 9.11 85.70 12.72 75.69 Z" fill="#929292"/>
<path d="M 12.10 80.06 C 12.89 80.61 13.66 81.18 14.42 81.76 C 14.63 82.63 14.50 83.45 14.03 84.24 C 12.60 86.94 10.72 89.40 9.16 92.03 C 9.77 87.94 10.55 83.92 12.10 80.06 Z" fill="#c5c5c5"/>
<path d="M 43.18 80.03 C 43.40 84.82 40.66 87.82 38.93 92.03 C 37.72 94.55 37.35 97.20 36.96 99.94 C 36.21 97.19 35.37 94.48 34.46 91.78 C 36.39 90.35 38.70 88.93 39.89 86.80 C 41.14 84.63 42.05 82.27 43.18 80.03 Z" fill="#ffffff"/>
<path d="M 161.04 81.21 C 164.34 80.83 166.86 83.31 167.55 86.36 C 168.50 90.71 168.26 95.37 167.51 99.73 C 166.94 102.17 166.29 104.71 163.66 105.63 C 159.63 107.05 155.26 108.32 150.98 108.45 C 147.76 108.45 145.48 105.86 143.22 103.94 C 143.19 99.92 142.47 95.94 142.36 91.92 C 143.67 89.36 145.07 87.09 147.76 85.82 C 151.88 83.79 156.43 81.65 161.04 81.21 Z" fill="#ffffff"/>
<path d="M 162.83 82.78 C 165.50 83.68 165.66 87.43 166.38 89.73 C 165.12 87.91 163.90 86.06 162.67 84.22 C 159.97 84.36 157.26 84.52 154.55 84.55 C 157.03 83.57 160.14 81.91 162.83 82.78 Z" fill="#929292"/>
<path d="M 22.15 85.57 C 20.07 87.09 17.30 88.63 16.03 90.93 C 14.67 93.42 13.66 96.12 12.87 98.83 C 12.00 101.76 12.93 104.99 13.37 107.94 C 11.45 106.68 8.14 106.07 8.47 103.14 C 8.96 97.71 10.77 91.50 14.04 87.07 C 16.20 84.16 19.09 85.55 22.15 85.57 Z" fill="#ffffff"/>
<path d="M 153.01 85.52 C 150.84 87.66 147.93 89.65 146.42 92.32 C 145.69 96.88 148.51 99.18 151.74 101.68 C 150.56 101.69 149.38 101.71 148.20 101.73 C 150.32 103.43 152.54 104.99 154.74 106.59 C 152.32 105.65 148.60 105.19 147.35 102.64 C 145.32 99.15 144.53 94.44 145.57 90.53 C 146.50 87.72 150.57 86.61 153.01 85.52 Z" fill="#929292"/>
<path d="M 20.46 88.32 C 22.65 86.81 24.92 89.02 26.95 89.82 C 25.93 90.63 24.91 91.45 23.88 92.26 C 23.03 91.29 22.19 90.32 21.34 89.35 C 21.41 92.19 21.35 94.99 21.12 97.81 C 19.80 97.63 18.49 97.44 17.17 97.25 C 18.04 98.78 19.09 100.36 19.61 102.04 C 19.63 104.11 17.95 106.28 17.08 108.08 C 15.47 105.75 13.09 104.29 13.89 101.13 C 14.91 96.93 16.45 90.63 20.46 88.32 Z" fill="#ffffff"/>
<path d="M 152.41 88.32 C 154.18 90.10 155.81 91.99 157.44 93.89 C 158.26 92.59 159.08 91.29 159.90 89.99 C 162.05 90.67 164.22 91.27 166.40 91.86 C 166.55 94.89 167.31 98.90 165.51 101.52 C 164.32 103.60 161.34 104.42 159.26 105.37 C 161.08 103.52 163.21 101.74 164.68 99.60 C 166.13 97.73 165.27 94.92 165.17 92.73 C 163.42 93.06 161.68 93.40 159.93 93.77 C 160.61 95.01 161.30 96.25 161.99 97.48 C 160.39 96.95 158.80 96.42 157.19 95.92 C 156.53 98.72 155.90 101.53 155.11 104.31 C 154.65 98.76 154.41 93.61 152.41 88.32 Z" fill="#929292"/>
<path d="M 28.06 90.36 C 30.33 91.10 32.28 92.45 33.19 94.74 C 35.59 100.26 33.47 108.10 28.39 111.46 C 26.66 112.72 24.69 112.00 22.72 111.85 C 24.51 110.31 26.58 108.87 28.06 107.03 C 29.09 105.54 29.49 103.54 30.03 101.84 C 27.87 104.03 26.02 106.82 23.50 108.59 C 21.99 109.17 20.26 109.28 18.66 109.52 C 20.11 104.99 22.63 101.03 23.66 96.36 C 24.27 93.76 25.83 91.79 28.06 90.36 Z" fill="#ffffff"/>
<path d="M 170.58 95.81 C 173.48 102.77 174.25 110.18 176.72 117.28 C 176.80 118.07 176.87 118.86 176.93 119.65 C 175.79 125.70 176.12 133.51 172.69 138.69 C 170.25 142.66 165.86 143.28 161.80 144.73 C 158.71 142.36 156.16 139.50 153.91 136.34 C 158.87 136.48 163.48 136.54 167.92 133.93 C 171.58 131.81 174.03 128.34 174.21 124.04 C 174.74 117.03 171.67 111.45 167.62 106.05 C 168.62 102.64 169.57 99.22 170.58 95.81 Z" fill="#c5c5c5"/>
<path d="M 6.07 99.18 L 7.56 100.20 C 7.45 102.63 7.64 105.23 7.08 107.60 C 6.17 109.37 4.54 110.83 3.20 112.28 C 3.37 107.73 4.55 103.44 6.07 99.18 Z" fill="#c5c5c5"/>
<path d="M 37.18 101.12 C 35.42 107.54 34.89 113.65 29.64 118.27 C 29.10 117.15 28.56 116.04 28.01 114.92 C 30.19 112.91 32.72 110.80 34.27 108.26 C 35.52 106.04 36.28 103.50 37.18 101.12 Z" fill="#ffffff"/>
<path d="M 10.97 109.64 C 7.89 113.44 6.87 118.17 6.91 122.97 C 6.66 128.35 15.19 131.03 18.77 127.80 C 21.39 124.73 22.88 120.57 24.71 116.99 C 25.05 116.27 25.38 115.55 25.72 114.83 C 26.10 115.52 26.46 116.22 26.81 116.92 C 24.83 120.30 23.11 123.84 21.01 127.14 C 19.31 130.23 14.91 130.85 11.82 131.78 C 9.03 131.42 6.77 129.63 5.50 127.17 C 4.97 121.11 6.40 115.48 7.80 109.64 C 8.86 109.60 9.91 109.59 10.97 109.64 Z" fill="#929292"/>
<path d="M 159.34 108.85 C 156.63 111.24 152.38 113.28 150.71 116.54 C 150.18 119.70 151.09 123.22 151.99 126.24 C 153.41 130.98 159.45 132.25 163.65 130.77 C 167.72 129.68 169.71 126.70 172.63 123.97 C 171.76 126.18 171.11 128.65 169.26 130.28 C 165.89 133.34 160.65 134.65 156.22 133.80 C 152.81 133.10 150.72 129.59 149.19 126.76 C 147.72 123.60 145.82 120.34 147.89 116.96 C 150.44 112.03 153.94 109.85 159.34 108.85 Z" fill="#ffffff"/>
<path d="M 7.80 109.64 C 6.40 115.48 4.97 121.11 5.50 127.17 C 4.67 125.70 3.89 124.21 3.12 122.70 C 3.21 120.44 3.21 118.17 3.19 115.91 C 4.59 113.70 5.97 111.53 7.80 109.64 Z" fill="#ffffff"/>
<path d="M 10.97 109.64 C 12.53 109.96 14.07 110.45 15.60 110.89 C 15.27 113.24 14.91 115.59 14.56 117.94 C 12.70 117.78 10.86 117.60 9.01 117.39 C 12.25 120.24 12.82 122.89 13.40 126.98 C 13.77 124.90 14.15 122.83 14.54 120.76 C 16.25 122.21 17.93 123.70 19.62 125.17 C 17.24 120.65 16.14 117.04 16.26 111.86 C 17.81 112.21 19.43 112.48 20.90 113.07 C 22.43 113.98 23.55 115.67 24.71 116.99 C 22.88 120.57 21.39 124.73 18.77 127.80 C 15.19 131.03 6.66 128.35 6.91 122.97 C 6.87 118.17 7.89 113.44 10.97 109.64 Z" fill="#ffffff"/>
<path d="M 164.88 109.55 C 166.57 111.01 167.44 113.14 168.47 115.08 C 166.19 116.72 163.90 118.35 161.58 119.94 C 161.43 117.09 161.41 114.25 161.28 111.41 C 160.12 113.74 159.12 116.15 158.14 118.58 C 155.89 119.19 153.64 119.77 151.38 120.31 C 152.19 118.03 152.13 115.72 154.30 114.30 C 157.37 112.22 161.10 109.79 164.88 109.55 Z" fill="#ffffff"/>
<path d="M 168.11 109.80 C 170.49 112.87 171.62 116.34 172.17 120.15 C 170.11 116.94 168.69 113.59 168.11 109.80 Z" fill="#ffffff"/>
<path d="M 26.81 116.92 C 27.77 121.29 27.31 125.74 23.99 128.98 C 20.66 132.07 16.07 131.99 11.82 131.78 C 14.91 130.85 19.31 130.23 21.01 127.14 C 23.11 123.84 24.83 120.30 26.81 116.92 Z" fill="#ffffff"/>
<path d="M 169.03 116.61 C 169.71 119.15 170.72 121.90 169.54 124.46 C 168.57 126.68 165.79 128.03 163.85 129.30 C 164.00 126.39 163.96 123.34 164.64 120.50 C 165.59 118.86 167.54 117.70 169.03 116.61 Z" fill="#ffffff"/>
<path d="M 44.13 118.03 C 43.04 120.40 41.70 122.58 40.30 124.77 C 38.61 125.12 36.93 125.48 35.24 125.85 C 36.46 123.78 37.98 121.91 39.71 120.25 C 41.15 119.45 42.64 118.73 44.13 118.03 Z" fill="#c5c5c5"/>
<path d="M 31.87 118.74 C 31.61 123.22 30.21 127.24 28.50 131.34 C 28.12 132.30 27.73 133.26 27.34 134.22 C 28.36 134.42 29.38 134.63 30.39 134.84 C 28.74 136.28 27.08 137.71 25.40 139.13 C 26.53 139.81 27.66 140.50 28.78 141.19 C 23.43 143.32 17.57 144.26 11.99 145.66 C 9.19 143.32 5.90 141.09 4.25 137.75 C 2.22 133.47 1.17 128.86 2.75 124.24 C 4.73 134.10 17.73 136.97 24.87 130.88 C 28.22 128.02 28.97 123.75 29.86 119.68 C 30.53 119.37 31.20 119.05 31.87 118.74 Z" fill="#c5c5c5"/>
<path d="M 176.93 119.65 C 177.78 126.43 177.42 133.78 173.71 139.72 C 171.02 143.83 166.68 145.81 161.80 144.73 C 165.86 143.28 170.25 142.66 172.69 138.69 C 176.12 133.51 175.79 125.70 176.93 119.65 Z" fill="#929292"/>
<path d="M 162.06 121.00 C 162.28 124.03 162.30 127.00 162.14 130.03 C 160.38 129.79 158.54 129.65 156.83 129.17 C 153.86 128.17 152.03 125.12 152.42 122.01 C 155.35 119.54 158.62 120.75 162.06 121.00 Z" fill="#ffffff"/>
<path d="M 40.30 124.77 C 36.67 130.22 33.50 136.61 28.78 141.19 C 27.66 140.50 26.53 139.81 25.40 139.13 C 27.08 137.71 28.74 136.28 30.39 134.84 C 29.38 134.63 28.36 134.42 27.34 134.22 C 27.73 133.26 28.12 132.30 28.50 131.34 C 29.61 132.10 30.54 132.77 31.76 131.73 C 33.22 130.04 34.16 127.80 35.24 125.85 C 36.93 125.48 38.61 125.12 40.30 124.77 Z" fill="#929292"/></svg>