<svg xmlns:xlink="http://www.w3.org/1999/xlink" xmlns="http://www.w3.org/2000/svg" viewBox="0 0 179 147" height="147" width="179" version="1.1">
<path d="M 0.00 0.00 L 179.00 0.00 L 179.00 147.00 L 0.00 147.00 L 0.00 124.48 C 1.10 130.27 1.63 137.73 5.77 142.23 C 7.58 144.37 9.69 145.61 12.56 145.67 C 16.92 144.28 21.35 143.55 25.82 142.66 C 28.11 142.20 29.76 140.83 31.21 139.07 C 33.56 134.76 36.78 131.02 38.87 126.59 C 39.52 125.76 40.17 124.93 40.82 124.11 C 42.75 121.80 44.16 119.23 45.15 116.40 C 45.53 114.82 45.83 113.21 46.13 111.61 C 48.69 105.26 49.60 98.46 51.85 92.00 C 53.61 84.98 56.35 78.30 57.46 71.16 C 57.55 70.80 57.63 70.44 57.70 70.07 C 59.57 68.37 61.07 66.46 62.44 64.34 C 66.30 63.59 70.15 62.84 73.98 61.92 C 77.19 61.14 80.64 61.81 83.37 63.66 C 85.12 64.89 86.28 67.17 87.39 68.95 C 87.70 69.50 87.99 70.05 88.29 70.61 C 88.25 73.98 88.51 77.33 88.58 80.69 C 88.56 83.26 88.40 85.82 88.21 88.39 C 89.96 88.45 91.72 88.51 93.47 88.56 C 93.34 87.21 93.21 85.87 93.07 84.52 C 92.30 79.27 92.40 74.05 92.51 68.76 C 96.89 65.08 102.07 65.01 107.52 65.41 C 111.54 66.44 113.78 69.48 116.56 72.27 C 115.91 70.63 115.26 68.99 114.61 67.35 C 118.76 68.41 123.44 69.27 126.64 72.35 C 129.84 75.70 132.27 79.85 135.20 83.44 C 137.52 86.06 140.21 87.52 141.54 90.90 C 140.16 95.86 141.11 100.78 142.77 105.53 C 144.48 108.94 147.70 109.62 150.97 110.87 C 147.59 113.71 146.02 116.48 146.21 121.00 C 146.18 127.53 150.69 131.63 154.24 136.50 C 156.24 139.73 158.41 142.38 161.52 144.61 C 167.54 146.90 173.65 142.09 175.53 136.51 C 177.59 130.82 177.92 124.81 177.04 118.85 C 177.00 118.48 176.97 118.10 176.93 117.73 C 175.67 104.55 170.98 91.42 166.24 79.12 C 165.11 79.33 163.97 79.53 162.83 79.73 C 163.79 79.31 164.75 78.89 165.72 78.48 C 164.92 72.26 163.15 66.39 160.07 60.91 C 158.73 58.94 156.83 57.31 155.59 55.28 C 154.69 53.22 154.36 50.87 153.85 48.69 C 153.31 51.14 152.77 53.59 152.22 56.04 C 150.74 56.74 149.25 57.44 147.77 58.15 C 149.76 55.39 152.27 52.92 151.55 49.21 C 150.48 46.32 148.30 43.50 144.82 44.42 C 144.27 44.46 143.72 44.51 143.17 44.57 C 144.65 44.11 146.27 43.22 147.83 43.30 C 149.90 44.12 151.66 45.82 153.53 47.02 C 151.44 44.17 148.74 41.93 146.94 38.84 C 145.73 40.33 144.50 41.78 143.22 43.21 C 144.49 40.07 145.93 37.01 147.17 33.86 C 146.51 34.83 145.85 35.81 145.20 36.79 C 143.51 33.78 142.74 30.94 138.83 30.40 C 140.13 32.13 141.78 33.48 143.19 35.11 C 143.45 36.40 143.64 37.71 143.75 39.03 C 142.81 40.15 141.87 41.26 140.94 42.39 C 139.91 42.47 138.89 42.54 137.87 42.62 C 136.86 41.12 135.66 39.55 134.96 37.87 C 134.71 36.13 135.08 34.28 135.20 32.53 C 134.24 33.55 133.27 34.56 132.30 35.57 L 130.20 34.11 C 131.88 33.18 133.48 32.12 135.08 31.06 C 135.64 31.24 136.20 31.43 136.75 31.61 C 137.92 30.18 139.65 29.43 140.87 28.15 C 140.36 26.66 139.61 25.22 138.94 23.79 C 139.55 23.58 140.16 23.37 140.77 23.16 C 140.08 22.16 139.39 21.15 138.71 20.14 C 139.01 15.58 135.10 12.94 130.99 12.62 C 129.58 12.69 128.13 13.04 126.74 13.30 C 125.66 11.24 125.16 9.27 122.99 8.09 C 118.76 5.74 114.12 4.23 109.23 4.59 C 105.03 2.66 100.68 1.33 96.02 1.46 C 86.89 2.36 74.97 -0.27 66.82 4.21 C 61.40 4.43 56.52 6.09 52.05 9.12 C 50.44 10.44 49.69 12.70 48.16 14.09 C 46.20 14.55 43.97 14.43 42.11 15.17 C 39.02 17.33 36.59 20.73 35.85 24.46 C 38.89 21.66 41.18 17.83 44.52 15.44 C 47.91 14.18 51.51 16.98 52.86 20.01 C 50.18 18.44 46.33 15.43 43.56 18.58 C 40.99 22.09 42.41 27.32 43.84 31.01 C 42.47 30.03 41.10 29.05 39.71 28.09 C 38.99 27.05 38.27 26.01 37.54 24.98 C 37.57 26.19 37.61 27.40 37.65 28.61 C 36.91 28.13 36.17 27.65 35.43 27.17 C 34.77 28.28 34.11 29.38 33.45 30.48 L 33.30 30.67 L 33.03 31.01 C 31.96 32.47 30.89 33.92 29.87 35.41 C 29.29 37.50 28.67 39.57 27.73 41.53 C 23.00 50.99 18.12 60.53 14.48 70.47 C 11.14 80.20 7.57 89.92 4.76 99.80 C 3.48 104.24 2.02 108.33 1.53 112.96 C 1.19 116.18 0.57 119.35 0.00 122.54 L 0.00 0.00 Z" fill="#ffffff"/>
<path d="M 96.02 1.46 C 100.68 1.33 105.03 2.66 109.23 4.59 C 114.12 4.23 118.76 5.74 122.99 8.09 C 125.16 9.27 125.66 11.24 126.74 13.30 C 128.13 13.04 129.58 12.69 130.99 12.62 C 135.10 12.94 139.01 15.58 138.71 20.14 C 139.39 21.15 140.08 22.16 140.77 23.16 C 140.16 23.37 139.55 23.58 138.94 23.79 C 139.61 25.22 140.36 26.66 140.87 28.15 C 139.65 29.43 137.92 30.18 136.75 31.61 C 136.20 31.43 135.64 31.24 135.08 31.06 C 133.48 32.12 131.88 33.18 130.20 34.11 C 129.63 34.22 129.06 34.33 128.49 34.44 L 127.61 35.31 C 125.98 36.91 124.69 38.72 123.55 40.69 C 123.30 39.58 123.04 38.46 122.78 37.35 C 119.37 35.45 117.27 33.71 115.28 30.30 C 113.33 30.10 111.30 30.04 109.39 29.55 C 107.68 28.76 106.22 27.27 104.77 26.09 L 106.77 24.16 C 107.85 25.42 109.22 27.59 111.03 27.80 C 113.58 28.01 116.09 28.06 117.52 25.54 C 120.21 20.89 123.12 16.09 124.64 10.90 C 122.98 9.61 121.33 8.31 119.68 7.01 C 119.47 7.50 119.26 8.00 119.05 8.49 C 117.42 5.78 113.57 5.81 110.78 5.20 C 109.75 7.38 108.72 9.39 108.83 11.88 C 109.97 10.86 110.96 9.71 111.96 8.57 C 111.01 11.77 109.70 15.73 110.44 19.06 C 111.34 21.08 112.85 22.89 114.09 24.72 C 112.65 23.60 110.24 22.35 109.74 20.46 C 109.35 17.85 109.75 15.21 109.08 12.56 C 107.18 14.55 107.39 18.46 107.04 21.07 C 105.49 24.19 102.23 26.13 98.98 27.03 C 96.60 27.37 93.95 26.33 91.62 25.86 C 92.05 28.90 92.52 31.92 93.10 34.93 L 93.48 37.05 C 92.56 36.83 91.65 36.61 90.73 36.38 C 89.13 30.37 89.77 24.34 88.68 18.25 C 87.21 19.78 87.13 21.44 86.89 23.42 C 86.31 23.32 85.73 23.22 85.15 23.12 C 83.28 24.26 81.21 25.75 79.04 26.22 C 76.46 26.24 73.72 24.96 71.36 24.01 C 69.57 25.80 67.53 28.23 65.09 29.08 C 63.53 29.42 61.84 29.25 60.25 29.24 C 59.57 31.42 59.00 33.84 57.83 35.81 C 56.54 37.97 53.69 39.16 51.58 40.39 C 50.85 44.54 49.84 46.96 47.05 50.11 C 46.14 50.70 45.21 51.26 44.28 51.82 C 45.00 54.45 46.00 57.40 45.84 60.14 C 44.92 62.86 41.96 64.76 39.81 66.48 C 40.89 67.05 41.96 67.62 43.04 68.18 C 43.16 67.49 43.28 66.79 43.40 66.10 C 45.21 63.51 46.69 60.74 48.14 57.94 C 47.13 56.94 46.07 56.08 45.52 54.72 C 47.25 54.79 48.95 55.02 50.65 55.31 C 52.58 53.84 54.64 51.72 57.01 51.08 C 60.34 50.23 63.66 49.47 66.86 48.20 C 68.12 48.87 69.38 49.55 70.64 50.23 C 70.13 49.17 69.61 48.11 69.10 47.05 C 73.28 47.55 78.38 47.61 82.06 49.78 C 84.16 50.93 86.02 52.37 87.82 53.93 C 88.05 54.95 88.28 55.96 88.52 56.97 C 83.96 54.49 80.57 50.98 75.02 51.24 C 67.96 51.69 60.49 52.94 54.13 56.19 C 50.73 57.77 48.70 61.25 47.64 64.71 C 47.20 65.90 48.15 67.03 48.52 68.13 C 50.38 66.12 52.24 63.32 54.74 62.07 C 56.62 61.12 58.60 60.34 60.54 59.50 C 61.40 59.79 62.26 60.08 63.12 60.37 C 67.13 58.69 70.74 58.20 75.04 58.58 C 75.73 58.16 76.43 57.73 77.12 57.29 C 78.06 58.13 78.99 58.97 79.93 59.81 C 80.74 59.71 81.55 59.62 82.36 59.53 C 83.92 61.17 85.48 62.80 87.01 64.46 C 87.21 62.10 87.46 59.77 88.32 57.55 C 88.88 61.73 88.62 64.93 87.39 68.95 C 86.28 67.17 85.12 64.89 83.37 63.66 C 80.64 61.81 77.19 61.14 73.98 61.92 C 70.15 62.84 66.30 63.59 62.44 64.34 C 61.07 66.46 59.57 68.37 57.70 70.07 C 57.63 70.44 57.55 70.80 57.46 71.16 C 54.63 71.74 53.02 72.89 50.95 74.79 C 51.16 75.82 51.39 76.85 51.62 77.88 L 52.71 79.37 C 50.40 80.95 48.32 82.79 46.27 84.69 C 47.34 85.29 48.37 85.89 49.40 86.47 C 47.88 87.74 46.46 89.12 45.10 90.56 C 47.41 89.71 49.54 88.67 51.66 87.42 C 51.66 87.85 51.67 88.29 51.67 88.73 C 51.20 88.95 50.72 89.18 50.25 89.40 C 46.84 90.86 44.36 92.52 41.98 95.40 C 43.50 95.05 45.02 94.70 46.54 94.34 C 46.42 95.06 46.29 95.78 46.17 96.51 C 43.47 98.61 42.03 100.14 41.21 103.50 C 41.66 104.46 42.10 105.43 42.54 106.39 C 43.60 106.05 44.66 105.71 45.72 105.37 C 44.33 107.39 42.91 109.40 41.47 111.39 C 42.57 111.38 43.67 111.37 44.77 111.35 C 43.10 112.27 41.42 113.19 39.75 114.11 C 40.25 114.56 40.75 115.00 41.24 115.45 C 39.94 116.71 38.65 117.98 37.36 119.25 C 39.79 118.37 42.24 117.53 44.66 116.62 C 40.60 119.30 37.44 122.40 34.57 126.31 C 36.67 125.61 38.76 124.90 40.82 124.11 C 40.17 124.93 39.52 125.76 38.87 126.59 C 36.78 131.02 33.56 134.76 31.21 139.07 C 30.47 138.76 29.73 138.45 28.98 138.14 C 27.59 138.75 26.20 139.35 24.81 139.95 C 26.73 138.23 28.65 136.52 30.54 134.77 C 29.56 134.66 28.57 134.55 27.59 134.44 C 27.65 133.63 27.71 132.81 27.77 132.00 C 28.58 131.28 29.39 130.57 30.19 129.84 C 30.59 129.49 30.98 129.13 31.37 128.77 C 31.54 126.70 31.83 124.68 32.43 122.68 C 33.51 119.07 33.88 115.35 34.81 111.70 C 36.02 107.83 37.26 104.07 37.58 99.99 C 37.95 95.78 39.96 92.35 40.97 88.33 C 43.41 84.39 43.82 80.11 44.90 75.71 C 45.02 74.91 45.11 74.10 45.20 73.30 C 43.80 77.91 41.77 82.28 39.66 86.67 C 38.55 89.17 36.03 90.11 33.85 91.54 C 35.38 95.72 37.37 99.39 35.83 103.94 C 34.52 108.72 31.26 111.79 27.57 114.83 C 28.09 116.10 28.61 117.37 29.11 118.65 C 29.22 122.06 28.75 125.05 27.32 128.15 C 22.97 134.87 12.91 136.07 6.81 131.19 C 4.27 129.20 3.15 126.10 1.70 123.32 C 1.97 128.79 2.09 134.18 4.91 139.03 C 6.69 142.23 9.66 143.66 12.56 145.67 C 9.69 145.61 7.58 144.37 5.77 142.23 C 1.63 137.73 1.10 130.27 0.00 124.48 L 0.00 122.54 C 0.57 119.35 1.19 116.18 1.53 112.96 C 2.02 108.33 3.48 104.24 4.76 99.80 C 7.57 89.92 11.14 80.20 14.48 70.47 C 18.12 60.53 23.00 50.99 27.73 41.53 C 28.67 39.57 29.29 37.50 29.87 35.41 C 30.89 33.92 31.96 32.47 33.03 31.01 C 34.16 31.49 35.28 31.97 36.39 32.46 C 34.63 34.19 32.74 35.28 32.50 37.94 C 31.80 40.52 34.23 43.44 36.92 42.12 C 39.21 40.50 39.80 37.55 40.75 35.08 C 39.98 33.80 39.21 32.52 38.48 31.22 C 39.70 32.03 40.93 32.85 42.14 33.69 L 43.24 32.71 C 42.12 31.94 41.02 31.03 39.77 30.50 C 37.67 30.35 35.55 30.50 33.45 30.48 C 34.11 29.38 34.77 28.28 35.43 27.17 C 36.17 27.65 36.91 28.13 37.65 28.61 C 37.61 27.40 37.57 26.19 37.54 24.98 C 38.27 26.01 38.99 27.05 39.71 28.09 C 41.10 29.05 42.47 30.03 43.84 31.01 C 42.41 27.32 40.99 22.09 43.56 18.58 C 46.33 15.43 50.18 18.44 52.86 20.01 L 52.95 20.06 L 53.06 20.18 L 53.26 20.42 L 53.46 20.34 L 53.34 20.09 L 53.06 20.18 L 53.01 20.03 L 52.86 20.01 C 51.51 16.98 47.91 14.18 44.52 15.44 C 41.18 17.83 38.89 21.66 35.85 24.46 C 36.59 20.73 39.02 17.33 42.11 15.17 C 43.97 14.43 46.20 14.55 48.16 14.09 C 49.69 12.70 50.44 10.44 52.05 9.12 C 56.52 6.09 61.40 4.43 66.82 4.21 C 74.97 -0.27 86.89 2.36 96.02 1.46 Z" fill="#ba5557"/>
<path d="M 78.18 2.06 C 80.82 2.16 83.62 2.02 86.22 2.58 C 88.00 4.22 87.26 6.87 87.28 9.04 C 86.78 13.63 86.40 19.59 82.55 22.70 C 79.46 25.51 74.20 24.39 72.39 20.67 C 70.00 15.57 68.47 10.00 68.00 4.38 C 71.31 3.47 74.60 2.84 77.99 2.39 C 77.93 2.85 77.86 3.31 77.79 3.77 C 74.87 4.00 72.13 4.25 69.65 5.97 C 69.99 9.40 71.09 13.08 73.17 15.87 C 75.22 18.16 77.59 17.56 80.33 17.38 C 78.75 16.99 77.15 16.74 75.55 16.51 C 72.36 13.77 70.80 11.38 71.42 6.97 C 75.01 4.59 80.90 4.68 85.11 4.49 C 83.48 4.22 81.84 3.93 80.22 3.57 C 79.53 3.08 78.85 2.58 78.18 2.06 Z" fill="#fbfbfb"/>
<path d="M 102.06 3.88 C 98.79 4.76 95.66 4.10 92.44 4.52 C 90.17 5.92 90.84 10.70 90.51 12.92 C 89.95 12.91 89.38 12.91 88.82 12.90 C 88.84 9.38 88.97 5.87 89.37 2.37 C 93.58 2.34 98.19 1.89 102.06 3.88 Z" fill="#f4efeb"/>
<path d="M 103.06 3.29 C 104.85 4.02 106.58 4.19 107.76 5.87 C 107.12 11.18 106.12 16.94 103.92 21.85 C 101.97 24.41 97.56 26.63 94.58 24.40 C 91.28 22.88 90.55 17.56 89.23 14.51 C 89.77 14.26 90.32 14.00 90.87 13.74 C 91.98 18.35 95.26 18.80 99.25 19.68 C 96.26 17.75 93.00 16.65 91.51 13.15 C 91.25 11.02 91.46 8.76 91.54 6.62 C 95.51 4.85 99.30 5.23 103.46 5.87 C 103.32 5.01 103.19 4.15 103.06 3.29 Z" fill="#fafbfa"/>
<path d="M 63.33 5.26 C 65.26 4.85 65.68 5.04 66.42 6.89 C 68.09 12.26 69.66 17.92 69.81 23.58 C 67.13 25.88 65.37 26.70 61.78 27.08 C 59.52 24.89 57.39 22.62 55.54 20.06 C 58.89 20.98 61.12 22.92 64.83 22.15 C 62.95 21.47 60.84 20.98 59.09 19.97 C 57.21 18.66 55.73 16.52 54.31 14.76 C 54.85 16.50 55.43 18.21 55.78 19.99 C 54.25 18.39 52.31 16.73 51.23 14.75 C 51.15 12.96 51.50 11.20 53.05 10.10 C 55.98 7.88 59.77 6.14 63.33 5.26 Z" fill="#f8f8f8"/>
<path d="M 110.78 5.20 C 113.57 5.81 117.42 5.78 119.05 8.49 C 119.26 8.00 119.47 7.50 119.68 7.01 C 121.33 8.31 122.98 9.61 124.64 10.90 C 123.12 16.09 120.21 20.89 117.52 25.54 C 116.09 28.06 113.58 28.01 111.03 27.80 C 109.22 27.59 107.85 25.42 106.77 24.16 C 106.87 23.13 106.96 22.10 107.04 21.07 C 107.39 18.46 107.18 14.55 109.08 12.56 C 109.75 15.21 109.35 17.85 109.74 20.46 C 110.24 22.35 112.65 23.60 114.09 24.72 C 112.85 22.89 111.34 21.08 110.44 19.06 C 109.70 15.73 111.01 11.77 111.96 8.57 C 110.96 9.71 109.97 10.86 108.83 11.88 C 108.72 9.39 109.75 7.38 110.78 5.20 Z" fill="#f9f9fa"/>
<path d="M 129.00 13.50 C 132.34 12.17 135.17 16.29 137.59 18.04 C 137.27 21.74 138.54 26.53 135.02 29.01 C 131.65 31.60 127.94 34.05 123.98 35.61 C 120.32 34.63 116.78 30.81 118.80 26.80 C 121.19 21.91 123.22 15.20 129.00 13.50 Z" fill="#f6f8f7"/>
<path d="M 134.73 23.13 C 134.49 28.05 128.44 31.58 123.95 31.22 C 122.90 30.35 122.04 29.30 121.14 28.27 C 123.11 24.83 123.78 19.33 126.99 16.96 C 130.82 14.04 134.56 19.78 134.73 23.13 Z" fill="#9e9e9e"/>
<path d="M 128.98 17.76 C 130.35 19.01 132.11 20.44 132.79 22.20 C 133.10 25.35 130.10 28.47 127.29 29.43 C 125.70 29.60 123.10 30.42 123.19 27.97 C 124.12 24.00 125.55 20.24 128.98 17.76 Z" fill="#f8f8f8"/>
<path d="M 48.01 18.19 C 50.17 19.90 52.59 21.78 54.08 24.13 C 54.86 25.92 54.84 28.11 55.15 30.03 C 55.52 26.83 54.98 24.47 53.95 21.45 C 56.32 22.49 57.63 25.66 58.28 28.02 C 58.48 31.40 56.70 35.28 53.92 37.25 C 51.41 38.39 50.15 36.98 48.03 35.78 C 51.16 35.17 52.36 34.87 54.23 32.41 C 52.01 32.81 49.44 34.43 47.42 32.74 C 43.49 30.81 42.98 25.77 43.62 21.95 C 44.28 19.65 46.00 19.05 48.01 18.19 Z" fill="#f9f9f9"/>
<path d="M 52.86 20.01 L 53.01 20.03 L 53.06 20.18 L 52.95 20.06 L 52.86 20.01 Z" fill="#fff7fb"/>
<path d="M 88.68 18.25 C 89.77 24.34 89.13 30.37 90.73 36.38 L 89.35 36.05 C 89.79 37.76 90.25 39.47 90.63 41.19 C 90.53 46.57 90.28 51.92 90.61 57.30 C 90.31 55.22 89.89 53.15 89.51 51.09 C 89.19 53.05 88.86 55.01 88.52 56.97 C 88.28 55.96 88.05 54.95 87.82 53.93 C 87.79 52.99 87.78 52.05 87.78 51.10 C 87.23 50.51 86.68 49.91 86.12 49.32 L 88.98 49.69 C 86.98 44.38 82.65 42.64 78.45 39.46 C 78.01 38.92 77.57 38.38 77.14 37.83 C 74.14 37.60 71.15 37.22 68.14 37.01 C 64.91 38.15 62.10 39.05 58.61 38.57 C 58.94 39.36 59.27 40.15 59.59 40.94 C 58.51 40.91 57.43 40.87 56.35 40.84 C 53.60 44.84 50.16 48.15 46.76 51.57 L 47.05 50.11 C 49.84 46.96 50.85 44.54 51.58 40.39 C 53.69 39.16 56.54 37.97 57.83 35.81 C 59.00 33.84 59.57 31.42 60.25 29.24 C 61.84 29.25 63.53 29.42 65.09 29.08 C 67.53 28.23 69.57 25.80 71.36 24.01 C 73.72 24.96 76.46 26.24 79.04 26.22 C 81.21 25.75 83.28 24.26 85.15 23.12 C 85.73 23.22 86.31 23.32 86.89 23.42 C 87.13 21.44 87.21 19.78 88.68 18.25 Z" fill="#de9c9c"/>
<path d="M 53.06 20.18 L 53.34 20.09 L 53.46 20.34 L 53.26 20.42 L 53.06 20.18 Z" fill="#fff6fa"/>
<path d="M 107.04 21.07 C 106.96 22.10 106.87 23.13 106.77 24.16 L 104.77 26.09 C 106.22 27.27 107.68 28.76 109.39 29.55 C 111.30 30.04 113.33 30.10 115.28 30.30 C 117.27 33.71 119.37 35.45 122.78 37.35 C 123.04 38.46 123.30 39.58 123.55 40.69 C 123.69 41.40 123.85 42.10 124.01 42.79 C 123.32 42.69 122.64 42.58 121.95 42.47 C 122.74 44.65 123.40 47.30 124.92 49.08 C 126.26 50.36 128.22 51.06 129.85 51.88 C 129.60 52.99 129.35 54.11 129.10 55.22 C 125.13 49.60 119.81 45.67 114.52 41.42 C 112.44 39.82 109.65 39.29 107.17 38.55 C 106.32 38.10 105.48 37.64 104.65 37.15 C 109.15 37.13 113.27 37.64 117.24 39.92 L 118.85 40.10 L 118.07 38.71 C 116.58 37.50 115.08 36.30 113.61 35.07 C 106.49 35.04 101.13 39.13 94.19 40.06 C 93.82 38.35 93.44 36.65 93.10 34.93 C 92.52 31.92 92.05 28.90 91.62 25.86 C 93.95 26.33 96.60 27.37 98.98 27.03 C 102.23 26.13 105.49 24.19 107.04 21.07 Z" fill="#dd9d9c"/>
<path d="M 33.30 30.67 L 33.45 30.48 C 35.55 30.50 37.67 30.35 39.77 30.50 C 41.02 31.03 42.12 31.94 43.24 32.71 L 42.14 33.69 C 40.93 32.85 39.70 32.03 38.48 31.22 C 39.21 32.52 39.98 33.80 40.75 35.08 C 39.80 37.55 39.21 40.50 36.92 42.12 C 34.23 43.44 31.80 40.52 32.50 37.94 C 32.74 35.28 34.63 34.19 36.39 32.46 C 35.28 31.97 34.16 31.49 33.03 31.01 L 33.30 30.67 Z" fill="#f7f8f6"/>
<path d="M 138.83 30.40 C 142.74 30.94 143.51 33.78 145.20 36.79 C 145.85 35.81 146.51 34.83 147.17 33.86 C 145.93 37.01 144.49 40.07 143.22 43.21 C 144.50 41.78 145.73 40.33 146.94 38.84 C 148.74 41.93 151.44 44.17 153.53 47.02 C 151.66 45.82 149.90 44.12 147.83 43.30 C 146.27 43.22 144.65 44.11 143.17 44.57 C 143.22 45.34 143.26 46.10 143.31 46.86 C 142.53 48.00 141.73 49.14 140.93 50.27 C 141.32 51.72 141.66 53.27 142.31 54.63 C 143.22 56.22 145.56 56.30 147.16 56.50 C 148.37 55.50 149.45 54.29 150.51 53.15 C 150.48 51.41 150.47 49.67 150.46 47.93 C 148.60 46.73 146.73 45.54 144.82 44.42 C 148.30 43.50 150.48 46.32 151.55 49.21 C 152.27 52.92 149.76 55.39 147.77 58.15 C 149.25 57.44 150.74 56.74 152.22 56.04 C 152.77 53.59 153.31 51.14 153.85 48.69 C 154.36 50.87 154.69 53.22 155.59 55.28 C 156.83 57.31 158.73 58.94 160.07 60.91 C 163.15 66.39 164.92 72.26 165.72 78.48 C 164.75 78.89 163.79 79.31 162.83 79.73 C 163.97 79.53 165.11 79.33 166.24 79.12 C 170.98 91.42 175.67 104.55 176.93 117.73 C 175.72 115.62 175.16 113.47 174.81 111.07 C 173.94 105.60 172.37 100.30 170.42 95.12 C 169.87 99.02 169.08 102.70 167.33 106.26 C 172.09 110.73 174.42 117.59 174.30 124.01 C 174.19 128.68 171.13 132.05 167.34 134.35 C 163.35 136.62 158.67 136.37 154.24 136.50 C 150.69 131.63 146.18 127.53 146.21 121.00 C 146.02 116.48 147.59 113.71 150.97 110.87 C 147.70 109.62 144.48 108.94 142.77 105.53 C 141.11 100.78 140.16 95.86 141.54 90.90 C 141.77 89.80 142.02 88.71 142.26 87.61 C 137.79 83.44 136.00 77.85 134.85 72.01 C 134.30 69.35 136.11 66.87 137.19 64.56 C 135.01 62.92 132.82 61.29 130.61 59.69 C 131.48 61.27 132.36 62.84 133.24 64.41 C 132.25 64.80 130.53 66.26 129.52 65.47 C 127.02 63.26 125.50 60.34 122.65 58.37 C 119.66 56.33 116.54 54.35 113.31 52.72 C 110.33 51.21 106.57 51.89 103.47 52.68 C 99.37 53.77 96.36 56.72 93.11 59.29 C 93.28 61.34 93.45 63.39 93.62 65.44 C 96.72 63.62 99.14 61.26 102.95 61.38 C 108.29 60.96 112.06 63.59 117.03 64.75 C 122.04 65.67 127.21 68.53 130.99 71.86 C 132.38 75.20 133.37 78.48 135.67 81.37 C 135.51 82.06 135.36 82.75 135.20 83.44 C 132.27 79.85 129.84 75.70 126.64 72.35 C 123.44 69.27 118.76 68.41 114.61 67.35 C 115.26 68.99 115.91 70.63 116.56 72.27 C 113.78 69.48 111.54 66.44 107.52 65.41 C 102.07 65.01 96.89 65.08 92.51 68.76 C 92.40 74.05 92.30 79.27 93.07 84.52 C 92.51 83.71 91.96 82.90 91.41 82.09 L 91.07 81.59 C 91.29 77.71 91.52 73.88 90.92 70.01 C 90.24 65.75 90.93 61.57 90.61 57.30 C 90.28 51.92 90.53 46.57 90.63 41.19 C 91.01 40.11 91.41 39.03 91.82 37.96 C 92.51 39.50 93.19 41.04 93.87 42.59 C 98.25 39.93 102.05 38.86 107.17 38.55 C 109.65 39.29 112.44 39.82 114.52 41.42 C 119.81 45.67 125.13 49.60 129.10 55.22 C 129.35 54.11 129.60 52.99 129.85 51.88 C 128.22 51.06 126.26 50.36 124.92 49.08 C 123.40 47.30 122.74 44.65 121.95 42.47 C 122.64 42.58 123.32 42.69 124.01 42.79 C 124.66 44.84 124.98 46.85 126.98 48.03 C 129.44 49.77 132.09 48.29 134.68 47.67 C 135.34 47.47 136.01 47.27 136.68 47.07 C 136.09 46.33 135.51 45.59 134.92 44.84 C 134.65 43.30 134.39 41.76 134.05 40.24 C 134.77 41.78 135.42 43.37 136.09 44.94 C 136.69 44.17 137.28 43.40 137.87 42.62 C 138.89 42.54 139.91 42.47 140.94 42.39 C 141.87 41.26 142.81 40.15 143.75 39.03 C 143.64 37.71 143.45 36.40 143.19 35.11 C 141.78 33.48 140.13 32.13 138.83 30.40 Z" fill="#be595b"/>
<path d="M 143.06 30.07 C 144.42 29.82 145.03 30.42 144.87 31.85 C 143.41 32.02 142.81 31.43 143.06 30.07 Z" fill="#b3a5aa"/>
<path d="M 135.20 32.53 C 135.08 34.28 134.71 36.13 134.96 37.87 C 135.66 39.55 136.86 41.12 137.87 42.62 C 137.28 43.40 136.69 44.17 136.09 44.94 C 135.42 43.37 134.77 41.78 134.05 40.24 C 133.26 38.37 131.76 37.27 129.99 36.42 L 127.44 38.24 C 127.39 37.79 127.34 37.33 127.29 36.88 L 127.61 35.31 L 128.49 34.44 C 129.06 34.33 129.63 34.22 130.20 34.11 L 132.30 35.57 C 133.27 34.56 134.24 33.55 135.20 32.53 Z" fill="#93888a"/>
<path d="M 43.92 33.97 C 45.23 35.57 46.46 37.22 47.69 38.87 C 45.65 42.81 44.52 46.45 39.47 46.97 C 36.85 45.75 33.94 44.96 31.48 43.45 C 29.65 42.16 29.75 39.67 29.27 37.72 C 31.24 40.13 33.25 42.32 35.75 44.19 C 36.46 43.80 37.17 43.41 37.88 43.03 C 38.44 43.67 39.01 44.31 39.57 44.95 C 39.83 41.76 40.52 39.00 42.18 36.24 C 42.75 35.48 43.33 34.72 43.92 33.97 Z" fill="#f0f1f0"/>
<path d="M 93.10 34.93 C 93.44 36.65 93.82 38.35 94.19 40.06 C 101.13 39.13 106.49 35.04 113.61 35.07 C 115.08 36.30 116.58 37.50 118.07 38.71 L 117.24 39.92 C 113.27 37.64 109.15 37.13 104.65 37.15 C 105.48 37.64 106.32 38.10 107.17 38.55 C 102.05 38.86 98.25 39.93 93.87 42.59 C 93.19 41.04 92.51 39.50 91.82 37.96 C 91.41 39.03 91.01 40.11 90.63 41.19 C 90.25 39.47 89.79 37.76 89.35 36.05 L 90.73 36.38 C 91.65 36.61 92.56 36.83 93.48 37.05 L 93.10 34.93 Z" fill="#d17577"/>
<path d="M 68.14 37.01 C 71.15 37.22 74.14 37.60 77.14 37.83 C 77.57 38.38 78.01 38.92 78.45 39.46 C 75.67 39.14 73.19 39.90 70.56 40.67 C 66.75 41.27 63.10 41.68 59.63 43.50 C 54.52 45.78 52.30 50.73 48.10 54.17 C 46.76 53.56 46.32 52.70 46.76 51.57 C 50.16 48.15 53.60 44.84 56.35 40.84 C 57.43 40.87 58.51 40.91 59.59 40.94 C 59.27 40.15 58.94 39.36 58.61 38.57 C 62.10 39.05 64.91 38.15 68.14 37.01 Z" fill="#b94c4c"/>
<path d="M 111.50 36.13 C 112.48 34.77 114.75 36.18 112.99 37.28 C 111.87 37.42 111.37 37.04 111.50 36.13 Z" fill="#b14851"/>
<path d="M 127.61 35.31 L 127.29 36.88 C 127.34 37.33 127.39 37.79 127.44 38.24 L 129.99 36.42 C 131.76 37.27 133.26 38.37 134.05 40.24 C 134.39 41.76 134.65 43.30 134.92 44.84 C 133.09 45.22 131.27 46.61 129.49 45.47 C 126.83 44.37 127.08 40.45 126.20 38.01 C 125.73 39.33 125.34 40.68 125.02 42.03 C 125.04 43.75 126.87 45.45 127.82 46.82 C 130.12 47.00 132.41 47.26 134.68 47.67 C 132.09 48.29 129.44 49.77 126.98 48.03 C 124.98 46.85 124.66 44.84 124.01 42.79 C 123.85 42.10 123.69 41.40 123.55 40.69 C 124.69 38.72 125.98 36.91 127.61 35.31 Z" fill="#f5f5f5"/>
<path d="M 48.65 37.34 C 49.39 39.93 50.04 42.15 48.77 44.73 C 47.70 47.61 45.39 48.69 43.00 50.31 C 42.07 49.50 41.13 48.70 40.18 47.90 C 46.21 47.57 47.91 42.47 48.65 37.34 Z" fill="#e9e2e0"/>
<path d="M 78.45 39.46 C 82.65 42.64 86.98 44.38 88.98 49.69 L 86.12 49.32 C 83.92 47.14 81.70 44.50 78.96 43.02 C 76.38 41.62 73.41 41.20 70.56 40.67 C 73.19 39.90 75.67 39.14 78.45 39.46 Z" fill="#b14347"/>
<path d="M 118.07 38.71 L 118.85 40.10 L 117.24 39.92 L 118.07 38.71 Z" fill="#b54853"/>
<path d="M 129.49 45.47 C 131.27 46.61 133.09 45.22 134.92 44.84 C 135.51 45.59 136.09 46.33 136.68 47.07 C 136.01 47.27 135.34 47.47 134.68 47.67 C 132.41 47.26 130.12 47.00 127.82 46.82 C 126.87 45.45 125.04 43.75 125.02 42.03 C 125.34 40.68 125.73 39.33 126.20 38.01 C 127.08 40.45 126.83 44.37 129.49 45.47 Z" fill="#989092"/>
<path d="M 70.56 40.67 C 73.41 41.20 76.38 41.62 78.96 43.02 C 81.70 44.50 83.92 47.14 86.12 49.32 C 86.68 49.91 87.23 50.51 87.78 51.10 C 87.78 52.05 87.79 52.99 87.82 53.93 C 86.02 52.37 84.16 50.93 82.06 49.78 C 78.38 47.61 73.28 47.55 69.10 47.05 C 69.61 48.11 70.13 49.17 70.64 50.23 C 69.38 49.55 68.12 48.87 66.86 48.20 C 63.66 49.47 60.34 50.23 57.01 51.08 C 54.64 51.72 52.58 53.84 50.65 55.31 C 48.95 55.02 47.25 54.79 45.52 54.72 C 46.07 56.08 47.13 56.94 48.14 57.94 C 46.69 60.74 45.21 63.51 43.40 66.10 C 43.28 66.79 43.16 67.49 43.04 68.18 C 41.96 67.62 40.89 67.05 39.81 66.48 C 41.96 64.76 44.92 62.86 45.84 60.14 C 46.00 57.40 45.00 54.45 44.28 51.82 C 45.21 51.26 46.14 50.70 47.05 50.11 L 46.76 51.57 C 46.32 52.70 46.76 53.56 48.10 54.17 C 52.30 50.73 54.52 45.78 59.63 43.50 C 63.10 41.68 66.75 41.27 70.56 40.67 Z" fill="#dd9998"/>
<path d="M 102.00 41.42 C 106.07 40.80 110.59 41.36 113.79 44.18 C 116.36 46.32 119.13 48.17 121.76 50.23 C 124.12 52.10 125.11 54.56 126.43 57.18 C 123.42 55.70 120.51 54.04 117.62 52.34 C 117.45 51.71 117.29 51.08 117.12 50.45 C 112.17 48.75 107.96 48.37 102.79 48.69 C 98.89 51.03 95.78 53.96 92.81 57.38 C 92.73 53.66 92.82 49.99 93.10 46.28 C 95.77 44.51 98.79 41.98 102.00 41.42 Z" fill="#de9b99"/>
<path d="M 31.08 45.32 C 34.38 46.31 37.70 47.25 40.06 49.91 C 41.93 52.03 43.76 53.95 43.52 57.00 C 43.63 59.78 42.28 62.32 39.83 63.67 C 38.50 63.70 37.16 63.67 35.82 63.57 C 37.37 62.59 39.15 61.78 40.52 60.56 C 41.94 58.81 41.68 55.76 41.81 53.65 C 41.19 55.59 40.69 57.56 40.22 59.55 C 38.55 60.28 36.75 61.37 34.91 61.47 C 33.18 60.46 31.78 59.12 30.27 57.80 C 31.39 57.72 32.51 57.64 33.63 57.56 C 34.30 54.25 35.30 52.46 37.55 49.97 C 35.89 49.07 34.24 48.15 32.59 47.25 C 33.25 48.48 33.91 49.71 34.58 50.93 C 33.48 52.69 32.48 54.75 30.97 56.19 C 28.75 57.60 27.02 56.26 24.83 55.60 C 25.36 53.76 25.51 51.30 26.77 49.78 C 28.23 48.28 30.63 47.57 32.47 46.65 C 30.90 46.58 29.34 46.51 27.77 46.43 C 28.87 46.04 29.97 45.66 31.08 45.32 Z" fill="#f8f8f8"/>
<path d="M 142.03 45.56 C 140.93 47.24 139.80 48.90 138.64 50.55 C 139.41 52.39 140.99 54.72 140.66 56.75 C 139.69 58.12 138.44 59.31 137.32 60.57 C 138.69 60.34 140.07 60.11 141.44 59.88 C 141.58 58.89 141.72 57.90 141.85 56.92 C 143.60 57.38 145.35 57.84 147.11 58.26 C 144.03 59.08 141.78 61.08 139.02 62.52 C 136.17 62.48 133.78 59.73 132.19 57.64 C 133.40 58.50 134.60 59.37 135.80 60.26 C 136.32 59.96 136.85 59.66 137.38 59.36 C 133.88 57.05 133.61 55.73 133.17 51.67 C 134.13 50.94 135.09 50.20 136.04 49.45 C 136.44 48.43 136.92 47.47 137.49 46.57 C 138.75 45.49 140.50 45.74 142.03 45.56 Z" fill="#f4f6f5"/>
<path d="M 143.17 44.57 C 143.72 44.51 144.27 44.46 144.82 44.42 C 146.73 45.54 148.60 46.73 150.46 47.93 C 150.47 49.67 150.48 51.41 150.51 53.15 C 149.45 54.29 148.37 55.50 147.16 56.50 C 145.56 56.30 143.22 56.22 142.31 54.63 C 141.66 53.27 141.32 51.72 140.93 50.27 C 141.73 49.14 142.53 48.00 143.31 46.86 C 143.26 46.10 143.22 45.34 143.17 44.57 Z" fill="#f4f4f4"/>
<path d="M 75.02 51.24 C 80.57 50.98 83.96 54.49 88.52 56.97 C 88.86 55.01 89.19 53.05 89.51 51.09 C 89.89 53.15 90.31 55.22 90.61 57.30 C 90.93 61.57 90.24 65.75 90.92 70.01 C 91.52 73.88 91.29 77.71 91.07 81.59 L 88.58 80.69 C 88.51 77.33 88.25 73.98 88.29 70.61 C 87.99 70.05 87.70 69.50 87.39 68.95 C 88.62 64.93 88.88 61.73 88.32 57.55 C 87.46 59.77 87.21 62.10 87.01 64.46 C 85.48 62.80 83.92 61.17 82.36 59.53 C 81.55 59.62 80.74 59.71 79.93 59.81 C 78.99 58.97 78.06 58.13 77.12 57.29 C 76.43 57.73 75.73 58.16 75.04 58.58 C 70.74 58.20 67.13 58.69 63.12 60.37 C 62.26 60.08 61.40 59.79 60.54 59.50 C 58.60 60.34 56.62 61.12 54.74 62.07 C 52.24 63.32 50.38 66.12 48.52 68.13 C 48.15 67.03 47.20 65.90 47.64 64.71 C 48.70 61.25 50.73 57.77 54.13 56.19 C 60.49 52.94 67.96 51.69 75.02 51.24 Z" fill="#dfa2a1"/>
<path d="M 103.47 52.68 C 106.57 51.89 110.33 51.21 113.31 52.72 C 116.54 54.35 119.66 56.33 122.65 58.37 C 125.50 60.34 127.02 63.26 129.52 65.47 C 130.53 66.26 132.25 64.80 133.24 64.41 C 132.36 62.84 131.48 61.27 130.61 59.69 C 132.82 61.29 135.01 62.92 137.19 64.56 C 136.11 66.87 134.30 69.35 134.85 72.01 C 136.00 77.85 137.79 83.44 142.26 87.61 C 142.02 88.71 141.77 89.80 141.54 90.90 C 140.21 87.52 137.52 86.06 135.20 83.44 C 135.36 82.75 135.51 82.06 135.67 81.37 C 133.37 78.48 132.38 75.20 130.99 71.86 C 127.21 68.53 122.04 65.67 117.03 64.75 C 112.06 63.59 108.29 60.96 102.95 61.38 C 99.14 61.26 96.72 63.62 93.62 65.44 C 93.45 63.39 93.28 61.34 93.11 59.29 C 96.36 56.72 99.37 53.77 103.47 52.68 Z" fill="#e09fa0"/>
<path d="M 132.01 52.29 C 132.98 53.44 132.36 54.99 131.39 55.91 C 131.00 55.13 130.45 51.99 132.01 52.29 Z" fill="#f9c3c5"/>
<path d="M 22.96 54.18 C 24.02 55.10 25.09 56.01 26.17 56.90 C 28.36 58.48 30.59 59.97 32.63 61.75 C 29.79 60.99 27.03 60.06 24.48 58.57 C 23.95 57.11 23.44 55.65 22.96 54.18 Z" fill="#e8e1e1"/>
<path d="M 22.63 58.07 C 23.63 59.36 21.80 61.44 20.43 60.72 C 19.71 59.59 21.28 56.97 22.63 58.07 Z" fill="#efb2ae"/>
<path d="M 158.62 60.46 C 160.81 63.81 162.69 68.02 163.43 71.96 C 164.00 74.95 162.47 76.88 161.17 79.34 C 158.76 79.89 156.36 80.49 153.95 81.06 C 157.61 78.58 160.64 75.87 160.64 71.15 C 159.90 68.11 158.78 65.11 157.73 62.16 C 157.08 60.27 155.15 58.81 153.11 59.19 C 150.68 59.67 148.36 61.09 146.15 62.18 C 147.38 65.25 147.88 67.78 147.84 71.11 C 146.28 72.52 144.75 73.95 143.21 75.37 C 142.29 73.39 140.58 71.20 140.50 68.99 C 141.74 66.79 143.45 64.84 144.90 62.76 C 142.95 64.07 140.73 65.33 139.79 67.60 C 138.96 69.73 140.28 72.29 140.87 74.35 C 139.89 75.22 138.92 76.09 137.95 76.97 C 137.22 73.85 135.49 70.47 137.46 67.48 C 139.74 63.37 144.78 60.69 148.99 58.98 C 151.89 58.07 156.81 57.26 158.62 60.46 Z" fill="#f8f8f8"/>
<path d="M 153.11 59.19 C 155.15 58.81 157.08 60.27 157.73 62.16 C 158.78 65.11 159.90 68.11 160.64 71.15 C 160.64 75.87 157.61 78.58 153.95 81.06 C 153.92 80.47 153.88 79.88 153.85 79.29 C 155.63 77.97 157.27 76.48 158.90 74.99 C 158.32 74.55 157.74 74.11 157.16 73.67 C 155.89 74.75 154.60 75.81 153.30 76.86 C 151.15 76.13 148.97 75.54 146.76 75.01 C 148.47 74.69 150.19 74.39 151.91 74.08 C 150.99 73.09 150.06 72.11 149.13 71.13 C 147.20 73.01 145.20 74.67 142.92 76.10 C 143.73 77.45 144.37 79.38 145.69 80.30 C 147.12 80.94 148.72 81.24 150.23 81.66 C 151.01 81.16 151.79 80.67 152.56 80.17 C 152.48 80.96 152.39 81.76 152.30 82.55 C 151.22 82.77 150.15 82.98 149.07 83.18 C 147.11 82.44 144.41 81.56 143.26 79.68 C 142.34 77.97 142.39 75.70 142.02 73.84 C 141.02 74.77 140.02 75.70 139.02 76.64 C 139.29 78.42 139.55 80.21 139.89 81.98 C 139.14 80.36 138.49 78.67 137.95 76.97 C 138.92 76.09 139.89 75.22 140.87 74.35 C 140.28 72.29 138.96 69.73 139.79 67.60 C 140.73 65.33 142.95 64.07 144.90 62.76 C 143.45 64.84 141.74 66.79 140.50 68.99 C 140.58 71.20 142.29 73.39 143.21 75.37 C 144.75 73.95 146.28 72.52 147.84 71.11 C 147.88 67.78 147.38 65.25 146.15 62.18 C 148.36 61.09 150.68 59.67 153.11 59.19 Z" fill="#805f65"/>
<path d="M 153.18 59.78 C 156.47 61.49 157.29 65.83 159.24 68.94 C 159.30 70.29 159.36 71.64 159.41 72.99 C 158.49 72.85 157.57 72.71 156.64 72.58 C 155.51 73.40 154.37 74.22 153.22 75.03 C 152.54 73.35 151.86 71.67 151.18 70.00 C 152.96 68.73 154.74 67.45 156.43 66.05 C 154.00 66.91 151.69 68.04 149.40 69.22 C 148.93 66.92 148.48 64.63 148.06 62.32 C 149.75 61.45 151.44 60.58 153.18 59.78 Z" fill="#f7f8f6"/>
<path d="M 27.29 61.96 C 25.98 62.18 24.67 62.39 23.36 62.57 C 20.54 65.32 21.80 68.57 20.05 71.87 C 18.70 74.59 17.90 77.33 18.64 80.37 C 20.37 82.16 22.79 83.34 24.78 84.83 C 25.93 84.80 27.08 84.77 28.22 84.75 C 31.20 86.93 33.95 86.78 37.50 86.85 C 34.99 88.02 33.11 90.65 30.28 88.74 C 25.30 85.93 20.37 83.36 15.10 81.14 C 15.29 75.55 16.33 69.66 18.42 64.46 C 20.47 62.09 24.24 60.55 27.29 61.96 Z" fill="#fdfdfb"/>
<path d="M 26.41 63.11 C 26.20 66.70 26.80 69.56 27.82 72.92 C 25.85 73.19 23.81 70.59 22.26 69.56 C 22.44 68.06 22.65 66.57 22.87 65.08 C 24.04 64.40 25.22 63.75 26.41 63.11 Z" fill="#fdfffe"/>
<path d="M 26.99 63.41 C 31.45 63.82 35.64 64.98 39.20 67.79 C 41.07 69.47 41.66 72.64 42.39 74.94 C 40.71 78.68 39.39 82.54 38.10 86.43 C 37.46 86.00 36.82 85.58 36.18 85.15 C 37.67 81.90 39.54 78.54 40.26 75.02 C 40.72 72.46 39.60 70.57 38.30 68.52 C 38.67 70.02 39.09 71.51 39.53 73.00 C 38.18 77.30 36.68 81.55 35.41 85.88 C 33.83 85.73 32.30 85.63 30.74 85.27 L 29.78 82.59 C 31.77 82.51 33.69 82.54 35.57 81.83 C 34.23 81.69 32.88 81.57 31.54 81.47 C 30.18 78.71 28.63 76.42 29.24 73.19 C 30.07 71.54 32.96 71.07 34.56 70.31 L 34.40 69.80 C 32.94 70.16 31.35 70.81 29.87 70.59 C 27.35 69.20 27.54 65.88 26.99 63.41 Z" fill="#f7f7f7"/>
<path d="M 43.16 70.25 C 44.18 69.24 46.45 70.00 45.54 71.57 C 44.52 72.64 42.26 71.82 43.16 70.25 Z" fill="#e37c7c"/>
<path d="M 22.49 69.93 C 23.76 71.82 25.03 73.71 26.33 75.59 C 25.48 77.17 24.66 78.75 23.88 80.36 C 25.34 79.24 26.76 78.09 28.20 76.94 C 28.29 78.85 29.49 82.16 28.21 83.76 C 25.79 84.08 24.85 82.82 23.21 81.39 C 22.06 80.92 20.91 80.49 19.81 79.92 C 18.30 76.29 21.02 73.06 22.49 69.93 Z" fill="#f8f8f8"/>
<path d="M 57.46 71.16 C 56.35 78.30 53.61 84.98 51.85 92.00 C 49.60 98.46 48.69 105.26 46.13 111.61 L 46.39 109.10 C 47.13 106.18 47.87 103.27 48.43 100.31 C 49.17 96.52 50.74 93.36 50.25 89.40 C 50.72 89.18 51.20 88.95 51.67 88.73 C 51.67 88.29 51.66 87.85 51.66 87.42 C 51.64 86.44 51.63 85.45 51.61 84.47 C 52.59 83.57 53.57 82.66 54.52 81.73 C 53.93 80.94 53.32 80.15 52.71 79.37 L 51.62 77.88 C 51.39 76.85 51.16 75.82 50.95 74.79 C 53.02 72.89 54.63 71.74 57.46 71.16 Z" fill="#e0a4a5"/>
<path d="M 149.13 71.13 C 150.06 72.11 150.99 73.09 151.91 74.08 C 150.19 74.39 148.47 74.69 146.76 75.01 C 148.97 75.54 151.15 76.13 153.30 76.86 C 154.60 75.81 155.89 74.75 157.16 73.67 C 157.74 74.11 158.32 74.55 158.90 74.99 C 157.27 76.48 155.63 77.97 153.85 79.29 C 153.43 79.59 153.00 79.88 152.56 80.17 C 151.79 80.67 151.01 81.16 150.23 81.66 C 148.72 81.24 147.12 80.94 145.69 80.30 C 144.37 79.38 143.73 77.45 142.92 76.10 C 145.20 74.67 147.20 73.01 149.13 71.13 Z" fill="#f7f7f7"/>
<path d="M 45.20 73.30 C 45.11 74.10 45.02 74.91 44.90 75.71 C 43.82 80.11 43.41 84.39 40.97 88.33 C 39.96 92.35 37.95 95.78 37.58 99.99 C 37.26 104.07 36.02 107.83 34.81 111.70 C 34.13 112.26 33.46 112.82 32.78 113.38 C 32.20 115.86 30.98 117.02 29.11 118.65 C 28.61 117.37 28.09 116.10 27.57 114.83 C 31.26 111.79 34.52 108.72 35.83 103.94 C 37.37 99.39 35.38 95.72 33.85 91.54 C 36.03 90.11 38.55 89.17 39.66 86.67 C 41.77 82.28 43.80 77.91 45.20 73.30 Z" fill="#dca1a0"/>
<path d="M 142.02 73.84 C 142.39 75.70 142.34 77.97 143.26 79.68 C 144.41 81.56 147.11 82.44 149.07 83.18 C 147.32 84.09 145.61 85.06 143.89 86.03 C 142.54 84.82 140.83 83.57 139.89 81.98 C 139.55 80.21 139.29 78.42 139.02 76.64 C 140.02 75.70 141.02 74.77 142.02 73.84 Z" fill="#f3faf8"/>
<path d="M 52.71 79.37 C 53.32 80.15 53.93 80.94 54.52 81.73 C 53.57 82.66 52.59 83.57 51.61 84.47 C 51.63 85.45 51.64 86.44 51.66 87.42 C 49.54 88.67 47.41 89.71 45.10 90.56 C 46.46 89.12 47.88 87.74 49.40 86.47 C 48.37 85.89 47.34 85.29 46.27 84.69 C 48.32 82.79 50.40 80.95 52.71 79.37 Z" fill="#d78a89"/>
<path d="M 12.25 79.82 C 13.63 80.93 14.32 82.34 15.25 83.81 C 11.12 86.80 10.37 91.15 7.75 95.19 C 8.88 89.99 10.57 84.87 12.25 79.82 Z" fill="#e6aeaa"/>
<path d="M 88.58 80.69 L 91.07 81.59 L 91.41 82.09 C 91.96 82.90 92.51 83.71 93.07 84.52 C 93.21 85.87 93.34 87.21 93.47 88.56 C 91.72 88.51 89.96 88.45 88.21 88.39 C 88.40 85.82 88.56 83.26 88.58 80.69 Z" fill="#d89293"/>
<path d="M 163.80 81.29 C 166.01 82.27 167.62 84.31 167.81 86.76 C 168.49 93.64 169.22 100.22 164.44 105.85 C 164.44 106.78 164.45 107.71 164.45 108.65 C 165.73 110.04 166.99 111.45 168.23 112.88 L 168.49 109.32 C 169.91 112.13 171.14 115.02 172.43 117.89 C 171.99 118.46 171.56 119.03 171.13 119.60 C 170.25 117.06 169.32 114.52 168.40 111.99 C 168.25 113.27 168.10 114.54 167.96 115.82 C 165.78 117.25 163.64 118.73 161.48 120.18 C 160.48 117.00 161.27 114.15 161.74 110.99 C 159.64 113.26 159.37 115.52 159.08 118.48 C 157.00 119.00 152.96 120.40 151.06 119.14 C 151.89 117.05 152.35 114.64 154.60 113.64 C 157.20 112.34 159.58 111.24 161.48 108.90 C 157.49 110.68 152.10 112.61 150.60 117.21 C 151.04 120.57 151.40 124.32 152.75 127.44 C 155.84 132.11 161.99 131.04 166.47 129.32 C 170.31 127.71 171.23 123.80 171.96 120.10 C 172.32 120.13 172.68 120.15 173.04 120.17 C 172.64 122.69 172.50 125.87 171.10 128.07 C 168.68 131.55 164.68 133.48 160.52 133.84 C 157.56 134.08 154.52 133.97 152.42 131.58 C 150.23 128.98 148.11 125.17 147.01 121.95 C 145.87 118.71 148.30 115.61 150.15 113.18 C 153.24 109.12 157.68 109.83 161.54 106.59 C 156.69 107.13 152.16 109.95 147.48 107.55 C 143.67 106.12 143.23 102.22 142.15 98.79 C 140.82 94.72 142.37 90.96 144.60 87.59 C 146.52 85.75 149.44 84.81 151.83 83.73 C 155.70 82.17 159.51 80.25 163.80 81.29 Z" fill="#f6f6f6"/>
<path d="M 162.57 82.67 C 163.51 83.51 164.41 84.39 165.31 85.26 C 165.45 86.91 165.61 88.55 165.78 90.20 C 165.31 88.48 164.95 86.66 164.21 85.04 C 162.93 83.03 160.00 83.74 157.90 83.38 C 156.21 84.46 154.54 85.55 152.92 86.74 C 153.23 87.66 153.54 88.59 153.85 89.51 C 154.66 91.01 155.43 92.53 156.20 94.06 C 157.68 93.19 159.14 92.29 160.60 91.40 C 160.69 90.19 160.79 88.98 160.90 87.78 C 160.99 89.04 161.06 90.30 161.13 91.56 C 163.21 91.57 165.21 91.50 167.18 92.27 C 165.09 92.39 163.00 92.39 160.90 92.38 C 160.36 93.15 159.81 93.92 159.25 94.69 C 160.44 95.71 161.63 96.73 162.78 97.79 C 161.50 96.98 160.25 96.13 158.93 95.37 C 156.91 95.25 156.37 97.32 155.38 98.66 C 155.45 100.59 155.42 102.48 155.25 104.40 C 154.51 101.88 154.94 99.54 155.26 97.00 C 155.59 94.24 153.90 92.00 152.57 89.75 C 152.67 88.45 152.73 87.15 152.75 85.84 C 150.52 87.36 148.31 88.91 146.20 90.60 C 146.23 92.90 146.28 95.20 146.33 97.50 C 147.97 99.10 149.58 100.26 151.59 101.35 C 150.24 101.00 148.88 100.65 147.52 100.32 C 148.77 104.76 152.39 104.80 155.94 106.37 C 152.09 105.43 148.78 105.05 146.92 101.04 C 145.64 97.28 145.37 94.25 145.58 90.28 C 147.93 87.92 150.37 86.53 153.48 85.39 C 156.47 83.67 158.97 82.21 162.57 82.67 Z" fill="#1e1e1e"/>
<path d="M 23.29 86.01 C 20.87 87.11 17.55 87.64 16.34 90.32 C 14.94 93.41 13.57 96.76 12.60 100.01 C 11.75 103.24 13.30 105.31 14.78 107.99 C 12.85 107.35 10.63 107.35 9.31 105.66 C 7.48 104.04 8.60 100.96 8.98 98.90 C 10.12 94.87 11.24 90.16 13.89 86.84 C 16.29 83.79 20.16 85.35 23.29 86.01 Z" fill="#f8faf8"/>
<path d="M 23.07 87.44 C 25.21 88.30 27.33 89.53 29.02 91.13 C 30.14 93.21 30.61 95.70 31.31 97.95 C 31.22 95.47 30.87 93.02 30.54 90.56 C 31.99 92.51 33.47 94.25 34.04 96.68 C 35.02 100.35 33.93 103.95 32.27 107.24 C 31.03 109.69 28.22 111.31 26.04 112.85 C 24.66 112.22 23.27 111.60 21.89 110.98 C 24.24 109.83 26.44 109.23 27.97 106.95 C 29.35 105.11 29.36 103.14 29.65 100.95 C 27.86 103.73 26.50 106.91 23.60 108.73 C 21.94 110.12 20.16 108.95 18.24 108.74 C 19.41 105.96 20.57 103.17 21.83 100.42 C 22.85 100.78 23.87 101.13 24.90 101.49 C 23.99 100.23 23.08 98.99 22.17 97.75 C 23.50 95.05 25.10 92.76 27.07 90.49 C 25.82 91.15 24.56 91.82 23.31 92.48 C 22.51 91.41 21.70 90.34 20.88 89.29 C 21.36 90.50 21.85 91.71 22.34 92.92 C 21.72 94.80 21.12 96.69 20.52 98.58 C 18.72 97.71 16.90 96.89 15.05 96.10 C 16.33 92.00 18.18 87.79 23.07 87.44 Z" fill="#f7f7f7"/>
<path d="M 50.25 89.40 C 50.74 93.36 49.17 96.52 48.43 100.31 C 47.87 103.27 47.13 106.18 46.39 109.10 L 46.13 111.61 C 45.83 113.21 45.53 114.82 45.15 116.40 L 44.66 116.62 C 42.24 117.53 39.79 118.37 37.36 119.25 C 38.65 117.98 39.94 116.71 41.24 115.45 C 40.75 115.00 40.25 114.56 39.75 114.11 C 41.42 113.19 43.10 112.27 44.77 111.35 C 43.67 111.37 42.57 111.38 41.47 111.39 C 42.91 109.40 44.33 107.39 45.72 105.37 C 44.66 105.71 43.60 106.05 42.54 106.39 C 42.10 105.43 41.66 104.46 41.21 103.50 C 42.03 100.14 43.47 98.61 46.17 96.51 C 46.29 95.78 46.42 95.06 46.54 94.34 C 45.02 94.70 43.50 95.05 41.98 95.40 C 44.36 92.52 46.84 90.86 50.25 89.40 Z" fill="#d58183"/>
<path d="M 165.77 93.49 C 166.45 94.99 167.12 96.49 167.78 98.00 C 166.46 99.86 165.24 101.97 163.58 103.55 C 162.10 104.45 160.19 104.74 158.54 105.20 C 161.28 102.78 164.15 101.29 165.48 97.66 C 165.60 96.27 165.69 94.88 165.77 93.49 Z" fill="#a29d9b"/>
<path d="M 170.42 95.12 C 172.37 100.30 173.94 105.60 174.81 111.07 C 175.16 113.47 175.72 115.62 176.93 117.73 C 176.97 118.10 177.00 118.48 177.04 118.85 C 175.08 124.79 176.66 130.84 173.64 136.70 C 171.41 142.19 166.64 143.13 161.52 144.61 C 158.41 142.38 156.24 139.73 154.24 136.50 C 158.67 136.37 163.35 136.62 167.34 134.35 C 171.13 132.05 174.19 128.68 174.30 124.01 C 174.42 117.59 172.09 110.73 167.33 106.26 C 169.08 102.70 169.87 99.02 170.42 95.12 Z" fill="#de9d9e"/>
<path d="M 14.86 97.21 C 15.67 97.22 16.48 97.26 17.30 97.33 C 18.17 98.49 19.01 99.66 19.70 100.95 C 19.85 103.30 18.87 105.81 18.28 108.06 C 16.58 106.94 14.92 105.77 13.28 104.55 C 13.61 102.11 13.28 99.20 14.86 97.21 Z" fill="#f8f8f7"/>
<path d="M 7.01 97.26 C 7.08 100.76 7.15 104.23 7.76 107.68 C 6.06 109.31 4.37 110.95 2.67 112.58 C 3.89 107.27 4.55 102.20 7.01 97.26 Z" fill="#e8adaa"/>
<path d="M 9.21 108.34 C 6.87 112.91 5.75 117.73 5.45 122.82 C 5.50 124.86 6.79 126.97 8.26 128.33 C 11.70 131.72 19.42 131.54 21.56 126.67 C 23.46 123.25 25.29 119.77 27.05 116.28 C 27.28 119.79 28.04 122.84 26.08 126.04 C 23.67 131.40 16.80 132.62 11.62 131.38 C 6.10 129.67 3.26 124.52 2.91 119.01 C 3.14 116.12 4.27 113.40 5.91 111.03 C 7.00 110.12 8.09 109.22 9.21 108.34 Z" fill="#f9fbfb"/>
<path d="M 10.90 109.46 C 12.54 109.75 14.17 110.11 15.79 110.47 C 15.49 113.10 15.39 115.58 14.20 118.01 C 12.36 118.55 10.14 117.64 8.29 117.32 C 9.73 118.22 11.17 119.14 12.60 120.06 C 12.68 122.16 12.78 124.25 13.05 126.33 C 13.59 124.09 14.15 121.86 14.85 119.67 C 15.96 121.03 17.06 122.40 18.07 123.84 C 18.77 124.86 19.46 125.88 20.14 126.91 C 18.78 127.59 17.40 128.40 15.94 128.82 C 14.01 128.82 12.06 128.53 10.13 128.38 C 8.44 126.81 6.81 125.56 6.73 123.03 C 7.05 118.09 7.25 113.18 10.90 109.46 Z" fill="#f9f9f9"/>
<path d="M 16.21 111.50 C 19.35 112.18 21.72 112.30 23.61 115.18 C 23.89 116.09 24.15 117.01 24.41 117.92 C 23.04 120.01 21.71 122.13 20.42 124.27 C 19.89 123.88 19.35 123.48 18.81 123.09 C 15.97 119.47 16.21 115.87 16.21 111.50 Z" fill="#fbfafa"/>
<path d="M 34.81 111.70 C 33.88 115.35 33.51 119.07 32.43 122.68 C 31.83 124.68 31.54 126.70 31.37 128.77 C 30.98 129.13 30.59 129.49 30.19 129.84 C 29.23 129.28 28.28 128.72 27.32 128.15 C 28.75 125.05 29.22 122.06 29.11 118.65 C 30.98 117.02 32.20 115.86 32.78 113.38 C 33.46 112.82 34.13 112.26 34.81 111.70 Z" fill="#d58785"/>
<path d="M 23.61 115.18 C 24.74 115.21 25.87 115.23 26.99 115.26 L 27.05 116.28 C 25.29 119.77 23.46 123.25 21.56 126.67 C 19.42 131.54 11.70 131.72 8.26 128.33 L 10.13 128.38 C 12.06 128.53 14.01 128.82 15.94 128.82 C 17.40 128.40 18.78 127.59 20.14 126.91 C 19.46 125.88 18.77 124.86 18.07 123.84 L 18.81 123.09 C 19.35 123.48 19.89 123.88 20.42 124.27 C 21.71 122.13 23.04 120.01 24.41 117.92 C 24.15 117.01 23.89 116.09 23.61 115.18 Z" fill="#a7a6a5"/>
<path d="M 44.66 116.62 L 45.15 116.40 C 44.16 119.23 42.75 121.80 40.82 124.11 C 38.76 124.90 36.67 125.61 34.57 126.31 C 37.44 122.40 40.60 119.30 44.66 116.62 Z" fill="#deb1b4"/>
<path d="M 169.11 116.09 C 169.94 119.05 171.00 121.54 169.64 124.57 C 168.48 127.21 165.83 127.96 163.49 129.27 C 163.79 126.08 164.11 122.90 164.37 119.71 C 165.93 118.49 167.52 117.28 169.11 116.09 Z" fill="#f2f4f1"/>
<path d="M 158.16 119.50 C 159.68 120.17 161.12 120.70 162.26 121.97 C 162.74 124.45 162.58 127.12 162.58 129.63 C 159.74 129.49 157.17 130.16 154.88 128.09 C 152.46 126.37 152.45 124.03 151.82 121.36 C 153.92 120.70 156.02 120.04 158.16 119.50 Z" fill="#f8f8f8"/>
<path d="M 177.04 118.85 C 177.92 124.81 177.59 130.82 175.53 136.51 C 173.65 142.09 167.54 146.90 161.52 144.61 C 166.64 143.13 171.41 142.19 173.64 136.70 C 176.66 130.84 175.08 124.79 177.04 118.85 Z" fill="#c56f74"/>
<path d="M 1.70 123.32 C 3.15 126.10 4.27 129.20 6.81 131.19 C 12.91 136.07 22.97 134.87 27.32 128.15 C 28.28 128.72 29.23 129.28 30.19 129.84 C 29.39 130.57 28.58 131.28 27.77 132.00 C 27.71 132.81 27.65 133.63 27.59 134.44 C 28.57 134.55 29.56 134.66 30.54 134.77 C 28.65 136.52 26.73 138.23 24.81 139.95 C 26.20 139.35 27.59 138.75 28.98 138.14 C 29.73 138.45 30.47 138.76 31.21 139.07 C 29.76 140.83 28.11 142.20 25.82 142.66 C 21.35 143.55 16.92 144.28 12.56 145.67 C 9.66 143.66 6.69 142.23 4.91 139.03 C 2.09 134.18 1.97 128.79 1.70 123.32 Z" fill="#e2a9a9"/></svg>