<svg xmlns="http://www.w3.org/2000/svg" viewBox="0 0 50 50"><defs><style>.cls-1{fill:#2b4c99;}.cls-2{fill:#f2f2f2;}</style></defs><g id="HOMEPAGE"><circle class="cls-1" cx="25" cy="25" r="25"/><path class="cls-2" d="M35.72,17.36c0-.05,0-.1,0-.15A1.74,1.74,0,0,0,34,15.66H15.08a1.74,1.74,0,0,0-1.74,1.72v0h0v5.09H6.67a.95.95,0,0,0,0,1.89h6.67V26H10.45a.63.63,0,0,0,0,1.26h2.89v3.71a3.41,3.41,0,0,0,3.41,3.41H32.31a3.42,3.42,0,0,0,3.42-3.41V17.4S35.72,17.37,35.72,17.36ZM33.84,30.93a1.53,1.53,0,0,1-1.53,1.52H16.75a1.52,1.52,0,0,1-1.52-1.52V20l7.68,7.72a2.14,2.14,0,0,0,1.47.59,2.17,2.17,0,0,0,1.48-.57l8-7.78Z"/></g></svg>