<svg xmlns="http://www.w3.org/2000/svg" viewBox="0 0 35 35"><defs><style>.cls-1{fill:#2a4b9a;}.cls-2{fill:#f2f2f2;}</style></defs><g id="HOMEPAGE"><circle class="cls-1" cx="17.5" cy="17.5" r="17.5"/><path class="cls-2" d="M21.19,29.48A11.7,11.7,0,0,1,19.08,29a13.59,13.59,0,0,1-3.75-2,27.15,27.15,0,0,1-4.46-4.31,24.57,24.57,0,0,1-3.2-4.75,12,12,0,0,1-1.29-4.17A7.55,7.55,0,0,1,8.54,7.35,15.78,15.78,0,0,1,10.25,5.9a1.54,1.54,0,0,1,2,0,4.21,4.21,0,0,1,.93,1,17.89,17.89,0,0,1,1.6,2.61,3.78,3.78,0,0,1,.41,1.35,2.2,2.2,0,0,1-.7,1.86,9.78,9.78,0,0,1-1.39,1.17,2,2,0,0,0-.76,2.65,9.22,9.22,0,0,0,1.56,2.59,18.3,18.3,0,0,0,2.88,3,4.68,4.68,0,0,0,1.89,1,1.71,1.71,0,0,0,1.71-.5c.4-.4.81-.79,1.24-1.16a2.61,2.61,0,0,1,1.57-.75,2.81,2.81,0,0,1,1.42.34,8.65,8.65,0,0,1,1.76,1.25,11.54,11.54,0,0,1,1.83,1.8A1.65,1.65,0,0,1,28,26.64a14.23,14.23,0,0,1-2.25,1.84,7.37,7.37,0,0,1-2.91,1l-.11,0Z"/></g></svg>