<svg xmlns="http://www.w3.org/2000/svg" viewBox="0 0 75.17 68"><defs><style>.cls-1{fill:#0f88f2;}</style></defs><g id="HOMEPAGE"><path class="cls-1" d="M10.51,7.21a7.22,7.22,0,1,1,7.21,7.21A7.2,7.2,0,0,1,10.51,7.21Z"/><path class="cls-1" d="M67.38,32.51a7.78,7.78,0,0,1,7.26,10.6C68.9,58,54.61,68,37.59,68S6.27,58,.53,43.11a7.79,7.79,0,0,1,7.26-10.6h0A7.83,7.83,0,0,1,15,37.17c3.65,8.38,12.32,14.17,22.61,14.17A24.44,24.44,0,0,0,60.18,37.17a7.73,7.73,0,0,1,7.06-4.66Z"/><path class="cls-1" d="M57.45,14.42a7.21,7.21,0,1,1,7.21-7.21A7.26,7.26,0,0,1,57.45,14.42Z"/></g></svg>