<svg xmlns="http://www.w3.org/2000/svg" xmlns:xlink="http://www.w3.org/1999/xlink" viewBox="0 0 27.64 25"><defs><style>.cls-1{fill:none;}.cls-2{clip-path:url(#clip-path);}.cls-3{fill:#f2f2f2;}</style><clipPath id="clip-path"><rect class="cls-1" x="-69.67" y="36.75" width="658.46" height="668"/></clipPath></defs><g id="HOMEPAGE"><path class="cls-3" d="M3.86,2.65A2.66,2.66,0,1,1,6.52,5.3,2.68,2.68,0,0,1,3.86,2.65Z"/><path class="cls-3" d="M24.77,12a2.86,2.86,0,0,1,2.67,3.9A14.35,14.35,0,0,1,13.82,25,14.37,14.37,0,0,1,.19,15.85,2.87,2.87,0,0,1,2.86,12h0a2.88,2.88,0,0,1,2.64,1.72,8.94,8.94,0,0,0,8.31,5.21,9,9,0,0,0,8.3-5.21A2.85,2.85,0,0,1,24.72,12Z"/></g></svg>