<svg xmlns="http://www.w3.org/2000/svg" viewBox="0 0 35 35"><defs><style>.cls-1{fill:#2a4b9a;}.cls-2{fill:#f2f2f2;fill-rule:evenodd;}</style></defs><g id="HOMEPAGE"><circle class="cls-1" cx="17.5" cy="17.5" r="17.5"/><path class="cls-2" d="M12.35,6.35h10.3a6.05,6.05,0,0,1,6,6V22.62a6.05,6.05,0,0,1-6,6H12.35a6.05,6.05,0,0,1-6-6V12.38a6.05,6.05,0,0,1,6-6Zm11.15,3.9h0a1.3,1.3,0,0,1,1.28,1.28h0a1.3,1.3,0,0,1-1.28,1.28h0a1.26,1.26,0,0,1-1.28-1.28h0a1.26,1.26,0,0,1,1.28-1.28Zm-6,1.17h.06a6.15,6.15,0,0,1,6.08,6.08h0a6.12,6.12,0,0,1-6.08,6.08h-.06a6.06,6.06,0,0,1-6-6.08h0a6.1,6.1,0,0,1,6-6.08Zm0,2.08h.06a4,4,0,0,1,4,4h0a4,4,0,0,1-4,4.05h-.06a4,4,0,0,1-4-4.05h0a4,4,0,0,1,4-4ZM12.41,8.27H22.59a4.16,4.16,0,0,1,4.16,4.16V22.57a4.16,4.16,0,0,1-4.16,4.16H12.41a4.16,4.16,0,0,1-4.16-4.16V12.43a4.16,4.16,0,0,1,4.16-4.16Z"/></g></svg>