<svg xmlns="http://www.w3.org/2000/svg" viewBox="0 0 193.17 25"><defs><style>.cls-1{fill:#f2f2f2;}</style></defs><g id="HOMEPAGE"><path class="cls-1" d="M0,11.47A7.78,7.78,0,0,1,7.81,3.58a7.64,7.64,0,0,1,5.9,2.68,1,1,0,0,1,.24.56.71.71,0,0,1-.75.69.93.93,0,0,1-.63-.33A6.13,6.13,0,0,0,7.81,5a6.37,6.37,0,0,0-6.32,6.52A6.39,6.39,0,0,0,7.81,18a6.11,6.11,0,0,0,4.76-2.27.86.86,0,0,1,.63-.32.71.71,0,0,1,.75.71,1.08,1.08,0,0,1-.24.54,7.66,7.66,0,0,1-5.9,2.71A7.78,7.78,0,0,1,0,11.47Z"/><path class="cls-1" d="M16.63,11.47a7.77,7.77,0,0,1,7.8-7.89,7.66,7.66,0,0,1,5.19,2,.86.86,0,0,1,.27.6.84.84,0,0,1-.27.59L23.57,14a.7.7,0,0,1-.54.26.68.68,0,0,1-.71-.68.8.8,0,0,1,.18-.48l5.72-6.73A5.68,5.68,0,0,0,24.43,5a6.36,6.36,0,0,0-6.31,6.52A6.39,6.39,0,0,0,24.43,18a6.07,6.07,0,0,0,4.77-2.27,1,1,0,0,1,.63-.32.71.71,0,0,1,.74.71,1.08,1.08,0,0,1-.24.54,7.65,7.65,0,0,1-5.9,2.71A7.78,7.78,0,0,1,16.63,11.47Z"/><path class="cls-1" d="M34.09,10.4c0-4.38,2.83-6.82,6.37-6.82S46.84,6,46.84,10.4v8.1a.75.75,0,1,1-1.49,0V10.37C45.35,6.79,43.21,5,40.46,5s-4.88,1.84-4.88,5.42V18.5a.77.77,0,0,1-.75.78.75.75,0,0,1-.74-.78Z"/><path class="cls-1" d="M48.51,4.56a.68.68,0,0,1,.68-.69h2.09V.74a.75.75,0,0,1,1.49,0V3.87h4.35a.7.7,0,0,1,.69.69.71.71,0,0,1-.69.68H52.77v8.08c0,2.89,1.67,4.56,4.35,4.56a.7.7,0,0,1,.69.68.72.72,0,0,1-.69.72c-3.52,0-5.84-2.3-5.84-6V5.24H49.19A.69.69,0,0,1,48.51,4.56Z"/><path class="cls-1" d="M60.88,9.45c0-3.43,2-5.87,5.57-5.87a.67.67,0,0,1,.68.68.72.72,0,0,1-.68.69C64,5,62.36,6.56,62.36,9.45V18.5a.76.76,0,0,1-.74.78.74.74,0,0,1-.74-.78Z"/><path class="cls-1" d="M68.59,11.47a7.8,7.8,0,1,1,15.59,0,7.8,7.8,0,1,1-15.59,0Zm14.1,0a6.31,6.31,0,1,0-12.61,0,6.31,6.31,0,1,0,12.61,0Z"/><path class="cls-1" d="M90.79,17.52v5.84a1.64,1.64,0,1,1-3.28,0V5.24a1.64,1.64,0,0,1,3.28,0v.21a7.29,7.29,0,0,1,4.95-1.87,7.61,7.61,0,0,1,7.54,7.89,7.62,7.62,0,0,1-7.54,7.9A7.42,7.42,0,0,1,90.79,17.52Zm9.18-6a4.59,4.59,0,1,0-9.18-.21v.21a4.6,4.6,0,1,0,9.18,0Z"/><path class="cls-1" d="M145.94,17.52A7.42,7.42,0,0,1,141,19.37a7.61,7.61,0,0,1-7.53-7.9A7.6,7.6,0,0,1,141,3.58a7.29,7.29,0,0,1,4.95,1.87V5.24a1.64,1.64,0,0,1,3.28,0V17.67a1.64,1.64,0,1,1-3.28,0Zm0-6v-.21a4.59,4.59,0,1,0-9.18.21,4.6,4.6,0,1,0,9.18,0Z"/><path class="cls-1" d="M153.9,14.27a1.29,1.29,0,0,1,1.13.6,2.8,2.8,0,0,0,2.35,1.55,1.64,1.64,0,0,0,1.7-1.61c0-1.22-1.13-1.7-2.53-2.18-1.88-.65-4-1.46-4-4.53a4.62,4.62,0,0,1,4.83-4.52c2.53,0,4.86,1.55,4.86,3.42a1.48,1.48,0,0,1-1.52,1.46,1,1,0,0,1-.95-.53,3.28,3.28,0,0,0-2.39-1.43,1.6,1.6,0,0,0-1.67,1.6c0,1.23,1.25,1.61,2.77,2.12,1.82.57,3.88,1.52,3.88,4.5a4.84,4.84,0,0,1-5,4.65c-2.65,0-5-1.73-5-3.58A1.5,1.5,0,0,1,153.9,14.27Z"/><path class="cls-1" d="M166.38,14.27a1.28,1.28,0,0,1,1.13.6,2.83,2.83,0,0,0,2.36,1.55,1.64,1.64,0,0,0,1.69-1.61c0-1.22-1.13-1.7-2.53-2.18-1.88-.65-4-1.46-4-4.53a4.62,4.62,0,0,1,4.83-4.52c2.53,0,4.85,1.55,4.85,3.42a1.47,1.47,0,0,1-1.52,1.46,1,1,0,0,1-.95-.53,3.26,3.26,0,0,0-2.38-1.43,1.59,1.59,0,0,0-1.67,1.6c0,1.23,1.25,1.61,2.77,2.12,1.82.57,3.87,1.52,3.87,4.5a4.83,4.83,0,0,1-5,4.65c-2.66,0-5-1.73-5-3.58A1.51,1.51,0,0,1,166.38,14.27Z"/><path class="cls-1" d="M177.37,11.47a7.9,7.9,0,0,1,15.8,0,7.9,7.9,0,1,1-15.8,0Zm12.49,0a4.6,4.6,0,1,0-9.18,0,4.6,4.6,0,1,0,9.18,0Z"/><path class="cls-1" d="M107.84,5.84a1.61,1.61,0,1,1,1.61,1.61A1.62,1.62,0,0,1,107.84,5.84Z"/><path class="cls-1" d="M131.07,15.77a1.76,1.76,0,0,1-.47,1.07,7.43,7.43,0,0,1-5.7,2.46,7.84,7.84,0,0,1-5.29-2,8.88,8.88,0,0,1-5.74,2,8.7,8.7,0,0,1-8.25-5.54,1.74,1.74,0,0,1,1.62-2.36h0a1.76,1.76,0,0,1,1.6,1,5.41,5.41,0,0,0,5,3.15,5.65,5.65,0,0,0,3.68-1.34,8.27,8.27,0,0,1-.51-2.88,7.72,7.72,0,0,1,7.86-7.86A7.51,7.51,0,0,1,130.6,6a1.91,1.91,0,0,1,.47,1.13,1.5,1.5,0,0,1-1.6,1.51,2,2,0,0,1-1.4-.68A4.33,4.33,0,0,0,124.9,6.6a4.68,4.68,0,0,0-4.57,4.84v0a5,5,0,0,0,1.32,3.37,4.43,4.43,0,0,0,3.25,1.43,4.35,4.35,0,0,0,3.15-1.34,2.07,2.07,0,0,1,1.42-.74A1.53,1.53,0,0,1,131.07,15.77Z"/></g></svg>