<svg id="Layer_1" data-name="Layer 1" xmlns="http://www.w3.org/2000/svg" viewBox="0 0 196.7 40"><defs><style>.cls-1{fill:#2b4c99;}.cls-2{fill:#efbdd8;}</style></defs><path class="cls-1" d="M56,21.48a5.47,5.47,0,0,1,5.56-5.56,5.31,5.31,0,0,1,4,1.7,1.33,1.33,0,0,1,.34.8,1.06,1.06,0,0,1-1.13,1.07,1.38,1.38,0,0,1-1-.48,3.06,3.06,0,0,0-2.25-1,3.31,3.31,0,0,0-3.23,3.42,3.33,3.33,0,0,0,3.23,3.43A3,3,0,0,0,63.83,24a1.47,1.47,0,0,1,1-.52A1.08,1.08,0,0,1,66,24.55a1.26,1.26,0,0,1-.34.76,5.23,5.23,0,0,1-4,1.74A5.47,5.47,0,0,1,56,21.48Z"/><path class="cls-1" d="M67.65,21.48a5.56,5.56,0,1,1,5.56,5.57A5.47,5.47,0,0,1,67.65,21.48Zm8.79,0a3.24,3.24,0,1,0-6.46,0,3.24,3.24,0,1,0,6.46,0Z"/><path class="cls-1" d="M81,20.81a4.73,4.73,0,1,1,9.45,0v5A1.18,1.18,0,0,1,89.31,27a1.16,1.16,0,0,1-1.15-1.18V20.73a2.43,2.43,0,1,0-4.83,0v5.12a1.16,1.16,0,1,1-2.31,0Z"/><path class="cls-1" d="M93.74,23.46a.89.89,0,0,1,.8.42A2,2,0,0,0,96.2,25a1.16,1.16,0,0,0,1.19-1.13c0-.87-.8-1.2-1.78-1.54-1.32-.46-2.82-1-2.82-3.19a3.26,3.26,0,0,1,3.41-3.19c1.78,0,3.42,1.09,3.42,2.42a1,1,0,0,1-1.07,1,.73.73,0,0,1-.68-.37,2.29,2.29,0,0,0-1.67-1A1.12,1.12,0,0,0,95,19.11c0,.86.88,1.14,2,1.49,1.28.4,2.73,1.07,2.73,3.17a3.4,3.4,0,0,1-3.5,3.28c-1.87,0-3.51-1.22-3.51-2.52A1.05,1.05,0,0,1,93.74,23.46Z"/><path class="cls-1" d="M101.48,21.48a5.61,5.61,0,0,1,9.2-4.26,1.23,1.23,0,0,1,.42.89,1.15,1.15,0,0,1-.34.83l-3.23,3.85a1,1,0,0,1-.8.37,1,1,0,0,1-1.09-1.05.94.94,0,0,1,.25-.69l2.54-3a2.58,2.58,0,0,0-1.38-.38,3.31,3.31,0,0,0-3.24,3.42,3.32,3.32,0,0,0,3.24,3.43,3,3,0,0,0,2.22-.95c.34-.27.57-.52,1-.52a1.08,1.08,0,0,1,1.13,1.11,1.24,1.24,0,0,1-.33.76,5.26,5.26,0,0,1-4,1.74A5.49,5.49,0,0,1,101.48,21.48Z"/><path class="cls-1" d="M113.58,20.83a4.59,4.59,0,0,1,4.72-4.91A1.06,1.06,0,0,1,119.37,17a1.07,1.07,0,0,1-1.07,1.07c-1.39,0-2.42.93-2.42,2.77v5a1.15,1.15,0,1,1-2.3,0Z"/><path class="cls-1" d="M121,17.1a1.16,1.16,0,1,1,2.31,0V23l5.56-6.63a1,1,0,0,1,.8-.38,1.05,1.05,0,0,1,1.09,1,1.2,1.2,0,0,1-.25.7L123,26.63a1,1,0,0,1-.86.4A1.16,1.16,0,0,1,121,25.85Z"/><path class="cls-1" d="M139.75,25.75a5.25,5.25,0,0,1-3.48,1.3A5.37,5.37,0,0,1,131,21.48a5.37,5.37,0,0,1,5.32-5.56,5.16,5.16,0,0,1,3.48,1.32V17.1a1.16,1.16,0,1,1,2.31,0v8.75a1.16,1.16,0,1,1-2.31,0Zm0-4.27v-.14a3.24,3.24,0,1,0-6.47.14,3.24,3.24,0,1,0,6.47,0Z"/><path class="cls-1" d="M143.67,17.2a1.07,1.07,0,0,1,1.08-1.07h.75V14.56a1.16,1.16,0,1,1,2.31,0v1.57h2.46a1.06,1.06,0,0,1,1.07,1.07,1.08,1.08,0,0,1-1.07,1.07h-2.46v3.8c0,1.85,1,2.79,2.46,2.79a1.09,1.09,0,0,1,0,2.17,4.64,4.64,0,0,1-4.77-5v-3.8h-.75A1.08,1.08,0,0,1,143.67,17.2Z"/><path class="cls-1" d="M160.67,17.1a1.15,1.15,0,1,1,2.3,0V23l5.57-6.63a1,1,0,0,1,.8-.38,1.05,1.05,0,0,1,1.09,1,1.2,1.2,0,0,1-.25.7l-7.5,8.94a1,1,0,0,1-.86.4,1.16,1.16,0,0,1-1.15-1.18Z"/><path class="cls-1" d="M179.39,25.75a5.25,5.25,0,0,1-3.48,1.3,5.37,5.37,0,0,1-5.32-5.57,5.37,5.37,0,0,1,5.32-5.56,5.16,5.16,0,0,1,3.48,1.32V17.1a1.16,1.16,0,1,1,2.31,0v8.75a1.16,1.16,0,1,1-2.31,0Zm0-4.27v-.14a3.24,3.24,0,1,0-6.47.14,3.24,3.24,0,1,0,6.47,0Z"/><path class="cls-1" d="M154.87,17.12a1.2,1.2,0,1,1,2.39,0,1.2,1.2,0,1,1-2.39,0Z"/><path class="cls-1" d="M159.36,25.65v0A1.37,1.37,0,0,1,157.68,27a6.43,6.43,0,0,1-4.47-3.93,1.29,1.29,0,0,1,1.2-1.76h0a1.31,1.31,0,0,1,1.2.77,3.92,3.92,0,0,0,2.7,2.23A1.37,1.37,0,0,1,159.36,25.65Z"/><path class="cls-1" d="M32.77,30.3a4.65,4.65,0,0,1-3.15-2.59,1.67,1.67,0,0,0-.37-.5l-.1-.09L29,27l-.18-.09-.18-.07a1.75,1.75,0,0,0-.33,0h-.11a1.46,1.46,0,0,0-.22,0l-.14,0a1.55,1.55,0,0,0-1,.86,4.9,4.9,0,0,1-8.84,0,1.54,1.54,0,0,0-1.4-.91h0a1.53,1.53,0,0,0-1.42,2.07,7.63,7.63,0,0,0,7.25,4.87,7.72,7.72,0,0,0,5.83-2.56A7.65,7.65,0,0,0,32,33.47a1.62,1.62,0,0,0,2-1.58h0A1.64,1.64,0,0,0,32.77,30.3Z"/><path class="cls-2" d="M38.65,18.74A2.74,2.74,0,0,0,41.2,15a13.7,13.7,0,0,0-13-8.73,13.69,13.69,0,0,0-13,8.73,2.73,2.73,0,0,0,2.54,3.72h0a2.74,2.74,0,0,0,2.52-1.63,8.53,8.53,0,0,1,7.93-5,8.58,8.58,0,0,1,7.93,5,2.72,2.72,0,0,0,2.48,1.63Z"/></svg>