<svg id="Layer_1" data-name="Layer 1" xmlns="http://www.w3.org/2000/svg" viewBox="0 0 186.7 40"><defs><style>.cls-1{fill:#2b4c99;}.cls-2{fill:#efbdd8;}</style></defs><path class="cls-1" d="M53.29,21.33A5.64,5.64,0,0,1,62.56,17a1.23,1.23,0,0,1,.42.88,1.2,1.2,0,0,1-.34.85l-3.26,3.87a1,1,0,0,1-.8.39A1,1,0,0,1,57.48,22a1,1,0,0,1,.25-.7l2.56-3a2.65,2.65,0,0,0-1.4-.38,3.33,3.33,0,0,0-3.25,3.45,3.32,3.32,0,0,0,3.25,3.45,3,3,0,0,0,2.25-1c.34-.28.57-.53,1-.53a1.1,1.1,0,0,1,1.15,1.12,1.21,1.21,0,0,1-.34.76,5.28,5.28,0,0,1-4.07,1.76A5.52,5.52,0,0,1,53.29,21.33Z"/><path class="cls-1" d="M65.48,20.65a4.76,4.76,0,1,1,9.52,0v5.08a1.17,1.17,0,1,1-2.33,0V20.57a2.44,2.44,0,1,0-4.86,0v5.16a1.17,1.17,0,1,1-2.33,0Z"/><path class="cls-1" d="M86.11,25.63a5.28,5.28,0,0,1-3.51,1.31,5.4,5.4,0,0,1-5.35-5.61,5.4,5.4,0,0,1,5.35-5.61,5.16,5.16,0,0,1,3.51,1.34V12.89a1.17,1.17,0,1,1,2.33,0V25.73a1.17,1.17,0,1,1-2.33,0Zm0-4.3v-.15a3.26,3.26,0,1,0-6.52.15,3.27,3.27,0,1,0,6.52,0Z"/><path class="cls-1" d="M90.71,21.33a5.61,5.61,0,1,1,5.6,5.61A5.51,5.51,0,0,1,90.71,21.33Zm8.86,0a3.26,3.26,0,1,0-6.51,0,3.26,3.26,0,1,0,6.51,0Z"/><path class="cls-1" d="M112.61,25.63a5.28,5.28,0,0,1-3.51,1.31,5.41,5.41,0,0,1-5.36-5.61,5.41,5.41,0,0,1,5.36-5.61,5.16,5.16,0,0,1,3.51,1.34V12.89a1.17,1.17,0,1,1,2.33,0V25.73a1.17,1.17,0,1,1-2.33,0Zm0-4.3v-.15a3.26,3.26,0,1,0-6.52.15,3.27,3.27,0,1,0,6.52,0Z"/><path class="cls-1" d="M117.2,21.33a5.61,5.61,0,1,1,5.61,5.61A5.52,5.52,0,0,1,117.2,21.33Zm8.87,0a3.27,3.27,0,1,0-6.52,0,3.27,3.27,0,1,0,6.52,0Z"/><path class="cls-1" d="M130.69,20.65a4.76,4.76,0,1,1,9.52,0v5.08a1.17,1.17,0,1,1-2.33,0V20.57a2.44,2.44,0,1,0-4.86,0v5.16a1.17,1.17,0,1,1-2.33,0Z"/><path class="cls-1" d="M148.15,18.09h-4.68A1.08,1.08,0,0,1,142.39,17a1.07,1.07,0,0,1,1.08-1.07h7A1.07,1.07,0,0,1,151.56,17a1.15,1.15,0,0,1-.34.77l-5.7,6.79h5a1.08,1.08,0,0,1,1.08,1.08,1.09,1.09,0,0,1-1.08,1.08h-7.26a1.09,1.09,0,0,1-1.08-1.1,1.17,1.17,0,0,1,.31-.76Z"/><path class="cls-1" d="M169.38,25.63a5.29,5.29,0,0,1-3.52,1.31,5.4,5.4,0,0,1-5.35-5.61,5.4,5.4,0,0,1,5.35-5.61,5.17,5.17,0,0,1,3.52,1.34v-.15a1.16,1.16,0,1,1,2.32,0v8.82a1.16,1.16,0,1,1-2.32,0Zm0-4.3v-.15a3.26,3.26,0,1,0-6.52.15,3.27,3.27,0,1,0,6.52,0Z"/><path class="cls-1" d="M154.72,16.93a1.21,1.21,0,1,1,1.21,1.21A1.22,1.22,0,0,1,154.72,16.93Z"/><path class="cls-1" d="M159.25,25.53v0a1.37,1.37,0,0,1-1.7,1.34,6.47,6.47,0,0,1-4.5-4,1.3,1.3,0,0,1,1.21-1.77h0a1.31,1.31,0,0,1,1.2.78,4,4,0,0,0,2.72,2.24A1.38,1.38,0,0,1,159.25,25.53Z"/><path class="cls-1" d="M41.28,11.16A7.64,7.64,0,0,0,34,6.29a8.69,8.69,0,0,0-1.26.09,7.67,7.67,0,0,0-4.58,2.46,7.61,7.61,0,0,0-4.58-2.46,8.69,8.69,0,0,0-1.26-.09,7.65,7.65,0,0,0-7.25,4.87,1.52,1.52,0,0,0,1.43,2.07h0a1.43,1.43,0,0,0,.88-.29,1.55,1.55,0,0,0,.51-.62,4.91,4.91,0,0,1,8.84,0,1.48,1.48,0,0,0,.59.67h0a1.77,1.77,0,0,0,.31.15,1.35,1.35,0,0,0,.36.08h.23a1.52,1.52,0,0,0,1.34-.91,4.91,4.91,0,0,1,8.84,0,1.52,1.52,0,0,0,1.41.91h0A1.52,1.52,0,0,0,41.28,11.16Z"/><path class="cls-1" d="M41.2,25a13.71,13.71,0,0,1-13,8.74,13.72,13.72,0,0,1-13-8.74,2.74,2.74,0,0,1,2.22-3.7,1.83,1.83,0,0,1,.33,0h.05a2.73,2.73,0,0,1,2.49,1.64,8.58,8.58,0,0,0,7.92,5,8.55,8.55,0,0,0,7.94-5,2.74,2.74,0,0,1,2.52-1.64h0a1.94,1.94,0,0,1,.34,0A2.74,2.74,0,0,1,41.2,25Z"/><path class="cls-2" d="M39.72,17.19A11.86,11.86,0,0,1,39,21.28a1.94,1.94,0,0,0-.34,0h0a2.74,2.74,0,0,0-2.52,1.64,8.55,8.55,0,0,1-7.94,5,8.58,8.58,0,0,1-7.92-5,2.73,2.73,0,0,0-2.49-1.64h-.05a1.83,1.83,0,0,0-.33,0,11.63,11.63,0,0,1-.74-4.09,12,12,0,0,1,.77-4.25,1.55,1.55,0,0,0,.51-.62,4.91,4.91,0,0,1,8.84,0,1.52,1.52,0,0,0,1.26.9h.23a1.52,1.52,0,0,0,1.34-.91,4.91,4.91,0,0,1,8.84,0,1.6,1.6,0,0,0,.5.62A12,12,0,0,1,39.72,17.19Z"/></svg>