<svg id="Layer_1" data-name="Layer 1" xmlns="http://www.w3.org/2000/svg" viewBox="0 0 179.83 40"><defs><style>.cls-1{fill:#2b4c99;}.cls-2{fill:#efbdd8;}</style></defs><path class="cls-1" d="M55.91,21.29a5.34,5.34,0,0,1,5.29-5.54,5.09,5.09,0,0,1,3.47,1.32v-.15a1.15,1.15,0,0,1,2.3,0v8.34a5.53,5.53,0,0,1-5.65,5.53,5.32,5.32,0,0,1-4-1.67,1.35,1.35,0,0,1-.33-.77,1.08,1.08,0,0,1,1.13-1.09,1.47,1.47,0,0,1,1,.52,3.11,3.11,0,0,0,2.19.88,3.33,3.33,0,0,0,3.33-3.13,5.16,5.16,0,0,1-3.45,1.29A5.34,5.34,0,0,1,55.91,21.29Zm8.76.14v-.14a3.23,3.23,0,1,0-6.44,0,3.22,3.22,0,1,0,6.44.14Z"/><path class="cls-1" d="M69.64,20.62a4.7,4.7,0,1,1,9.4,0v5a1.16,1.16,0,0,1-1.15,1.17,1.15,1.15,0,0,1-1.14-1.17v-5.1a2.42,2.42,0,1,0-4.81,0v5.1a1.15,1.15,0,1,1-2.3,0Z"/><path class="cls-1" d="M90,25.53a5.21,5.21,0,0,1-3.46,1.29,5.34,5.34,0,0,1-5.29-5.53,5.34,5.34,0,0,1,5.29-5.54A5.08,5.08,0,0,1,90,17.07v-.15a1.15,1.15,0,1,1,2.3,0v8.71a1.15,1.15,0,1,1-2.3,0Zm0-4.24v-.15a3.22,3.22,0,1,0-6.43.15,3.22,3.22,0,1,0,6.43,0Z"/><path class="cls-1" d="M93.92,17A1.06,1.06,0,0,1,95,16h.75V14.39a1.15,1.15,0,0,1,2.3,0V16h2.44A1.06,1.06,0,0,1,101.55,17a1.07,1.07,0,0,1-1.07,1.07H98v3.78c0,1.84,1,2.78,2.44,2.78a1.08,1.08,0,0,1,0,2.15,4.61,4.61,0,0,1-4.74-4.93V18.09H95A1.07,1.07,0,0,1,93.92,17Z"/><path class="cls-1" d="M102.72,21.29a5.54,5.54,0,1,1,5.53,5.53A5.44,5.44,0,0,1,102.72,21.29Zm8.75,0a3.22,3.22,0,1,0-6.43,0,3.22,3.22,0,1,0,6.43,0Z"/><path class="cls-1" d="M116,13a1.15,1.15,0,1,1,2.3,0V25.63a1.15,1.15,0,1,1-2.3,0Z"/><path class="cls-1" d="M120.56,21.29a5.54,5.54,0,1,1,5.54,5.53A5.44,5.44,0,0,1,120.56,21.29Zm8.76,0a3.23,3.23,0,1,0-6.44,0,3.22,3.22,0,1,0,6.44,0Z"/><path class="cls-1" d="M133.43,21.29a5.34,5.34,0,0,1,5.29-5.54,5.09,5.09,0,0,1,3.47,1.32v-.15a1.15,1.15,0,0,1,2.3,0v8.34a5.53,5.53,0,0,1-5.65,5.53,5.32,5.32,0,0,1-4-1.67,1.29,1.29,0,0,1-.33-.77,1.08,1.08,0,0,1,1.13-1.09,1.47,1.47,0,0,1,1,.52,3.08,3.08,0,0,0,2.19.88,3.33,3.33,0,0,0,3.33-3.13,5.16,5.16,0,0,1-3.45,1.29A5.34,5.34,0,0,1,133.43,21.29Zm8.76.14v-.14a3.23,3.23,0,1,0-6.44,0,3.22,3.22,0,1,0,6.44.14Z"/><path class="cls-1" d="M162.53,25.53a5.21,5.21,0,0,1-3.47,1.29,5.34,5.34,0,0,1-5.29-5.53,5.34,5.34,0,0,1,5.29-5.54,5.09,5.09,0,0,1,3.47,1.32v-.15a1.15,1.15,0,1,1,2.3,0v8.71a1.15,1.15,0,1,1-2.3,0Zm0-4.24v-.15a3.22,3.22,0,1,0-6.44.15,3.22,3.22,0,1,0,6.44,0Z"/><path class="cls-1" d="M148.07,16.92a1.19,1.19,0,0,1,2.38,0,1.19,1.19,0,1,1-2.38,0Z"/><path class="cls-1" d="M152.54,25.41v0a1.36,1.36,0,0,1-1.68,1.32,6.36,6.36,0,0,1-4.44-3.91,1.28,1.28,0,0,1,1.2-1.75h0a1.28,1.28,0,0,1,1.18.77,4,4,0,0,0,2.7,2.22A1.36,1.36,0,0,1,152.54,25.41Z"/><path class="cls-1" d="M16.93,15.1a1.94,1.94,0,0,1-1.8-2.63,9.7,9.7,0,0,1,9.2-6.18,9.68,9.68,0,0,1,9.2,6.18,1.93,1.93,0,0,1-1.8,2.63h0A1.93,1.93,0,0,1,30,13.94a6.24,6.24,0,0,0-11.23,0A1.91,1.91,0,0,1,17,15.1Z"/><path class="cls-1" d="M24.65,24.9a1.94,1.94,0,0,0-1.8,2.64,9.7,9.7,0,0,0,9.2,6.17,9.69,9.69,0,0,0,9.2-6.17,1.94,1.94,0,0,0-1.8-2.64h0a1.93,1.93,0,0,0-1.78,1.16,6.24,6.24,0,0,1-11.23,0,1.91,1.91,0,0,0-1.75-1.16Z"/><path class="cls-2" d="M18.52,23.94A1.6,1.6,0,0,1,17,21.77a8,8,0,0,1,7.59-5.09,8,8,0,0,1,7.58,5.09,1.59,1.59,0,0,1-1.48,2.17h0a1.61,1.61,0,0,1-1.47-1A5.14,5.14,0,0,0,20,23a1.58,1.58,0,0,1-1.44,1Z"/></svg>