<svg id="Layer_1" data-name="Layer 1" xmlns="http://www.w3.org/2000/svg" viewBox="0 0 200.78 40"><defs><style>.cls-1{fill:#2b4c99;}.cls-2{fill:#efbdd8;}</style></defs><path class="cls-1" d="M54.94,17.2a1.14,1.14,0,0,1,2.28,0,1.14,1.14,0,1,1-2.28,0Z"/><path class="cls-1" d="M59.21,25.3v0a1.3,1.3,0,0,1-1.6,1.26,6.08,6.08,0,0,1-4.24-3.73,1.23,1.23,0,0,1,1.14-1.67h0a1.25,1.25,0,0,1,1.14.74A3.76,3.76,0,0,0,58.21,24,1.29,1.29,0,0,1,59.21,25.3Z"/><path class="cls-1" d="M60.4,21.32a5.08,5.08,0,0,1,5-5.27,4.86,4.86,0,0,1,3.31,1.25v-.14a1.1,1.1,0,0,1,2.19,0V25.1a5.27,5.27,0,0,1-5.38,5.28,5.08,5.08,0,0,1-3.8-1.59,1.26,1.26,0,0,1-.32-.74,1,1,0,0,1,1.08-1,1.4,1.4,0,0,1,1,.49,3,3,0,0,0,2.09.84,3.17,3.17,0,0,0,3.17-3,4.89,4.89,0,0,1-3.29,1.24A5.09,5.09,0,0,1,60.4,21.32Zm8.34.14v-.14a3.07,3.07,0,1,0-6.14,0,3.07,3.07,0,1,0,6.14.14Z"/><path class="cls-1" d="M73.27,13.62a1.3,1.3,0,1,1,1.3,1.29A1.3,1.3,0,0,1,73.27,13.62Zm.2,3.54a1.1,1.1,0,0,1,2.19,0v8.3a1.1,1.1,0,1,1-2.19,0Z"/><path class="cls-1" d="M77.79,21.32a5.32,5.32,0,0,1,8.72-4,1.16,1.16,0,0,1,.4.84,1.11,1.11,0,0,1-.32.79l-3.06,3.65a.92.92,0,0,1-.76.35,1,1,0,0,1-1-1,.9.9,0,0,1,.24-.66l2.41-2.82a2.43,2.43,0,0,0-1.31-.36,3.25,3.25,0,0,0,0,6.49,2.86,2.86,0,0,0,2.11-.9c.32-.26.54-.5.95-.5a1,1,0,0,1,1.08,1.06,1.11,1.11,0,0,1-.32.71,5,5,0,0,1-3.82,1.66A5.2,5.2,0,0,1,77.79,21.32Z"/><path class="cls-1" d="M89.26,20.69a4.48,4.48,0,1,1,9,0v4.77a1.11,1.11,0,0,1-1.1,1.12A1.09,1.09,0,0,1,96,25.46V20.61a2.3,2.3,0,1,0-4.58,0v4.85a1.1,1.1,0,1,1-2.19,0Z"/><path class="cls-1" d="M100.33,21.32a5.31,5.31,0,0,1,8.71-4,1.16,1.16,0,0,1,.4.84,1.11,1.11,0,0,1-.32.79l-3.06,3.65a.92.92,0,0,1-.76.35,1,1,0,0,1-1-1,.9.9,0,0,1,.24-.66l2.4-2.82a2.41,2.41,0,0,0-1.31-.36,3.13,3.13,0,0,0-3.06,3.24,3.14,3.14,0,0,0,3.06,3.25,2.85,2.85,0,0,0,2.11-.9c.32-.26.54-.5,1-.5a1,1,0,0,1,1.07,1.06,1.11,1.11,0,0,1-.32.71,4.94,4.94,0,0,1-3.82,1.66A5.19,5.19,0,0,1,100.33,21.32Z"/><path class="cls-1" d="M124.69,25.36a4.94,4.94,0,0,1-3.3,1.24,5.09,5.09,0,0,1-5-5.28,5.09,5.09,0,0,1,5-5.27,4.85,4.85,0,0,1,3.3,1.25V13.38a1.1,1.1,0,1,1,2.19,0V25.46a1.1,1.1,0,1,1-2.19,0Zm0-4v-.14a3.07,3.07,0,1,0-6.13.14,3.07,3.07,0,1,0,6.13,0Z"/><path class="cls-1" d="M129,21.32a5.32,5.32,0,0,1,8.72-4,1.16,1.16,0,0,1,.4.84,1.11,1.11,0,0,1-.32.79l-3.07,3.65a.91.91,0,0,1-.75.35,1,1,0,0,1-1-1,.9.9,0,0,1,.24-.66l2.41-2.82a2.47,2.47,0,0,0-1.32-.36,3.13,3.13,0,0,0-3.06,3.24,3.14,3.14,0,0,0,3.06,3.25,2.83,2.83,0,0,0,2.11-.9c.32-.26.54-.5,1-.5a1,1,0,0,1,1.07,1.06,1.1,1.1,0,0,1-.31.71,5,5,0,0,1-3.83,1.66A5.2,5.2,0,0,1,129,21.32Z"/><path class="cls-1" d="M140.47,20.69a4.48,4.48,0,1,1,9,0v4.77a1.1,1.1,0,1,1-2.19,0V20.61a2.3,2.3,0,1,0-4.58,0v4.85a1.1,1.1,0,1,1-2.19,0Z"/><path class="cls-1" d="M150.59,17.26a1,1,0,0,1,1-1h.72v-1.5a1.1,1.1,0,0,1,2.19,0v1.5h2.33a1,1,0,0,1,1,1,1,1,0,0,1-1,1h-2.33v3.6c0,1.75,1,2.65,2.33,2.65a1,1,0,0,1,0,2,4.4,4.4,0,0,1-4.52-4.7v-3.6h-.72A1,1,0,0,1,150.59,17.26Z"/><path class="cls-1" d="M167.31,25.36A4.94,4.94,0,0,1,164,26.6a5.09,5.09,0,0,1-5-5.28,5.08,5.08,0,0,1,5-5.27,4.86,4.86,0,0,1,3.31,1.25v-.14a1.1,1.1,0,0,1,2.19,0v8.3a1.1,1.1,0,1,1-2.19,0Zm0-4v-.14a3.07,3.07,0,1,0-6.13.14,3.07,3.07,0,1,0,6.13,0Z"/><path class="cls-1" d="M172.05,13.38a1.09,1.09,0,1,1,2.18,0V25.46a1.09,1.09,0,1,1-2.18,0Z"/><path class="cls-1" d="M176.36,21.32a5.32,5.32,0,0,1,8.72-4,1.16,1.16,0,0,1,.4.84,1.11,1.11,0,0,1-.32.79l-3.06,3.65a.92.92,0,0,1-.76.35,1,1,0,0,1-1-1,.94.94,0,0,1,.23-.66L183,18.44a2.43,2.43,0,0,0-1.31-.36,3.25,3.25,0,0,0,0,6.49,2.85,2.85,0,0,0,2.11-.9c.32-.26.54-.5,1-.5a1,1,0,0,1,1.07,1.06,1.11,1.11,0,0,1-.32.71,4.94,4.94,0,0,1-3.82,1.66A5.2,5.2,0,0,1,176.36,21.32Z"/><path class="cls-1" d="M39.86,26.77h0a1.51,1.51,0,0,0-1.38.91,4.9,4.9,0,0,1-8.84,0,1.58,1.58,0,0,0-.4-.52h0a1.31,1.31,0,0,0-.27-.19l-.1,0a1.7,1.7,0,0,0-.24-.09,1.45,1.45,0,0,0-.3,0h-.13a1.46,1.46,0,0,0-.22,0l-.14,0a1.53,1.53,0,0,0-1,.86,4.9,4.9,0,0,1-8.84,0,1.54,1.54,0,0,0-1.4-.91h0a1.53,1.53,0,0,0-1.42,2.07,7.63,7.63,0,0,0,7.25,4.87,7.73,7.73,0,0,0,5.84-2.58A7.73,7.73,0,0,0,34,33.71a7.62,7.62,0,0,0,7.25-4.87A1.52,1.52,0,0,0,39.86,26.77Z"/><path class="cls-2" d="M38.65,18.74A2.74,2.74,0,0,0,41.2,15a13.7,13.7,0,0,0-13-8.73,13.69,13.69,0,0,0-13,8.73,2.73,2.73,0,0,0,2.54,3.72h0a2.74,2.74,0,0,0,2.52-1.63,8.53,8.53,0,0,1,7.93-5,8.58,8.58,0,0,1,7.93,5,2.72,2.72,0,0,0,2.48,1.63Z"/><path class="cls-1" d="M36.85,11.93l-2.12,0a.72.72,0,0,1,0-1.43l2.14,0-1.1-1.82a.65.65,0,0,1-.12-.37.75.75,0,0,1,.76-.71A.69.69,0,0,1,37,8l1,1.81,1-1.81a.67.67,0,0,1,.62-.37.75.75,0,0,1,.75.71.65.65,0,0,1-.12.37l-1.08,1.82,2.13,0a.72.72,0,0,1,0,1.43l-2.13,0,1.08,1.8a.68.68,0,0,1,.12.37.74.74,0,0,1-.75.71.7.7,0,0,1-.62-.36l-1-1.84-1,1.84a.72.72,0,0,1-.62.36.75.75,0,0,1-.76-.71.68.68,0,0,1,.12-.37Z"/></svg>