<svg id="Layer_1" data-name="Layer 1" xmlns="http://www.w3.org/2000/svg" viewBox="0 0 206.59 40"><defs><style>.cls-1{fill:#2b4c99;}.cls-2{fill:#efbdd8;}</style></defs><path class="cls-1" d="M57.25,16.75a1.2,1.2,0,0,1,2.39,0,1.2,1.2,0,0,1-2.39,0Z"/><path class="cls-1" d="M61.73,25.25v0a1.36,1.36,0,0,1-1.68,1.32,6.39,6.39,0,0,1-4.45-3.92,1.28,1.28,0,0,1,1.2-1.75h0a1.31,1.31,0,0,1,1.19.77,3.93,3.93,0,0,0,2.7,2.22A1.36,1.36,0,0,1,61.73,25.25Z"/><path class="cls-1" d="M63.73,19.78a3.91,3.91,0,0,1,4-4.2,3.31,3.31,0,0,1,3,1.55,3.29,3.29,0,0,1,3-1.55,3.91,3.91,0,0,1,4,4.2v5.7a1.16,1.16,0,1,1-2.31,0V19.76c0-1.38-.77-2.05-1.78-2.05s-1.75.67-1.75,2.05v5.72a1.17,1.17,0,0,1-1.16,1.17,1.15,1.15,0,0,1-1.15-1.17V19.76c0-1.38-.79-2.05-1.78-2.05S66,18.38,66,19.76v5.72a1.16,1.16,0,1,1-2.31,0Z"/><path class="cls-1" d="M82.72,25.37v4.1a1.16,1.16,0,1,1-2.31,0V16.75a1.16,1.16,0,0,1,2.31,0v.15a5.09,5.09,0,0,1,3.47-1.32,5.35,5.35,0,0,1,5.3,5.54,5.36,5.36,0,0,1-5.3,5.55A5.17,5.17,0,0,1,82.72,25.37Zm6.44-4.25A3.22,3.22,0,1,0,82.72,21v.14a3.23,3.23,0,1,0,6.44,0Z"/><path class="cls-1" d="M93.72,12.77a1.16,1.16,0,0,1,2.31,0V25.48a1.16,1.16,0,1,1-2.31,0Z"/><path class="cls-1" d="M107,25.37a5.2,5.2,0,0,1-3.48,1.3,5.35,5.35,0,0,1-5.29-5.55,5.34,5.34,0,0,1,5.29-5.54A5.12,5.12,0,0,1,107,16.9v-.15a1.15,1.15,0,1,1,2.3,0v8.73a1.15,1.15,0,1,1-2.3,0Zm0-4.25V21a3.23,3.23,0,1,0-6.45.14,3.23,3.23,0,1,0,6.45,0Z"/><path class="cls-1" d="M112,20.45a4.71,4.71,0,1,1,9.42,0v5a1.17,1.17,0,0,1-1.16,1.17,1.15,1.15,0,0,1-1.15-1.17V20.37a2.42,2.42,0,1,0-4.81,0v5.11a1.15,1.15,0,1,1-2.3,0Z"/><path class="cls-1" d="M122.65,16.85a1.06,1.06,0,0,1,1.07-1.06h.75V14.22a1.15,1.15,0,1,1,2.3,0v1.57h2.45a1.06,1.06,0,0,1,1.07,1.06,1.07,1.07,0,0,1-1.07,1.07h-2.45v3.79c0,1.84,1,2.78,2.45,2.78a1.08,1.08,0,0,1,0,2.16,4.62,4.62,0,0,1-4.75-4.94V17.92h-.75A1.07,1.07,0,0,1,122.65,16.85Z"/><path class="cls-1" d="M131.46,21.12A5.55,5.55,0,1,1,137,26.67,5.45,5.45,0,0,1,131.46,21.12Zm8.77,0a3.23,3.23,0,1,0-6.45,0,3.23,3.23,0,1,0,6.45,0Z"/><path class="cls-1" d="M144.79,12.77a1.16,1.16,0,0,1,2.31,0V25.48a1.16,1.16,0,1,1-2.31,0Z"/><path class="cls-1" d="M149.33,21.12a5.55,5.55,0,1,1,5.55,5.55A5.45,5.45,0,0,1,149.33,21.12Zm8.77,0a3.23,3.23,0,1,0-6.44,0,3.23,3.23,0,1,0,6.44,0Z"/><path class="cls-1" d="M162.23,21.12a5.34,5.34,0,0,1,5.29-5.54A5.12,5.12,0,0,1,171,16.9v-.15a1.15,1.15,0,0,1,2.3,0V25.1a5.54,5.54,0,0,1-5.65,5.55,5.33,5.33,0,0,1-4-1.68,1.29,1.29,0,0,1-.33-.77,1.08,1.08,0,0,1,1.13-1.09,1.47,1.47,0,0,1,1,.52,3.12,3.12,0,0,0,2.2.88A3.33,3.33,0,0,0,171,25.37a5.14,5.14,0,0,1-3.46,1.3A5.35,5.35,0,0,1,162.23,21.12Zm8.77.15v-.15a3.23,3.23,0,1,0-6.45,0,3.23,3.23,0,1,0,6.45.15Z"/><path class="cls-1" d="M175.77,13a1.36,1.36,0,1,1,1.36,1.36A1.36,1.36,0,0,1,175.77,13Zm.21,3.73a1.15,1.15,0,0,1,2.3,0v8.73a1.15,1.15,0,1,1-2.3,0Z"/><path class="cls-1" d="M189.29,25.37a5.2,5.2,0,0,1-3.48,1.3,5.35,5.35,0,0,1-5.29-5.55,5.34,5.34,0,0,1,5.29-5.54,5.12,5.12,0,0,1,3.48,1.32v-.15a1.15,1.15,0,0,1,2.3,0v8.73a1.15,1.15,0,1,1-2.3,0Zm0-4.25V21a3.23,3.23,0,1,0-6.45.14,3.23,3.23,0,1,0,6.45,0Z"/><path class="cls-1" d="M25.89,30.93V31A2.38,2.38,0,0,1,23,33.31a11.2,11.2,0,0,1-7.8-6.86,2.26,2.26,0,0,1,2.11-3.07h0a2.27,2.27,0,0,1,2.08,1.35,6.9,6.9,0,0,0,4.72,3.89A2.38,2.38,0,0,1,25.89,30.93Z"/><path class="cls-1" d="M30.12,30.93V31a2.38,2.38,0,0,0,2.94,2.32,11.2,11.2,0,0,0,7.8-6.86,2.26,2.26,0,0,0-2.1-3.07h0a2.27,2.27,0,0,0-2.08,1.35A6.88,6.88,0,0,1,32,28.62,2.38,2.38,0,0,0,30.12,30.93Z"/><path class="cls-1" d="M25.89,9.07V9A2.38,2.38,0,0,0,23,6.69a11.2,11.2,0,0,0-7.8,6.86,2.26,2.26,0,0,0,2.11,3.07h0a2.27,2.27,0,0,0,2.08-1.35,6.9,6.9,0,0,1,4.72-3.89A2.38,2.38,0,0,0,25.89,9.07Z"/><path class="cls-1" d="M30.12,9.07V9a2.38,2.38,0,0,1,2.94-2.32,11.2,11.2,0,0,1,7.8,6.86,2.26,2.26,0,0,1-2.1,3.07h0a2.27,2.27,0,0,1-2.08-1.35A6.88,6.88,0,0,0,32,11.38,2.38,2.38,0,0,1,30.12,9.07Z"/><path class="cls-2" d="M25.47,20.2a2.54,2.54,0,0,1,5.07,0,2.54,2.54,0,1,1-5.07,0Z"/></svg>