<svg id="Layer_1" data-name="Layer 1" xmlns="http://www.w3.org/2000/svg" viewBox="0 0 178.01 40"><defs><style>.cls-1{fill:#2b4c99;}.cls-2{fill:#efbdd8;}</style></defs><path class="cls-1" d="M39.69,26.77h0a1.51,1.51,0,0,0-1.38.91,4.91,4.91,0,0,1-8.85,0,1.55,1.55,0,0,0-.4-.52h0a1.31,1.31,0,0,0-.27-.19l-.1,0-.24-.09a1.57,1.57,0,0,0-.3,0H28a1.52,1.52,0,0,0-.21,0l-.14,0a1.51,1.51,0,0,0-1,.86,4.9,4.9,0,0,1-8.84,0,1.55,1.55,0,0,0-1.41-.91h0a1.53,1.53,0,0,0-1.42,2.07,7.64,7.64,0,0,0,7.25,4.87A7.73,7.73,0,0,0,28,31.13a7.73,7.73,0,0,0,5.84,2.58,7.65,7.65,0,0,0,7.25-4.87A1.53,1.53,0,0,0,39.69,26.77Z"/><path class="cls-1" d="M38.48,18.74A2.73,2.73,0,0,0,41,15,13.69,13.69,0,0,0,28,6.29,13.7,13.7,0,0,0,15,15a2.74,2.74,0,0,0,2.55,3.72h0a2.73,2.73,0,0,0,2.52-1.63,8.55,8.55,0,0,1,7.94-5,8.59,8.59,0,0,1,7.93,5,2.72,2.72,0,0,0,2.48,1.63Z"/><path class="cls-1" d="M27,22.43l-1.76,0a.58.58,0,0,1-.58-.59.59.59,0,0,1,.58-.6l1.77,0-.91-1.5a.58.58,0,0,1,.53-.9.56.56,0,0,1,.51.31L28,20.7l.85-1.5a.56.56,0,0,1,.51-.31.62.62,0,0,1,.62.6.61.61,0,0,1-.09.3l-.9,1.5,1.76,0a.59.59,0,0,1,.58.6.58.58,0,0,1-.58.59l-1.76,0,.9,1.49a.61.61,0,0,1,.09.3.62.62,0,0,1-.62.6.59.59,0,0,1-.51-.31L28,23l-.85,1.52a.59.59,0,0,1-.51.31.58.58,0,0,1-.53-.9Z"/><path class="cls-1" d="M53.11,21a5.61,5.61,0,1,1,5.61,5.61A5.51,5.51,0,0,1,53.11,21ZM62,21a3.26,3.26,0,1,0-6.51,0A3.26,3.26,0,1,0,62,21Z"/><path class="cls-1" d="M66.58,20.33a4.62,4.62,0,0,1,4.76-4.95,1.07,1.07,0,0,1,1.08,1.08,1.09,1.09,0,0,1-1.08,1.08c-1.4,0-2.43.93-2.43,2.79v5.05a1.17,1.17,0,1,1-2.33,0Z"/><path class="cls-1" d="M73.24,16.67a1.08,1.08,0,0,1,1.08-1.08h.76V14a1.17,1.17,0,0,1,2.33,0v1.59h2.47A1.08,1.08,0,0,1,81,16.67a1.09,1.09,0,0,1-1.08,1.08H77.41v3.82c0,1.87,1,2.82,2.47,2.82a1.09,1.09,0,0,1,0,2.18,4.67,4.67,0,0,1-4.8-5V17.75h-.76A1.09,1.09,0,0,1,73.24,16.67Z"/><path class="cls-1" d="M82.15,21a5.6,5.6,0,1,1,11.2,0,5.6,5.6,0,1,1-11.2,0ZM91,21a3.26,3.26,0,1,0-6.51,0A3.26,3.26,0,1,0,91,21Z"/><path class="cls-1" d="M104,25.28a5.28,5.28,0,0,1-3.51,1.31A5.41,5.41,0,0,1,95.17,21a5.4,5.4,0,0,1,5.35-5.6A5.2,5.2,0,0,1,104,16.71V12.55a1.17,1.17,0,1,1,2.33,0V25.38a1.17,1.17,0,1,1-2.33,0Zm0-4.3v-.15a3.26,3.26,0,1,0-6.51.15A3.26,3.26,0,1,0,104,21Z"/><path class="cls-1" d="M108.62,21a5.61,5.61,0,1,1,5.6,5.61A5.5,5.5,0,0,1,108.62,21Zm8.86,0A3.26,3.26,0,1,0,111,21a3.26,3.26,0,1,0,6.51,0Z"/><path class="cls-1" d="M122.09,20.31a4.76,4.76,0,1,1,9.51,0v5.07a1.16,1.16,0,1,1-2.32,0V20.22a2.45,2.45,0,1,0-4.87,0v5.16a1.16,1.16,0,1,1-2.32,0Z"/><path class="cls-1" d="M139.53,17.75h-4.67a1.09,1.09,0,0,1-1.08-1.08,1.08,1.08,0,0,1,1.08-1.08h7a1.08,1.08,0,0,1,1.08,1.08,1.13,1.13,0,0,1-.34.76l-5.69,6.79h5a1.08,1.08,0,1,1,0,2.15h-7.25a1.08,1.08,0,0,1-1.08-1.09,1.22,1.22,0,0,1,.31-.77Z"/><path class="cls-1" d="M160.86,25.28a5.28,5.28,0,0,1-3.51,1.31A5.4,5.4,0,0,1,152,21a5.4,5.4,0,0,1,5.35-5.6,5.2,5.2,0,0,1,3.51,1.33v-.15a1.16,1.16,0,0,1,2.32,0v8.82a1.16,1.16,0,1,1-2.32,0Zm0-4.3v-.15a3.26,3.26,0,1,0-6.51.15,3.26,3.26,0,1,0,6.51,0Z"/><path class="cls-1" d="M146.22,16.59a1.21,1.21,0,1,1,2.41,0,1.21,1.21,0,0,1-2.41,0Z"/><path class="cls-1" d="M150.74,25.18v0a1.37,1.37,0,0,1-1.69,1.34,6.45,6.45,0,0,1-4.5-4,1.3,1.3,0,0,1,1.21-1.77h0a1.3,1.3,0,0,1,1.2.78,4,4,0,0,0,2.73,2.24A1.38,1.38,0,0,1,150.74,25.18Z"/><path class="cls-2" d="M35.16,23.41H20.88a1.56,1.56,0,0,1,0-3.11H35.16a1.56,1.56,0,0,1,0,3.11Z"/></svg>