<svg id="Layer_1" data-name="Layer 1" xmlns="http://www.w3.org/2000/svg" viewBox="0 0 222.49 40"><defs><style>.cls-1{fill:#2b4c99;}.cls-2{fill:#efbdd8;}</style></defs><path class="cls-1" d="M57.92,25.33v4a1.13,1.13,0,1,1-2.26,0V16.85a1.13,1.13,0,0,1,2.26,0V17a5,5,0,0,1,3.41-1.3,5.26,5.26,0,0,1,5.21,5.45,5.25,5.25,0,0,1-5.21,5.45A5.11,5.11,0,0,1,57.92,25.33Zm6.33-4.18A3.17,3.17,0,1,0,57.92,21v.14a3.17,3.17,0,1,0,6.33,0Z"/><path class="cls-1" d="M76.92,25.33a5.11,5.11,0,0,1-3.41,1.27,5.26,5.26,0,0,1-5.21-5.45,5.26,5.26,0,0,1,5.21-5.45A5,5,0,0,1,76.92,17v-.15a1.13,1.13,0,1,1,2.26,0v8.58a1.13,1.13,0,1,1-2.26,0Zm0-4.18V21a3.17,3.17,0,1,0-6.33.14,3.17,3.17,0,1,0,6.33,0Z"/><path class="cls-1" d="M81.81,20.51a4.5,4.5,0,0,1,4.63-4.81,1,1,0,0,1,1,1.05,1,1,0,0,1-1,1.05c-1.36,0-2.36.91-2.36,2.71v4.92a1.14,1.14,0,1,1-2.27,0Z"/><path class="cls-1" d="M88.29,21.15a5.45,5.45,0,1,1,5.45,5.45A5.36,5.36,0,0,1,88.29,21.15Zm8.62,0a3.17,3.17,0,1,0-6.34,0,3.17,3.17,0,1,0,6.34,0Z"/><path class="cls-1" d="M109.57,25.33a5.09,5.09,0,0,1-3.41,1.27,5.25,5.25,0,0,1-5.2-5.45,5.26,5.26,0,0,1,5.2-5.45,5,5,0,0,1,3.41,1.3V13a1.14,1.14,0,0,1,2.27,0V25.43a1.14,1.14,0,1,1-2.27,0Zm0-4.18V21a3.17,3.17,0,1,0-6.33.14,3.17,3.17,0,1,0,6.33,0Z"/><path class="cls-1" d="M114,21.15a5.45,5.45,0,1,1,5.45,5.45A5.36,5.36,0,0,1,114,21.15Zm8.62,0a3.17,3.17,0,1,0-6.33,0,3.17,3.17,0,1,0,6.33,0Z"/><path class="cls-1" d="M127.13,20.49a4.63,4.63,0,1,1,9.26,0v4.94a1.14,1.14,0,1,1-2.27,0v-5a2.37,2.37,0,1,0-4.72,0v5a1.14,1.14,0,1,1-2.27,0Z"/><path class="cls-1" d="M137.58,17a1,1,0,0,1,1-1.05h.74V14.37a1.13,1.13,0,0,1,2.26,0v1.54H144A1,1,0,0,1,145.09,17,1.06,1.06,0,0,1,144,18h-2.41v3.72c0,1.81,1,2.73,2.41,2.73a1.06,1.06,0,0,1,0,2.12,4.54,4.54,0,0,1-4.67-4.85V18h-.74A1.06,1.06,0,0,1,137.58,17Z"/><path class="cls-1" d="M146.24,21.15a5.45,5.45,0,1,1,5.45,5.45A5.36,5.36,0,0,1,146.24,21.15Zm8.61,0a3.17,3.17,0,1,0-6.33,0,3.17,3.17,0,1,0,6.33,0Z"/><path class="cls-1" d="M159.33,13a1.14,1.14,0,0,1,2.27,0V25.43a1.14,1.14,0,1,1-2.27,0Z"/><path class="cls-1" d="M163.8,21.15a5.45,5.45,0,1,1,5.45,5.45A5.36,5.36,0,0,1,163.8,21.15Zm8.61,0a3.17,3.17,0,1,0-6.33,0,3.17,3.17,0,1,0,6.33,0Z"/><path class="cls-1" d="M176.46,21.15a5.26,5.26,0,0,1,5.21-5.45,5.05,5.05,0,0,1,3.41,1.3v-.15a1.13,1.13,0,1,1,2.26,0v8.21a5.45,5.45,0,0,1-5.55,5.45,5.21,5.21,0,0,1-3.93-1.65,1.3,1.3,0,0,1-.33-.76A1.06,1.06,0,0,1,178.64,27a1.44,1.44,0,0,1,1,.52,3.08,3.08,0,0,0,2.16.86,3.28,3.28,0,0,0,3.27-3.08,5.08,5.08,0,0,1-3.39,1.27A5.25,5.25,0,0,1,176.46,21.15Zm8.62.15v-.15a3.17,3.17,0,1,0-6.33,0,3.17,3.17,0,1,0,6.33.15Z"/><path class="cls-1" d="M205.1,25.33a5.13,5.13,0,0,1-3.42,1.27,5.25,5.25,0,0,1-5.2-5.45,5.26,5.26,0,0,1,5.2-5.45A5.06,5.06,0,0,1,205.1,17v-.15a1.13,1.13,0,1,1,2.26,0v8.58a1.13,1.13,0,1,1-2.26,0Zm0-4.18V21a3.17,3.17,0,1,0-6.34.14,3.17,3.17,0,1,0,6.34,0Z"/><path class="cls-1" d="M190.85,16.88A1.18,1.18,0,1,1,192,18.05,1.18,1.18,0,0,1,190.85,16.88Z"/><path class="cls-1" d="M195.26,25.23v0a1.33,1.33,0,0,1-1.65,1.3,6.27,6.27,0,0,1-4.38-3.85A1.26,1.26,0,0,1,190.41,21h0a1.27,1.27,0,0,1,1.17.76,3.88,3.88,0,0,0,2.65,2.18A1.35,1.35,0,0,1,195.26,25.23Z"/><path class="cls-1" d="M41.24,11.16A7.64,7.64,0,0,0,34,6.29a7.73,7.73,0,0,0-5.84,2.58,7.85,7.85,0,0,0-13.08,2.29,1.52,1.52,0,0,0,1.42,2.07h0a1.52,1.52,0,0,0,1.39-.91,4.91,4.91,0,0,1,8.84,0,1.45,1.45,0,0,0,.4.52h0a1.65,1.65,0,0,0,.27.19l.11.05a.92.92,0,0,0,.23.09,1.57,1.57,0,0,0,.3.05h.14l.21,0,.14,0a1.49,1.49,0,0,0,1-.86,4.92,4.92,0,0,1,8.85,0,1.51,1.51,0,0,0,1.4.91h0A1.52,1.52,0,0,0,41.24,11.16Z"/><path class="cls-1" d="M39.89,27.49A13.74,13.74,0,0,0,41.16,25a2.74,2.74,0,0,0-2.55-3.72h0a2.75,2.75,0,0,0-2.52,1.63,5.77,5.77,0,0,1-.27.56A13.52,13.52,0,0,1,39.89,27.49Z"/><path class="cls-1" d="M16.42,27.49a13.52,13.52,0,0,1,4.07-4c-.09-.18-.18-.37-.26-.56a2.73,2.73,0,0,0-2.48-1.63H17.7A2.74,2.74,0,0,0,15.15,25,13.74,13.74,0,0,0,16.42,27.49Z"/><path class="cls-2" d="M15.15,30a14,14,0,0,1,1.27-2.5,13.52,13.52,0,0,1,4.07-4,14.51,14.51,0,0,1,15.33,0,13.52,13.52,0,0,1,4.07,4A14,14,0,0,1,41.16,30a2.73,2.73,0,0,1-2.55,3.72h0a2.73,2.73,0,0,1-2.52-1.63c-.08-.19-.17-.37-.27-.56a8.35,8.35,0,0,0-5-4,9.18,9.18,0,0,0-2.65-.38,9.07,9.07,0,0,0-2.62.38,8.45,8.45,0,0,0-5,4c-.09.18-.18.36-.26.55a2.71,2.71,0,0,1-2.48,1.63H17.7A2.73,2.73,0,0,1,15.15,30Z"/></svg>