<svg id="Layer_1" data-name="Layer 1" xmlns="http://www.w3.org/2000/svg" viewBox="0 0 186.74 40"><defs><style>.cls-1{fill:#2b4c99;}.cls-2{fill:#efbdd8;}</style></defs><path class="cls-1" d="M155.16,17.76a1.18,1.18,0,1,1,2.36,0,1.18,1.18,0,0,1-2.36,0Z"/><path class="cls-1" d="M159.58,26.15v0a1.33,1.33,0,0,1-1.65,1.3,6.31,6.31,0,0,1-4.4-3.86,1.28,1.28,0,0,1,1.19-1.74h0a1.28,1.28,0,0,1,1.17.77,3.92,3.92,0,0,0,2.66,2.19A1.34,1.34,0,0,1,159.58,26.15Z"/><path class="cls-1" d="M58,26.46v4.05a1.14,1.14,0,0,1-2.27,0V17.94a1.14,1.14,0,0,1,2.27,0v.15a5,5,0,0,1,3.43-1.3,5.28,5.28,0,0,1,5.22,5.47,5.28,5.28,0,0,1-5.22,5.48A5.17,5.17,0,0,1,58,26.46Zm6.36-4.2A3.18,3.18,0,1,0,58,22.12v.14a3.19,3.19,0,1,0,6.36,0Z"/><path class="cls-1" d="M68.4,22.26a5.52,5.52,0,0,1,9-4.19,1.2,1.2,0,0,1,.41.87,1.16,1.16,0,0,1-.33.82l-3.18,3.78a1,1,0,0,1-.78.38,1,1,0,0,1-1.08-1,.92.92,0,0,1,.25-.68l2.5-2.93a2.53,2.53,0,0,0-1.36-.37,3.37,3.37,0,0,0,0,6.73,3,3,0,0,0,2.19-.93c.33-.27.55-.52,1-.52a1.07,1.07,0,0,1,1.11,1.1,1.15,1.15,0,0,1-.33.74,5.14,5.14,0,0,1-4,1.72A5.4,5.4,0,0,1,68.4,22.26Z"/><path class="cls-1" d="M88.09,26.46a5.17,5.17,0,0,1-3.43,1.28,5.28,5.28,0,0,1-5.23-5.48,5.28,5.28,0,0,1,5.23-5.47,5,5,0,0,1,3.43,1.3V14a1.14,1.14,0,1,1,2.27,0V26.56a1.14,1.14,0,1,1-2.27,0Zm0-4.2v-.14a3.19,3.19,0,1,0-6.37.14,3.19,3.19,0,1,0,6.37,0Z"/><path class="cls-1" d="M92.57,22.26A5.48,5.48,0,1,1,98,27.74,5.38,5.38,0,0,1,92.57,22.26Zm8.66,0a3.19,3.19,0,1,0-6.37,0,3.19,3.19,0,1,0,6.37,0Z"/><path class="cls-1" d="M114,26.46a5.17,5.17,0,0,1-3.43,1.28,5.29,5.29,0,0,1-5.23-5.48,5.28,5.28,0,0,1,5.23-5.47,5,5,0,0,1,3.43,1.3V14a1.14,1.14,0,1,1,2.27,0V26.56a1.14,1.14,0,1,1-2.27,0Zm0-4.2v-.14a3.18,3.18,0,1,0-6.36.14,3.19,3.19,0,1,0,6.36,0Z"/><path class="cls-1" d="M118.43,22.26a5.48,5.48,0,1,1,5.48,5.48A5.39,5.39,0,0,1,118.43,22.26Zm8.66,0a3.18,3.18,0,1,0-6.36,0,3.19,3.19,0,1,0,6.36,0Z"/><path class="cls-1" d="M131.59,21.6a4.65,4.65,0,1,1,9.3,0v5a1.16,1.16,0,0,1-1.14,1.16,1.14,1.14,0,0,1-1.13-1.16v-5a2.39,2.39,0,1,0-4.76,0v5a1.14,1.14,0,1,1-2.27,0Z"/><path class="cls-1" d="M148.63,19.1h-4.56a1.06,1.06,0,0,1,0-2.11h6.84A1,1,0,0,1,152,18.05a1.07,1.07,0,0,1-.33.74l-5.56,6.63h4.84a1.06,1.06,0,0,1,0,2.11h-7.09a1.05,1.05,0,0,1-1-1.07,1.12,1.12,0,0,1,.31-.75Z"/><path class="cls-1" d="M169.47,26.46A5.17,5.17,0,0,1,166,27.74a5.28,5.28,0,0,1-5.23-5.48A5.28,5.28,0,0,1,166,16.79a5,5,0,0,1,3.43,1.3v-.15a1.14,1.14,0,0,1,2.27,0v8.62a1.14,1.14,0,1,1-2.27,0Zm0-4.2v-.14a3.18,3.18,0,1,0-6.36.14,3.19,3.19,0,1,0,6.36,0Z"/><path class="cls-1" d="M39.86,26.77h0a1.51,1.51,0,0,0-1.38.91,4.9,4.9,0,0,1-8.84,0,1.68,1.68,0,0,0-.4-.52h0a1.31,1.31,0,0,0-.27-.19l-.1,0a1.7,1.7,0,0,0-.24-.09,1.45,1.45,0,0,0-.3,0h-.13a1.46,1.46,0,0,0-.22,0l-.14,0a1.53,1.53,0,0,0-1,.86,4.9,4.9,0,0,1-8.84,0,1.54,1.54,0,0,0-1.4-.91h0a1.53,1.53,0,0,0-1.42,2.07,7.63,7.63,0,0,0,7.25,4.87,7.73,7.73,0,0,0,5.84-2.58A7.73,7.73,0,0,0,34,33.71a7.62,7.62,0,0,0,7.25-4.87A1.52,1.52,0,0,0,39.86,26.77Z"/><path class="cls-1" d="M38.65,18.74A2.74,2.74,0,0,0,41.2,15a13.7,13.7,0,0,0-13-8.73,13.69,13.69,0,0,0-13,8.73,2.73,2.73,0,0,0,2.54,3.72h0a2.74,2.74,0,0,0,2.52-1.63,8.53,8.53,0,0,1,7.93-5,8.58,8.58,0,0,1,7.93,5,2.72,2.72,0,0,0,2.48,1.63Z"/><path class="cls-2" d="M32.27,22.67h0a.55.55,0,0,0-.49.32,1.71,1.71,0,0,1-3.08,0s0,0-.05,0a.28.28,0,0,0-.09-.1s-.05-.07-.09-.09a.62.62,0,0,0-.23-.07h-.05a.15.15,0,0,0-.07,0,.48.48,0,0,0-.18.05.36.36,0,0,0-.11.1.34.34,0,0,0-.08.09l0,0a1.72,1.72,0,0,1-3.09,0,.54.54,0,0,0-.49-.32h0a.54.54,0,0,0-.5.73,2.73,2.73,0,0,0,4.57.78,2.72,2.72,0,0,0,2,.92,2.67,2.67,0,0,0,2.53-1.7A.53.53,0,0,0,32.27,22.67Z"/><path class="cls-2" d="M24.54,19.87h0a1,1,0,0,0,.88-.57,3.07,3.07,0,0,1,5.54,0,1,1,0,0,0,.87.57h0a1,1,0,0,0,.89-1.3,4.9,4.9,0,0,0-9.08,0A1,1,0,0,0,24.54,19.87Z"/></svg>