<svg id="Layer_1" data-name="Layer 1" xmlns="http://www.w3.org/2000/svg" viewBox="0 0 139.2 40"><defs><style>.cls-1{fill:#2b4c99;}.cls-2{fill:#efbdd8;}</style></defs><path class="cls-1" d="M57.71,25.26v4.19a1.18,1.18,0,0,1-2.35,0v-13a1.18,1.18,0,1,1,2.35,0v.14a5.24,5.24,0,0,1,3.55-1.34,5.46,5.46,0,0,1,5.4,5.66,5.47,5.47,0,0,1-5.4,5.67A5.33,5.33,0,0,1,57.71,25.26Zm6.58-4.34a3.29,3.29,0,1,0-6.58-.15v.15a3.3,3.3,0,1,0,6.58,0Z"/><path class="cls-1" d="M69,20.26a4.67,4.67,0,0,1,4.81-5,1.08,1.08,0,0,1,1.09,1.09,1.09,1.09,0,0,1-1.09,1.09c-1.41,0-2.46.94-2.46,2.82v5.11a1.18,1.18,0,1,1-2.35,0Z"/><path class="cls-1" d="M75.68,20.92a5.67,5.67,0,1,1,5.67,5.67A5.57,5.57,0,0,1,75.68,20.92Zm9,0a3.3,3.3,0,1,0-6.59,0,3.3,3.3,0,1,0,6.59,0Z"/><path class="cls-1" d="M87.71,16.56a1.09,1.09,0,0,1,1.09-1.09h.77v-1.6a1.18,1.18,0,1,1,2.35,0v1.6h2.5a1.08,1.08,0,0,1,1.09,1.09,1.09,1.09,0,0,1-1.09,1.09h-2.5v3.87c0,1.88,1,2.84,2.5,2.84a1.1,1.1,0,0,1,0,2.2,4.72,4.72,0,0,1-4.85-5V17.65H88.8A1.1,1.1,0,0,1,87.71,16.56Z"/><path class="cls-1" d="M96.71,20.92a5.71,5.71,0,0,1,9.36-4.34,1.25,1.25,0,0,1,.43.9,1.26,1.26,0,0,1-.34.86l-3.29,3.91a1,1,0,0,1-.82.38,1.06,1.06,0,0,1-1.11-1.07,1,1,0,0,1,.26-.7l2.58-3a2.68,2.68,0,0,0-1.41-.38,3.37,3.37,0,0,0-3.29,3.48,3.37,3.37,0,0,0,3.29,3.49,3,3,0,0,0,2.27-1c.34-.27.58-.53,1-.53A1.1,1.1,0,0,1,106.82,24a1.24,1.24,0,0,1-.34.77,5.35,5.35,0,0,1-4.11,1.78A5.59,5.59,0,0,1,96.71,20.92Z"/><path class="cls-1" d="M109.64,22.93a.92.92,0,0,1,.81.43,2,2,0,0,0,1.69,1.11,1.18,1.18,0,0,0,1.22-1.15c0-.88-.81-1.22-1.82-1.57-1.34-.46-2.86-1-2.86-3.24a3.31,3.31,0,0,1,3.46-3.25c1.82,0,3.48,1.11,3.48,2.46a1.06,1.06,0,0,1-1.09,1,.73.73,0,0,1-.68-.38,2.34,2.34,0,0,0-1.71-1,1.15,1.15,0,0,0-1.2,1.16c0,.87.9,1.15,2,1.51,1.3.41,2.78,1.09,2.78,3.23a3.47,3.47,0,0,1-3.57,3.34c-1.9,0-3.57-1.24-3.57-2.57A1.08,1.08,0,0,1,109.64,22.93Z"/><path class="cls-1" d="M118.75,16.46a1.22,1.22,0,0,1,2.44,0,1.22,1.22,0,1,1-2.44,0Z"/><path class="cls-1" d="M123.33,25.14v0a1.39,1.39,0,0,1-1.72,1.35,6.5,6.5,0,0,1-4.54-4,1.31,1.31,0,0,1,1.22-1.79h0a1.33,1.33,0,0,1,1.22.79,4,4,0,0,0,2.75,2.27A1.38,1.38,0,0,1,123.33,25.14Z"/><path class="cls-1" d="M38.31,22.54a2.74,2.74,0,0,1,2.55,3.73,13.72,13.72,0,0,1-13,8.73,13.7,13.7,0,0,1-13-8.73,2.74,2.74,0,0,1,2.55-3.73h0a2.75,2.75,0,0,1,2.52,1.64,8.52,8.52,0,0,0,7.93,5,8.56,8.56,0,0,0,7.93-5,2.72,2.72,0,0,1,2.48-1.64Z"/><path class="cls-1" d="M38.31,17.46a2.74,2.74,0,0,0,2.55-3.72A13.71,13.71,0,0,0,27.85,5a13.7,13.7,0,0,0-13,8.74,2.74,2.74,0,0,0,2.55,3.72h0a2.75,2.75,0,0,0,2.52-1.64,8.52,8.52,0,0,1,7.93-5,8.56,8.56,0,0,1,7.93,5,2.72,2.72,0,0,0,2.48,1.64Z"/><path class="cls-2" d="M25.32,19.63a2.54,2.54,0,0,1,5.07,0,2.54,2.54,0,0,1-5.07,0Z"/></svg>