<svg xmlns="http://www.w3.org/2000/svg" viewBox="0 0 252.81 22.8"><defs><style>.cls-1{fill:#f2f2f2;}</style></defs><g id="HOMEPAGE"><path class="cls-1" d="M4.55,1.22H0A.62.62,0,0,1-.61.61.6.6,0,0,1,0,0H10.42A.6.6,0,0,1,11,.61a.62.62,0,0,1-.61.61H5.87V17.29a.66.66,0,1,1-1.32,0Z"/><path class="cls-1" d="M13.29.46a.62.62,0,0,1,.64-.64.63.63,0,0,1,.64.64V6.91a4.74,4.74,0,0,1,4.29-2.33c3,0,5.32,2.08,5.32,5.82v6.91a.64.64,0,1,1-1.28,0V10.37c0-3.07-1.83-4.62-4.16-4.62s-4.17,1.52-4.17,4.62v6.94a.65.65,0,0,1-.64.66.64.64,0,0,1-.64-.66Z"/><path class="cls-1" d="M27.2,11.31a6.63,6.63,0,0,1,6.66-6.73,6.52,6.52,0,0,1,4.42,1.67.68.68,0,0,1,0,1l-5.16,6.15a.59.59,0,0,1-1.06-.35.69.69,0,0,1,.15-.41l4.88-5.75a4.88,4.88,0,0,0-3.23-1.16,5.43,5.43,0,0,0-5.39,5.56,5.45,5.45,0,0,0,5.39,5.57A5.19,5.19,0,0,0,37.93,15a.87.87,0,0,1,.53-.28.61.61,0,0,1,.64.61.87.87,0,0,1-.21.46,6.54,6.54,0,0,1-5,2.31A6.64,6.64,0,0,1,27.2,11.31Z"/><path class="cls-1" d="M49.29,13.45a1.6,1.6,0,0,1,1.07.38c.53.43.91,1,1.73,1A.91.91,0,0,0,53,14c0-.81-.89-1.07-1.94-1.42-1.47-.51-3.27-1.2-3.27-3.94a4.17,4.17,0,0,1,4.32-4c2.16,0,4.32,1.24,4.32,2.72A1.65,1.65,0,0,1,54.76,9,1.82,1.82,0,0,1,54,8.77c-.66-.33-1.12-1-1.9-1a.9.9,0,0,0-.89.89c0,.71.91.94,2,1.3,1.53.48,3.36,1.22,3.36,3.91a4.33,4.33,0,0,1-4.45,4.2c-2.32,0-4.45-1.42-4.45-3A1.65,1.65,0,0,1,49.29,13.45Z"/><path class="cls-1" d="M59.08,9.89a5,5,0,0,1,5-5.31,4.05,4.05,0,0,1,3.69,1.9,4,4,0,0,1,3.69-1.9,5,5,0,0,1,5,5.31v6.38a1.78,1.78,0,0,1-3.56,0V9.84c0-1.32-.73-2-1.65-2s-1.65.64-1.65,2v6.43a1.78,1.78,0,0,1-3.56,0V9.84c0-1.32-.74-2-1.65-2s-1.65.64-1.65,2v6.43a1.78,1.78,0,0,1-3.56,0Z"/><path class="cls-1" d="M96.57,11.31A6.86,6.86,0,0,1,107.73,6.1a1.82,1.82,0,0,1,.16,2.62l-3.28,3.91a1.53,1.53,0,0,1-1.22.59,1.63,1.63,0,0,1-1.71-1.63,1.55,1.55,0,0,1,.38-1.07L104.25,8a2.88,2.88,0,0,0-.89-.13,3.3,3.3,0,0,0-3.2,3.43,3.27,3.27,0,0,0,3.2,3.43,3.08,3.08,0,0,0,2-.73c.51-.44.86-.82,1.55-.82a1.69,1.69,0,0,1,1.75,1.71,1.87,1.87,0,0,1-.51,1.17,6.31,6.31,0,0,1-4.8,2A6.62,6.62,0,0,1,96.57,11.31Z"/><path class="cls-1" d="M117.88,17.26v-12a.61.61,0,0,1,.63-.64.63.63,0,0,1,.64.64V15.74l9.07-10.86a.63.63,0,0,1,.46-.23.6.6,0,0,1,.61.59.66.66,0,0,1-.15.4L114.93,22.57a.63.63,0,0,1-.46.23.58.58,0,0,1-.59-.58.65.65,0,0,1,.16-.41Z"/><path class="cls-1" d="M129.37,11.31a6.65,6.65,0,1,1,13.29,0,6.65,6.65,0,1,1-13.29,0Zm12,0a5.38,5.38,0,1,0-10.75,0,5.38,5.38,0,1,0,10.75,0Z"/><path class="cls-1" d="M145.71,5.29a.61.61,0,0,1,.64-.64.63.63,0,0,1,.63.64v6.94c0,3.07,1.86,4.65,4.17,4.65s4.17-1.58,4.17-4.65V5.29a.64.64,0,1,1,1.27,0V12.2c0,3.74-2.39,5.85-5.44,5.85s-5.44-2.11-5.44-5.85Z"/><path class="cls-1" d="M178,15.15a6.49,6.49,0,0,1-5.44,2.9A6.61,6.61,0,0,1,166,11.31a6.6,6.6,0,0,1,6.59-6.73A6.51,6.51,0,0,1,178,7.47v-7a.62.62,0,0,1,.63-.64.63.63,0,0,1,.64.64V17.31a.65.65,0,0,1-.64.66.64.64,0,0,1-.63-.66Zm0-3.61v-.46a5.38,5.38,0,1,0-10.76.23,5.38,5.38,0,1,0,10.76.23Z"/><path class="cls-1" d="M182.29,11.31A6.63,6.63,0,0,1,189,4.58a6.52,6.52,0,0,1,4.42,1.67.68.68,0,0,1,0,1l-5.16,6.15a.59.59,0,0,1-1.06-.35.69.69,0,0,1,.15-.41l4.88-5.75A4.88,4.88,0,0,0,189,5.75a5.43,5.43,0,0,0-5.39,5.56A5.45,5.45,0,0,0,189,16.88,5.19,5.19,0,0,0,193,15a.87.87,0,0,1,.53-.28.61.61,0,0,1,.64.61.87.87,0,0,1-.21.46,6.52,6.52,0,0,1-5,2.31A6.64,6.64,0,0,1,182.29,11.31Z"/><path class="cls-1" d="M197.16,14.26a.59.59,0,0,1,.56.43,2.57,2.57,0,0,0,2.7,2.22A2.42,2.42,0,0,0,203,14.57c0-1.53-1.09-2.27-2.59-2.77-1.88-.61-3.66-1.3-3.66-3.72a3.49,3.49,0,0,1,3.71-3.5c2.14,0,3.74,1.34,3.74,3.17a.58.58,0,0,1-1.15.11,2.43,2.43,0,0,0-2.59-2.17A2.32,2.32,0,0,0,198,8.08c0,1.66,1.37,2.24,3.1,2.77s3.2,1.45,3.2,3.69a3.67,3.67,0,0,1-3.83,3.51c-2.16,0-3.84-1.53-3.84-3.2A.58.58,0,0,1,197.16,14.26Z"/><path class="cls-1" d="M206.67,11.31a6.63,6.63,0,0,1,6.66-6.73,6.52,6.52,0,0,1,4.42,1.67.68.68,0,0,1,0,1l-5.16,6.15a.59.59,0,0,1-.46.23.58.58,0,0,1-.61-.58.71.71,0,0,1,.16-.41l4.88-5.75a4.88,4.88,0,0,0-3.23-1.16,5.43,5.43,0,0,0-5.39,5.56,5.45,5.45,0,0,0,5.39,5.57A5.19,5.19,0,0,0,217.4,15a.84.84,0,0,1,.53-.28.61.61,0,0,1,.64.61,1,1,0,0,1-.21.46,6.54,6.54,0,0,1-5,2.31A6.64,6.64,0,0,1,206.67,11.31Z"/><path class="cls-1" d="M221.57,9.58c0-2.92,1.75-5,4.75-5a.57.57,0,0,1,.58.58.61.61,0,0,1-.58.59c-2.09,0-3.48,1.37-3.48,3.83v7.73a.65.65,0,0,1-.64.66.63.63,0,0,1-.63-.66Z"/><path class="cls-1" d="M229.42,5.29a.61.61,0,0,1,.64-.64.63.63,0,0,1,.63.64V15.74l9.08-10.86a.59.59,0,0,1,.45-.23.6.6,0,0,1,.61.59.66.66,0,0,1-.15.4L230.54,17.72a.57.57,0,0,1-.48.25.63.63,0,0,1-.64-.66Z"/><path class="cls-1" d="M240.91,11.31a6.63,6.63,0,0,1,6.66-6.73A6.52,6.52,0,0,1,252,6.25a.68.68,0,0,1,0,1l-5.16,6.15a.59.59,0,0,1-1.06-.35.69.69,0,0,1,.15-.41l4.88-5.75a4.88,4.88,0,0,0-3.23-1.16,5.43,5.43,0,0,0-5.39,5.56,5.45,5.45,0,0,0,5.39,5.57A5.19,5.19,0,0,0,251.64,15a.87.87,0,0,1,.53-.28.61.61,0,0,1,.64.61.87.87,0,0,1-.21.46,6.54,6.54,0,0,1-5,2.31A6.64,6.64,0,0,1,240.91,11.31Z"/><path class="cls-1" d="M81.13,3.23a1.72,1.72,0,1,1,1.72,1.71A1.73,1.73,0,0,1,81.13,3.23Z"/><path class="cls-1" d="M87.57,15.44v.05a2,2,0,0,1-2.42,1.89,9.13,9.13,0,0,1-6.39-5.62,1.85,1.85,0,0,1,1.73-2.52h0a1.85,1.85,0,0,1,1.7,1.11,5.69,5.69,0,0,0,3.87,3.19A2,2,0,0,1,87.57,15.44Z"/><path class="cls-1" d="M90.49,1.64a1.84,1.84,0,0,1,3.68,0V16.85a1.84,1.84,0,0,1-3.68,0Z"/></g></svg>