<svg xmlns="http://www.w3.org/2000/svg" xmlns:xlink="http://www.w3.org/1999/xlink" viewBox="0 0 350 350" width="350" height="350" preserveAspectRatio="xMidYMid meet" style="width: 100%; height: 100%; transform: translate3d(0px, 0px, 0px); content-visibility: visible;"><defs><clipPath id="__lottie_element_3253"><rect width="350" height="350" x="0" y="0"></rect></clipPath></defs><g clip-path="url(#__lottie_element_3253)"><g transform="matrix(1,0,0,1,175,175)" opacity="1" style="display: block;"><g opacity="1" transform="matrix(1,0,0,1,0,14.749541282653809)"><g opacity="1" transform="matrix(1,0,0,1,0,0)"><g opacity="1" transform="matrix(1,0,0,1,0,0)"><path fill="rgb(80,148,255)" fill-opacity="1" d=" M72.55400085449219,-24.69499969482422 C72.55400085449219,-24.69499969482422 65.9000015258789,-24.69499969482422 65.9000015258789,-24.69499969482422 C66.9020004272461,-30.024999618530273 64.70999908447266,-35.999000549316406 60.62699890136719,-40.13800048828125 C58.86899948120117,-41.933998107910156 56.90299987792969,-43.426998138427734 54.766998291015625,-44.69300079345703 C49.68199920654297,-47.68000030517578 43.70899963378906,-49.38100051879883 37.8120002746582,-50.874000549316406 C36.3380012512207,-51.25199890136719 34.862998962402344,-51.611000061035156 33.40800094604492,-51.970001220703125 C28.19099998474121,-53.236000061035156 22.937000274658203,-54.38999938964844 17.643999099731445,-55.42900085449219 C17.643999099731445,-55.42900085449219 17.643999099731445,-63.86000061035156 17.643999099731445,-63.86000061035156 C23.57900047302246,-62.63100051879883 29.476999282836914,-61.231998443603516 35.35499954223633,-59.68199920654297 C40.28900146484375,-58.37799835205078 45.391998291015625,-57.0359992980957 50.25,-55.12699890136719 C54.71099853515625,-53.36899948120117 58.9630012512207,-51.138999938964844 62.6870002746582,-48.000999450683594 C62.6870002746582,-48.000999450683594 62.70600128173828,-48.000999450683594 62.70600128173828,-48.000999450683594 C63.82099914550781,-47.07500076293945 64.87999725341797,-46.05400085449219 65.88200378417969,-44.95800018310547 C67.28099822998047,-43.46500015258789 68.48999786376953,-41.80099868774414 69.49199676513672,-40.042999267578125 C69.49199676513672,-40.042999267578125 69.49199676513672,-40.02399826049805 69.51100158691406,-40.005001068115234 C72.19499969482422,-35.279998779296875 73.3290023803711,-29.79800033569336 72.55400085449219,-24.69499969482422z"></path></g></g><g opacity="1" transform="matrix(1,0,0,1,0,0)"><g opacity="1" transform="matrix(1,0,0,1,0,0)"><path fill="rgb(87,179,254)" fill-opacity="1" d=" M81.00299835205078,-73.13999938964844 C81.00299835205078,-73.13999938964844 70.73899841308594,-73.3489990234375 70.73899841308594,-73.3489990234375 C70.43699645996094,-75.40899658203125 69.56700134277344,-77.46900177001953 68.2249984741211,-79.32099914550781 C63.99100112915039,-85.25599670410156 57.527000427246094,-87.77100372314453 50.41999816894531,-90.20899963378906 C35.29800033569336,-95.1989974975586 19.590999603271484,-97.0510025024414 3.4860000610351562,-96.31400299072266 C11.708000183105469,-98.65799713134766 21.31100082397461,-100 31.045000076293945,-100 C39.90999984741211,-100 48.88800048828125,-98.88500213623047 57.01599884033203,-96.38999938964844 C57.01599884033203,-96.38999938964844 57.073001861572266,-96.37100219726562 57.167999267578125,-96.33300018310547 C61.28799819946289,-95.08599853515625 65.20099639892578,-93.44100189208984 68.75499725341797,-91.43800354003906 C75.20099639892578,-87.54399871826172 80.1709976196289,-80.64399719238281 81.00299835205078,-73.13999938964844z"></path></g><g opacity="1" transform="matrix(1,0,0,1,0,0)"><path fill="rgb(80,148,255)" fill-opacity="1" d=" M10.814000129699707,-65.177001953125 C2.9739999771118164,-66.59300231933594 -4.934999942779541,-67.66500091552734 -12.9399995803833,-68.26399993896484 C-26.625,-69.34100341796875 -40.63100051879883,-68.79299926757812 -54.2400016784668,-66.2979965209961 C-60.2130012512207,-64.87999725341797 -66.24299621582031,-63.99100112915039 -71.83799743652344,-61.382999420166016 C-72.9530029296875,-60.87300109863281 -74.03099822998047,-60.2869987487793 -75.10800170898438,-59.606998443603516 C-78.49199676513672,-57.547000885009766 -80.41999816894531,-54.44599914550781 -80.96800231933594,-51.17599868774414 C-80.96800231933594,-51.17599868774414 -73.84200286865234,-50.553001403808594 -73.84200286865234,-50.553001403808594 C-73.84200286865234,-50.553001403808594 -71.34700012207031,-50.345001220703125 -71.34700012207031,-50.345001220703125 C-69.3239974975586,-53.21799850463867 -63.84199905395508,-54.33300018310547 -60.02399826049805,-55.486000061035156 C-55.01499938964844,-56.808998107910156 -49.930999755859375,-57.86800003051758 -44.80799865722656,-58.56700134277344 C-34.50699996948242,-59.946998596191406 -24.016000747680664,-60.268001556396484 -13.526000022888184,-59.569000244140625 C-5.395999908447266,-59.04199981689453 2.7330000400543213,-58.03200149536133 10.814000129699707,-56.66699981689453 C10.814000129699707,-56.66699981689453 10.814000129699707,-65.177001953125 10.814000129699707,-65.177001953125z"></path></g><g opacity="1" transform="matrix(1,0,0,1,0,0)"><path fill="rgb(80,148,255)" fill-opacity="1" d=" M70.73899841308594,-73.3489990234375 C70.43699645996094,-75.40899658203125 69.56700134277344,-77.46900177001953 68.2249984741211,-79.32099914550781 C63.99100112915039,-85.25599670410156 57.527000427246094,-87.77100372314453 50.41999816894531,-90.20899963378906 C35.29800033569336,-95.1989974975586 19.590999603271484,-97.0510025024414 3.4860000610351562,-96.31400299072266 C11.708000183105469,-98.65799713134766 21.31100082397461,-100 31.045000076293945,-100 C39.90999984741211,-100 48.88800048828125,-98.88500213623047 57.01599884033203,-96.38999938964844 C57.01599884033203,-96.38999938964844 57.073001861572266,-96.37100219726562 57.167999267578125,-96.33300018310547 C58.68000030517578,-95.76599884033203 70.73899841308594,-90.625 70.73899841308594,-73.3489990234375z"></path></g></g></g><g opacity="1" transform="matrix(1,0,0,1,0,-9.833027839660645)"><g opacity="1" transform="matrix(1,0,0,1,0,0)"><g opacity="1" transform="matrix(1,0,0,1,0,0)"><g opacity="1" transform="matrix(1,0,0,1,0,0)"><path fill="rgb(223,50,96)" fill-opacity="1" d=" M-27.361000061035156,-10.069000244140625 C-30.55699920654297,-1.5540000200271606 -29.3700008392334,15.588000297546387 -32.08599853515625,7.034999847412109 C-34.8120002746582,-1.0709999799728394 -31.875999450683594,-17.308000564575195 -32.36600112915039,-24.76300048828125 C-32.57500076293945,-26.506999969482422 -32.76100158691406,-28.30299949645996 -33.44900131225586,-29.8799991607666 C-34.124000549316406,-31.48900032043457 -35.334999084472656,-32.88999938964844 -36.85200119018555,-33.207000732421875 C-39.52899932861328,-33.777000427246094 -41.75899887084961,-30.895999908447266 -43.34199905395508,-28.176000595092773 C-44.571998596191406,-25.992000579833984 -45.79199981689453,-23.760000228881836 -46.91999816894531,-21.44099998474121 C-47.44599914550781,-20.409000396728516 -48.183998107910156,-19.229999542236328 -49.125,-19.523000717163086 C-49.79199981689453,-19.722999572753906 -50.16899871826172,-20.6200008392334 -50.20000076293945,-21.488000869750977 C-50.231998443603516,-22.356000900268555 -49.957000732421875,-23.204999923706055 -49.667999267578125,-23.94300079345703 C-46.53200149536133,-32.83700180053711 -42.01100158691406,-40.946998596191406 -41.33700180053711,-49.94300079345703 C-41.11399841308594,-53.347999572753906 -41.17499923706055,-57.38399887084961 -38.90399932861328,-59.641998291015625 C-37.599998474121094,-60.88100051879883 -35.9109992980957,-61.111000061035156 -34.327999114990234,-61.481998443603516 C-28.861000061035156,-62.73099899291992 -23.634000778198242,-65.6780014038086 -19.44300079345703,-69.5270004272461 C-18.17099952697754,-70.7239990234375 -16.941999435424805,-72.01599884033203 -15.447999954223633,-72.76699829101562 C-13.894000053405762,-73.5770034790039 -8.145999908447266,-75.63200378417969 -10.70199966430664,-72.51200103759766 C-11.131999969482422,-72.11299896240234 -17.107999801635742,-67.19000244140625 -17.643999099731445,-66.44499969482422 C-19.891000747680664,-64.052001953125 -21.875999450683594,-61.349998474121094 -23.590999603271484,-58.387001037597656 C-24.860000610351562,-56.22200012207031 -26.4689998626709,-53.66600036621094 -26.945999145507812,-51.0620002746582 C-27.437000274658203,-48.375 -26.697999954223633,-45.659000396728516 -25.974000930786133,-43.20600128173828 C-22.218000411987305,-30.933000564575195 -23.086000442504883,-22.631999969482422 -27.361000061035156,-10.069000244140625z"></path></g></g></g><g opacity="1" transform="matrix(1,0,0,1,0,0)"><path fill="rgb(243,241,252)" fill-opacity="1" d=" M62.59299850463867,-28.683000564575195 C61.779998779296875,-26.452999114990234 60.854000091552734,-24.260000228881836 59.85200119018555,-22.086000442504883 C59.22800064086914,-20.781999588012695 58.604000091552734,-19.402000427246094 58.112998962402344,-18.097999572753906 C57.48899841308594,-16.604999542236328 56.90299987792969,-15.092000007629395 56.35499954223633,-13.560999870300293 C56.35499954223633,-13.541999816894531 56.33599853515625,-13.52400016784668 56.33599853515625,-13.505000114440918 C56.14699935913086,-12.97599983215332 55.95800018310547,-12.427000045776367 55.78799819946289,-11.89799976348877 C55.25899887084961,-10.234000205993652 54.766998291015625,-8.552000045776367 54.388999938964844,-6.85099983215332 C54.35100173950195,-6.75600004196167 54.33300018310547,-6.663000106811523 54.31399917602539,-6.567999839782715 C54.18199920654297,-6.09499979019165 54.06700134277344,-5.622000217437744 53.972999572753906,-5.13100004196167 C53.66999816894531,-3.884000062942505 53.42499923706055,-2.635999917984009 53.21699905395508,-1.3890000581741333 C52.915000915527344,0.4819999933242798 52.724998474121094,2.3540000915527344 52.63100051879883,4.263000011444092 C52.44200134277344,7.192999839782715 52.44200134277344,10.368000030517578 52.6879997253418,13.656999588012695 C52.6879997253418,13.902999877929688 52.6879997253418,14.14900016784668 52.707000732421875,14.37600040435791 C52.744998931884766,15.45300006866455 52.8390007019043,16.5310001373291 53.00899887084961,17.645999908447266 C54.99399948120117,33.95800018310547 45.354000091552734,89.01899719238281 30.648000717163086,91.9489974975586 C27.66200065612793,92.572998046875 25.60099983215332,91.19300079345703 24.107999801635742,88.58499908447266 C19.06100082397461,79.43699645996094 22.18000030517578,54.71200180053711 20.687000274658203,47.6619987487793 C20.687000274658203,47.60499954223633 20.687000274658203,47.60499954223633 20.687000274658203,47.60499954223633 C20.55500030517578,47.03799819946289 20.44099998474121,46.54600143432617 20.19499969482422,46.224998474121094 C20.19499969482422,46.224998474121094 16.642000198364258,68.4729995727539 11.348999977111816,84.35099792480469 C10.53600025177002,86.5999984741211 9.722999572753906,88.83000183105469 8.854000091552734,90.75800323486328 C7.284999847412109,94.36799621582031 5.622000217437744,97.16600036621094 3.940000057220459,98.6780014038086 C3.750999927520752,98.86699676513672 3.562000036239624,99.03700256347656 3.430000066757202,99.09400177001953 C2.559999942779541,99.79299926757812 1.690000057220459,100.09600067138672 0.8209999799728394,99.96399688720703 C-9.763999938964844,98.90599822998047 -19.479999542236328,38.62699890136719 -19.479999542236328,38.62699890136719 C-19.479999542236328,38.62699890136719 -21.104999542236328,46.981998443603516 -22.277000427246094,56.696998596191406 C-23.410999298095703,65.78900146484375 -24.090999603271484,76.0530014038086 -22.8439998626709,81.85600280761719 C-20.916000366210938,90.6449966430664 -24.715999603271484,94.31199645996094 -29.138999938964844,94.06600189208984 C-30.820999145507812,94.06600189208984 -32.560001373291016,93.44200134277344 -34.18600082397461,92.38400268554688 C-37.30500030517578,90.26699829101562 -42.95600128173828,81.98799896240234 -47.51100158691406,68.4729995727539 C-51.42399978637695,56.88600158691406 -54.486000061035156,41.44300079345703 -54.22100067138672,22.825000762939453 C-54.20199966430664,19.895000457763672 -54.20199966430664,17.211000442504883 -54.25899887084961,14.715999603271484 C-54.40999984741211,8.175999641418457 -54.845001220703125,2.9779999256134033 -55.487998962402344,-1.2940000295639038 C-55.827999114990234,-3.5999999046325684 -56.24399948120117,-5.623000144958496 -56.67900085449219,-7.455999851226807 C-57.20800018310547,-9.553999900817871 -57.775001525878906,-11.387999534606934 -58.361000061035156,-13.050999641418457 C-58.625999450683594,-13.75100040435791 -58.88999938964844,-14.430999755859375 -59.154998779296875,-15.093000411987305 C-61.6879997253418,-21.4060001373291 -64.63700103759766,-25.77199935913086 -66.48899841308594,-34.78799819946289 C-69.5510025024414,-49.606998443603516 -73.52100372314453,-84.12300109863281 -52.21799850463867,-89.83100128173828 C-46.1879997253418,-91.45700073242188 -40.707000732421875,-93.00700378417969 -29.875999450683594,-88.6780014038086 C-29.025999069213867,-88.33799743652344 -28.042999267578125,-88.48899841308594 -27.343000411987305,-89.09400177001953 C-24.187000274658203,-91.83499908447266 -14.717000007629395,-99.24400329589844 -5.209000110626221,-99.24400329589844 C18.625999450683594,-99.24400329589844 25.638999938964844,-86.67400360107422 25.638999938964844,-86.67400360107422 C25.695999145507812,-86.71199798583984 25.733999252319336,-86.73100280761719 25.77199935913086,-86.75 C27.700000762939453,-87.73300170898438 49.323001861572266,-98.39399719238281 59.90800094604492,-89.4530029296875 C61.0989990234375,-88.47000122070312 62.15800094604492,-87.22200012207031 63.027000427246094,-85.72899627685547 C70.24700164794922,-73.3290023803711 70.56999969482422,-49.797000885009766 62.59299850463867,-28.683000564575195z"></path></g><g opacity="1" transform="matrix(1,0,0,1,0,0)"><path fill="rgb(255,222,155)" fill-opacity="1" d=" M54.388999938964844,-6.85099983215332 C54.35100173950195,-6.75600004196167 54.33300018310547,-6.663000106811523 54.31399917602539,-6.567999839782715 C54.18199920654297,-6.09499979019165 54.06700134277344,-5.622000217437744 53.972999572753906,-5.13100004196167 C53.66999816894531,-3.884000062942505 53.42499923706055,-2.635999917984009 53.21699905395508,-1.3890000581741333 C52.915000915527344,0.4819999933242798 52.724998474121094,2.3540000915527344 52.63100051879883,4.263000011444092 C52.44200134277344,7.192999839782715 52.44200134277344,10.368000030517578 52.6879997253418,13.656999588012695 C52.6879997253418,13.902999877929688 52.6879997253418,14.14900016784668 52.707000732421875,14.37600040435791 C52.744998931884766,15.45300006866455 52.8390007019043,16.5310001373291 53.00899887084961,17.645999908447266 C54.99399948120117,33.95800018310547 45.354000091552734,89.01899719238281 30.648000717163086,91.9489974975586 C27.66200065612793,92.572998046875 25.60099983215332,91.19300079345703 24.107999801635742,88.58499908447266 C19.06100082397461,79.43699645996094 22.18000030517578,54.71200180053711 20.687000274658203,47.6619987487793 C20.687000274658203,47.60499954223633 20.687000274658203,47.60499954223633 20.687000274658203,47.60499954223633 C20.55500030517578,47.03799819946289 20.44099998474121,46.54600143432617 20.19499969482422,46.224998474121094 C20.19499969482422,46.224998474121094 16.642000198364258,68.4729995727539 11.348999977111816,84.35099792480469 C10.53600025177002,86.5999984741211 9.722999572753906,88.83000183105469 8.854000091552734,90.75800323486328 C7.284999847412109,94.36799621582031 5.622000217437744,97.16600036621094 3.940000057220459,98.6780014038086 C3.750999927520752,98.86699676513672 3.562000036239624,99.03700256347656 3.430000066757202,99.09400177001953 C2.559999942779541,99.79299926757812 1.690000057220459,100.09600067138672 0.8209999799728394,99.96399688720703 C-9.763999938964844,98.90599822998047 -19.479999542236328,38.62699890136719 -19.479999542236328,38.62699890136719 C-19.479999542236328,38.62699890136719 -21.104999542236328,46.981998443603516 -22.277000427246094,56.696998596191406 C-23.410999298095703,65.78900146484375 -24.090999603271484,76.0530014038086 -22.8439998626709,81.85600280761719 C-20.916000366210938,90.6449966430664 -24.715999603271484,94.31199645996094 -29.138999938964844,94.06600189208984 C-30.820999145507812,94.06600189208984 -32.560001373291016,93.44200134277344 -34.18600082397461,92.38400268554688 C-37.30500030517578,90.26699829101562 -42.95600128173828,81.98799896240234 -47.51100158691406,68.4729995727539 C-51.42399978637695,56.88600158691406 -54.486000061035156,41.44300079345703 -54.22100067138672,22.825000762939453 C-54.20199966430664,19.895000457763672 -54.20199966430664,17.211000442504883 -54.25899887084961,14.715999603271484 C-54.40999984741211,8.175999641418457 -54.845001220703125,2.9779999256134033 -55.487998962402344,-1.2940000295639038 C-55.827999114990234,-3.5999999046325684 -56.24399948120117,-5.623000144958496 -56.67900085449219,-7.455999851226807 C-55.50699996948242,-3.8459999561309814 -54.013999938964844,-0.36800000071525574 -51.87799835205078,2.750999927520752 C-48.21099853515625,8.062999725341797 -42.180999755859375,12.220999717712402 -35.73500061035156,11.843000411987305 C-28.003999710083008,11.388999938964844 -20.802000045776367,4.697999954223633 -13.392999649047852,6.947000026702881 C-5.794000148773193,9.272000312805176 -2.50600004196167,20.009000778198242 5.414000034332275,20.858999252319336 C10.10200023651123,21.368999481201172 14.241999626159668,18.042999267578125 17.871000289916992,15.036999702453613 C21.518999099731445,12.012999534606934 25.941999435424805,8.930999755859375 30.554000854492188,9.970999717712402 C35.54399871826172,11.104999542236328 39.077999114990234,16.851999282836914 44.20100021362305,16.474000930786133 C47.96200180053711,16.19099998474121 49.915000915527344,12.416000366210938 50.821998596191406,8.729999542236328 C51.709999084472656,5.044000148773193 52.12099838256836,1.2580000162124634 52.80099868774414,-2.4660000801086426 C53.084999084472656,-3.9779999256134033 53.595001220703125,-5.508999824523926 54.388999938964844,-6.85099983215332z"></path></g><g opacity="1" transform="matrix(1,0,0,1,0,0)"><g opacity="1" transform="matrix(1,0,0,1,0,0)"><path fill="rgb(222,223,251)" fill-opacity="1" d=" M35.310001373291016,-90.7229995727539 C35.310001373291016,-90.7229995727539 31.062000274658203,-88.36799621582031 31.062000274658203,-88.36799621582031 C25.97800064086914,-87.0999984741211 18.740999221801758,-79.00499725341797 18.740999221801758,-79.00499725341797 C18.740999221801758,-79.00499725341797 15.343000411987305,-78.51000213623047 7.315000057220459,-80.28600311279297 C-0.7179999947547913,-82.06199645996094 -15.937999725341797,-75.05400085449219 -15.937999725341797,-75.05400085449219 C-15.937999725341797,-75.05400085449219 -17.05699920654297,-75.90799713134766 -21.30900001525879,-80.16000366210938 C-25.56100082397461,-84.41200256347656 -31.37299919128418,-84.53800201416016 -30.488000869750977,-87.65299987792969 C-30.388999938964844,-88.00399780273438 -30.191999435424805,-88.35399627685547 -29.922000885009766,-88.69599914550781 C-29.91699981689453,-88.69400024414062 -29.91200065612793,-88.69200134277344 -29.906999588012695,-88.69000244140625 C-29.038999557495117,-88.33799743652344 -28.049999237060547,-88.5 -27.347000122070312,-89.11900329589844 C-26.099000930786133,-90.21700286865234 -23.884000778198242,-92.04299926757812 -21.070999145507812,-93.84300231933594 C-21.070999145507812,-93.84300231933594 -21.066999435424805,-93.8479995727539 -21.062000274658203,-93.84300231933594 C-21.05699920654297,-93.8479995727539 -21.058000564575195,-93.84700012207031 -21.05299949645996,-93.84700012207031 C-22.68000030517578,-91.94100189208984 -23.336000442504883,-88.8759994506836 -21.655000686645508,-87.01499938964844 C-20.202999114990234,-85.41000366210938 -17.60099983215332,-85.15799713134766 -16.33300018310547,-83.40499877929688 C-15.631999969482422,-82.43399810791016 -15.439000129699707,-81.10800170898438 -14.531000137329102,-80.32599639892578 C-13.060999870300293,-79.04900360107422 -10.817999839782715,-79.9489974975586 -9.04699993133545,-80.75800323486328 C-3.0280001163482666,-83.50399780273438 3.7279999256134033,-84.60600280761719 10.309000015258789,-83.90899658203125 C12.642000198364258,-83.66200256347656 15.253000259399414,-83.26599884033203 17.11400032043457,-84.69999694824219 C19.17300033569336,-86.28700256347656 19.226999282836914,-89.5719985961914 17.83799934387207,-91.7750015258789 C16.452999114990234,-93.9729995727539 14.026000022888184,-95.28600311279297 11.607999801635742,-96.24800109863281 C10.246000289916992,-96.79199981689453 8.847999572753906,-97.25900268554688 7.499000072479248,-97.82499694824219 C13.97599983215332,-96.30599975585938 18.485000610351562,-93.79299926757812 21.44700050354004,-91.55899810791016 C24.781999588012695,-89.04199981689453 27.753999710083008,-88.69599914550781 31.66900062561035,-90.12100219726562 C31.708999633789062,-90.13500213623047 31.72800064086914,-90.14299774169922 31.72800064086914,-90.14299774169922 C32.689998626708984,-90.49800109863281 33.74100112915039,-90.84400177001953 34.8650016784668,-91.177001953125 C35.018001556396484,-91.03299713134766 35.16600036621094,-90.87999725341797 35.310001373291016,-90.7229995727539z"></path></g></g><g opacity="1" transform="matrix(1,0,0,1,0,0)"><path fill="rgb(233,231,252)" fill-opacity="1" d=" M-14.03600025177002,-75.08699798583984 C-14.03600025177002,-75.08699798583984 -14.697999954223633,-74.23699951171875 -14.697999954223633,-74.23699951171875 C-14.697999954223633,-74.23699951171875 -19.479999542236328,-76.65599822998047 -22.523000717163086,-79.6989974975586 C-27.17300033569336,-84.36799621582031 -37.757999420166016,-88.2239990234375 -46.13199996948242,-85.87999725341797 C-53.72999954223633,-83.76300048828125 -68.39800262451172,-70.72000122070312 -62.821998596191406,-42.29199981689453 C-62.255001068115234,-39.2869987487793 -61.44300079345703,-36.11199951171875 -60.3650016784668,-32.74700164794922 C-60.233001708984375,-32.349998474121094 -60.10100173950195,-31.952999114990234 -59.98699951171875,-31.555999755859375 C-53.23899841308594,-10.555999755859375 -52.04800033569336,-7.5320000648498535 -52.53900146484375,1.7300000190734863 C-52.821998596191406,6.796000003814697 -53.597999572753906,13.694999694824219 -54.22100067138672,26.416000366210938 C-54.2400016784668,26.434999465942383 -54.2400016784668,26.45400047302246 -54.22100067138672,26.472999572753906 C-54.297000885009766,27.70199966430664 -54.090999603271484,28.98699951171875 -54.14799880981445,30.32900047302246 C-54.24300003051758,27.891000747680664 -54.25899887084961,25.37700080871582 -54.22100067138672,22.825000762939453 C-53.72999954223633,-16.038000106811523 -62.198001861572266,-15.734999656677246 -66.31900024414062,-32.74700164794922 C-66.47000122070312,-33.38999938964844 -66.62200164794922,-34.06999969482422 -66.77300262451172,-34.78799819946289 C-67.28299713134766,-37.28300094604492 -67.86900329589844,-40.30699920654297 -68.36000061035156,-43.63399887084961 C-70.7979965209961,-60.02199935913086 -71.44100189208984,-83.93399810791016 -54.297000885009766,-90.43599700927734 C-47.152000427246094,-93.15799713134766 -40.80099868774414,-93.13899993896484 -29.969999313354492,-88.71600341796875 C-29.93199920654297,-88.6969985961914 -29.895000457763672,-88.6969985961914 -29.875999450683594,-88.6780014038086 C-29.422000885009766,-88.48899841308594 -28.950000762939453,-88.30000305175781 -28.476999282836914,-88.09200286865234 C-28.476999282836914,-88.09200286865234 -21.35099983215332,-83.06400299072266 -17.910999298095703,-78.77300262451172 C-16.58799934387207,-77.12899780273438 -15.265000343322754,-75.93699645996094 -14.03600025177002,-75.08699798583984z"></path></g><g opacity="1" transform="matrix(1,0,0,1,0,0)"><path fill="rgb(233,231,252)" fill-opacity="1" d=" M67.79100036621094,-48.6619987487793 C66.88400268554688,-42.027000427246094 65.20099639892578,-35.242000579833984 62.724998474121094,-28.683000564575195 C61.9119987487793,-26.43400001525879 60.986000061035156,-24.260000228881836 59.98400115966797,-22.086000442504883 C59.36000061035156,-20.76300048828125 58.755001068115234,-19.402000427246094 58.244998931884766,-18.097999572753906 C57.62099838256836,-16.604999542236328 56.97800064086914,-15.092000007629395 56.35499954223633,-13.560999870300293 C55.42900085449219,-11.255000114440918 54.577999114990234,-8.930999755859375 54.04899978637695,-6.567999839782715 C53.992000579833984,-6.341000080108643 53.93600082397461,-6.132999897003174 53.87900161743164,-5.906000137329102 C53.02899932861328,-2.5789999961853027 52.5369987487793,0.8230000138282776 52.367000579833984,4.263000011444092 C52.178001403808594,7.192999839782715 52.176998138427734,10.368000030517578 52.42300033569336,13.656999588012695 C52.42300033569336,14.979999542236328 52.555999755859375,16.28499984741211 52.744998931884766,17.645999908447266 C53.481998443603516,23.71299934387207 52.612998962402344,35.167999267578125 50.43899917602539,47.303001403808594 C50.79800033569336,44.61899948120117 52.25299835205078,31.084999084472656 48.52899932861328,13.940999984741211 C48.47200012207031,13.638999938964844 48.41600036621094,13.354999542236328 48.340999603271484,13.053000450134277 C42.68899917602539,-12.029999732971191 53.084999084472656,-28.607999801635742 58.244998931884766,-42.084999084472656 C58.50899887084961,-42.803001403808594 58.77399826049805,-43.558998107910156 59.02000045776367,-44.33399963378906 C60.22999954223633,-48.22800064086914 61.02399826049805,-52.915000915527344 61.28799819946289,-57.75400161743164 C61.9119987487793,-70.30500030517578 58.832000732421875,-83.8949966430664 49.45600128173828,-87.43000030517578 C33.01100158691406,-93.64900207519531 17.945999145507812,-78.13099670410156 17.945999145507812,-78.13099670410156 C17.945999145507812,-78.13099670410156 17.625,-78.77300262451172 17.625,-78.77300262451172 C19.91200065612793,-82.17500305175781 22.974000930786133,-84.8219985961914 25.638999938964844,-86.67400360107422 C25.695999145507812,-86.71199798583984 25.733999252319336,-86.73100280761719 25.77199935913086,-86.75 C28.777000427246094,-88.8290023803711 31.253000259399414,-89.94400024414062 31.66900062561035,-90.11399841308594 C31.707000732421875,-90.13300323486328 31.72599983215332,-90.1520004272461 31.72599983215332,-90.1520004272461 C39.249000549316406,-92.91200256347656 52.895999908447266,-95.48300170898438 60.04100036621094,-89.4530029296875 C61.2130012512207,-88.47000122070312 62.233001708984375,-87.22200012207031 63.10300064086914,-85.72899627685547 C66.37300109863281,-80.11499786376953 68.24500274658203,-72.19599914550781 68.56600189208984,-63.27399826049805 C68.73600006103516,-58.624000549316406 68.48999786376953,-53.689998626708984 67.79100036621094,-48.6619987487793z"></path></g><g opacity="1" transform="matrix(1,0,0,1,0,0)"><path fill="rgb(255,255,255)" fill-opacity="1" d=" M0.8299999833106995,100 C-9.791999816894531,98.9469985961914 -19.492000579833984,38.64099884033203 -19.492000579833984,38.64099884033203 C-19.492000579833984,38.64099884033203 -21.115999221801758,46.979000091552734 -22.301000595092773,56.722999572753906 C-23.047000885009766,54.22100067138672 -23.792999267578125,51.763999938964844 -24.58300018310547,49.305999755859375 C-26.163000106811523,44.21500015258789 -28.79599952697754,38.816001892089844 -28.48900032043457,33.374000549316406 C-28.270000457763672,29.599000930786133 -31.64900016784668,28.018999099731445 -30.552000045776367,24.507999420166016 C-30.507999420166016,24.420000076293945 -30.46500015258789,24.37700080871582 -30.46500015258789,24.288999557495117 C-27.349000930786133,14.194000244140625 -15.194000244140625,14.565999984741211 -11.331999778747559,24.354000091552734 C-11.244000434875488,24.573999404907227 -11.072999954223633,24.777000427246094 -11.069000244140625,25.01300048828125 C-10.883000373840332,35.47100067138672 -10.829999923706055,91.03399658203125 0.8299999833106995,100z"></path></g><g opacity="1" transform="matrix(1,0,0,1,0,0)"><path fill="rgb(255,185,97)" fill-opacity="1" d=" M-22.472000122070312,58.347999572753906 C-23.481000900268555,66.99400329589844 -24.052000045776367,76.43000030517578 -22.822999954223633,81.87300109863281 C-20.892000198364258,90.60700225830078 -24.709999084472656,94.29399871826172 -29.14299964904785,94.0739974975586 C-39.0620002746582,75.33300018310547 -37.56999969482422,37.5 -31.645000457763672,25.868999481201172 C-30.591999053955078,23.718000411987305 -29.363000869750977,22.44499969482422 -28.00200080871582,22.35700035095215 C-18.69700050354004,21.698999404907227 -19.48699951171875,38.64099884033203 -19.48699951171875,38.64099884033203 C-19.48699951171875,38.64099884033203 -21.28700065612793,47.94499969482422 -22.472000122070312,58.347999572753906z"></path></g><g opacity="1" transform="matrix(1,0,0,1,0,0)"><path fill="rgb(243,162,80)" fill-opacity="1" d=" M-19.48699951171875,38.64099884033203 C-19.48699951171875,38.64099884033203 -21.28700065612793,47.94499969482422 -22.472000122070312,58.347999572753906 C-22.69099998474121,58.30400085449219 -22.910999298095703,58.215999603271484 -23.042999267578125,58.040000915527344 C-23.261999130249023,57.733001708984375 -23.218000411987305,57.25 -23.173999786376953,56.85499954223633 C-22.208999633789062,49.744998931884766 -22.82200050354004,42.415000915527344 -25.017000198364258,35.56800079345703 C-25.80699920654297,32.935001373291016 -26.905000686645508,30.344999313354492 -28.79199981689453,28.281999588012695 C-29.582000732421875,27.360000610351562 -30.63599967956543,26.614999771118164 -31.645000457763672,25.868999481201172 C-30.591999053955078,23.718000411987305 -29.363000869750977,22.44499969482422 -28.00200080871582,22.35700035095215 C-18.69700050354004,21.698999404907227 -19.48699951171875,38.64099884033203 -19.48699951171875,38.64099884033203z"></path></g><g opacity="1" transform="matrix(1,0,0,1,0,0)"><path fill="rgb(255,255,255)" fill-opacity="1" d=" M30.631000518798828,21.874000549316406 C27.95400047302246,25.429000854492188 25.275999069213867,29.07200050354004 23.784000396728516,33.2859992980957 C22.51099967956543,36.840999603271484 22.15999984741211,40.702999114990234 21.413999557495117,44.433998107910156 C21.194000244140625,45.48699951171875 20.930999755859375,46.54100036621094 20.667999267578125,47.59400177001953 C20.535999298095703,47.02299880981445 20.40399932861328,46.54100036621094 20.184999465942383,46.23400115966797 C20.184999465942383,46.23400115966797 16.6299991607666,68.48699951171875 11.319000244140625,84.33100128173828 C11.144000053405762,84.46299743652344 10.968999862670898,84.59400177001953 10.793000221252441,84.68199920654297 C12.899999618530273,67.03800201416016 15.532999992370605,49.4379997253418 18.7810001373291,31.969999313354492 C19.614999771118164,27.361000061035156 20.711999893188477,22.400999069213867 24.31100082397461,19.371999740600586 C25.145000457763672,18.625999450683594 26.197999954223633,18.011999130249023 27.339000701904297,17.968000411987305 C28.479999542236328,17.924999237060547 29.709999084472656,18.58300018310547 30.017000198364258,19.68000030517578 C30.017000198364258,19.68000030517578 30.631000518798828,21.874000549316406 30.631000518798828,21.874000549316406z"></path></g><g opacity="1" transform="matrix(1,0,0,1,0,0)"><path fill="rgb(255,185,97)" fill-opacity="1" d=" M24.139999389648438,88.58799743652344 C20.101999282836914,81.34600067138672 21.243000030517578,64.36100006103516 21.155000686645508,54.090999603271484 C21.111000061035156,50.27199935913086 20.892000198364258,47.375 20.190000534057617,46.23400115966797 C20.190000534057617,46.23400115966797 22.822999954223633,22.533000946044922 29.451000213623047,19.459999084472656 C30.98699951171875,18.757999420166016 32.30400085449219,20.996999740600586 33.26900100708008,25.166000366210938 C36.16600036621094,38.06999969482422 35.20100021362305,69.4520034790039 24.139999389648438,88.58799743652344z"></path></g><g opacity="1" transform="matrix(1,0,0,1,0,0)"><path fill="rgb(243,162,80)" fill-opacity="1" d=" M33.26900100708008,25.166000366210938 C33.137001037597656,25.64900016784668 32.917999267578125,26.131999969482422 32.611000061035156,26.527000427246094 C31.732999801635742,27.711999893188477 30.416000366210938,28.23900032043457 29.319000244140625,29.02899932861328 C27.38800048828125,30.433000564575195 25.983999252319336,32.803001403808594 25.062000274658203,35.3489990234375 C24.097000122070312,37.89400100708008 23.613000869750977,40.65999984741211 23.086000442504883,43.42499923706055 C22.42799949645996,46.93600082397461 21.155000686645508,54.047000885009766 21.155000686645508,54.090999603271484 C21.111000061035156,50.27199935913086 20.892000198364258,47.375 20.190000534057617,46.23400115966797 C20.190000534057617,46.23400115966797 22.822999954223633,22.533000946044922 29.451000213623047,19.459999084472656 C30.98699951171875,18.757999420166016 32.30400085449219,20.996999740600586 33.26900100708008,25.166000366210938z"></path></g><g opacity="1" transform="matrix(1,0,0,1,0,0)"><g opacity="1" transform="matrix(1,0,0,1,0,0)"><path fill="rgb(255,255,255)" fill-opacity="1" d=" M10.66100025177002,-93.47000122070312 C10.572999954223633,-92.5479965209961 9.432000160217285,-92.3290023803711 8.597999572753906,-92.3290023803711 C4.604000091552734,-92.3290023803711 0.6539999842643738,-93.68900299072266 -3.2960000038146973,-93.55799865722656 C-7.334000110626221,-93.47000122070312 -11.0649995803833,-91.84600067138672 -14.48900032043457,-89.91500091552734 C-15.366999626159668,-89.38800048828125 -16.332000732421875,-88.90599822998047 -17.340999603271484,-88.7300033569336 C-18.393999099731445,-88.55400085449219 -19.62299919128418,-88.9489974975586 -20.062000274658203,-89.78299713134766 C-20.325000762939453,-90.39800262451172 -20.238000869750977,-91.0999984741211 -19.930999755859375,-91.6709976196289 C-19.624000549316406,-92.28600311279297 -19.097000122070312,-92.7239990234375 -18.56999969482422,-93.16300201416016 C-16.41900062561035,-94.96299743652344 -13.829999923706055,-96.23500061035156 -11.020999908447266,-96.98100280761719 C-7.861000061035156,-97.81500244140625 -4.2179999351501465,-98.25399780273438 -0.9700000286102295,-97.9469985961914 C0.6100000143051147,-97.77100372314453 2.760999917984009,-97.59600067138672 4.385000228881836,-97.24500274658203 C6.271999835968018,-96.80599975585938 7.808000087738037,-96.49800109863281 9.255999565124512,-95.53299713134766 C9.913999557495117,-95.09400177001953 10.74899959564209,-94.21600341796875 10.66100025177002,-93.47000122070312z"></path></g></g><g opacity="1" transform="matrix(1,0,0,1,0,0)"><g opacity="1" transform="matrix(1,0,0,1,0,0)"><path fill="rgb(255,255,255)" fill-opacity="1" d=" M-34.91400146484375,-85.27300262451172 C-34.08399963378906,-83.38200378417969 -35.06399917602539,-82.34100341796875 -35.941001892089844,-81.90299987792969 C-40.14099884033203,-79.8030014038086 -45.65700149536133,-80.44999694824219 -49.67900085449219,-78.11000061035156 C-53.83700180053711,-75.81099700927734 -56.13399887084961,-70.59700012207031 -57.80099868774414,-64.93099975585938 C-58.196998596191406,-63.415000915527344 -58.729000091552734,-61.941001892089844 -59.6150016784668,-61.05799865722656 C-60.547000885009766,-60.152000427246094 -62.23400115966797,-60.29800033569336 -63.529998779296875,-61.736000061035156 C-64.4219970703125,-62.827999114990234 -65.03399658203125,-64.28099822998047 -65.28199768066406,-65.58499908447266 C-65.5739974975586,-66.97699737548828 -65.45899963378906,-68.13200378417969 -65.34400177001953,-69.28800201416016 C-64.88400268554688,-74.02200317382812 -63.435001373291016,-77.93099975585938 -61.22800064086914,-80.9020004272461 C-58.7400016784668,-84.23400115966797 -55.3489990234375,-87.02799987792969 -51.625999450683594,-88.12100219726562 C-49.78900146484375,-88.5999984741211 -47.35100173950195,-89.37899780273438 -45.29199981689453,-89.52999877929688 C-42.86800003051758,-89.64399719238281 -40.94599914550781,-89.83599853515625 -38.45600128173828,-88.66400146484375 C-37.32400131225586,-88.13099670410156 -35.56800079345703,-86.81199645996094 -34.91400146484375,-85.27300262451172z"></path></g></g><g opacity="1" transform="matrix(1,0,0,1,0,0)"><g opacity="1" transform="matrix(1,0,0,1,0,0)"><path fill="rgb(255,255,255)" fill-opacity="1" d=" M21.360000610351562,-67.64700317382812 C21.124000549316406,-66.16400146484375 19.93000030517578,-65.9229965209961 19.08300018310547,-66.00599670410156 C15.027999877929688,-66.40499877929688 11.234000205993652,-69.00199890136719 7.203000068664551,-69.18399810791016 C3.0889999866485596,-69.44499969482422 -0.9570000171661377,-67.19000244140625 -4.741000175476074,-64.40699768066406 C-5.716000080108643,-63.641998291015625 -6.77400016784668,-62.95800018310547 -7.827000141143799,-62.77399826049805 C-8.923999786376953,-62.595001220703125 -10.109000205993652,-63.358001708984375 -10.42199993133545,-64.7509994506836 C-10.590999603271484,-65.77200317382812 -10.390000343322754,-66.9000015258789 -9.987000465393066,-67.79299926757812 C-9.57699966430664,-68.75700378417969 -8.972999572753906,-69.41300201416016 -8.368000030517578,-70.07099914550781 C-5.896999835968018,-72.76899719238281 -3.065999984741211,-74.56900024414062 -0.0949999988079071,-75.49600219726562 C3.246000051498413,-76.52999877929688 7.014999866485596,-76.87699890136719 10.263999938964844,-76.05500030517578 C11.84000015258789,-75.61299896240234 13.996000289916992,-75.11299896240234 15.58899974822998,-74.38300323486328 C17.434999465942383,-73.48400115966797 18.94499969482422,-72.83300018310547 20.261999130249023,-71.1259994506836 C20.861000061035156,-70.3489990234375 21.56800079345703,-68.84500122070312 21.360000610351562,-67.64700317382812z"></path></g></g><g opacity="1" transform="matrix(1,0,0,1,0,0)"><g opacity="1" transform="matrix(1,0,0,1,0,0)"><path fill="rgb(255,255,255)" fill-opacity="1" d=" M56.46200180053711,-89.4000015258789 C56.63199996948242,-88.2509994506836 51.0880012512207,-89.5479965209961 42.50400161743164,-88.2750015258789 C33.91999816894531,-87.00199890136719 30.69300079345703,-85.29100036621094 30.523000717163086,-86.44000244140625 C30.357999801635742,-87.55000305175781 33.1619987487793,-90.51300048828125 41.74599838256836,-91.78600311279297 C50.33000183105469,-93.05899810791016 56.297000885009766,-90.51000213623047 56.46200180053711,-89.4000015258789z"></path></g></g><g opacity="1" transform="matrix(1,0,0,1,0,0)"><g opacity="1" transform="matrix(1,0,0,1,0,0)"><path fill="rgb(255,255,255)" fill-opacity="1" d=" M64.49199676513672,-51.66899871826172 C62.31999969482422,-32.974998474121094 56.60100173950195,-26.204999923706055 54.46099853515625,-26.45400047302246 C52.27799987792969,-26.70800018310547 56.750999450683594,-33.814998626708984 58.92300033569336,-52.50899887084961 C61.09600067138672,-71.2040023803711 58.33399963378906,-78.81900024414062 60.516998291015625,-78.56500244140625 C62.65700149536133,-78.31600189208984 66.66500091552734,-70.36399841308594 64.49199676513672,-51.66899871826172z"></path></g></g><g opacity="1" transform="matrix(1,0,0,1,0,0)"><g opacity="1" transform="matrix(1,0,0,1,0,0)"><g opacity="1" transform="matrix(1,0,0,1,0,0)"><path fill="rgb(210,206,231)" fill-opacity="1" d=" M39.00899887084961,-71.2959976196289 C29.753999710083008,-71.947998046875 21.304000854492188,-76.73899841308594 12.32699966430664,-78.47000122070312 C6.370999813079834,-79.76899719238281 0.8600000143051147,-78.99099731445312 -4.861999988555908,-76.84700012207031 C-10.678999900817871,-74.81999969482422 -16.70599937438965,-71.9749984741211 -23.125,-72.33899688720703 C-26.308000564575195,-72.55899810791016 -29.540000915527344,-73.60600280761719 -31.832000732421875,-75.8759994506836 C-23.174999237060547,-71.03500366210938 -14.229999542236328,-76.802001953125 -6.058000087738037,-80.03399658203125 C-3.072999954223633,-81.2300033569336 0.052000001072883606,-82.20099639892578 3.296999931335449,-82.55599975585938 C9.76099967956543,-83.24400329589844 16.232999801635742,-81.23500061035156 22.035999298095703,-78.677001953125 C27.76300048828125,-76.15499877929688 33.08000183105469,-73.2020034790039 39.00899887084961,-71.2959976196289z"></path></g></g></g><g opacity="1" transform="matrix(1,0,0,1,0,0)"><path fill="rgb(255,212,117)" fill-opacity="1" d=" M-56.67900085449219,-7.455999851226807 C-55.638999938964844,-4.223999977111816 -54.334999084472656,-1.1239999532699585 -52.53900146484375,1.7300000190734863 C-52.821998596191406,6.796000003814697 -53.597999572753906,13.694999694824219 -54.22100067138672,26.416000366210938 C-54.2400016784668,25.243999481201172 -54.2400016784668,24.03499984741211 -54.22100067138672,22.825000762939453 C-54.20199966430664,19.895000457763672 -54.20199966430664,17.211000442504883 -54.25899887084961,14.715999603271484 C-54.40999984741211,8.175999641418457 -54.845001220703125,2.9779999256134033 -55.487998962402344,-1.2940000295639038 C-55.827999114990234,-3.5999999046325684 -56.24399948120117,-5.623000144958496 -56.67900085449219,-7.455999851226807z"></path></g><g opacity="1" transform="matrix(1,0,0,1,0,0)"><path fill="rgb(255,212,117)" fill-opacity="1" d=" M52.744998931884766,17.645999908447266 C53.481998443603516,23.71299934387207 52.612998962402344,35.167999267578125 50.43899917602539,47.303001403808594 C50.79800033569336,44.61899948120117 52.25299835205078,31.084999084472656 48.52899932861328,13.940999984741211 C49.625,12.486000061035156 50.362998962402344,10.595999717712402 50.81700134277344,8.723999977111816 C51.70500183105469,5.038000106811523 52.12099838256836,1.2580000162124634 52.80099868774414,-2.4660000801086426 C53.02799987792969,-3.638000011444092 53.36899948120117,-4.809999942779541 53.87900161743164,-5.906000137329102 C53.02899932861328,-2.5789999961853027 52.5369987487793,0.8230000138282776 52.367000579833984,4.263000011444092 C52.178001403808594,7.192999839782715 52.176998138427734,10.368000030517578 52.42300033569336,13.656999588012695 C52.42300033569336,14.979999542236328 52.555999755859375,16.28499984741211 52.744998931884766,17.645999908447266z"></path></g><g opacity="1" transform="matrix(1,0,0,1,0,0)"><path fill="rgb(255,212,117)" fill-opacity="1" d=" M-42.05799865722656,18.277999877929688 C-42.05799865722656,20.68199920654297 -44.005001068115234,22.6299991607666 -46.39400100708008,22.6299991607666 C-48.79800033569336,22.6299991607666 -50.74599838256836,20.68199920654297 -50.74599838256836,18.277999877929688 C-50.74599838256836,15.87399959564209 -48.79800033569336,13.927000045776367 -46.39400100708008,13.927000045776367 C-44.005001068115234,13.927000045776367 -42.05799865722656,15.87399959564209 -42.05799865722656,18.277999877929688z"></path></g><g opacity="1" transform="matrix(1,0,0,1,0,0)"><path fill="rgb(255,212,117)" fill-opacity="1" d=" M1.5399999618530273,29.570999145507812 C1.5399999618530273,31.975000381469727 -0.40700000524520874,33.92300033569336 -2.7960000038146973,33.92300033569336 C-5.199999809265137,33.92300033569336 -7.1479997634887695,31.975000381469727 -7.1479997634887695,29.570999145507812 C-7.1479997634887695,27.16699981689453 -5.199999809265137,25.219999313354492 -2.7960000038146973,25.219999313354492 C-0.40700000524520874,25.219999313354492 1.5399999618530273,27.16699981689453 1.5399999618530273,29.570999145507812z"></path></g><g opacity="1" transform="matrix(1,0,0,1,0,0)"><path fill="rgb(255,212,117)" fill-opacity="1" d=" M11.430000305175781,26.416000366210938 C11.430000305175781,28.21299934387207 9.973999977111816,29.670000076293945 8.187999725341797,29.670000076293945 C6.390999794006348,29.670000076293945 4.934000015258789,28.21299934387207 4.934000015258789,26.416000366210938 C4.934000015258789,24.618999481201172 6.390999794006348,23.163000106811523 8.187999725341797,23.163000106811523 C9.973999977111816,23.163000106811523 11.430000305175781,24.618999481201172 11.430000305175781,26.416000366210938z"></path></g><g opacity="1" transform="matrix(1,0,0,1,0,0)"><path fill="rgb(255,212,117)" fill-opacity="1" d=" M43.762001037597656,22.6299991607666 C43.762001037597656,24.427000045776367 42.305999755859375,25.882999420166016 40.52000045776367,25.882999420166016 C38.722999572753906,25.882999420166016 37.26599884033203,24.427000045776367 37.26599884033203,22.6299991607666 C37.26599884033203,20.83300018310547 38.722999572753906,19.375999450683594 40.52000045776367,19.375999450683594 C42.305999755859375,19.375999450683594 43.762001037597656,20.83300018310547 43.762001037597656,22.6299991607666z"></path></g><g opacity="1" transform="matrix(1,0,0,1,0,0)"><path fill="rgb(255,212,117)" fill-opacity="1" d=" M-36.68199920654297,25.219999313354492 C-36.68199920654297,26.650999069213867 -37.840999603271484,27.809999465942383 -39.26300048828125,27.809999465942383 C-40.694000244140625,27.809999465942383 -41.85300064086914,26.650999069213867 -41.85300064086914,25.219999313354492 C-41.85300064086914,23.788999557495117 -40.694000244140625,22.6299991607666 -39.26300048828125,22.6299991607666 C-37.840999603271484,22.6299991607666 -36.68199920654297,23.788999557495117 -36.68199920654297,25.219999313354492z"></path></g><g opacity="1" transform="matrix(1,0,0,1,0,0)"><path fill="rgb(255,212,117)" fill-opacity="1" d=" M-4.0929999351501465,19.924999237060547 C-4.0929999351501465,21.614999771118164 -5.461999893188477,22.985000610351562 -7.142000198364258,22.985000610351562 C-8.831999778747559,22.985000610351562 -10.20199966430664,21.614999771118164 -10.20199966430664,19.924999237060547 C-10.20199966430664,18.235000610351562 -8.831999778747559,16.864999771118164 -7.142000198364258,16.864999771118164 C-5.461999893188477,16.864999771118164 -4.0929999351501465,18.235000610351562 -4.0929999351501465,19.924999237060547z"></path></g><g opacity="1" transform="matrix(1,0,0,1,0,0)"><path fill="rgb(255,212,117)" fill-opacity="1" d=" M-10.713000297546387,13.927000045776367 C-10.713000297546387,15.357999801635742 -11.871999740600586,16.517000198364258 -13.293999671936035,16.517000198364258 C-14.725000381469727,16.517000198364258 -15.883999824523926,15.357999801635742 -15.883999824523926,13.927000045776367 C-15.883999824523926,12.496000289916992 -14.725000381469727,11.336999893188477 -13.293999671936035,11.336999893188477 C-11.871999740600586,11.336999893188477 -10.713000297546387,12.496000289916992 -10.713000297546387,13.927000045776367z"></path></g><g opacity="1" transform="matrix(1,0,0,1,0,0)"><path fill="rgb(255,212,117)" fill-opacity="1" d=" M-28.135000228881836,14.925999641418457 C-28.135000228881836,15.477999687194824 -28.582000732421875,15.925000190734863 -29.1299991607666,15.925000190734863 C-29.68199920654297,15.925000190734863 -30.128999710083008,15.477999687194824 -30.128999710083008,14.925999641418457 C-30.128999710083008,14.37399959564209 -29.68199920654297,13.927000045776367 -29.1299991607666,13.927000045776367 C-28.582000732421875,13.927000045776367 -28.135000228881836,14.37399959564209 -28.135000228881836,14.925999641418457z"></path></g><g opacity="1" transform="matrix(1,0,0,1,0,0)"><path fill="rgb(255,212,117)" fill-opacity="1" d=" M21.187000274658203,18.277999877929688 C21.187000274658203,18.829999923706055 20.739999771118164,19.277000427246094 20.191999435424805,19.277000427246094 C19.639999389648438,19.277000427246094 19.19300079345703,18.829999923706055 19.19300079345703,18.277999877929688 C19.19300079345703,17.72599983215332 19.639999389648438,17.27899932861328 20.191999435424805,17.27899932861328 C20.739999771118164,17.27899932861328 21.187000274658203,17.72599983215332 21.187000274658203,18.277999877929688z"></path></g><g opacity="1" transform="matrix(1,0,0,1,0,0)"><path fill="rgb(255,212,117)" fill-opacity="1" d=" M36.040000915527344,17.531999588012695 C36.040000915527344,18.083999633789062 35.59299850463867,18.5310001373291 35.04499816894531,18.5310001373291 C34.49300003051758,18.5310001373291 34.04600143432617,18.083999633789062 34.04600143432617,17.531999588012695 C34.04600143432617,16.979999542236328 34.49300003051758,16.533000946044922 35.04499816894531,16.533000946044922 C35.59299850463867,16.533000946044922 36.040000915527344,16.979999542236328 36.040000915527344,17.531999588012695z"></path></g><g opacity="1" transform="matrix(1,0,0,1,0,0)"><path fill="rgb(255,212,117)" fill-opacity="1" d=" M-44.935001373291016,28.763999938964844 C-44.935001373291016,29.825000762939453 -45.79399871826172,30.684999465942383 -46.8489990234375,30.684999465942383 C-47.90999984741211,30.684999465942383 -48.77000045776367,29.825000762939453 -48.77000045776367,28.763999938964844 C-48.77000045776367,27.702999114990234 -47.90999984741211,26.843000411987305 -46.8489990234375,26.843000411987305 C-45.79399871826172,26.843000411987305 -44.935001373291016,27.702999114990234 -44.935001373291016,28.763999938964844z"></path></g><g opacity="1" transform="matrix(1,0,0,1,0,0)"><path fill="rgb(255,212,117)" fill-opacity="1" d=" M17.091999053955078,22.6299991607666 C17.091999053955078,23.69099998474121 16.232999801635742,24.551000595092773 15.178000450134277,24.551000595092773 C14.116999626159668,24.551000595092773 13.255999565124512,23.69099998474121 13.255999565124512,22.6299991607666 C13.255999565124512,21.569000244140625 14.116999626159668,20.708999633789062 15.178000450134277,20.708999633789062 C16.232999801635742,20.708999633789062 17.091999053955078,21.569000244140625 17.091999053955078,22.6299991607666z"></path></g><g opacity="1" transform="matrix(1,0,0,1,0,0)"><path fill="rgb(255,212,117)" fill-opacity="1" d=" M30.232999801635742,14.38599967956543 C30.232999801635742,15.446999549865723 29.374000549316406,16.308000564575195 28.319000244140625,16.308000564575195 C27.257999420166016,16.308000564575195 26.398000717163086,15.446999549865723 26.398000717163086,14.38599967956543 C26.398000717163086,13.324999809265137 27.257999420166016,12.46500015258789 28.319000244140625,12.46500015258789 C29.374000549316406,12.46500015258789 30.232999801635742,13.324999809265137 30.232999801635742,14.38599967956543z"></path></g><g opacity="1" transform="matrix(1,0,0,1,0,0)"><path fill="rgb(255,212,117)" fill-opacity="1" d=" M48.875,27.649999618530273 C48.875,28.711000442504883 48.01499938964844,29.570999145507812 46.959999084472656,29.570999145507812 C45.89899826049805,29.570999145507812 45.03900146484375,28.711000442504883 45.03900146484375,27.649999618530273 C45.03900146484375,26.589000701904297 45.89899826049805,25.729000091552734 46.959999084472656,25.729000091552734 C48.01499938964844,25.729000091552734 48.875,26.589000701904297 48.875,27.649999618530273z"></path></g><g opacity="1" transform="matrix(1,0,0,1,0,0)"><path fill="rgb(255,212,117)" fill-opacity="1" d=" M-32.016998291015625,19.33300018310547 C-32.016998291015625,20.393999099731445 -32.875999450683594,21.253999710083008 -33.930999755859375,21.253999710083008 C-34.992000579833984,21.253999710083008 -35.85200119018555,20.393999099731445 -35.85200119018555,19.33300018310547 C-35.85200119018555,18.27199935913086 -34.992000579833984,17.41200065612793 -33.930999755859375,17.41200065612793 C-32.875999450683594,17.41200065612793 -32.016998291015625,18.27199935913086 -32.016998291015625,19.33300018310547z"></path></g><g opacity="1" transform="matrix(1,0,0,1,0,0)"><path fill="rgb(255,212,117)" fill-opacity="1" d=" M-19.66900062561035,13.005000114440918 C-19.66900062561035,14.065999984741211 -20.527999877929688,14.925999641418457 -21.58300018310547,14.925999641418457 C-22.643999099731445,14.925999641418457 -23.503999710083008,14.065999984741211 -23.503999710083008,13.005000114440918 C-23.503999710083008,11.944000244140625 -22.643999099731445,11.083000183105469 -21.58300018310547,11.083000183105469 C-20.527999877929688,11.083000183105469 -19.66900062561035,11.944000244140625 -19.66900062561035,13.005000114440918z"></path></g></g><g opacity="1" transform="matrix(1,0,0,1,0,14.749541282653809)"><g opacity="1" transform="matrix(1,0,0,1,0,0)"><path fill="rgb(87,179,254)" fill-opacity="1" d=" M80.37999725341797,-65.5199966430664 C77.5999984741211,-56.880001068115234 70.61000061035156,-51.7599983215332 62.709999084472656,-48 C62.709999084472656,-48 62.689998626708984,-48 62.689998626708984,-48 C60.119998931884766,-46.77000045776367 57.43000030517578,-45.689998626708984 54.77000045776367,-44.689998626708984 C51.119998931884766,-43.33000183105469 47.5099983215332,-42.08000183105469 44.2400016784668,-40.81999969482422 C12.819999694824219,-30.25 -21.049999237060547,-27.780000686645508 -53.75,-32.61000061035156 C-54.689998626708984,-32.79999923706055 -55.63999938964844,-32.95000076293945 -56.58000183105469,-33.11000061035156 C-62.9900016784668,-34.11000061035156 -69.4800033569336,-34.689998626708984 -75.26000213623047,-38.459999084472656 C-79.77999877929688,-41.540000915527344 -81.73999786376953,-46.54999923706055 -80.97000122070312,-51.18000030517578 C-77.52400207519531,-52.20000076293945 -74.2979965209961,-52.0260009765625 -71.3499984741211,-50.34000015258789 C-72.29000091552734,-48.439998626708984 -70.69000244140625,-46.83000183105469 -68.66000366210938,-45.810001373291016 C-68.19000244140625,-45.58000183105469 -67.80999755859375,-45.43000030517578 -67.56999969482422,-45.349998474121094 C-67.48999786376953,-45.31999969482422 -67.4000015258789,-45.29999923706055 -67.31999969482422,-45.2599983215332 C-67.27999877929688,-45.2400016784668 -67.25,-45.2400016784668 -67.25,-45.2400016784668 C-32.709999084472656,-37.619998931884766 4.019999980926514,-40.5 37.810001373291016,-50.869998931884766 C41.25,-51.93000030517578 44.66999816894531,-53.06999969482422 48.060001373291016,-54.279998779296875 C48.7599983215332,-54.540000915527344 49.4900016784668,-54.81999969482422 50.25,-55.130001068115234 C56.150001525878906,-57.36000061035156 63.59000015258789,-60.13999938964844 67.37000274658203,-64.01000213623047 C70.2300033569336,-66.63999938964844 71.20999908447266,-70.0199966430664 70.73999786376953,-73.3499984741211 C74.1500015258789,-74.37000274658203 77.56999969482422,-74.29000091552734 81,-73.13999938964844 C81.29000091552734,-70.62999725341797 81.12000274658203,-68.06999969482422 80.37999725341797,-65.5199966430664z"></path></g><g opacity="1" transform="matrix(1,0,0,1,0,0)"><g opacity="1" transform="matrix(1,0,0,1,0,0)"><path fill="rgb(87,179,254)" fill-opacity="1" d=" M72.55400085449219,-24.69499969482422 C71.7979965209961,-19.704999923706055 69.22699737548828,-15.074000358581543 64.48300170898438,-11.803999900817871 C62.15800094604492,-10.329999923706055 59.606998443603516,-9.024999618530273 56.84700012207031,-7.872000217437744 C54.06800079345703,-9.687000274658203 53.840999603271484,-11.993000030517578 58.35900115966797,-14.904000282287598 C58.68000030517578,-15.112000465393066 58.983001708984375,-15.319000244140625 59.28499984741211,-15.508000373840332 C59.28499984741211,-15.527000427246094 59.30400085449219,-15.527000427246094 59.323001861572266,-15.545999526977539 C64.30899810791016,-16.98200035095215 66.56500244140625,-23.18899917602539 65.9000015258789,-24.69499969482422 C71.9280014038086,-29.566999435424805 69.73799896240234,-39.41899871826172 69.51100158691406,-40.005001068115234 C72.19499969482422,-35.279998779296875 73.3290023803711,-29.79800033569336 72.55400085449219,-24.69499969482422z"></path></g><g opacity="1" transform="matrix(1,0,0,1,0,0)"><path fill="rgb(87,179,254)" fill-opacity="1" d=" M72.55400085449219,-24.69499969482422 C71.7979965209961,-19.704999923706055 69.22699737548828,-15.074000358581543 64.48300170898438,-11.803999900817871 C62.15800094604492,-10.329999923706055 59.606998443603516,-9.024999618530273 56.84700012207031,-7.872000217437744 C35.99800109863281,0.9549999833106995 4.033999919891357,1.465999960899353 -15.925999641418457,-1.652999997138977 C-16.24799919128418,-1.7100000381469727 -16.474000930786133,-2.013000011444092 -16.43600082397461,-2.3340001106262207 C-16.378999710083008,-2.6549999713897705 -16.09600067138672,-2.881999969482422 -15.793999671936035,-2.86299991607666 C5.603000164031982,-1.5399999618530273 27.038000106811523,-4.053999900817871 47.26300048828125,-10.253999710083008 C51.611000061035156,-11.57699966430664 55.845001220703125,-13.182999610900879 59.28499984741211,-15.508000373840332 C59.28499984741211,-15.527000427246094 59.30400085449219,-15.527000427246094 59.323001861572266,-15.545999526977539 C59.83300018310547,-15.88599967956543 60.30500030517578,-16.246000289916992 60.75899887084961,-16.604999542236328 C63.68899917602539,-18.797000885009766 65.31400299072266,-21.632999420166016 65.9000015258789,-24.69499969482422 C65.9000015258789,-24.69499969482422 72.55400085449219,-24.69499969482422 72.55400085449219,-24.69499969482422z"></path></g></g></g></g><g transform="matrix(1,0,0,1,175,166.1502685546875)" opacity="1" style="display: block;"><g opacity="1" transform="matrix(1,0,0,1,0,0)"><path stroke-linecap="round" stroke-linejoin="round" fill-opacity="0" stroke="rgb(210,206,231)" stroke-opacity="1" stroke-width="2" d="M0 0"></path></g><g opacity="1" transform="matrix(1,0,0,1,0,0)"><path stroke-linecap="round" stroke-linejoin="round" fill-opacity="0" stroke="rgb(210,206,231)" stroke-opacity="1" stroke-width="2" d="M0 0"></path></g></g><g transform="matrix(0,0,0,0,145,116.15027618408203)" opacity="1" style="display: block;"><g opacity="1" transform="matrix(1,0,0,1,0,0)"><path fill="rgb(255,255,255)" fill-opacity="1" d=" M-31.819000244140625,-44.75299835205078 C-32.00699996948242,-45.83700180053711 -30.86400032043457,-46.573001861572266 -29.93899917602539,-45.96699905395508 C-18.562999725341797,-38.51499938964844 -17.82200050354004,-38.76499938964844 -28.94700050354004,-47.41899871826172 C-29.820999145507812,-48.0989990234375 -29.57200050354004,-49.46900177001953 -28.533000946044922,-49.678001403808594 C-1.468000054359436,-55.11399841308594 -1.8880000114440918,-56.30400085449219 -29.226999282836914,-52.902000427246094 C-30.283000946044922,-52.770999908447266 -31.06999969482422,-53.97700119018555 -30.525999069213867,-54.88600158691406 C-24.006000518798828,-65.77400207519531 -23.96299934387207,-67.04000091552734 -32.029998779296875,-55.94499969482422 C-32.650001525878906,-55.09199905395508 -34.01300048828125,-55.422000885009766 -34.2760009765625,-56.492000579833984 C-40.91999816894531,-83.5459976196289 -42.41600036621094,-84.86699676513672 -37.409000396728516,-55.9640007019043 C-37.22100067138672,-54.880001068115234 -38.36399841308594,-54.14400100708008 -39.28900146484375,-54.749000549316406 C-50.95800018310547,-62.39099884033203 -51.082000732421875,-61.665000915527344 -40.24700164794922,-53.30699920654297 C-39.36899948120117,-52.630001068115234 -39.6150016784668,-51.25299835205078 -40.65599822998047,-51.04399871826172 C-51.21699905395508,-48.917999267578125 -60.86000061035156,-46.77299880981445 -60.72200012207031,-46.11600112915039 C-60.57899856567383,-45.43299865722656 -50.696998596191406,-46.483001708984375 -39.96500015258789,-47.82099914550781 C-38.90999984741211,-47.952999114990234 -38.12300109863281,-46.74800109863281 -38.665000915527344,-45.8390007019043 C-45.553001403808594,-34.28099822998047 -44.79199981689453,-34.16999816894531 -37.20100021362305,-44.766998291015625 C-36.584999084472656,-45.62699890136719 -35.21500015258789,-45.30099868774414 -34.95100021362305,-44.22700119018555 C-32.27399826049805,-33.34199905395508 -29.624000549316406,-23.374000549316406 -28.986000061035156,-23.47800064086914 C-28.32200050354004,-23.586000442504883 -29.906999588012695,-33.73699951171875 -31.819000244140625,-44.75299835205078z"></path></g></g></g></svg>