<?xml version="1.0" encoding="UTF-8"?>
<svg id="Layer_1" data-name="Layer 1" xmlns="http://www.w3.org/2000/svg" viewBox="0 0 196.7 40">
  <defs>
    <style>
      .cls-1 {
        fill: #efbdd8;
      }

      .cls-2 {
        fill: #f1f1f1;
      }
    </style>
  </defs>
  <g>
    <g>
      <path class="cls-2" d="m56.04,21.48c0-3.11,2.37-5.56,5.56-5.56,1.76,0,3.23.76,4.03,1.7.21.25.34.55.34.8,0,.63-.48,1.07-1.13,1.07-.46,0-.69-.23-.99-.48-.52-.52-1.24-.94-2.25-.94-1.81,0-3.23,1.51-3.23,3.42s1.43,3.42,3.23,3.42c.96,0,1.72-.42,2.22-.94.29-.25.55-.52,1.01-.52.65,0,1.13.46,1.13,1.11,0,.23-.13.52-.34.76-.8.97-2.25,1.74-4.03,1.74-3.19,0-5.56-2.46-5.56-5.56Z"/>
      <path class="cls-2" d="m67.65,21.48c0-3.11,2.37-5.56,5.56-5.56s5.56,2.46,5.56,5.56-2.35,5.56-5.56,5.56-5.56-2.46-5.56-5.56Zm8.8,0c0-1.89-1.39-3.42-3.23-3.42s-3.23,1.53-3.23,3.42,1.39,3.42,3.23,3.42,3.23-1.55,3.23-3.42Z"/>
      <path class="cls-2" d="m81.02,20.81c0-3,2.08-4.89,4.72-4.89s4.72,1.89,4.72,4.89v5.04c0,.65-.52,1.18-1.15,1.18s-1.15-.52-1.15-1.18v-5.12c0-1.74-1.07-2.67-2.41-2.67s-2.41.92-2.41,2.67v5.12c0,.65-.5,1.18-1.15,1.18s-1.15-.52-1.15-1.18v-5.04Z"/>
      <path class="cls-2" d="m93.74,23.46c.34,0,.63.15.8.42.31.46.76,1.09,1.66,1.09.69,0,1.2-.52,1.2-1.13,0-.86-.8-1.2-1.78-1.53-1.32-.46-2.81-1.03-2.81-3.19,0-1.78,1.47-3.19,3.4-3.19,1.78,0,3.42,1.09,3.42,2.41,0,.59-.48,1.03-1.07,1.03-.23,0-.52-.08-.67-.38-.36-.4-.86-1.01-1.68-1.01-.71,0-1.18.52-1.18,1.13,0,.86.88,1.13,1.95,1.49,1.28.4,2.73,1.07,2.73,3.17,0,1.76-1.53,3.27-3.51,3.27-1.87,0-3.51-1.22-3.51-2.52,0-.59.46-1.07,1.05-1.07Z"/>
      <path class="cls-2" d="m101.48,21.48c0-3.11,2.37-5.56,5.56-5.56,1.64,0,2.92.65,3.63,1.3.25.23.42.55.42.88,0,.29-.08.55-.34.84l-3.23,3.84c-.23.27-.48.38-.8.38-.63,0-1.09-.44-1.09-1.05,0-.25.06-.5.25-.69l2.54-2.98c-.36-.25-.92-.38-1.39-.38-1.81,0-3.23,1.51-3.23,3.42s1.41,3.42,3.23,3.42c.99,0,1.72-.42,2.22-.94.34-.27.57-.52,1.01-.52.65,0,1.13.46,1.13,1.11,0,.23-.13.52-.34.76-.8.97-2.25,1.74-4.03,1.74-3.17,0-5.56-2.46-5.56-5.56Z"/>
      <path class="cls-2" d="m113.58,20.83c0-2.98,1.99-4.91,4.72-4.91.59,0,1.07.46,1.07,1.07s-.48,1.07-1.07,1.07c-1.39,0-2.41.92-2.41,2.77v5.02c0,.65-.5,1.18-1.15,1.18s-1.15-.52-1.15-1.18v-5.02Z"/>
      <path class="cls-2" d="m121.03,17.1c0-.65.5-1.15,1.15-1.15s1.15.5,1.15,1.15v5.86l5.56-6.63c.23-.25.46-.38.8-.38.61,0,1.09.44,1.09,1.05,0,.23-.08.48-.25.69l-7.49,8.94c-.25.29-.48.4-.86.4-.65,0-1.15-.52-1.15-1.18v-8.75Z"/>
      <path class="cls-2" d="m139.75,25.75c-.92.82-2.14,1.3-3.48,1.3-3.02,0-5.31-2.46-5.31-5.56s2.29-5.56,5.31-5.56c1.34,0,2.56.48,3.48,1.32v-.15c0-.65.5-1.15,1.15-1.15s1.15.5,1.15,1.15v8.75c0,.65-.5,1.18-1.15,1.18s-1.15-.52-1.15-1.18v-.11Zm0-4.26v-.15c-.08-1.87-1.47-3.27-3.23-3.27s-3.23,1.47-3.23,3.42,1.43,3.42,3.23,3.42,3.23-1.47,3.23-3.42Z"/>
      <path class="cls-2" d="m143.67,17.2c0-.61.48-1.07,1.07-1.07h.76v-1.57c0-.65.5-1.15,1.15-1.15s1.15.5,1.15,1.15v1.57h2.46c.59,0,1.07.46,1.07,1.07s-.48,1.07-1.07,1.07h-2.46v3.8c0,1.85,1.03,2.79,2.46,2.79.59,0,1.07.48,1.07,1.07s-.48,1.09-1.07,1.09c-2.71,0-4.76-1.91-4.76-4.95v-3.8h-.76c-.59,0-1.07-.48-1.07-1.07Z"/>
      <path class="cls-2" d="m160.67,17.1c0-.65.5-1.15,1.15-1.15s1.15.5,1.15,1.15v5.86l5.56-6.63c.23-.25.46-.38.8-.38.61,0,1.09.44,1.09,1.05,0,.23-.08.48-.25.69l-7.49,8.94c-.25.29-.48.4-.86.4-.65,0-1.15-.52-1.15-1.18v-8.75Z"/>
      <path class="cls-2" d="m179.39,25.75c-.92.82-2.14,1.3-3.48,1.3-3.02,0-5.31-2.46-5.31-5.56s2.29-5.56,5.31-5.56c1.34,0,2.56.48,3.48,1.32v-.15c0-.65.5-1.15,1.15-1.15s1.15.5,1.15,1.15v8.75c0,.65-.5,1.18-1.15,1.18s-1.15-.52-1.15-1.18v-.11Zm0-4.26v-.15c-.08-1.87-1.47-3.27-3.23-3.27s-3.23,1.47-3.23,3.42,1.43,3.42,3.23,3.42,3.23-1.47,3.23-3.42Z"/>
    </g>
    <g>
      <path class="cls-2" d="m154.87,17.12c0-.66.53-1.2,1.2-1.2s1.2.53,1.2,1.2-.53,1.2-1.2,1.2-1.2-.55-1.2-1.2Z"/>
      <path class="cls-2" d="m159.36,25.65v.03c0,.88-.83,1.54-1.69,1.33-2.06-.51-3.71-1.96-4.47-3.93-.33-.85.3-1.76,1.21-1.76h0c.52,0,.99.3,1.19.77.48,1.09,1.47,1.92,2.7,2.23.61.15,1.05.69,1.05,1.33Z"/>
    </g>
  </g>
  <g>
    <path class="cls-2" d="m32.77,30.3c-1.43-.36-2.59-1.32-3.15-2.59-.09-.2-.22-.36-.37-.5-.03-.03-.06-.06-.09-.09-.06-.05-.12-.1-.19-.14-.06-.03-.12-.06-.18-.09-.06-.02-.11-.05-.18-.07-.11-.03-.22-.04-.33-.05-.02,0-.05-.01-.07-.01h0s0,0,0,0,0,0,0,0h-.03c-.08,0-.15.02-.22.03-.05,0-.09,0-.14.02-.45.11-.83.42-1.03.86-.72,1.64-2.43,2.77-4.42,2.77s-3.71-1.13-4.42-2.77c-.24-.56-.8-.91-1.41-.91h0c-1.07,0-1.81,1.07-1.42,2.07,1.12,2.92,3.92,4.87,7.25,4.87,2.34,0,4.41-.98,5.82-2.57,1,1.12,2.33,1.94,3.84,2.32,1.02.26,2.01-.53,2.01-1.58h0c0-.76-.52-1.4-1.26-1.58Z"/>
    <path class="cls-1" d="m38.65,18.74c1.92,0,3.24-1.93,2.55-3.72-2.02-5.24-7.03-8.74-13.01-8.74s-10.99,3.5-13.01,8.73c-.69,1.79.63,3.72,2.55,3.72h0c1.09,0,2.09-.64,2.52-1.64,1.28-2.94,4.32-4.97,7.94-4.97s6.64,2.03,7.93,4.97c.43.99,1.4,1.64,2.48,1.64h.05Z"/>
  </g>
</svg>