<?xml version="1.0" encoding="UTF-8"?>
<svg id="Layer_1" data-name="Layer 1" xmlns="http://www.w3.org/2000/svg" viewBox="0 0 186.7 40">
  <defs>
    <style>
      .cls-1 {
        fill: #efbdd8;
      }

      .cls-2 {
        fill: #f1f1f1;
      }
    </style>
  </defs>
  <g>
    <g>
      <path class="cls-2" d="m53.29,21.33c0-3.13,2.39-5.61,5.61-5.61,1.65,0,2.94.66,3.66,1.31.25.23.42.55.42.89,0,.3-.08.55-.34.85l-3.26,3.87c-.23.28-.49.38-.8.38-.64,0-1.1-.44-1.1-1.06,0-.25.06-.51.25-.7l2.56-3.01c-.36-.25-.93-.38-1.4-.38-1.82,0-3.26,1.52-3.26,3.45s1.42,3.45,3.26,3.45c1,0,1.74-.42,2.24-.95.34-.28.57-.53,1.02-.53.66,0,1.14.47,1.14,1.12,0,.23-.13.53-.34.76-.8.97-2.26,1.76-4.06,1.76-3.2,0-5.61-2.48-5.61-5.61Z"/>
      <path class="cls-2" d="m65.48,20.65c0-3.03,2.1-4.93,4.76-4.93s4.76,1.9,4.76,4.93v5.08c0,.66-.53,1.19-1.16,1.19s-1.16-.53-1.16-1.19v-5.16c0-1.76-1.08-2.69-2.43-2.69s-2.43.93-2.43,2.69v5.16c0,.66-.51,1.19-1.16,1.19s-1.16-.53-1.16-1.19v-5.08Z"/>
      <path class="cls-2" d="m86.11,25.63c-.93.83-2.16,1.31-3.51,1.31-3.05,0-5.35-2.48-5.35-5.61s2.31-5.61,5.35-5.61c1.35,0,2.58.49,3.51,1.33v-4.17c0-.66.51-1.16,1.16-1.16s1.16.51,1.16,1.16v12.85c0,.66-.51,1.19-1.16,1.19s-1.16-.53-1.16-1.19v-.11Zm0-4.3v-.15c-.08-1.88-1.48-3.3-3.26-3.3s-3.26,1.48-3.26,3.45,1.44,3.45,3.26,3.45,3.26-1.48,3.26-3.45Z"/>
      <path class="cls-2" d="m90.71,21.33c0-3.13,2.39-5.61,5.61-5.61s5.61,2.48,5.61,5.61-2.37,5.61-5.61,5.61-5.61-2.48-5.61-5.61Zm8.87,0c0-1.9-1.4-3.45-3.26-3.45s-3.26,1.55-3.26,3.45,1.4,3.45,3.26,3.45,3.26-1.57,3.26-3.45Z"/>
      <path class="cls-2" d="m112.61,25.63c-.93.83-2.16,1.31-3.51,1.31-3.05,0-5.35-2.48-5.35-5.61s2.31-5.61,5.35-5.61c1.35,0,2.58.49,3.51,1.33v-4.17c0-.66.51-1.16,1.16-1.16s1.16.51,1.16,1.16v12.85c0,.66-.51,1.19-1.16,1.19s-1.16-.53-1.16-1.19v-.11Zm0-4.3v-.15c-.08-1.88-1.48-3.3-3.26-3.3s-3.26,1.48-3.26,3.45,1.44,3.45,3.26,3.45,3.26-1.48,3.26-3.45Z"/>
      <path class="cls-2" d="m117.2,21.33c0-3.13,2.39-5.61,5.61-5.61s5.61,2.48,5.61,5.61-2.37,5.61-5.61,5.61-5.61-2.48-5.61-5.61Zm8.87,0c0-1.9-1.4-3.45-3.26-3.45s-3.26,1.55-3.26,3.45,1.4,3.45,3.26,3.45,3.26-1.57,3.26-3.45Z"/>
      <path class="cls-2" d="m130.69,20.65c0-3.03,2.1-4.93,4.76-4.93s4.76,1.9,4.76,4.93v5.08c0,.66-.53,1.19-1.16,1.19s-1.16-.53-1.16-1.19v-5.16c0-1.76-1.08-2.69-2.43-2.69s-2.43.93-2.43,2.69v5.16c0,.66-.51,1.19-1.16,1.19s-1.16-.53-1.16-1.19v-5.08Z"/>
      <path class="cls-2" d="m148.15,18.09h-4.68c-.59,0-1.08-.49-1.08-1.08s.49-1.08,1.08-1.08h7.01c.59,0,1.08.47,1.08,1.08,0,.25-.11.51-.34.76l-5.69,6.79h4.95c.59,0,1.08.47,1.08,1.08s-.49,1.08-1.08,1.08h-7.26c-.59,0-1.08-.49-1.08-1.1,0-.34.15-.55.32-.76l5.69-6.77Z"/>
      <path class="cls-2" d="m169.38,25.63c-.93.83-2.16,1.31-3.51,1.31-3.05,0-5.35-2.48-5.35-5.61s2.31-5.61,5.35-5.61c1.35,0,2.58.49,3.51,1.33v-.15c0-.66.51-1.16,1.16-1.16s1.16.51,1.16,1.16v8.83c0,.66-.51,1.19-1.16,1.19s-1.16-.53-1.16-1.19v-.11Zm0-4.3v-.15c-.08-1.88-1.48-3.3-3.26-3.3s-3.26,1.48-3.26,3.45,1.44,3.45,3.26,3.45,3.26-1.48,3.26-3.45Z"/>
    </g>
    <g>
      <path class="cls-2" d="m154.72,16.93c0-.67.54-1.21,1.21-1.21s1.21.54,1.21,1.21-.54,1.21-1.21,1.21-1.21-.56-1.21-1.21Z"/>
      <path class="cls-2" d="m159.25,25.53v.03c0,.89-.84,1.55-1.7,1.34-2.08-.52-3.74-1.98-4.5-3.96-.33-.85.3-1.77,1.22-1.77h0c.52,0,.99.3,1.2.78.48,1.1,1.48,1.94,2.73,2.25.62.15,1.06.7,1.06,1.34Z"/>
    </g>
  </g>
  <g>
    <path class="cls-1" d="m39.72,17.19c0,1.43-.26,2.8-.74,4.08-.11-.01-.22-.02-.34-.02h0c-1.09,0-2.09.64-2.52,1.64-1.28,2.94-4.33,4.97-7.94,4.97s-6.63-2.03-7.93-4.97c-.44-.99-1.4-1.64-2.48-1.64h-.05c-.11,0-.23,0-.34.02-.48-1.28-.74-2.66-.74-4.08,0-1.5.27-2.93.77-4.25.22-.16.39-.37.5-.63.72-1.64,2.43-2.77,4.42-2.77s3.71,1.13,4.42,2.77c.22.51.71.85,1.26.9.02,0,.05,0,.07,0s.05,0,.08,0h0s.05,0,.08,0c.58-.01,1.11-.37,1.34-.91.72-1.64,2.43-2.77,4.42-2.77s3.71,1.13,4.42,2.77c.11.25.28.46.5.62.5,1.32.77,2.75.77,4.26Z"/>
    <g>
      <path class="cls-2" d="m41.28,11.16c-1.12-2.92-3.92-4.87-7.25-4.87-.43,0-.85.03-1.26.1-1.82.28-3.42,1.16-4.58,2.46-1.16-1.3-2.76-2.18-4.58-2.46-.41-.06-.83-.1-1.26-.1-3.33,0-6.13,1.95-7.25,4.87-.39,1,.35,2.07,1.42,2.07h.03c.32,0,.63-.1.88-.29.22-.16.39-.37.5-.63.72-1.64,2.43-2.77,4.42-2.77s3.71,1.13,4.42,2.77c.12.29.34.51.59.67,0,0,0,0,0,0,.1.06.2.11.3.15.11.04.23.07.36.08.02,0,.05,0,.07,0,.02,0,.05,0,.08,0h0s.05,0,.08,0c.58-.01,1.11-.37,1.34-.91.72-1.64,2.43-2.77,4.42-2.77s3.71,1.13,4.42,2.77c.11.25.28.46.5.62.26.19.57.29.91.29h0c1.07,0,1.8-1.07,1.42-2.07Z"/>
      <path class="cls-2" d="m41.2,24.98c-2.02,5.24-7.03,8.74-13.01,8.74s-10.99-3.5-13.01-8.74c-.65-1.68.48-3.49,2.21-3.7.11-.01.22-.02.34-.02h.05c1.08,0,2.05.65,2.48,1.64,1.29,2.94,4.35,4.97,7.93,4.97s6.65-2.03,7.94-4.97c.43-1,1.43-1.64,2.52-1.64h0c.11,0,.23,0,.34.02,1.73.21,2.86,2.02,2.21,3.7Z"/>
    </g>
  </g>
</svg>