<?xml version="1.0" encoding="UTF-8"?>
<svg id="Layer_1" data-name="Layer 1" xmlns="http://www.w3.org/2000/svg" viewBox="0 0 179.83 40">
  <defs>
    <style>
      .cls-1 {
        fill: #efbdd8;
      }

      .cls-2 {
        fill: #f1f1f1;
      }
    </style>
  </defs>
  <g>
    <g>
      <path class="cls-2" d="m55.91,21.29c0-3.09,2.28-5.54,5.29-5.54,1.34,0,2.55.48,3.47,1.32v-.15c0-.65.5-1.15,1.15-1.15s1.15.5,1.15,1.15v8.34c0,3.13-2.51,5.54-5.64,5.54-1.78,0-3.18-.75-3.99-1.67-.21-.25-.33-.54-.33-.77,0-.65.5-1.09,1.13-1.09.46,0,.71.27,1,.52.56.52,1.27.88,2.19.88,1.82,0,3.2-1.4,3.32-3.13-.92.81-2.11,1.3-3.45,1.3-3.01,0-5.29-2.44-5.29-5.54Zm8.76.15v-.15c0-1.94-1.42-3.41-3.22-3.41s-3.22,1.46-3.22,3.41,1.42,3.41,3.22,3.41,3.13-1.38,3.22-3.26Z"/>
      <path class="cls-2" d="m69.64,20.62c0-2.99,2.07-4.87,4.7-4.87s4.7,1.88,4.7,4.87v5.01c0,.65-.52,1.17-1.15,1.17s-1.15-.52-1.15-1.17v-5.1c0-1.73-1.07-2.65-2.4-2.65s-2.4.92-2.4,2.65v5.1c0,.65-.5,1.17-1.15,1.17s-1.15-.52-1.15-1.17v-5.01Z"/>
      <path class="cls-2" d="m90.01,25.53c-.92.81-2.13,1.3-3.47,1.3-3.01,0-5.29-2.44-5.29-5.54s2.28-5.54,5.29-5.54c1.34,0,2.55.48,3.47,1.32v-.15c0-.65.5-1.15,1.15-1.15s1.15.5,1.15,1.15v8.71c0,.65-.5,1.17-1.15,1.17s-1.15-.52-1.15-1.17v-.1Zm0-4.24v-.15c-.08-1.86-1.46-3.26-3.22-3.26s-3.22,1.46-3.22,3.41,1.42,3.41,3.22,3.41,3.22-1.46,3.22-3.41Z"/>
      <path class="cls-2" d="m93.92,17.02c0-.61.48-1.07,1.07-1.07h.75v-1.57c0-.65.5-1.15,1.15-1.15s1.15.5,1.15,1.15v1.57h2.45c.58,0,1.07.46,1.07,1.07s-.48,1.07-1.07,1.07h-2.45v3.78c0,1.84,1.02,2.78,2.45,2.78.58,0,1.07.48,1.07,1.07s-.48,1.09-1.07,1.09c-2.7,0-4.74-1.9-4.74-4.93v-3.78h-.75c-.58,0-1.07-.48-1.07-1.07Z"/>
      <path class="cls-2" d="m102.72,21.29c0-3.09,2.36-5.54,5.54-5.54s5.54,2.44,5.54,5.54-2.34,5.54-5.54,5.54-5.54-2.44-5.54-5.54Zm8.75,0c0-1.88-1.38-3.41-3.22-3.41s-3.22,1.53-3.22,3.41,1.38,3.41,3.22,3.41,3.22-1.55,3.22-3.41Z"/>
      <path class="cls-2" d="m116.03,12.95c0-.65.5-1.15,1.15-1.15s1.15.5,1.15,1.15v12.68c0,.65-.5,1.17-1.15,1.17s-1.15-.52-1.15-1.17v-12.68Z"/>
      <path class="cls-2" d="m120.56,21.29c0-3.09,2.36-5.54,5.54-5.54s5.54,2.44,5.54,5.54-2.34,5.54-5.54,5.54-5.54-2.44-5.54-5.54Zm8.76,0c0-1.88-1.38-3.41-3.22-3.41s-3.22,1.53-3.22,3.41,1.38,3.41,3.22,3.41,3.22-1.55,3.22-3.41Z"/>
      <path class="cls-2" d="m133.43,21.29c0-3.09,2.28-5.54,5.29-5.54,1.34,0,2.55.48,3.47,1.32v-.15c0-.65.5-1.15,1.15-1.15s1.15.5,1.15,1.15v8.34c0,3.13-2.51,5.54-5.64,5.54-1.78,0-3.18-.75-3.99-1.67-.21-.25-.33-.54-.33-.77,0-.65.5-1.09,1.13-1.09.46,0,.71.27,1,.52.56.52,1.27.88,2.19.88,1.82,0,3.2-1.4,3.32-3.13-.92.81-2.11,1.3-3.45,1.3-3.01,0-5.29-2.44-5.29-5.54Zm8.75.15v-.15c0-1.94-1.42-3.41-3.22-3.41s-3.22,1.46-3.22,3.41,1.42,3.41,3.22,3.41,3.13-1.38,3.22-3.26Z"/>
      <path class="cls-2" d="m162.53,25.53c-.92.81-2.13,1.3-3.47,1.3-3.01,0-5.29-2.44-5.29-5.54s2.28-5.54,5.29-5.54c1.34,0,2.55.48,3.47,1.32v-.15c0-.65.5-1.15,1.15-1.15s1.15.5,1.15,1.15v8.71c0,.65-.5,1.17-1.15,1.17s-1.15-.52-1.15-1.17v-.1Zm0-4.24v-.15c-.08-1.86-1.46-3.26-3.22-3.26s-3.22,1.46-3.22,3.41,1.42,3.41,3.22,3.41,3.22-1.46,3.22-3.41Z"/>
    </g>
    <g>
      <path class="cls-2" d="m148.07,16.92c0-.66.53-1.19,1.19-1.19s1.19.53,1.19,1.19-.53,1.19-1.19,1.19-1.19-.55-1.19-1.19Z"/>
      <path class="cls-2" d="m152.54,25.41v.03c0,.88-.82,1.53-1.68,1.32-2.05-.51-3.69-1.95-4.45-3.91-.32-.84.3-1.75,1.2-1.75h0c.51,0,.98.3,1.19.77.47,1.09,1.46,1.91,2.69,2.22.61.15,1.04.69,1.04,1.32Z"/>
    </g>
  </g>
  <g>
    <path class="cls-2" d="m16.93,15.1c-1.36,0-2.29-1.36-1.8-2.63,1.43-3.71,4.97-6.18,9.2-6.18s7.77,2.47,9.2,6.18c.49,1.27-.44,2.63-1.8,2.63h0c-.77,0-1.48-.45-1.78-1.16-.91-2.08-3.06-3.52-5.61-3.52s-4.69,1.44-5.61,3.52c-.31.7-.99,1.16-1.75,1.16h-.04Z"/>
    <path class="cls-2" d="m24.65,24.9c-1.36,0-2.29,1.36-1.8,2.63,1.43,3.71,4.97,6.18,9.2,6.18s7.77-2.47,9.2-6.18c.49-1.27-.44-2.63-1.8-2.63h0c-.77,0-1.48.45-1.78,1.16-.91,2.08-3.06,3.52-5.61,3.52s-4.69-1.44-5.61-3.52c-.31-.7-.99-1.16-1.75-1.16h-.04Z"/>
    <path class="cls-1" d="m18.52,23.94c-1.12,0-1.89-1.12-1.49-2.17,1.18-3.05,4.1-5.09,7.58-5.09s6.41,2.04,7.58,5.09c.4,1.05-.37,2.17-1.49,2.17h0c-.64,0-1.22-.37-1.47-.95-.75-1.71-2.52-2.9-4.63-2.9s-3.87,1.19-4.62,2.9c-.25.58-.82.95-1.45.95h-.03Z"/>
  </g>
</svg>