<?xml version="1.0" encoding="UTF-8"?>
<svg id="Layer_1" data-name="Layer 1" xmlns="http://www.w3.org/2000/svg" viewBox="0 0 200.78 40">
  <defs>
    <style>
      .cls-1 {
        fill: #efbdd8;
      }

      .cls-2 {
        fill: #f1f1f1;
      }
    </style>
  </defs>
  <g>
    <g>
      <path class="cls-2" d="m54.94,17.2c0-.63.51-1.14,1.14-1.14s1.14.51,1.14,1.14-.51,1.14-1.14,1.14-1.14-.52-1.14-1.14Z"/>
      <path class="cls-2" d="m59.21,25.3v.03c0,.84-.79,1.46-1.6,1.26-1.96-.49-3.52-1.86-4.24-3.73-.31-.8.28-1.67,1.14-1.67h0c.49,0,.94.29,1.13.73.45,1.04,1.4,1.83,2.57,2.11.58.14,1,.66,1,1.26Z"/>
    </g>
    <g>
      <path class="cls-2" d="m60.4,21.32c0-2.95,2.17-5.27,5.04-5.27,1.27,0,2.43.46,3.3,1.25v-.14c0-.62.48-1.09,1.1-1.09s1.1.48,1.1,1.09v7.94c0,2.99-2.39,5.27-5.38,5.27-1.69,0-3.03-.72-3.8-1.59-.2-.24-.32-.52-.32-.74,0-.62.48-1.04,1.07-1.04.44,0,.68.26.96.5.54.5,1.21.84,2.09.84,1.73,0,3.05-1.33,3.17-2.99-.88.78-2.01,1.23-3.28,1.23-2.87,0-5.04-2.33-5.04-5.27Zm8.34.14v-.14c0-1.85-1.35-3.24-3.07-3.24s-3.07,1.39-3.07,3.24,1.35,3.24,3.07,3.24,2.99-1.31,3.07-3.11Z"/>
      <path class="cls-2" d="m73.27,13.62c0-.72.58-1.29,1.29-1.29s1.29.58,1.29,1.29-.58,1.29-1.29,1.29-1.29-.6-1.29-1.29Zm.2,3.54c0-.62.48-1.09,1.1-1.09s1.1.48,1.1,1.09v8.3c0,.62-.48,1.11-1.1,1.11s-1.1-.5-1.1-1.11v-8.3Z"/>
      <path class="cls-2" d="m77.79,21.32c0-2.95,2.25-5.27,5.27-5.27,1.55,0,2.77.62,3.44,1.23.24.22.4.52.4.84,0,.28-.08.52-.32.8l-3.07,3.64c-.22.26-.46.36-.76.36-.6,0-1.04-.42-1.04-.99,0-.24.06-.48.24-.66l2.41-2.83c-.34-.24-.88-.36-1.31-.36-1.71,0-3.07,1.43-3.07,3.24s1.33,3.24,3.07,3.24c.94,0,1.63-.4,2.11-.9.32-.26.54-.5.96-.5.62,0,1.08.44,1.08,1.06,0,.22-.12.5-.32.72-.76.92-2.13,1.65-3.82,1.65-3.01,0-5.27-2.33-5.27-5.27Z"/>
      <path class="cls-2" d="m89.26,20.69c0-2.85,1.97-4.64,4.48-4.64s4.48,1.79,4.48,4.64v4.78c0,.62-.5,1.11-1.1,1.11s-1.1-.5-1.1-1.11v-4.86c0-1.65-1.02-2.53-2.29-2.53s-2.29.88-2.29,2.53v4.86c0,.62-.48,1.11-1.09,1.11s-1.1-.5-1.1-1.11v-4.78Z"/>
      <path class="cls-2" d="m100.33,21.32c0-2.95,2.25-5.27,5.27-5.27,1.55,0,2.77.62,3.44,1.23.24.22.4.52.4.84,0,.28-.08.52-.32.8l-3.07,3.64c-.22.26-.46.36-.76.36-.6,0-1.04-.42-1.04-.99,0-.24.06-.48.24-.66l2.41-2.83c-.34-.24-.88-.36-1.31-.36-1.71,0-3.07,1.43-3.07,3.24s1.33,3.24,3.07,3.24c.94,0,1.63-.4,2.11-.9.32-.26.54-.5.96-.5.62,0,1.08.44,1.08,1.06,0,.22-.12.5-.32.72-.76.92-2.13,1.65-3.82,1.65-3.01,0-5.27-2.33-5.27-5.27Z"/>
      <path class="cls-2" d="m124.69,25.36c-.88.78-2.03,1.23-3.3,1.23-2.87,0-5.04-2.33-5.04-5.27s2.17-5.27,5.04-5.27c1.27,0,2.43.46,3.3,1.25v-3.92c0-.62.48-1.1,1.09-1.1s1.1.48,1.1,1.1v12.08c0,.62-.48,1.11-1.1,1.11s-1.09-.5-1.09-1.11v-.1Zm0-4.04v-.14c-.08-1.77-1.39-3.11-3.07-3.11s-3.07,1.39-3.07,3.24,1.35,3.24,3.07,3.24,3.07-1.39,3.07-3.24Z"/>
      <path class="cls-2" d="m129.01,21.32c0-2.95,2.25-5.27,5.27-5.27,1.55,0,2.77.62,3.44,1.23.24.22.4.52.4.84,0,.28-.08.52-.32.8l-3.07,3.64c-.22.26-.46.36-.76.36-.6,0-1.04-.42-1.04-.99,0-.24.06-.48.24-.66l2.41-2.83c-.34-.24-.88-.36-1.31-.36-1.71,0-3.07,1.43-3.07,3.24s1.33,3.24,3.07,3.24c.94,0,1.63-.4,2.11-.9.32-.26.54-.5.96-.5.62,0,1.08.44,1.08,1.06,0,.22-.12.5-.32.72-.76.92-2.13,1.65-3.82,1.65-3.01,0-5.27-2.33-5.27-5.27Z"/>
      <path class="cls-2" d="m140.47,20.69c0-2.85,1.97-4.64,4.48-4.64s4.48,1.79,4.48,4.64v4.78c0,.62-.5,1.11-1.09,1.11s-1.09-.5-1.09-1.11v-4.86c0-1.65-1.02-2.53-2.29-2.53s-2.29.88-2.29,2.53v4.86c0,.62-.48,1.11-1.1,1.11s-1.1-.5-1.1-1.11v-4.78Z"/>
      <path class="cls-2" d="m150.59,17.26c0-.58.46-1.02,1.02-1.02h.72v-1.49c0-.62.48-1.09,1.1-1.09s1.09.48,1.09,1.09v1.49h2.33c.56,0,1.02.44,1.02,1.02s-.46,1.02-1.02,1.02h-2.33v3.6c0,1.75.98,2.65,2.33,2.65.56,0,1.02.46,1.02,1.02s-.46,1.04-1.02,1.04c-2.57,0-4.52-1.81-4.52-4.7v-3.6h-.72c-.56,0-1.02-.46-1.02-1.02Z"/>
      <path class="cls-2" d="m167.31,25.36c-.88.78-2.03,1.23-3.3,1.23-2.87,0-5.04-2.33-5.04-5.27s2.17-5.27,5.04-5.27c1.27,0,2.43.46,3.3,1.25v-.14c0-.62.48-1.09,1.09-1.09s1.1.48,1.1,1.09v8.3c0,.62-.48,1.11-1.1,1.11s-1.09-.5-1.09-1.11v-.1Zm0-4.04v-.14c-.08-1.77-1.39-3.11-3.07-3.11s-3.07,1.39-3.07,3.24,1.35,3.24,3.07,3.24,3.07-1.39,3.07-3.24Z"/>
      <path class="cls-2" d="m172.05,13.38c0-.62.48-1.1,1.1-1.1s1.09.48,1.09,1.1v12.08c0,.62-.48,1.11-1.09,1.11s-1.1-.5-1.1-1.11v-12.08Z"/>
      <path class="cls-2" d="m176.36,21.32c0-2.95,2.25-5.27,5.28-5.27,1.55,0,2.77.62,3.44,1.23.24.22.4.52.4.84,0,.28-.08.52-.32.8l-3.07,3.64c-.22.26-.46.36-.76.36-.6,0-1.04-.42-1.04-.99,0-.24.06-.48.24-.66l2.41-2.83c-.34-.24-.88-.36-1.31-.36-1.71,0-3.07,1.43-3.07,3.24s1.33,3.24,3.07,3.24c.94,0,1.63-.4,2.11-.9.32-.26.54-.5.96-.5.62,0,1.07.44,1.07,1.06,0,.22-.12.5-.32.72-.76.92-2.13,1.65-3.82,1.65-3.01,0-5.28-2.33-5.28-5.27Z"/>
    </g>
  </g>
  <g>
    <g>
      <path class="cls-2" d="m39.86,26.77h-.03c-.6,0-1.14.36-1.38.91-.72,1.64-2.43,2.77-4.42,2.77s-3.71-1.13-4.42-2.77c-.09-.21-.23-.37-.4-.52,0,0,0,0,0,0-.08-.07-.17-.14-.27-.19-.03-.02-.07-.03-.1-.05-.08-.04-.15-.07-.24-.09-.1-.03-.2-.04-.3-.04-.03,0-.06-.01-.09-.01h0s0,0,0,0,0,0,0,0h-.03c-.07,0-.14.02-.22.03-.05,0-.1,0-.14.02-.45.11-.83.42-1.03.86-.72,1.64-2.43,2.77-4.42,2.77s-3.71-1.13-4.42-2.77c-.24-.56-.8-.91-1.41-.91h0c-1.07,0-1.81,1.07-1.42,2.07,1.12,2.92,3.92,4.87,7.25,4.87,2.35,0,4.42-.98,5.84-2.58,1.42,1.6,3.49,2.58,5.84,2.58,3.33,0,6.13-1.95,7.25-4.87.38-1-.35-2.07-1.42-2.07Z"/>
      <path class="cls-1" d="m38.65,18.74c1.92,0,3.24-1.93,2.55-3.72-2.02-5.24-7.03-8.74-13.01-8.74s-10.99,3.5-13.01,8.73c-.69,1.79.63,3.72,2.55,3.72h0c1.09,0,2.09-.64,2.52-1.64,1.28-2.94,4.32-4.97,7.94-4.97s6.64,2.03,7.93,4.97c.43.99,1.4,1.64,2.48,1.64h.05Z"/>
    </g>
    <path class="cls-2" d="m36.85,11.93l-2.13.02c-.39.02-.7-.33-.7-.72s.31-.73.7-.72l2.15.04-1.1-1.82c-.08-.12-.12-.25-.12-.37,0-.37.33-.72.75-.72.25,0,.48.12.62.37l1.03,1.82,1.03-1.82c.14-.25.37-.37.62-.37.39,0,.75.31.75.72,0,.12-.04.25-.12.37l-1.08,1.82,2.13-.04c.39-.02.7.33.7.72s-.31.74-.7.72l-2.13-.02,1.08,1.8c.08.12.12.25.12.37,0,.37-.33.72-.75.72-.25,0-.48-.14-.62-.37l-1.03-1.84-1.03,1.84c-.14.23-.37.37-.62.37-.39,0-.75-.31-.75-.72,0-.12.04-.25.12-.37l1.08-1.8Z"/>
  </g>
</svg>