<?xml version="1.0" encoding="UTF-8"?>
<svg id="Layer_1" data-name="Layer 1" xmlns="http://www.w3.org/2000/svg" viewBox="0 0 206.59 40">
  <defs>
    <style>
      .cls-1 {
        fill: #efbdd8;
      }

      .cls-2 {
        fill: #f1f1f1;
      }
    </style>
  </defs>
  <g>
    <g>
      <path class="cls-2" d="m57.25,16.75c0-.66.53-1.19,1.19-1.19s1.19.53,1.19,1.19-.53,1.19-1.19,1.19-1.19-.55-1.19-1.19Z"/>
      <path class="cls-2" d="m61.73,25.25v.03c0,.88-.83,1.53-1.68,1.32-2.05-.51-3.7-1.96-4.45-3.92-.33-.85.3-1.75,1.2-1.75h0c.51,0,.98.3,1.19.77.48,1.09,1.47,1.92,2.7,2.22.61.15,1.05.69,1.05,1.32Z"/>
    </g>
    <g>
      <path class="cls-2" d="m63.73,19.78c0-2.62,1.76-4.21,3.98-4.21,1.28,0,2.34.44,3.03,1.55.65-1.11,1.78-1.55,3.01-1.55,2.22,0,3.98,1.59,3.98,4.21v5.69c0,.65-.5,1.17-1.15,1.17s-1.15-.52-1.15-1.17v-5.71c0-1.38-.77-2.05-1.78-2.05s-1.76.67-1.76,2.05v5.71c0,.65-.52,1.17-1.15,1.17s-1.15-.52-1.15-1.17v-5.71c0-1.38-.8-2.05-1.78-2.05s-1.78.67-1.78,2.05v5.71c0,.65-.5,1.17-1.15,1.17s-1.15-.52-1.15-1.17v-5.69Z"/>
      <path class="cls-2" d="m82.72,25.37v4.1c0,.65-.5,1.15-1.15,1.15s-1.15-.5-1.15-1.15v-12.73c0-.65.5-1.15,1.15-1.15s1.15.5,1.15,1.15v.15c.92-.84,2.13-1.32,3.47-1.32,3.01,0,5.3,2.45,5.3,5.55s-2.28,5.55-5.3,5.55c-1.34,0-2.55-.48-3.47-1.3Zm6.45-4.25c0-1.95-1.42-3.41-3.22-3.41s-3.16,1.4-3.22,3.26v.15c0,1.95,1.42,3.41,3.22,3.41s3.22-1.46,3.22-3.41Z"/>
      <path class="cls-2" d="m93.72,12.77c0-.65.5-1.15,1.15-1.15s1.15.5,1.15,1.15v12.7c0,.65-.5,1.17-1.15,1.17s-1.15-.52-1.15-1.17v-12.7Z"/>
      <path class="cls-2" d="m107.04,25.37c-.92.82-2.13,1.3-3.47,1.3-3.01,0-5.29-2.45-5.29-5.55s2.28-5.55,5.29-5.55c1.34,0,2.55.48,3.47,1.32v-.15c0-.65.5-1.15,1.15-1.15s1.15.5,1.15,1.15v8.73c0,.65-.5,1.17-1.15,1.17s-1.15-.52-1.15-1.17v-.1Zm0-4.25v-.15c-.08-1.86-1.47-3.26-3.22-3.26s-3.22,1.46-3.22,3.41,1.42,3.41,3.22,3.41,3.22-1.46,3.22-3.41Z"/>
      <path class="cls-2" d="m112.02,20.45c0-2.99,2.07-4.88,4.71-4.88s4.71,1.88,4.71,4.88v5.02c0,.65-.52,1.17-1.15,1.17s-1.15-.52-1.15-1.17v-5.11c0-1.74-1.07-2.66-2.41-2.66s-2.41.92-2.41,2.66v5.11c0,.65-.5,1.17-1.15,1.17s-1.15-.52-1.15-1.17v-5.02Z"/>
      <path class="cls-2" d="m122.65,16.85c0-.61.48-1.07,1.07-1.07h.75v-1.57c0-.65.5-1.15,1.15-1.15s1.15.5,1.15,1.15v1.57h2.45c.59,0,1.07.46,1.07,1.07s-.48,1.07-1.07,1.07h-2.45v3.79c0,1.84,1.03,2.78,2.45,2.78.59,0,1.07.48,1.07,1.07s-.48,1.09-1.07,1.09c-2.7,0-4.75-1.9-4.75-4.94v-3.79h-.75c-.59,0-1.07-.48-1.07-1.07Z"/>
      <path class="cls-2" d="m131.46,21.12c0-3.1,2.36-5.55,5.55-5.55s5.55,2.45,5.55,5.55-2.34,5.55-5.55,5.55-5.55-2.45-5.55-5.55Zm8.77,0c0-1.88-1.38-3.41-3.22-3.41s-3.22,1.53-3.22,3.41,1.38,3.41,3.22,3.41,3.22-1.55,3.22-3.41Z"/>
      <path class="cls-2" d="m144.79,12.77c0-.65.5-1.15,1.15-1.15s1.15.5,1.15,1.15v12.7c0,.65-.5,1.17-1.15,1.17s-1.15-.52-1.15-1.17v-12.7Z"/>
      <path class="cls-2" d="m149.33,21.12c0-3.1,2.37-5.55,5.55-5.55s5.55,2.45,5.55,5.55-2.34,5.55-5.55,5.55-5.55-2.45-5.55-5.55Zm8.77,0c0-1.88-1.38-3.41-3.22-3.41s-3.22,1.53-3.22,3.41,1.38,3.41,3.22,3.41,3.22-1.55,3.22-3.41Z"/>
      <path class="cls-2" d="m162.23,21.12c0-3.1,2.28-5.55,5.29-5.55,1.34,0,2.55.48,3.47,1.32v-.15c0-.65.5-1.15,1.15-1.15s1.15.5,1.15,1.15v8.35c0,3.14-2.51,5.55-5.65,5.55-1.78,0-3.18-.75-4-1.67-.21-.25-.33-.54-.33-.77,0-.65.5-1.09,1.13-1.09.46,0,.71.27,1,.52.56.52,1.28.88,2.2.88,1.82,0,3.2-1.4,3.33-3.14-.92.82-2.11,1.3-3.45,1.3-3.01,0-5.29-2.45-5.29-5.55Zm8.77.15v-.15c0-1.95-1.42-3.41-3.22-3.41s-3.22,1.46-3.22,3.41,1.42,3.41,3.22,3.41,3.14-1.38,3.22-3.26Z"/>
      <path class="cls-2" d="m175.77,13.02c0-.75.61-1.36,1.36-1.36s1.36.61,1.36,1.36-.61,1.36-1.36,1.36-1.36-.63-1.36-1.36Zm.21,3.73c0-.65.5-1.15,1.15-1.15s1.15.5,1.15,1.15v8.73c0,.65-.5,1.17-1.15,1.17s-1.15-.52-1.15-1.17v-8.73Z"/>
      <path class="cls-2" d="m189.29,25.37c-.92.82-2.13,1.3-3.47,1.3-3.01,0-5.29-2.45-5.29-5.55s2.28-5.55,5.29-5.55c1.34,0,2.55.48,3.47,1.32v-.15c0-.65.5-1.15,1.15-1.15s1.15.5,1.15,1.15v8.73c0,.65-.5,1.17-1.15,1.17s-1.15-.52-1.15-1.17v-.1Zm0-4.25v-.15c-.08-1.86-1.47-3.26-3.22-3.26s-3.22,1.46-3.22,3.41,1.42,3.41,3.22,3.41,3.22-1.46,3.22-3.41Z"/>
    </g>
  </g>
  <g>
    <path class="cls-1" d="m25.47,20.2c0-1.4,1.13-2.53,2.53-2.53s2.53,1.13,2.53,2.53-1.13,2.53-2.53,2.53-2.53-1.17-2.53-2.53Z"/>
    <g>
      <path class="cls-2" d="m25.89,30.93v.06c0,1.54-1.45,2.69-2.94,2.31-3.6-.9-6.48-3.42-7.8-6.86-.57-1.48.52-3.07,2.1-3.07h0c.9,0,1.72.53,2.08,1.35.83,1.91,2.57,3.36,4.72,3.89,1.07.26,1.83,1.21,1.83,2.32Z"/>
      <path class="cls-2" d="m30.12,30.93v.06c0,1.54,1.45,2.69,2.94,2.31,3.6-.9,6.48-3.42,7.8-6.86.57-1.48-.52-3.07-2.1-3.07h0c-.9,0-1.72.53-2.08,1.35-.83,1.91-2.57,3.36-4.72,3.89-1.07.26-1.83,1.21-1.83,2.32Z"/>
    </g>
    <g>
      <path class="cls-2" d="m25.89,9.07v-.06c0-1.54-1.45-2.69-2.94-2.31-3.6.9-6.48,3.42-7.8,6.86-.57,1.48.52,3.07,2.1,3.07h0c.9,0,1.72-.53,2.08-1.35.83-1.91,2.57-3.36,4.72-3.89,1.07-.26,1.83-1.21,1.83-2.32Z"/>
      <path class="cls-2" d="m30.12,9.07v-.06c0-1.54,1.45-2.69,2.94-2.31,3.6.9,6.48,3.42,7.8,6.86.57,1.48-.52,3.07-2.1,3.07h0c-.9,0-1.72-.53-2.08-1.35-.83-1.91-2.57-3.36-4.72-3.89-1.07-.26-1.83-1.21-1.83-2.32Z"/>
    </g>
  </g>
</svg>