<?xml version="1.0" encoding="UTF-8"?>
<svg id="Layer_1" data-name="Layer 1" xmlns="http://www.w3.org/2000/svg" viewBox="0 0 178.01 40">
  <defs>
    <style>
      .cls-1 {
        fill: #efbdd8;
      }

      .cls-2 {
        fill: #f1f1f1;
      }
    </style>
  </defs>
  <g>
    <path class="cls-2" d="m39.69,26.77h-.03c-.6,0-1.14.36-1.38.91-.72,1.64-2.43,2.77-4.42,2.77s-3.71-1.13-4.42-2.77c-.09-.21-.23-.37-.4-.52,0,0,0,0,0,0-.08-.07-.17-.14-.27-.19-.03-.02-.07-.03-.1-.05-.08-.04-.15-.07-.24-.09-.1-.03-.2-.04-.3-.04-.03,0-.06-.01-.09-.01h0s0,0,0,0,0,0,0,0h-.03c-.07,0-.14.02-.22.03-.05,0-.1,0-.14.02-.45.11-.83.42-1.03.86-.72,1.64-2.43,2.77-4.42,2.77s-3.71-1.13-4.42-2.77c-.24-.56-.8-.91-1.41-.91h0c-1.07,0-1.81,1.07-1.42,2.07,1.12,2.92,3.92,4.87,7.25,4.87,2.35,0,4.42-.98,5.84-2.58,1.42,1.6,3.49,2.58,5.84,2.58,3.33,0,6.13-1.95,7.25-4.87.38-1-.35-2.07-1.42-2.07Z"/>
    <path class="cls-2" d="m38.48,18.74c1.92,0,3.24-1.93,2.55-3.72-2.02-5.24-7.03-8.74-13.01-8.74s-10.99,3.5-13.01,8.73c-.69,1.79.63,3.72,2.55,3.72h0c1.09,0,2.09-.64,2.52-1.64,1.28-2.94,4.32-4.97,7.94-4.97s6.64,2.03,7.93,4.97c.43.99,1.4,1.64,2.48,1.64h.05Z"/>
  </g>
  <g>
    <path class="cls-1" d="m35.16,23.41h-14.27c-.86,0-1.56-.7-1.56-1.56s.7-1.56,1.56-1.56h14.27c.86,0,1.56.7,1.56,1.56s-.7,1.56-1.56,1.56Z"/>
    <path class="cls-2" d="m27.03,22.43l-1.76.02c-.32.02-.58-.27-.58-.59s.26-.61.58-.59l1.78.03-.91-1.5c-.06-.1-.1-.21-.1-.3,0-.3.27-.59.62-.59.21,0,.4.1.51.3l.85,1.5.85-1.5c.11-.21.3-.3.51-.3.32,0,.62.26.62.59,0,.1-.03.21-.1.3l-.9,1.5,1.76-.03c.32-.02.58.27.58.59s-.26.61-.58.59l-1.76-.02.9,1.49c.06.1.1.21.1.3,0,.3-.27.59-.62.59-.21,0-.4-.11-.51-.3l-.85-1.52-.85,1.52c-.11.19-.3.3-.51.3-.32,0-.62-.26-.62-.59,0-.1.03-.21.1-.3l.9-1.49Z"/>
  </g>
  <g>
    <g>
      <path class="cls-2" d="m53.11,20.98c0-3.13,2.39-5.6,5.6-5.6s5.6,2.47,5.6,5.6-2.37,5.6-5.6,5.6-5.6-2.47-5.6-5.6Zm8.86,0c0-1.9-1.4-3.45-3.26-3.45s-3.26,1.54-3.26,3.45,1.4,3.45,3.26,3.45,3.26-1.57,3.26-3.45Z"/>
      <path class="cls-2" d="m66.58,20.33c0-3,2.01-4.95,4.76-4.95.59,0,1.08.46,1.08,1.08s-.49,1.08-1.08,1.08c-1.4,0-2.43.93-2.43,2.79v5.05c0,.66-.51,1.18-1.16,1.18s-1.16-.53-1.16-1.18v-5.05Z"/>
      <path class="cls-2" d="m73.24,16.67c0-.61.49-1.08,1.08-1.08h.76v-1.59c0-.66.51-1.16,1.16-1.16s1.16.51,1.16,1.16v1.59h2.47c.59,0,1.08.47,1.08,1.08s-.49,1.08-1.08,1.08h-2.47v3.83c0,1.86,1.04,2.81,2.47,2.81.59,0,1.08.49,1.08,1.08s-.49,1.1-1.08,1.1c-2.73,0-4.8-1.92-4.8-4.99v-3.83h-.76c-.59,0-1.08-.49-1.08-1.08Z"/>
      <path class="cls-2" d="m82.15,20.98c0-3.13,2.39-5.6,5.6-5.6s5.6,2.47,5.6,5.6-2.37,5.6-5.6,5.6-5.6-2.47-5.6-5.6Zm8.86,0c0-1.9-1.4-3.45-3.26-3.45s-3.26,1.54-3.26,3.45,1.4,3.45,3.26,3.45,3.26-1.57,3.26-3.45Z"/>
      <path class="cls-2" d="m104.03,25.28c-.93.82-2.16,1.31-3.51,1.31-3.04,0-5.35-2.47-5.35-5.6s2.3-5.6,5.35-5.6c1.35,0,2.58.49,3.51,1.33v-4.17c0-.66.51-1.16,1.16-1.16s1.16.51,1.16,1.16v12.83c0,.66-.51,1.18-1.16,1.18s-1.16-.53-1.16-1.18v-.11Zm0-4.29v-.15c-.08-1.88-1.48-3.3-3.26-3.3s-3.26,1.48-3.26,3.45,1.44,3.45,3.26,3.45,3.26-1.48,3.26-3.45Z"/>
      <path class="cls-2" d="m108.62,20.98c0-3.13,2.39-5.6,5.6-5.6s5.6,2.47,5.6,5.6-2.37,5.6-5.6,5.6-5.6-2.47-5.6-5.6Zm8.86,0c0-1.9-1.4-3.45-3.26-3.45s-3.26,1.54-3.26,3.45,1.4,3.45,3.26,3.45,3.26-1.57,3.26-3.45Z"/>
      <path class="cls-2" d="m122.09,20.31c0-3.02,2.09-4.93,4.76-4.93s4.76,1.9,4.76,4.93v5.07c0,.66-.53,1.18-1.16,1.18s-1.16-.53-1.16-1.18v-5.16c0-1.75-1.08-2.69-2.43-2.69s-2.43.93-2.43,2.69v5.16c0,.66-.51,1.18-1.16,1.18s-1.16-.53-1.16-1.18v-5.07Z"/>
      <path class="cls-2" d="m139.53,17.75h-4.67c-.59,0-1.08-.49-1.08-1.08s.49-1.08,1.08-1.08h7c.59,0,1.08.47,1.08,1.08,0,.25-.11.51-.34.76l-5.69,6.79h4.95c.59,0,1.08.47,1.08,1.08s-.49,1.08-1.08,1.08h-7.25c-.59,0-1.08-.49-1.08-1.1,0-.34.15-.55.32-.76l5.69-6.77Z"/>
      <path class="cls-2" d="m160.86,25.28c-.93.82-2.16,1.31-3.51,1.31-3.05,0-5.35-2.47-5.35-5.6s2.3-5.6,5.35-5.6c1.35,0,2.58.49,3.51,1.33v-.15c0-.66.51-1.16,1.16-1.16s1.16.51,1.16,1.16v8.82c0,.66-.51,1.18-1.16,1.18s-1.16-.53-1.16-1.18v-.11Zm0-4.29v-.15c-.08-1.88-1.48-3.3-3.26-3.3s-3.26,1.48-3.26,3.45,1.44,3.45,3.26,3.45,3.26-1.48,3.26-3.45Z"/>
    </g>
    <g>
      <path class="cls-2" d="m146.22,16.59c0-.67.54-1.21,1.21-1.21s1.21.54,1.21,1.21-.54,1.21-1.21,1.21-1.21-.56-1.21-1.21Z"/>
      <path class="cls-2" d="m150.74,25.18v.03c0,.89-.83,1.55-1.7,1.33-2.08-.52-3.74-1.98-4.5-3.96-.33-.85.3-1.77,1.21-1.77h0c.52,0,.99.3,1.2.78.48,1.1,1.48,1.94,2.72,2.24.62.15,1.06.7,1.06,1.34Z"/>
    </g>
  </g>
</svg>