<?xml version="1.0" encoding="UTF-8"?>
<svg id="Layer_1" data-name="Layer 1" xmlns="http://www.w3.org/2000/svg" viewBox="0 0 222.49 40">
  <defs>
    <style>
      .cls-1 {
        fill: #efbdd8;
      }

      .cls-2 {
        fill: #f1f1f1;
      }
    </style>
  </defs>
  <g>
    <g>
      <path class="cls-2" d="m57.92,25.33v4.03c0,.64-.49,1.13-1.13,1.13s-1.13-.49-1.13-1.13v-12.5c0-.64.49-1.13,1.13-1.13s1.13.49,1.13,1.13v.14c.9-.82,2.1-1.29,3.41-1.29,2.96,0,5.2,2.41,5.2,5.45s-2.24,5.45-5.2,5.45c-1.32,0-2.51-.47-3.41-1.28Zm6.33-4.17c0-1.91-1.4-3.35-3.17-3.35s-3.11,1.38-3.17,3.21v.14c0,1.91,1.4,3.35,3.17,3.35s3.17-1.44,3.17-3.35Z"/>
      <path class="cls-2" d="m76.92,25.33c-.9.8-2.1,1.28-3.41,1.28-2.96,0-5.2-2.41-5.2-5.45s2.24-5.45,5.2-5.45c1.32,0,2.51.47,3.41,1.29v-.14c0-.64.49-1.13,1.13-1.13s1.13.49,1.13,1.13v8.57c0,.64-.49,1.15-1.13,1.15s-1.13-.51-1.13-1.15v-.1Zm0-4.17v-.14c-.08-1.83-1.44-3.21-3.17-3.21s-3.17,1.44-3.17,3.35,1.4,3.35,3.17,3.35,3.17-1.44,3.17-3.35Z"/>
      <path class="cls-2" d="m81.81,20.51c0-2.92,1.95-4.81,4.63-4.81.58,0,1.05.45,1.05,1.05s-.47,1.05-1.05,1.05c-1.36,0-2.36.91-2.36,2.72v4.91c0,.64-.49,1.15-1.13,1.15s-1.13-.51-1.13-1.15v-4.91Z"/>
      <path class="cls-2" d="m88.29,21.15c0-3.04,2.32-5.45,5.45-5.45s5.45,2.41,5.45,5.45-2.3,5.45-5.45,5.45-5.45-2.41-5.45-5.45Zm8.62,0c0-1.85-1.36-3.35-3.17-3.35s-3.17,1.5-3.17,3.35,1.36,3.35,3.17,3.35,3.17-1.52,3.17-3.35Z"/>
      <path class="cls-2" d="m109.57,25.33c-.9.8-2.1,1.28-3.41,1.28-2.96,0-5.2-2.41-5.2-5.45s2.24-5.45,5.2-5.45c1.32,0,2.51.47,3.41,1.29v-4.05c0-.64.49-1.13,1.13-1.13s1.13.49,1.13,1.13v12.48c0,.64-.49,1.15-1.13,1.15s-1.13-.51-1.13-1.15v-.1Zm0-4.17v-.14c-.08-1.83-1.44-3.21-3.17-3.21s-3.17,1.44-3.17,3.35,1.4,3.35,3.17,3.35,3.17-1.44,3.17-3.35Z"/>
      <path class="cls-2" d="m114.03,21.15c0-3.04,2.32-5.45,5.45-5.45s5.45,2.41,5.45,5.45-2.3,5.45-5.45,5.45-5.45-2.41-5.45-5.45Zm8.62,0c0-1.85-1.36-3.35-3.17-3.35s-3.17,1.5-3.17,3.35,1.36,3.35,3.17,3.35,3.17-1.52,3.17-3.35Z"/>
      <path class="cls-2" d="m127.13,20.49c0-2.94,2.04-4.79,4.63-4.79s4.63,1.85,4.63,4.79v4.93c0,.64-.51,1.15-1.13,1.15s-1.13-.51-1.13-1.15v-5.02c0-1.71-1.05-2.61-2.36-2.61s-2.36.91-2.36,2.61v5.02c0,.64-.49,1.15-1.13,1.15s-1.13-.51-1.13-1.15v-4.93Z"/>
      <path class="cls-2" d="m137.58,16.96c0-.6.47-1.05,1.05-1.05h.74v-1.54c0-.64.49-1.13,1.13-1.13s1.13.49,1.13,1.13v1.54h2.41c.58,0,1.05.45,1.05,1.05s-.47,1.05-1.05,1.05h-2.41v3.72c0,1.81,1.01,2.74,2.41,2.74.58,0,1.05.47,1.05,1.05s-.47,1.07-1.05,1.07c-2.65,0-4.67-1.87-4.67-4.85v-3.72h-.74c-.58,0-1.05-.47-1.05-1.05Z"/>
      <path class="cls-2" d="m146.24,21.15c0-3.04,2.32-5.45,5.45-5.45s5.45,2.41,5.45,5.45-2.3,5.45-5.45,5.45-5.45-2.41-5.45-5.45Zm8.62,0c0-1.85-1.36-3.35-3.17-3.35s-3.17,1.5-3.17,3.35,1.36,3.35,3.17,3.35,3.17-1.52,3.17-3.35Z"/>
      <path class="cls-2" d="m159.33,12.95c0-.64.49-1.13,1.13-1.13s1.13.49,1.13,1.13v12.48c0,.64-.49,1.15-1.13,1.15s-1.13-.51-1.13-1.15v-12.48Z"/>
      <path class="cls-2" d="m163.8,21.15c0-3.04,2.32-5.45,5.45-5.45s5.45,2.41,5.45,5.45-2.3,5.45-5.45,5.45-5.45-2.41-5.45-5.45Zm8.62,0c0-1.85-1.36-3.35-3.17-3.35s-3.17,1.5-3.17,3.35,1.36,3.35,3.17,3.35,3.17-1.52,3.17-3.35Z"/>
      <path class="cls-2" d="m176.46,21.15c0-3.04,2.24-5.45,5.2-5.45,1.32,0,2.51.47,3.41,1.29v-.14c0-.64.49-1.13,1.13-1.13s1.13.49,1.13,1.13v8.2c0,3.08-2.47,5.45-5.55,5.45-1.75,0-3.13-.74-3.93-1.64-.21-.25-.33-.54-.33-.76,0-.64.49-1.07,1.11-1.07.45,0,.7.27.99.51.56.51,1.25.86,2.16.86,1.79,0,3.15-1.38,3.27-3.08-.9.8-2.08,1.28-3.39,1.28-2.96,0-5.2-2.41-5.2-5.45Zm8.62.14v-.14c0-1.91-1.4-3.35-3.17-3.35s-3.17,1.44-3.17,3.35,1.4,3.35,3.17,3.35,3.08-1.36,3.17-3.21Z"/>
      <path class="cls-2" d="m205.1,25.33c-.9.8-2.1,1.28-3.41,1.28-2.96,0-5.2-2.41-5.2-5.45s2.24-5.45,5.2-5.45c1.32,0,2.51.47,3.41,1.29v-.14c0-.64.49-1.13,1.13-1.13s1.13.49,1.13,1.13v8.57c0,.64-.49,1.15-1.13,1.15s-1.13-.51-1.13-1.15v-.1Zm0-4.17v-.14c-.08-1.83-1.44-3.21-3.17-3.21s-3.17,1.44-3.17,3.35,1.4,3.35,3.17,3.35,3.17-1.44,3.17-3.35Z"/>
    </g>
    <g>
      <path class="cls-2" d="m190.85,16.88c0-.65.52-1.17,1.17-1.17s1.17.52,1.17,1.17-.52,1.17-1.17,1.17-1.17-.54-1.17-1.17Z"/>
      <path class="cls-2" d="m195.26,25.23v.03c0,.87-.81,1.51-1.65,1.3-2.02-.5-3.63-1.92-4.38-3.85-.32-.83.29-1.72,1.18-1.72h0c.5,0,.97.29,1.17.76.47,1.07,1.44,1.88,2.65,2.18.6.15,1.03.68,1.03,1.3Z"/>
    </g>
  </g>
  <g>
    <path class="cls-2" d="m41.24,11.16c-1.12-2.92-3.92-4.87-7.25-4.87-2.35,0-4.42.98-5.84,2.58-1.42-1.6-3.49-2.58-5.84-2.58-3.33,0-6.13,1.95-7.25,4.87-.38,1,.35,2.07,1.42,2.07h.03c.6,0,1.14-.36,1.38-.91.72-1.64,2.43-2.77,4.42-2.77s3.71,1.13,4.42,2.77c.09.21.23.37.4.52,0,0,0,0,0,0,.08.07.17.14.27.19.03.02.07.03.1.05.08.04.15.07.24.09.1.03.2.04.3.04.03,0,.06.01.09.01h0s0,0,0,0,0,0,0,0h.03c.07,0,.14-.02.22-.03.05,0,.1,0,.14-.02.45-.11.83-.42,1.03-.86.72-1.64,2.43-2.77,4.42-2.77s3.71,1.13,4.42,2.77c.24.56.8.91,1.41.91h0c1.07,0,1.81-1.07,1.42-2.07Z"/>
    <path class="cls-2" d="m39.89,27.49c.5-.78.93-1.62,1.27-2.51.69-1.79-.63-3.72-2.55-3.72h0c-1.09,0-2.09.64-2.52,1.64-.08.19-.17.37-.27.56,1.63,1.04,3.01,2.41,4.07,4.04Z"/>
    <path class="cls-2" d="m16.42,27.49c1.05-1.63,2.44-3,4.07-4.04-.1-.18-.19-.36-.27-.55-.43-.99-1.4-1.64-2.48-1.64h-.05c-1.92,0-3.24,1.93-2.55,3.72.34.89.77,1.73,1.27,2.51Z"/>
    <path class="cls-1" d="m15.15,29.99c.34-.89.77-1.73,1.27-2.51,1.05-1.63,2.44-3,4.07-4.04,2.19-1.4,4.82-2.19,7.66-2.19s5.48.79,7.67,2.19c1.63,1.04,3.01,2.41,4.07,4.04.5.78.93,1.62,1.27,2.51.69,1.79-.63,3.72-2.55,3.72h0c-1.09,0-2.09-.64-2.52-1.64-.08-.19-.17-.37-.27-.56-1.02-1.92-2.82-3.38-5.02-4.04-.83-.25-1.72-.38-2.64-.38s-1.8.13-2.62.38c-2.2.66-4.01,2.12-5.04,4.04-.1.18-.19.36-.27.55-.43.99-1.4,1.64-2.48,1.64h-.05c-1.92,0-3.24-1.93-2.55-3.72Z"/>
  </g>
</svg>