<?xml version="1.0" encoding="UTF-8"?>
<svg id="Layer_1" data-name="Layer 1" xmlns="http://www.w3.org/2000/svg" viewBox="0 0 186.74 40">
  <defs>
    <style>
      .cls-1 {
        fill: #efbdd8;
      }

      .cls-2 {
        fill: #f1f1f1;
      }
    </style>
  </defs>
  <g>
    <g>
      <path class="cls-2" d="m155.16,17.76c0-.65.53-1.18,1.18-1.18s1.18.53,1.18,1.18-.53,1.18-1.18,1.18-1.18-.54-1.18-1.18Z"/>
      <path class="cls-2" d="m159.58,26.15v.03c0,.87-.82,1.51-1.66,1.3-2.03-.51-3.65-1.93-4.4-3.86-.32-.83.29-1.73,1.19-1.73h0c.51,0,.97.3,1.17.76.47,1.08,1.45,1.89,2.66,2.19.6.15,1.03.68,1.03,1.31Z"/>
    </g>
    <g>
      <path class="cls-2" d="m57.97,26.46v4.05c0,.64-.5,1.14-1.14,1.14s-1.14-.5-1.14-1.14v-12.56c0-.64.5-1.14,1.14-1.14s1.14.5,1.14,1.14v.14c.91-.83,2.11-1.3,3.43-1.3,2.97,0,5.23,2.42,5.23,5.47s-2.25,5.47-5.23,5.47c-1.32,0-2.52-.48-3.43-1.28Zm6.36-4.19c0-1.92-1.4-3.37-3.18-3.37s-3.12,1.38-3.18,3.22v.14c0,1.92,1.4,3.37,3.18,3.37s3.18-1.45,3.18-3.37Z"/>
      <path class="cls-2" d="m68.4,22.26c0-3.06,2.33-5.47,5.47-5.47,1.61,0,2.87.64,3.57,1.28.25.23.41.54.41.87,0,.29-.08.54-.33.83l-3.18,3.78c-.23.27-.48.37-.79.37-.62,0-1.07-.43-1.07-1.03,0-.25.06-.5.25-.68l2.5-2.93c-.35-.25-.91-.37-1.36-.37-1.78,0-3.18,1.49-3.18,3.37s1.38,3.37,3.18,3.37c.97,0,1.69-.41,2.19-.93.33-.27.56-.52.99-.52.64,0,1.12.45,1.12,1.09,0,.23-.12.52-.33.74-.79.95-2.21,1.71-3.97,1.71-3.12,0-5.47-2.42-5.47-5.47Z"/>
      <path class="cls-2" d="m88.09,26.46c-.91.81-2.11,1.28-3.43,1.28-2.97,0-5.23-2.42-5.23-5.47s2.25-5.47,5.23-5.47c1.32,0,2.52.48,3.43,1.3v-4.07c0-.64.5-1.14,1.14-1.14s1.14.5,1.14,1.14v12.54c0,.64-.5,1.16-1.14,1.16s-1.14-.52-1.14-1.16v-.1Zm0-4.19v-.14c-.08-1.84-1.45-3.22-3.18-3.22s-3.18,1.45-3.18,3.37,1.4,3.37,3.18,3.37,3.18-1.45,3.18-3.37Z"/>
      <path class="cls-2" d="m92.57,22.26c0-3.06,2.33-5.47,5.47-5.47s5.47,2.42,5.47,5.47-2.31,5.47-5.47,5.47-5.47-2.42-5.47-5.47Zm8.66,0c0-1.86-1.36-3.37-3.18-3.37s-3.18,1.51-3.18,3.37,1.36,3.37,3.18,3.37,3.18-1.53,3.18-3.37Z"/>
      <path class="cls-2" d="m113.95,26.46c-.91.81-2.11,1.28-3.43,1.28-2.97,0-5.23-2.42-5.23-5.47s2.25-5.47,5.23-5.47c1.32,0,2.52.48,3.43,1.3v-4.07c0-.64.5-1.14,1.14-1.14s1.14.5,1.14,1.14v12.54c0,.64-.5,1.16-1.14,1.16s-1.14-.52-1.14-1.16v-.1Zm0-4.19v-.14c-.08-1.84-1.45-3.22-3.18-3.22s-3.18,1.45-3.18,3.37,1.4,3.37,3.18,3.37,3.18-1.45,3.18-3.37Z"/>
      <path class="cls-2" d="m118.43,22.26c0-3.06,2.33-5.47,5.47-5.47s5.47,2.42,5.47,5.47-2.31,5.47-5.47,5.47-5.47-2.42-5.47-5.47Zm8.66,0c0-1.86-1.36-3.37-3.18-3.37s-3.18,1.51-3.18,3.37,1.36,3.37,3.18,3.37,3.18-1.53,3.18-3.37Z"/>
      <path class="cls-2" d="m131.59,21.6c0-2.95,2.05-4.81,4.65-4.81s4.65,1.86,4.65,4.81v4.96c0,.64-.52,1.16-1.14,1.16s-1.14-.52-1.14-1.16v-5.04c0-1.71-1.05-2.62-2.38-2.62s-2.38.91-2.38,2.62v5.04c0,.64-.5,1.16-1.14,1.16s-1.14-.52-1.14-1.16v-4.96Z"/>
      <path class="cls-2" d="m148.63,19.1h-4.57c-.58,0-1.05-.48-1.05-1.05s.48-1.05,1.05-1.05h6.84c.58,0,1.05.45,1.05,1.05,0,.25-.1.5-.33.74l-5.56,6.63h4.83c.58,0,1.05.45,1.05,1.05s-.48,1.05-1.05,1.05h-7.09c-.58,0-1.05-.48-1.05-1.07,0-.33.14-.54.31-.74l5.56-6.61Z"/>
      <path class="cls-2" d="m169.47,26.46c-.91.81-2.11,1.28-3.43,1.28-2.97,0-5.23-2.42-5.23-5.47s2.25-5.47,5.23-5.47c1.32,0,2.52.48,3.43,1.3v-.14c0-.64.5-1.14,1.14-1.14s1.14.5,1.14,1.14v8.62c0,.64-.5,1.16-1.14,1.16s-1.14-.52-1.14-1.16v-.1Zm0-4.19v-.14c-.08-1.84-1.45-3.22-3.18-3.22s-3.18,1.45-3.18,3.37,1.4,3.37,3.18,3.37,3.18-1.45,3.18-3.37Z"/>
    </g>
  </g>
  <g>
    <path class="cls-2" d="m39.86,26.77h-.03c-.6,0-1.14.36-1.38.91-.72,1.64-2.43,2.77-4.42,2.77s-3.71-1.13-4.42-2.77c-.09-.21-.23-.37-.4-.52,0,0,0,0,0,0-.08-.07-.17-.14-.27-.19-.03-.02-.07-.03-.1-.05-.08-.04-.15-.07-.24-.09-.1-.03-.2-.04-.3-.04-.03,0-.06-.01-.09-.01h0s0,0,0,0,0,0,0,0h-.03c-.07,0-.14.02-.22.03-.05,0-.1,0-.14.02-.45.11-.83.42-1.03.86-.72,1.64-2.43,2.77-4.42,2.77s-3.71-1.13-4.42-2.77c-.24-.56-.8-.91-1.41-.91h0c-1.07,0-1.81,1.07-1.42,2.07,1.12,2.92,3.92,4.87,7.25,4.87,2.35,0,4.42-.98,5.84-2.58,1.42,1.6,3.49,2.58,5.84,2.58,3.33,0,6.13-1.95,7.25-4.87.38-1-.35-2.07-1.42-2.07Z"/>
    <path class="cls-2" d="m38.65,18.74c1.92,0,3.24-1.93,2.55-3.72-2.02-5.24-7.03-8.74-13.01-8.74s-10.99,3.5-13.01,8.73c-.69,1.79.63,3.72,2.55,3.72h0c1.09,0,2.09-.64,2.52-1.64,1.28-2.94,4.32-4.97,7.94-4.97s6.64,2.03,7.93,4.97c.43.99,1.4,1.64,2.48,1.64h.05Z"/>
  </g>
  <g>
    <path class="cls-1" d="m32.27,22.67h0c-.21,0-.4.13-.48.32-.25.57-.85.97-1.54.97s-1.3-.4-1.54-.97c0-.02-.03-.03-.04-.05-.02-.04-.06-.07-.09-.1-.03-.03-.06-.06-.1-.09-.07-.04-.15-.06-.23-.07-.01,0-.02,0-.03,0h0s0,0,0,0,0,0,0,0h0s-.05.02-.07.02c-.06.01-.13.02-.18.05-.04.03-.07.06-.11.1-.03.03-.05.05-.07.09-.01.02-.04.03-.05.06-.25.57-.85.97-1.54.97s-1.3-.4-1.54-.97c-.08-.19-.28-.32-.49-.32h0c-.37,0-.63.38-.5.72.39,1.02,1.37,1.7,2.53,1.7.82,0,1.54-.35,2.04-.92.5.56,1.21.92,2.04.92,1.16,0,2.14-.68,2.53-1.7.13-.35-.12-.72-.5-.72Z"/>
    <path class="cls-1" d="m24.54,19.87h0c.38,0,.73-.22.88-.57.45-1.03,1.51-1.74,2.77-1.74s2.32.71,2.77,1.74c.15.34.49.57.87.57h.02c.67,0,1.13-.67.89-1.3-.7-1.83-2.45-3.05-4.54-3.05s-3.84,1.22-4.54,3.05c-.24.63.22,1.3.89,1.3Z"/>
  </g>
</svg>