<?xml version="1.0" encoding="UTF-8"?>
<svg id="Layer_1" data-name="Layer 1" xmlns="http://www.w3.org/2000/svg" viewBox="0 0 139.2 40">
  <defs>
    <style>
      .cls-1 {
        fill: #efbdd8;
      }

      .cls-2 {
        fill: #f1f1f1;
      }
    </style>
  </defs>
  <g>
    <g>
      <path class="cls-2" d="m57.71,25.26v4.19c0,.66-.51,1.18-1.18,1.18s-1.18-.51-1.18-1.18v-12.99c0-.66.51-1.18,1.18-1.18s1.18.51,1.18,1.18v.15c.94-.85,2.18-1.35,3.55-1.35,3.08,0,5.41,2.5,5.41,5.66s-2.33,5.66-5.41,5.66c-1.37,0-2.61-.49-3.55-1.33Zm6.58-4.34c0-1.99-1.45-3.48-3.29-3.48s-3.23,1.43-3.29,3.33v.15c0,1.99,1.45,3.48,3.29,3.48s3.29-1.5,3.29-3.48Z"/>
      <path class="cls-2" d="m68.95,20.26c0-3.03,2.03-5,4.81-5,.6,0,1.09.47,1.09,1.09s-.49,1.09-1.09,1.09c-1.41,0-2.46.94-2.46,2.82v5.11c0,.66-.51,1.2-1.18,1.2s-1.18-.53-1.18-1.2v-5.11Z"/>
      <path class="cls-2" d="m75.68,20.92c0-3.16,2.41-5.66,5.66-5.66s5.66,2.5,5.66,5.66-2.39,5.66-5.66,5.66-5.66-2.5-5.66-5.66Zm8.95,0c0-1.92-1.41-3.48-3.29-3.48s-3.29,1.56-3.29,3.48,1.41,3.48,3.29,3.48,3.29-1.58,3.29-3.48Z"/>
      <path class="cls-2" d="m87.71,16.56c0-.62.49-1.09,1.09-1.09h.77v-1.6c0-.66.51-1.18,1.18-1.18s1.18.51,1.18,1.18v1.6h2.5c.6,0,1.09.47,1.09,1.09s-.49,1.09-1.09,1.09h-2.5v3.87c0,1.88,1.05,2.84,2.5,2.84.6,0,1.09.49,1.09,1.09s-.49,1.11-1.09,1.11c-2.76,0-4.85-1.94-4.85-5.04v-3.87h-.77c-.6,0-1.09-.49-1.09-1.09Z"/>
      <path class="cls-2" d="m96.71,20.92c0-3.16,2.42-5.66,5.66-5.66,1.67,0,2.97.66,3.7,1.32.26.23.43.56.43.9,0,.3-.09.56-.34.85l-3.29,3.91c-.24.28-.49.38-.81.38-.64,0-1.11-.45-1.11-1.07,0-.26.06-.51.26-.71l2.59-3.03c-.36-.26-.94-.38-1.41-.38-1.84,0-3.29,1.54-3.29,3.48s1.43,3.48,3.29,3.48c1,0,1.75-.43,2.26-.96.34-.28.58-.53,1.03-.53.66,0,1.15.47,1.15,1.13,0,.23-.13.53-.34.77-.81.98-2.29,1.77-4.1,1.77-3.23,0-5.66-2.5-5.66-5.66Z"/>
      <path class="cls-2" d="m109.64,22.93c.34,0,.64.15.81.43.32.47.77,1.11,1.69,1.11.71,0,1.22-.53,1.22-1.15,0-.88-.81-1.22-1.82-1.56-1.35-.47-2.86-1.05-2.86-3.25,0-1.82,1.5-3.25,3.46-3.25,1.82,0,3.48,1.11,3.48,2.46,0,.6-.49,1.05-1.09,1.05-.24,0-.53-.09-.68-.38-.36-.41-.88-1.03-1.71-1.03-.73,0-1.2.53-1.2,1.15,0,.88.9,1.15,1.99,1.52,1.3.41,2.78,1.09,2.78,3.23,0,1.8-1.56,3.33-3.57,3.33-1.9,0-3.57-1.24-3.57-2.56,0-.6.47-1.09,1.07-1.09Z"/>
    </g>
    <g>
      <path class="cls-2" d="m118.75,16.46c0-.68.54-1.22,1.22-1.22s1.22.54,1.22,1.22-.54,1.22-1.22,1.22-1.22-.56-1.22-1.22Z"/>
      <path class="cls-2" d="m123.33,25.14v.04c0,.9-.84,1.57-1.72,1.35-2.1-.52-3.78-2-4.55-4-.33-.86.3-1.79,1.23-1.79h0c.52,0,1,.31,1.21.79.49,1.11,1.5,1.96,2.75,2.27.62.15,1.07.71,1.07,1.35Z"/>
    </g>
  </g>
  <g>
    <path class="cls-1" d="m25.32,19.63c0-1.4,1.13-2.53,2.53-2.53s2.53,1.13,2.53,2.53-1.13,2.53-2.53,2.53-2.53-1.17-2.53-2.53Z"/>
    <path class="cls-2" d="m38.31,22.54c1.92,0,3.24,1.93,2.55,3.72-2.02,5.24-7.03,8.74-13.01,8.74s-10.99-3.5-13.01-8.73c-.69-1.79.63-3.72,2.55-3.72h0c1.09,0,2.09.64,2.52,1.64,1.28,2.94,4.32,4.97,7.94,4.97s6.64-2.03,7.93-4.97c.43-.99,1.4-1.64,2.48-1.64h.05Z"/>
    <path class="cls-2" d="m38.31,17.46c1.92,0,3.24-1.93,2.55-3.72-2.02-5.24-7.03-8.74-13.01-8.74s-10.99,3.5-13.01,8.73c-.69,1.79.63,3.72,2.55,3.72h0c1.09,0,2.09-.64,2.52-1.64,1.28-2.94,4.32-4.97,7.94-4.97s6.64,2.03,7.93,4.97c.43.99,1.4,1.64,2.48,1.64h.05Z"/>
  </g>
</svg>