<?xml version="1.0" encoding="UTF-8"?>
<svg id="Layer_1" data-name="Layer 1" xmlns="http://www.w3.org/2000/svg" viewBox="0 0 150 150">
  <defs>
    <style>
      .cls-1 {
        fill: #efbdd8;
      }

      .cls-2 {
        fill: #f1f1f1;
      }
    </style>
  </defs>
  <g>
    <path class="cls-2" d="m116.28,99.68h-.1c-2.19,0-4.16,1.32-5.04,3.32-2.63,5.98-8.85,10.11-16.11,10.11s-13.53-4.13-16.13-10.11c-.33-.76-.85-1.36-1.45-1.89,0,0,0,0-.01-.01-.31-.27-.63-.51-.98-.7-.12-.07-.25-.12-.38-.18-.29-.13-.56-.26-.87-.34-.35-.1-.72-.13-1.09-.16-.11,0-.22-.05-.33-.05h0s-.02,0-.02,0-.02,0-.02,0h-.1c-.27,0-.52.08-.79.12-.17.03-.35.03-.51.08-1.64.41-3.04,1.53-3.75,3.13-2.63,5.98-8.85,10.11-16.11,10.11s-13.53-4.13-16.13-10.11c-.88-2.03-2.91-3.32-5.12-3.32h0c-3.9,0-6.58,3.92-5.18,7.56,4.1,10.65,14.29,17.76,26.44,17.76,8.57,0,16.11-3.59,21.28-9.41,5.17,5.82,12.72,9.41,21.28,9.41,12.14,0,22.34-7.11,26.44-17.76,1.4-3.64-1.28-7.56-5.18-7.56Z"/>
    <path class="cls-1" d="m111.87,70.41c7,0,11.81-7.03,9.29-13.56-7.35-19.1-25.64-31.85-47.42-31.85s-40.07,12.75-47.42,31.85c-2.52,6.54,2.29,13.56,9.29,13.56h0c3.97,0,7.6-2.32,9.19-5.96,4.67-10.72,15.76-18.13,28.93-18.13s24.19,7.41,28.9,18.13c1.58,3.6,5.11,5.96,9.04,5.96h.18Z"/>
  </g>
  <path class="cls-2" d="m105.32,45.59l-7.76.07c-1.41.07-2.54-1.2-2.54-2.61s1.13-2.68,2.54-2.61l7.83.14-4.02-6.62c-.28-.42-.42-.92-.42-1.34,0-1.34,1.2-2.61,2.75-2.61.92,0,1.76.42,2.26,1.34l3.74,6.63,3.74-6.63c.49-.92,1.34-1.34,2.26-1.34,1.41,0,2.75,1.13,2.75,2.61,0,.42-.14.92-.42,1.34l-3.95,6.62,7.76-.14c1.41-.07,2.54,1.2,2.54,2.61s-1.13,2.68-2.54,2.61l-7.76-.07,3.95,6.56c.28.42.42.92.42,1.34,0,1.34-1.2,2.61-2.75,2.61-.92,0-1.76-.49-2.26-1.34l-3.74-6.7-3.74,6.7c-.49.84-1.34,1.34-2.26,1.34-1.41,0-2.75-1.13-2.75-2.61,0-.42.14-.92.42-1.34l3.95-6.56Z"/>
</svg>