<?xml version="1.0" encoding="UTF-8"?>
<svg id="Layer_1" data-name="Layer 1" xmlns="http://www.w3.org/2000/svg" viewBox="0 0 150 150">
  <defs>
    <style>
      .cls-1 {
        fill: #efbdd8;
      }

      .cls-2 {
        fill: #f1f1f1;
      }
    </style>
  </defs>
  <path class="cls-2" d="m33.95,57.12c-4.95,0-8.35-4.97-6.57-9.6,5.2-13.51,18.14-22.53,33.55-22.53s28.35,9.02,33.55,22.53c1.78,4.62-1.62,9.6-6.57,9.6h0c-2.81,0-5.38-1.64-6.5-4.22-3.3-7.58-11.15-12.83-20.47-12.83-9.21,0-17.11,5.25-20.45,12.83-1.12,2.55-3.61,4.22-6.4,4.22h-.13Z"/>
  <path class="cls-2" d="m62.1,92.88c-4.95,0-8.35,4.97-6.57,9.6,5.2,13.51,18.14,22.53,33.55,22.53s28.35-9.02,33.55-22.53c1.78-4.62-1.62-9.6-6.57-9.6h0c-2.81,0-5.38,1.64-6.5,4.22-3.3,7.58-11.15,12.83-20.47,12.83-9.21,0-17.11-5.25-20.45-12.83-1.12-2.55-3.61-4.22-6.4-4.22h-.13Z"/>
  <path class="cls-1" d="m39.73,89.37c-4.08,0-6.88-4.1-5.42-7.91,4.29-11.14,14.95-18.57,27.65-18.57s23.37,7.43,27.65,18.57c1.47,3.81-1.33,7.91-5.42,7.91h0c-2.32,0-4.43-1.35-5.36-3.48-2.72-6.25-9.19-10.58-16.87-10.58s-14.11,4.32-16.86,10.58c-.92,2.1-2.98,3.48-5.27,3.48h-.11Z"/>
</svg>