<?xml version="1.0" encoding="UTF-8"?>
<svg id="Layer_1" data-name="Layer 1" xmlns="http://www.w3.org/2000/svg" viewBox="0 0 150 150">
  <defs>
    <style>
      .cls-1 {
        fill: #efbdd8;
      }

      .cls-2 {
        fill: #f1f1f1;
      }
    </style>
  </defs>
  <path class="cls-1" d="m117.04,64.77c0,5.2-.95,10.22-2.68,14.89-.4-.05-.81-.08-1.23-.08h0c-3.97,0-7.61,2.32-9.19,5.97-4.67,10.72-15.77,18.13-28.93,18.13s-24.19-7.41-28.9-18.13c-1.59-3.61-5.11-5.97-9.04-5.97h-.18c-.42,0-.82.02-1.23.08-1.74-4.67-2.68-9.7-2.68-14.89,0-5.47.99-10.69,2.81-15.5.79-.57,1.42-1.35,1.84-2.28,2.62-5.97,8.85-10.1,16.11-10.1s13.53,4.13,16.13,10.1c.81,1.87,2.59,3.11,4.58,3.3.08.02.17.02.26.02s.18,0,.28,0h0c.1,0,.2,0,.29,0,2.13-.05,4.04-1.35,4.9-3.32,2.62-5.97,8.85-10.1,16.11-10.1s13.53,4.13,16.13,10.1c.39.92,1.04,1.69,1.82,2.25,1.81,4.81,2.81,10.04,2.81,15.53Z"/>
  <g>
    <path class="cls-2" d="m122.72,42.76c-4.1-10.65-14.29-17.76-26.44-17.76-1.57,0-3.1.12-4.59.35-6.65,1.02-12.47,4.23-16.68,8.96-4.22-4.73-10.05-7.94-16.7-8.96-1.49-.23-3.02-.35-4.59-.35-12.14,0-22.33,7.11-26.43,17.76-1.41,3.65,1.27,7.56,5.18,7.56h.1c1.18,0,2.29-.38,3.21-1.04.79-.57,1.42-1.35,1.84-2.28,2.62-5.97,8.85-10.1,16.11-10.1s13.53,4.13,16.13,10.1c.46,1.05,1.23,1.87,2.17,2.45,0,0,0,0,0,0,.35.22.72.41,1.11.55.41.15.85.25,1.3.3.08,0,.17.01.26.02.09,0,.18,0,.28,0h0c.1,0,.2,0,.29,0,2.13-.05,4.04-1.35,4.9-3.32,2.62-5.97,8.85-10.1,16.11-10.1s13.53,4.13,16.13,10.1c.39.92,1.04,1.69,1.82,2.25.94.69,2.09,1.07,3.3,1.07h0c3.9,0,6.58-3.92,5.18-7.56Z"/>
    <path class="cls-2" d="m122.42,93.15c-7.35,19.1-25.64,31.85-47.42,31.85s-40.07-12.75-47.42-31.85c-2.36-6.14,1.75-12.73,8.07-13.49.4-.05.81-.08,1.23-.08h.18c3.93,0,7.46,2.36,9.04,5.97,4.71,10.72,15.87,18.13,28.9,18.13s24.26-7.41,28.93-18.13c1.58-3.65,5.22-5.97,9.19-5.97h0c.42,0,.82.02,1.23.08,6.32.76,10.43,7.35,8.06,13.49Z"/>
  </g>
</svg>