<?xml version="1.0" encoding="UTF-8"?>
<svg id="Layer_1" data-name="Layer 1" xmlns="http://www.w3.org/2000/svg" viewBox="0 0 150 150">
  <defs>
    <style>
      .cls-1 {
        fill: #efbdd8;
      }

      .cls-2 {
        fill: #f1f1f1;
      }
    </style>
  </defs>
  <g>
    <path class="cls-2" d="m117.54,99.68h-.1c-2.19,0-4.16,1.32-5.04,3.32-2.63,5.98-8.85,10.11-16.11,10.11s-13.53-4.13-16.13-10.11c-.33-.75-.85-1.36-1.45-1.89,0,0,0,0-.01-.01-.31-.27-.63-.51-.98-.7-.12-.07-.25-.12-.38-.18-.28-.13-.56-.26-.87-.34-.35-.1-.72-.13-1.1-.16-.11,0-.22-.05-.33-.05h0s-.02,0-.02,0-.02,0-.02,0h-.1c-.27,0-.52.08-.79.12-.17.03-.35.03-.51.08-1.64.41-3.04,1.53-3.74,3.13-2.63,5.98-8.85,10.11-16.11,10.11s-13.53-4.13-16.13-10.11c-.88-2.03-2.91-3.32-5.12-3.32h0c-3.9,0-6.58,3.92-5.18,7.56,4.1,10.65,14.29,17.76,26.44,17.76,8.57,0,16.11-3.59,21.28-9.41,5.17,5.82,12.72,9.41,21.28,9.41,12.14,0,22.34-7.11,26.44-17.76,1.4-3.64-1.28-7.56-5.18-7.56Z"/>
    <path class="cls-2" d="m113.13,70.41c7,0,11.81-7.03,9.29-13.56-7.35-19.1-25.64-31.85-47.42-31.85s-40.07,12.75-47.42,31.85c-2.52,6.54,2.29,13.56,9.29,13.56h0c3.97,0,7.6-2.32,9.19-5.96,4.67-10.72,15.76-18.13,28.93-18.13s24.19,7.41,28.9,18.13c1.58,3.6,5.11,5.96,9.04,5.96h.18Z"/>
  </g>
  <g>
    <path class="cls-1" d="m101.02,87.43h-52.04c-3.13,0-5.67-2.54-5.67-5.67s2.54-5.67,5.67-5.67h52.04c3.13,0,5.67,2.54,5.67,5.67s-2.54,5.67-5.67,5.67Z"/>
    <path class="cls-2" d="m71.38,83.86l-6.42.06c-1.17.06-2.1-.99-2.1-2.16s.93-2.22,2.1-2.16l6.48.12-3.33-5.48c-.23-.35-.35-.76-.35-1.11,0-1.11.99-2.16,2.28-2.16.76,0,1.46.35,1.87,1.11l3.09,5.49,3.09-5.49c.41-.76,1.11-1.11,1.87-1.11,1.17,0,2.28.93,2.28,2.16,0,.35-.12.76-.35,1.11l-3.27,5.48,6.42-.12c1.17-.06,2.1.99,2.1,2.16s-.93,2.22-2.1,2.16l-6.42-.06,3.27,5.43c.24.35.35.76.35,1.11,0,1.11-.99,2.16-2.28,2.16-.76,0-1.46-.41-1.87-1.11l-3.09-5.54-3.09,5.54c-.41.7-1.11,1.11-1.87,1.11-1.17,0-2.28-.93-2.28-2.16,0-.35.12-.76.35-1.11l3.27-5.43Z"/>
  </g>
</svg>