<?xml version="1.0" encoding="UTF-8"?>
<svg id="Layer_1" data-name="Layer 1" xmlns="http://www.w3.org/2000/svg" viewBox="0 0 150 150">
  <defs>
    <style>
      .cls-1 {
        fill: #efbdd8;
      }

      .cls-2 {
        fill: #f1f1f1;
      }
    </style>
  </defs>
  <g>
    <path class="cls-2" d="m117.54,99.68h-.1c-2.19,0-4.16,1.32-5.04,3.32-2.63,5.98-8.85,10.11-16.11,10.11s-13.53-4.13-16.13-10.11c-.33-.75-.85-1.36-1.45-1.89,0,0,0,0-.01-.01-.31-.27-.63-.51-.98-.7-.12-.07-.25-.12-.38-.18-.28-.13-.56-.26-.87-.34-.35-.1-.72-.13-1.1-.16-.11,0-.22-.05-.33-.05h0s-.02,0-.02,0-.02,0-.02,0h-.1c-.27,0-.52.08-.79.12-.17.03-.35.03-.51.08-1.64.41-3.04,1.53-3.74,3.13-2.63,5.98-8.85,10.11-16.11,10.11s-13.53-4.13-16.13-10.11c-.88-2.03-2.91-3.32-5.12-3.32h0c-3.9,0-6.58,3.92-5.18,7.56,4.1,10.65,14.29,17.76,26.44,17.76,8.57,0,16.11-3.59,21.28-9.41,5.17,5.82,12.72,9.41,21.28,9.41,12.14,0,22.34-7.11,26.44-17.76,1.4-3.64-1.28-7.56-5.18-7.56Z"/>
    <path class="cls-2" d="m113.13,70.41c7,0,11.81-7.03,9.29-13.56-7.35-19.1-25.64-31.85-47.42-31.85s-40.07,12.75-47.42,31.85c-2.52,6.54,2.29,13.56,9.29,13.56h0c3.97,0,7.6-2.32,9.19-5.96,4.67-10.72,15.76-18.13,28.93-18.13s24.19,7.41,28.9,18.13c1.58,3.6,5.11,5.96,9.04,5.96h.18Z"/>
  </g>
  <g>
    <path class="cls-1" d="m89.85,84.75h-.04c-.77,0-1.45.46-1.76,1.16-.92,2.09-3.09,3.53-5.63,3.53s-4.72-1.44-5.63-3.53c-.03-.08-.11-.11-.16-.18-.09-.15-.2-.26-.32-.38-.12-.11-.21-.23-.35-.31-.25-.15-.54-.23-.85-.25-.04,0-.07-.03-.11-.03h0s0,0,0,0,0,0,0,0h-.04c-.1,0-.17.07-.26.08-.23.04-.47.08-.66.2-.16.09-.27.23-.4.36-.1.1-.2.2-.27.32-.05.08-.13.12-.17.2-.92,2.09-3.09,3.53-5.63,3.53s-4.72-1.44-5.63-3.53c-.31-.71-1.02-1.16-1.79-1.16h0c-1.36,0-2.3,1.37-1.81,2.64,1.43,3.72,4.99,6.2,9.23,6.2,3,0,5.62-1.29,7.43-3.34,1.81,2.05,4.43,3.34,7.43,3.34,4.24,0,7.8-2.48,9.23-6.2.49-1.27-.45-2.64-1.81-2.64Z"/>
    <path class="cls-1" d="m61.69,74.53h0c1.39,0,2.65-.81,3.21-2.08,1.63-3.74,5.5-6.33,10.1-6.33s8.45,2.59,10.09,6.33c.55,1.26,1.78,2.08,3.16,2.08h.06c2.44,0,4.12-2.45,3.24-4.74-2.57-6.67-8.95-11.12-16.55-11.12s-13.99,4.45-16.55,11.12c-.88,2.28.8,4.74,3.24,4.74Z"/>
  </g>
</svg>