<?xml version="1.0" encoding="UTF-8"?>
<svg id="Layer_1" data-name="Layer 1" xmlns="http://www.w3.org/2000/svg" viewBox="0 0 150 150">
  <defs>
    <style>
      .cls-1 {
        fill: #efbdd8;
      }

      .cls-2 {
        fill: #f1f1f1;
      }
    </style>
  </defs>
  <path class="cls-2" d="m122.72,42.76c-4.1-10.65-14.29-17.76-26.44-17.76-8.57,0-16.11,3.59-21.28,9.41-5.17-5.82-12.72-9.41-21.28-9.41-12.14,0-22.34,7.11-26.44,17.76-1.4,3.64,1.28,7.56,5.18,7.56h.1c2.19,0,4.16-1.32,5.04-3.32,2.63-5.98,8.85-10.11,16.11-10.11s13.53,4.13,16.13,10.11c.33.75.85,1.36,1.45,1.89,0,0,0,0,.01.01.31.27.63.51.98.7.12.07.25.12.38.18.28.13.56.26.87.34.35.1.72.13,1.1.16.11,0,.22.05.33.05h0s.02,0,.02,0,.02,0,.02,0h.1c.27,0,.52-.08.79-.12.17-.03.35-.03.51-.08,1.64-.41,3.04-1.53,3.74-3.13,2.63-5.98,8.85-10.11,16.11-10.11s13.53,4.13,16.13,10.11c.88,2.03,2.91,3.32,5.12,3.32h0c3.9,0,6.58-3.92,5.18-7.56Z"/>
  <path class="cls-2" d="m117.77,102.3c1.84-2.84,3.4-5.9,4.65-9.14,2.52-6.53-2.29-13.56-9.29-13.56h-.01c-3.97,0-7.6,2.32-9.19,5.96-.3.69-.63,1.36-.99,2.03,5.93,3.78,10.99,8.78,14.83,14.72Z"/>
  <path class="cls-2" d="m32.23,102.3c3.85-5.94,8.9-10.94,14.84-14.73-.35-.66-.68-1.33-.98-2.01-1.58-3.6-5.1-5.96-9.04-5.96h-.18c-7,0-11.81,7.03-9.29,13.56,1.25,3.24,2.81,6.3,4.65,9.14Z"/>
  <path class="cls-1" d="m27.58,111.44c1.25-3.24,2.81-6.3,4.65-9.14,3.85-5.94,8.9-10.94,14.84-14.73,7.98-5.09,17.56-7.98,27.93-7.98s19.97,2.89,27.95,7.99c5.93,3.78,10.99,8.78,14.83,14.72,1.84,2.84,3.4,5.9,4.65,9.14,2.52,6.54-2.29,13.56-9.29,13.56h-.01c-3.97,0-7.6-2.32-9.19-5.96-.3-.69-.63-1.36-.99-2.03-3.72-6.99-10.28-12.32-18.31-14.72-3.03-.91-6.26-1.39-9.63-1.39s-6.55.48-9.56,1.39c-8,2.39-14.61,7.74-18.37,14.73-.35.66-.68,1.33-.98,2.01-1.58,3.61-5.1,5.96-9.04,5.96h-.18c-7,0-11.81-7.02-9.29-13.56Z"/>
</svg>