<?xml version="1.0" encoding="UTF-8"?>
<svg id="Layer_1" data-name="Layer 1" xmlns="http://www.w3.org/2000/svg" viewBox="0 0 150 150">
  <defs>
    <style>
      .cls-1 {
        fill: #efbdd8;
      }

      .cls-2 {
        fill: #f1f1f1;
      }
    </style>
  </defs>
  <path class="cls-1" d="m65.54,75.76c0-5.24,4.22-9.46,9.46-9.46s9.46,4.22,9.46,9.46-4.22,9.46-9.46,9.46-9.46-4.37-9.46-9.46Z"/>
  <g>
    <path class="cls-2" d="m67.1,115.86v.23c0,5.76-5.4,10.04-11,8.64-13.44-3.35-24.21-12.8-29.14-25.62-2.13-5.53,1.94-11.48,7.86-11.48h0c3.36,0,6.44,1.96,7.78,5.05,3.11,7.14,9.59,12.55,17.64,14.53,4,.98,6.85,4.53,6.85,8.66Z"/>
    <path class="cls-2" d="m82.9,115.86v.23c0,5.76,5.4,10.04,11,8.64,13.44-3.35,24.21-12.8,29.14-25.62,2.13-5.53-1.94-11.48-7.86-11.48h0c-3.36,0-6.44,1.96-7.78,5.05-3.11,7.14-9.59,12.55-17.64,14.53-4,.98-6.85,4.53-6.85,8.66Z"/>
  </g>
  <g>
    <path class="cls-2" d="m67.1,34.14v-.23c0-5.76-5.4-10.04-11-8.64-13.44,3.35-24.21,12.8-29.14,25.62-2.13,5.53,1.94,11.48,7.86,11.48h0c3.36,0,6.44-1.96,7.78-5.05,3.11-7.14,9.59-12.55,17.64-14.53,4-.98,6.85-4.53,6.85-8.66Z"/>
    <path class="cls-2" d="m82.9,34.14v-.23c0-5.76,5.4-10.04,11-8.64,13.44,3.35,24.21,12.8,29.14,25.62,2.13,5.53-1.94,11.48-7.86,11.48h0c-3.36,0-6.44-1.96-7.78-5.05-3.11-7.14-9.59-12.55-17.64-14.53-4-.98-6.85-4.53-6.85-8.66Z"/>
  </g>
</svg>