<?xml version="1.0" encoding="UTF-8"?>
<svg id="Layer_1" data-name="Layer 1" xmlns="http://www.w3.org/2000/svg" viewBox="0 0 150 150">
  <defs>
    <style>
      .cls-1 {
        fill: #efbdd8;
      }

      .cls-2 {
        fill: #f1f1f1;
      }
    </style>
  </defs>
  <path class="cls-1" d="m66.56,73.76c0-4.67,3.77-8.44,8.44-8.44s8.44,3.76,8.44,8.44-3.77,8.44-8.44,8.44-8.44-3.89-8.44-8.44Z"/>
  <path class="cls-2" d="m109.86,83.48c6.4,0,10.79,6.43,8.49,12.4-6.72,17.46-23.44,29.12-43.35,29.12s-36.63-11.66-43.35-29.12c-2.3-5.98,2.09-12.4,8.49-12.4h0c3.63,0,6.95,2.12,8.4,5.45,4.27,9.8,14.41,16.58,26.45,16.58s22.12-6.78,26.43-16.58c1.45-3.29,4.67-5.45,8.27-5.45h.17Z"/>
  <path class="cls-2" d="m109.86,66.52c6.4,0,10.79-6.43,8.49-12.4-6.72-17.46-23.44-29.12-43.35-29.12s-36.63,11.66-43.35,29.12c-2.3,5.98,2.09,12.4,8.49,12.4h0c3.63,0,6.95-2.12,8.4-5.45,4.27-9.8,14.41-16.58,26.45-16.58s22.12,6.78,26.43,16.58c1.45,3.29,4.67,5.45,8.27,5.45h.17Z"/>
</svg>