<?xml version="1.0" encoding="UTF-8"?>
<svg id="Layer_1" data-name="Layer 1" xmlns="http://www.w3.org/2000/svg" viewBox="0 0 150 150">
  <defs>
    <style>
      .cls-1 {
        fill: #efbdd8;
      }

      .cls-2 {
        fill: #f1f1f1;
      }
    </style>
  </defs>
  <path class="cls-2" d="m91.7,112.56c-5.22-1.31-9.43-4.81-11.49-9.43-.32-.72-.81-1.31-1.35-1.84-.11-.11-.23-.21-.35-.31-.22-.18-.45-.35-.69-.49-.21-.13-.44-.22-.67-.32-.21-.09-.42-.19-.64-.25-.38-.11-.79-.16-1.21-.18-.09,0-.17-.04-.25-.04h0s-.02,0-.02,0-.02,0-.02,0h-.1c-.27,0-.53.08-.8.12-.17.03-.34.03-.5.07-1.64.41-3.04,1.53-3.74,3.13-2.63,5.98-8.85,10.11-16.11,10.11s-13.53-4.13-16.13-10.11c-.88-2.03-2.91-3.32-5.12-3.32h0c-3.9,0-6.58,3.92-5.18,7.56,4.1,10.65,14.29,17.76,26.44,17.76,8.54,0,16.07-3.57,21.24-9.36,3.64,4.1,8.48,7.07,14.01,8.46,3.72.94,7.31-1.94,7.31-5.77h0c0-2.76-1.91-5.11-4.59-5.78Z"/>
  <path class="cls-1" d="m113.13,70.41c7,0,11.81-7.03,9.29-13.56-7.35-19.1-25.64-31.85-47.42-31.85s-40.07,12.75-47.42,31.85c-2.52,6.54,2.29,13.56,9.29,13.56h0c3.97,0,7.6-2.32,9.19-5.96,4.67-10.72,15.76-18.13,28.93-18.13s24.19,7.41,28.9,18.13c1.58,3.6,5.11,5.96,9.04,5.96h.18Z"/>
</svg>